<svg width="48" height="49" viewBox="0 0 48 49" fill="none" xmlns="http://www.w3.org/2000/svg">
<g id="thumb-up">
<path id="Vector" d="M28 20.5947H37.528C38.2097 20.5947 38.8801 20.769 39.4756 21.101C40.0711 21.4329 40.5718 21.9116 40.9303 22.4915C41.2887 23.0713 41.493 23.7332 41.5238 24.4143C41.5546 25.0953 41.4107 25.7729 41.106 26.3827L34.106 40.3827C33.7737 41.0477 33.2628 41.6069 32.6304 41.9976C31.998 42.3883 31.2693 42.5951 30.526 42.5947H22.492C22.166 42.5947 21.84 42.5547 21.522 42.4747L14 40.5947M28 20.5947V10.5947C28 9.53386 27.5786 8.51644 26.8284 7.7663C26.0783 7.01615 25.0609 6.59473 24 6.59473H23.81C22.81 6.59473 22 7.40473 22 8.40473C22 9.83273 21.578 11.2287 20.784 12.4167L14 22.5947V40.5947M28 20.5947H24M14 40.5947H10C8.93913 40.5947 7.92172 40.1733 7.17157 39.4232C6.42143 38.673 6 37.6556 6 36.5947V24.5947C6 23.5339 6.42143 22.5164 7.17157 21.7663C7.92172 21.0162 8.93913 20.5947 10 20.5947H15" stroke="#444444" stroke-linecap="round" stroke-linejoin="round"/>
</g>
</svg>
