<svg width="49" height="49" viewBox="0 0 49 49" fill="none" xmlns="http://www.w3.org/2000/svg">
<g id="message-chat-01">
<path id="Icon" d="M10.9005 22.5947C10.9005 13.7582 18.0634 6.59473 26.8992 6.59473C35.735 6.59473 42.8978 13.7582 42.8978 22.5947C42.8978 24.8948 42.4126 27.0815 41.5388 29.058L42.9009 38.5932L34.73 36.5503C32.4153 37.8522 29.744 38.5947 26.8992 38.5947M6.90277 32.5947C6.90277 34.0323 7.20605 35.3989 7.75209 36.6343L6.90088 42.5938L12.0072 41.317C13.4537 42.1306 15.1232 42.5947 16.901 42.5947C22.4228 42.5947 26.8992 38.1176 26.8992 32.5947C26.8992 27.0719 22.4228 22.5947 16.901 22.5947C11.3791 22.5947 6.90277 27.0719 6.90277 32.5947Z" stroke="#444444" stroke-linecap="round" stroke-linejoin="round"/>
</g>
</svg>
