<svg width="170" height="57" viewBox="0 0 170 57" fill="none" xmlns="http://www.w3.org/2000/svg">
<rect x="1" y="0.822266" width="168" height="55" rx="3.5" fill="white"/>
<path d="M39.456 33.8223V32.6863H41.184V33.8223H39.456ZM35.136 37.7903C34.2933 37.7903 33.5307 37.6356 32.848 37.3263C32.1653 37.0169 31.6267 36.5849 31.232 36.0303C30.8373 35.4756 30.64 34.8409 30.64 34.1263C30.64 33.9023 30.656 33.6089 30.688 33.2463C30.7307 32.8729 30.7787 32.4623 30.832 32.0143C30.896 31.5556 30.9653 31.0969 31.04 30.6383C31.1147 30.1689 31.184 29.7263 31.248 29.3103L32.48 29.5023C32.3627 30.2383 32.256 30.9209 32.16 31.5503C32.0747 32.1689 32.0053 32.7023 31.952 33.1503C31.9093 33.5876 31.888 33.9129 31.888 34.1263C31.888 34.6169 32.0213 35.0489 32.288 35.4223C32.5653 35.8063 32.9493 36.1049 33.44 36.3183C33.9307 36.5423 34.496 36.6543 35.136 36.6543C35.776 36.6543 36.3253 36.5529 36.784 36.3503C37.2427 36.1476 37.5947 35.8649 37.84 35.5023C38.0853 35.1396 38.208 34.7129 38.208 34.2223V22.3503H39.456V34.2223C39.456 34.9689 39.2587 35.6089 38.864 36.1423C38.48 36.6756 37.9627 37.0809 37.312 37.3583C36.6613 37.6463 35.936 37.7903 35.136 37.7903ZM41.184 33.8223V32.6863C41.3227 32.6863 41.408 32.7396 41.44 32.8463C41.4827 32.9423 41.504 33.0756 41.504 33.2463C41.504 33.4169 41.4827 33.5556 41.44 33.6623C41.408 33.7689 41.3227 33.8223 41.184 33.8223ZM41.1875 33.8223V32.6863H43.4915L42.9155 33.1503V25.8223H44.1635V33.8223H41.1875ZM41.1875 33.8223C41.0488 33.8223 40.9635 33.7689 40.9315 33.6623C40.8888 33.5556 40.8675 33.4169 40.8675 33.2463C40.8675 33.0756 40.8888 32.9423 40.9315 32.8463C40.9635 32.7396 41.0488 32.6863 41.1875 32.6863V33.8223ZM42.9155 36.7023V35.2623H44.1635V36.7023H42.9155ZM46.9891 33.8223V22.3503H48.2211V33.8223H46.9891ZM58.6576 33.8223C57.0683 33.8223 55.879 33.5449 55.0896 32.9903C54.3003 32.4356 53.9056 31.5769 53.9056 30.4143C53.9056 30.1583 53.9216 29.8809 53.9536 29.5823C53.9963 29.2836 54.0443 28.9956 54.0976 28.7183C54.151 28.4303 54.199 28.1849 54.2416 27.9823C54.2843 27.7689 54.311 27.6249 54.3216 27.5503L55.5376 27.7743C55.5056 27.9449 55.4576 28.1796 55.3936 28.4783C55.3403 28.7769 55.287 29.0969 55.2336 29.4383C55.1803 29.7796 55.1536 30.1049 55.1536 30.4143C55.1536 30.9476 55.2656 31.3849 55.4896 31.7263C55.7136 32.0569 56.0816 32.3023 56.5936 32.4623C57.1056 32.6116 57.7936 32.6863 58.6576 32.6863H63.3616V25.8223H64.6096V33.8223H58.6576ZM58.6416 36.7023V35.2623H59.8896V36.7023H58.6416ZM68.6743 33.8223V32.6863H70.6263V33.8223H68.6743ZM67.4423 33.8223V22.3503H68.6743V33.8223H67.4423ZM70.6263 33.8223V32.6863C70.7649 32.6863 70.8503 32.7396 70.8823 32.8463C70.9249 32.9423 70.9463 33.0756 70.9463 33.2463C70.9463 33.4169 70.9249 33.5556 70.8823 33.6623C70.8503 33.7689 70.7649 33.8223 70.6263 33.8223ZM82.657 33.8223V32.6863H84.385V33.8223H82.657ZM79.041 33.8223C78.6783 33.8223 78.321 33.7529 77.969 33.6143C77.6277 33.4756 77.297 33.2569 76.977 32.9583L77.793 32.1103C78.0383 32.3129 78.257 32.4623 78.449 32.5583C78.641 32.6436 78.8383 32.6863 79.041 32.6863H81.889L81.409 33.1983V29.3743C81.409 29.1823 81.3877 28.9103 81.345 28.5583C81.313 28.2063 81.2597 27.8116 81.185 27.3743C81.121 26.9263 81.041 26.4783 80.945 26.0303L82.161 25.8223C82.2357 26.1956 82.3103 26.6116 82.385 27.0703C82.4597 27.5289 82.5237 27.9663 82.577 28.3823C82.6303 28.7876 82.657 29.1183 82.657 29.3743V33.8223H79.041ZM70.625 33.8223V32.6863H72.961L72.641 33.0063V27.4223H73.873V33.8223H70.625ZM73.873 33.8223V32.6863H75.681C76.0437 32.6863 76.3157 32.6329 76.497 32.5263C76.689 32.4196 76.8223 32.2063 76.897 31.8863C76.9717 31.5663 77.009 31.0969 77.009 30.4783V26.6223H78.257V30.4783C78.257 31.3103 78.1663 31.9716 77.985 32.4623C77.8143 32.9529 77.5423 33.3049 77.169 33.5183C76.7957 33.7209 76.2997 33.8223 75.681 33.8223H73.873ZM70.625 33.8223C70.4863 33.8223 70.401 33.7689 70.369 33.6623C70.3263 33.5556 70.305 33.4169 70.305 33.2463C70.305 33.0756 70.3263 32.9423 70.369 32.8463C70.401 32.7396 70.4863 32.6863 70.625 32.6863V33.8223ZM84.385 33.8223V32.6863C84.5237 32.6863 84.609 32.7396 84.641 32.8463C84.6837 32.9423 84.705 33.0756 84.705 33.2463C84.705 33.4169 84.6837 33.5556 84.641 33.6623C84.609 33.7689 84.5237 33.8223 84.385 33.8223ZM84.3906 33.8223V32.6863H91.4466L91.0626 33.0223V29.0543C91.0626 28.3609 90.844 27.8436 90.4066 27.5023C89.98 27.1503 89.324 26.9743 88.4386 26.9743C88.1613 26.9743 87.7613 27.0009 87.2386 27.0543C86.716 27.0969 86.1666 27.1609 85.5906 27.2463L85.4466 26.2223C85.884 26.1156 86.364 26.0249 86.8866 25.9503C87.4093 25.8649 87.916 25.8223 88.4066 25.8223C89.2173 25.8223 89.9106 25.9503 90.4866 26.2063C91.0733 26.4516 91.5213 26.8143 91.8306 27.2943C92.1506 27.7743 92.3106 28.3609 92.3106 29.0543V33.8223H84.3906ZM84.3906 33.8223C84.252 33.8223 84.1666 33.7689 84.1346 33.6623C84.092 33.5556 84.0706 33.4169 84.0706 33.2463C84.0706 33.0756 84.092 32.9423 84.1346 32.8463C84.1666 32.7396 84.252 32.6863 84.3906 32.6863V33.8223Z" fill="#171717"/>
<path d="M140 27.8223C140 35.5503 133.735 41.8223 126 41.8223C118.265 41.8223 112 35.5503 112 27.8223C112 20.0873 118.265 13.8223 126 13.8223C133.735 13.8223 140 20.0873 140 27.8223Z" fill="#171717"/>
<path d="M132.562 24.2797C132.486 24.3242 130.667 25.2647 130.667 27.3501C130.753 29.7284 132.962 30.5624 133 30.5624C132.962 30.607 132.666 31.6985 131.791 32.8428C131.096 33.8285 130.324 34.8223 129.153 34.8223C128.038 34.8223 127.638 34.1653 126.353 34.1653C124.972 34.1653 124.581 34.8223 123.524 34.8223C122.353 34.8223 121.524 33.7752 120.791 32.7988C119.839 31.5209 119.03 29.5154 119.001 27.5897C118.982 26.5693 119.192 25.5663 119.725 24.7143C120.477 23.5249 121.82 22.7175 123.286 22.6909C124.41 22.6556 125.41 23.4097 126.096 23.4097C126.753 23.4097 127.981 22.6909 129.371 22.6909C129.971 22.6915 131.571 22.8599 132.562 24.2797ZM126.001 22.4871C125.801 21.5553 126.353 20.6235 126.867 20.029C127.524 19.3102 128.562 18.8223 129.457 18.8223C129.514 19.7541 129.152 20.668 128.505 21.3336C127.924 22.0525 126.924 22.5936 126.001 22.4871Z" fill="white"/>
<rect x="1" y="0.822266" width="168" height="55" rx="3.5" stroke="#444444"/>
</svg>
