<svg width="51" height="51" viewBox="0 0 51 51" fill="none" xmlns="http://www.w3.org/2000/svg">
<rect x="0.450195" y="0.504639" width="50" height="50" rx="25" fill="#DF3C14"/>
<path d="M34.1135 32.0484C34.1135 32.0484 32.9549 33.1864 32.6709 33.52C32.2084 34.0136 31.6634 34.2467 30.949 34.2467C30.8803 34.2467 30.807 34.2467 30.7383 34.2421C29.3781 34.1553 28.1141 33.6251 27.1661 33.1727C24.574 31.9204 22.2979 30.1425 20.4065 27.8893C18.8448 26.0109 17.8006 24.2742 17.1091 22.4095C16.6832 21.2715 16.5275 20.3848 16.5962 19.5485C16.642 19.0137 16.8481 18.5704 17.2282 18.1911L18.7899 16.6326C19.0143 16.4224 19.2524 16.3081 19.486 16.3081C19.7745 16.3081 20.0081 16.4818 20.1546 16.628C20.1592 16.6326 20.1638 16.6372 20.1683 16.6417C20.4477 16.9023 20.7133 17.1719 20.9927 17.4598C21.1347 17.6061 21.2812 17.7523 21.4278 17.9032L22.678 19.1509C23.1635 19.6353 23.1635 20.0832 22.678 20.5677C22.5452 20.7002 22.417 20.8327 22.2842 20.9607C21.8995 21.3538 22.2017 21.0522 21.8032 21.4087C21.7941 21.4178 21.7849 21.4224 21.7803 21.4315C21.3865 21.8246 21.4598 22.2085 21.5422 22.469C21.5468 22.4827 21.5514 22.4964 21.5559 22.5101C21.8811 23.2962 22.3391 24.0366 23.0352 24.9187L23.0398 24.9233C24.3037 26.4772 25.6364 27.6883 27.1065 28.6161C27.2943 28.7349 27.4866 28.8309 27.6698 28.9223C27.8347 29.0046 27.9904 29.0823 28.1232 29.1645C28.1415 29.1737 28.1599 29.1874 28.1782 29.1965C28.3339 29.2742 28.4804 29.3108 28.6316 29.3108C29.0117 29.3108 29.2498 29.0731 29.3277 28.9954L30.2254 28.0996C30.3811 27.9442 30.6284 27.7568 30.9169 27.7568C31.2008 27.7568 31.4344 27.9351 31.5764 28.0904C31.581 28.095 31.581 28.095 31.5855 28.0996L34.1089 30.6178C34.5807 31.084 34.1135 32.0484 34.1135 32.0484Z" stroke="#FDFDFD" stroke-linecap="round" stroke-linejoin="round"/>
</svg>
