<svg width="51" height="51" viewBox="0 0 51 51" fill="none" xmlns="http://www.w3.org/2000/svg">
<rect x="0.450195" y="0.459473" width="50" height="50" rx="25" fill="#DF3C14"/>
<path d="M16.4502 23.3163C16.4502 26.381 16.4502 31.1639 16.4502 31.1639C16.4502 31.1639 16.4502 31.1639 16.4502 31.1639C16.4502 32.3559 17.4576 33.3223 18.7002 33.3223H32.2002C33.4428 33.3223 34.4502 32.3559 34.4502 31.1639V22.8097M16.4502 23.3163C16.4502 22.9442 16.65 22.5984 16.9789 22.4012L25.4502 17.3223L33.8767 21.8691C34.231 22.0603 34.4502 22.4198 34.4502 22.8097M16.4502 23.3163C16.9002 23.3163 25.4502 28.6536 25.4502 28.6536L34.4502 22.8097" stroke="#FDFDFD" stroke-linecap="round" stroke-linejoin="round"/>
</svg>
