<svg width="51" height="51" viewBox="0 0 51 51" fill="none" xmlns="http://www.w3.org/2000/svg">
<rect x="0.450195" y="0.414795" width="50" height="50" rx="25" fill="#DF3C14"/>
<path d="M30.8678 27.2366L27.8678 25.7366C27.8088 25.7072 27.743 25.6939 27.6771 25.698C27.6113 25.7021 27.5477 25.7235 27.4928 25.7601L25.9328 26.8007C25.0753 26.3895 24.3837 25.6979 23.9725 24.8404L25.0131 23.2804C25.0497 23.2255 25.0711 23.1619 25.0752 23.096C25.0793 23.0302 25.066 22.9644 25.0365 22.9054L23.5365 19.9054C23.5054 19.8428 23.4574 19.7901 23.398 19.7533C23.3385 19.7165 23.2699 19.6971 23.2 19.6973C22.3049 19.6973 21.4464 20.0528 20.8135 20.6858C20.1806 21.3187 19.825 22.1772 19.825 23.0723C19.8272 25.1602 20.6576 27.1619 22.134 28.6383C23.6104 30.1146 25.6121 30.945 27.7 30.9473C28.5951 30.9473 29.4535 30.5917 30.0865 29.9588C30.7194 29.3258 31.075 28.4674 31.075 27.5723C31.075 27.5026 31.0557 27.4343 31.0191 27.375C30.9825 27.3157 30.9301 27.2678 30.8678 27.2366ZM27.7 30.1973C25.8109 30.1953 23.9998 29.444 22.664 28.1082C21.3283 26.7724 20.577 24.9613 20.575 23.0723C20.5749 22.4153 20.8211 21.7821 21.2651 21.2979C21.7091 20.8136 22.3186 20.5134 22.9731 20.4566L24.2669 23.0451L23.2356 24.5957C23.2012 24.6469 23.18 24.7057 23.1738 24.767C23.1676 24.8283 23.1766 24.8903 23.2 24.9473C23.6982 26.1318 24.6405 27.074 25.825 27.5723C25.882 27.596 25.9441 27.6052 26.0056 27.5992C26.0671 27.5931 26.1261 27.572 26.1775 27.5376L27.7281 26.5063L30.3165 27.8001C30.2595 28.4546 29.9591 29.064 29.4747 29.5078C28.9903 29.9516 28.357 30.1976 27.7 30.1973ZM25.45 15.9473C23.8179 15.947 22.214 16.3727 20.7969 17.1825C19.3798 17.9923 18.1987 19.1579 17.3704 20.5642C16.5421 21.9705 16.0952 23.5687 16.074 25.2006C16.0529 26.8326 16.4581 28.4418 17.2497 29.8691L16.134 33.2151C16.0679 33.4133 16.0583 33.626 16.1063 33.8294C16.1543 34.0327 16.258 34.2187 16.4058 34.3665C16.5535 34.5142 16.7395 34.6179 16.9429 34.6659C17.1462 34.7139 17.359 34.7043 17.5572 34.6382L20.9031 33.5226C22.1547 34.2161 23.5485 34.6139 24.9776 34.6855C26.4067 34.7571 27.8332 34.5007 29.1479 33.9358C30.4626 33.3709 31.6305 32.5126 32.5622 31.4265C33.4939 30.3405 34.1646 29.0556 34.523 27.6703C34.8814 26.2851 34.9179 24.8361 34.6298 23.4345C34.3417 22.0329 33.7365 20.7159 32.8608 19.5843C31.985 18.4527 30.8618 17.5366 29.5772 16.9062C28.2927 16.2758 26.8809 15.9477 25.45 15.9473ZM25.45 33.9473C23.9335 33.9477 22.4438 33.5484 21.1309 32.7895C21.0739 32.7566 21.0093 32.7392 20.9434 32.7388C20.9029 32.7388 20.8627 32.7455 20.8244 32.7585L17.32 33.9266C17.2539 33.9487 17.183 33.9519 17.1152 33.9359C17.0474 33.9199 16.9854 33.8853 16.9362 33.8361C16.8869 33.7868 16.8524 33.7248 16.8364 33.657C16.8204 33.5892 16.8236 33.5183 16.8456 33.4523L18.0137 29.9479C18.0306 29.8975 18.0365 29.8441 18.0312 29.7913C18.0259 29.7384 18.0094 29.6873 17.9828 29.6413C17.0319 27.9977 16.65 26.0861 16.8964 24.2032C17.1427 22.3204 18.0036 20.5714 19.3454 19.2278C20.6872 17.8841 22.4349 17.0208 24.3174 16.7717C26.1999 16.5227 28.112 16.9019 29.757 17.8505C31.402 18.7991 32.688 20.2641 33.4155 22.0181C34.1429 23.7722 34.2712 25.7173 33.7804 27.5517C33.2895 29.386 32.2071 31.0072 30.7008 32.1636C29.1946 33.3199 27.3489 33.9469 25.45 33.9473Z" fill="#FDFDFD"/>
</svg>
