<svg width="1159" height="257" viewBox="0 0 1159 257" fill="none" xmlns="http://www.w3.org/2000/svg">
<path d="M0.450195 40.2985C0.450195 31.5912 7.41318 24.4824 16.1187 24.302L1142.12 0.965187C1151.08 0.779396 1158.45 7.99543 1158.45 16.9618V240.627C1158.45 249.463 1151.29 256.627 1142.45 256.627H16.4502C7.61367 256.627 0.450195 249.463 0.450195 240.627V40.2985Z" fill="#DF3C14"/>
<mask id="mask0_86_9134" style="mask-type:alpha" maskUnits="userSpaceOnUse" x="0" y="0" width="1159" height="257">
<path d="M0.450195 40.2985C0.450195 31.5912 7.41318 24.4824 16.1187 24.302L1142.12 0.965187C1151.08 0.779396 1158.45 7.99543 1158.45 16.9618V240.627C1158.45 249.463 1151.29 256.627 1142.45 256.627H16.4502C7.61367 256.627 0.450195 249.463 0.450195 240.627V40.2985Z" fill="#DF3C14"/>
</mask>
<g mask="url(#mask0_86_9134)">
<g opacity="0.05">
<path d="M276.585 -50.6294C277.257 -29.9368 262.908 10.8233 200.136 8.32309C121.671 5.19785 115.906 35.273 113.703 74.9746C111.5 114.676 77.8632 135.313 37.5395 133.707C-2.78422 132.101 -30.3831 142.338 -32.9191 188.04" stroke="white" stroke-width="2"/>
<path d="M312.276 -16.3462C312.948 4.34638 298.599 45.1065 235.827 42.6063C157.361 39.4811 151.597 69.5562 149.394 109.258C147.191 148.959 113.554 169.596 73.2299 167.99C32.9062 166.384 5.30736 176.621 2.77136 222.323" stroke="white" stroke-width="2"/>
<path d="M349.672 21.5605C350.344 42.2531 335.995 83.0132 273.223 80.513C194.758 77.3878 188.993 107.463 186.79 147.165C184.587 186.866 150.95 207.503 110.626 205.897C70.3027 204.291 42.7038 214.528 40.1678 260.23" stroke="white" stroke-width="2"/>
<path d="M250.848 -89.2815C251.52 -68.5889 237.172 -27.8288 174.399 -30.329C95.934 -33.4543 90.1694 -3.37917 87.9664 36.3225C85.7633 76.0241 52.1264 96.661 11.8026 95.055C-28.5211 93.4489 -56.12 103.686 -58.656 149.388" stroke="white" stroke-width="2"/>
<path d="M220.302 -125.111C220.974 -104.419 206.625 -63.6587 143.853 -66.1588C65.3877 -69.2841 59.623 -39.209 57.42 0.492663C55.2169 40.1943 21.58 60.8313 -18.7437 59.2252C-59.0674 57.6191 -86.6663 67.8563 -89.2023 113.558" stroke="white" stroke-width="2"/>
</g>
<g opacity="0.05">
<path d="M1167.09 21.0387C1170.66 43.8067 1160.55 90.7135 1091.48 96.1964C1005.13 103.05 1002.95 137.027 1005.99 181.169C1009.03 225.312 975.036 252.525 930.664 256.047C886.292 259.569 857.479 274.501 860.978 325.315" stroke="white" stroke-width="2"/>
<path d="M1210.87 54.2184C1214.45 76.9864 1204.34 123.893 1135.26 129.376C1048.92 136.23 1046.74 170.207 1049.78 214.349C1052.82 258.492 1018.82 285.705 974.452 289.227C930.08 292.749 901.267 307.681 904.767 358.495" stroke="white" stroke-width="2"/>
<path d="M1257.03 91.1781C1260.6 113.946 1250.49 160.853 1181.42 166.336C1095.07 173.189 1092.89 207.166 1095.93 251.309C1098.97 295.451 1064.98 322.664 1020.6 326.186C976.232 329.708 947.419 344.641 950.919 395.455" stroke="white" stroke-width="2"/>
<path d="M1133.6 -18.2758C1137.18 4.49228 1127.06 51.3991 1057.99 56.882C971.647 63.7355 969.465 97.7126 972.505 141.855C975.545 185.998 941.55 213.21 897.178 216.732C852.805 220.254 823.993 235.187 827.492 286.001" stroke="white" stroke-width="2"/>
<path d="M1095.23 -53.84C1098.81 -31.0719 1088.7 15.8349 1019.62 21.3178C933.28 28.1713 931.098 62.1484 934.138 106.291C937.178 150.433 903.182 177.646 858.81 181.168C814.438 184.69 785.626 199.623 789.125 250.437" stroke="white" stroke-width="2"/>
</g>
</g>
</svg>
