<svg width="22" height="22" viewBox="0 0 22 22" fill="none" xmlns="http://www.w3.org/2000/svg">
<g id="FB">
<path id="Vector" d="M5.48145 2.99341C4.16029 2.99341 3.0752 4.07851 3.0752 5.39966V16.3372C3.0752 17.6583 4.16029 18.7434 5.48145 18.7434H16.4189C17.7401 18.7434 18.8252 17.6583 18.8252 16.3372V5.39966C18.8252 4.07851 17.7401 2.99341 16.4189 2.99341H5.48145ZM5.48145 4.30591H16.4189C17.0307 4.30591 17.5127 4.78793 17.5127 5.39966V16.3372C17.5127 16.9489 17.0307 17.4309 16.4189 17.4309H13.5752V13.0559H15.1611C15.3816 13.0559 15.5681 12.891 15.5952 12.6722L15.7593 11.3597C15.775 11.2355 15.7356 11.1107 15.6525 11.0162C15.5698 10.9222 15.4508 10.8684 15.3252 10.8684H13.5752V9.33716C13.5752 8.8546 13.9676 8.46216 14.4502 8.46216H15.3252C15.5667 8.46216 15.7627 8.2666 15.7627 8.02466V6.5481C15.7627 6.32147 15.5898 6.13243 15.3645 6.1123C15.3387 6.11012 14.7214 6.05591 13.9401 6.05591C12.012 6.05591 10.9502 7.20049 10.9502 9.27905V10.8684H9.2002C8.9587 10.8684 8.7627 11.064 8.7627 11.3059V12.6184C8.7627 12.8603 8.9587 13.0559 9.2002 13.0559H10.9502V17.4309H5.48145C4.86972 17.4309 4.3877 16.9489 4.3877 16.3372V5.39966C4.3877 4.78793 4.86972 4.30591 5.48145 4.30591Z" fill="#F6F6F6"/>
</g>
</svg>
