<svg width="411" height="257" viewBox="0 0 411 257" fill="none" xmlns="http://www.w3.org/2000/svg">
<g opacity="0.05">
<path d="M276.585 -50.6294C277.257 -29.9368 262.908 10.8233 200.136 8.32309C121.671 5.19785 115.906 35.273 113.703 74.9746C111.5 114.676 77.8632 135.313 37.5395 133.707C-2.78422 132.101 -30.3831 142.338 -32.9191 188.04" stroke="white" stroke-width="2"/>
<path d="M312.276 -16.3462C312.948 4.34638 298.599 45.1065 235.827 42.6063C157.361 39.4811 151.597 69.5562 149.394 109.258C147.191 148.959 113.554 169.596 73.2299 167.99C32.9062 166.384 5.30736 176.621 2.77136 222.323" stroke="white" stroke-width="2"/>
<path d="M349.672 21.5605C350.344 42.2531 335.995 83.0132 273.223 80.513C194.758 77.3878 188.993 107.463 186.79 147.165C184.587 186.866 150.95 207.503 110.626 205.897C70.3027 204.291 42.7038 214.528 40.1678 260.23" stroke="white" stroke-width="2"/>
<path d="M250.848 -89.2815C251.52 -68.5889 237.172 -27.8288 174.399 -30.329C95.934 -33.4543 90.1694 -3.37917 87.9664 36.3225C85.7633 76.0241 52.1264 96.661 11.8026 95.055C-28.5211 93.4489 -56.12 103.686 -58.656 149.388" stroke="white" stroke-width="2"/>
<path d="M220.302 -125.111C220.974 -104.419 206.625 -63.6587 143.853 -66.1588C65.3877 -69.2841 59.623 -39.209 57.42 0.492663C55.2169 40.1943 21.58 60.8313 -18.7437 59.2252C-59.0674 57.6191 -86.6663 67.8563 -89.2023 113.558" stroke="white" stroke-width="2"/>
</g>
</svg>
