<svg width="312" height="289" viewBox="0 0 312 289" fill="none" xmlns="http://www.w3.org/2000/svg">
<g opacity="0.2">
<mask id="mask0_86_8906" style="mask-type:luminance" maskUnits="userSpaceOnUse" x="15" y="16" width="282" height="257">
<path d="M16.153 161.952C24.8378 231.916 94.3866 280.874 171.495 271.302C248.603 261.731 304.071 197.254 295.386 127.29C286.701 57.3257 217.152 8.36769 140.044 17.9393C62.9362 27.5108 7.46817 91.9874 16.153 161.952Z" fill="white"/>
</mask>
<g mask="url(#mask0_86_8906)">
<path d="M121.608 359.863L368.911 72.395L364.353 69.1863L117.05 356.654L121.608 359.863Z" fill="url(#paint0_linear_86_8906)"/>
<path d="M111.728 352.904L359.031 65.436L354.473 62.2273L107.17 349.695L111.728 352.904Z" fill="url(#paint1_linear_86_8906)"/>
<path d="M101.849 345.955L349.152 58.4868L344.594 55.2781L97.2907 342.746L101.849 345.955Z" fill="url(#paint2_linear_86_8906)"/>
<path d="M91.9686 338.996L339.272 51.5283L334.714 48.3196L87.4103 335.788L91.9686 338.996Z" fill="url(#paint3_linear_86_8906)"/>
<path d="M82.0897 332.047L329.393 44.5791L324.835 41.3704L77.5314 328.838L82.0897 332.047Z" fill="url(#paint4_linear_86_8906)"/>
<path d="M72.2098 325.089L319.513 37.6206L314.955 34.4119L67.6516 321.88L72.2098 325.089Z" fill="url(#paint5_linear_86_8906)"/>
<path d="M62.3309 318.139L309.634 30.6714L305.076 27.4627L57.7726 314.931L62.3309 318.139Z" fill="url(#paint6_linear_86_8906)"/>
<path d="M52.4505 311.18L299.754 23.7124L295.196 20.5037L47.8923 307.972L52.4505 311.18Z" fill="url(#paint7_linear_86_8906)"/>
<path d="M42.5706 304.222L289.874 16.7539L285.316 13.5452L38.0124 301.013L42.5706 304.222Z" fill="url(#paint8_linear_86_8906)"/>
<path d="M32.6912 297.273L279.995 9.80469L275.436 6.59599L28.133 294.064L32.6912 297.273Z" fill="url(#paint9_linear_86_8906)"/>
<path d="M22.8113 290.314L270.115 2.84619L265.557 -0.362508L18.2531 287.106L22.8113 290.314Z" fill="url(#paint10_linear_86_8906)"/>
<path d="M12.9324 283.365L260.236 -4.10303L255.678 -7.31173L8.3742 280.156L12.9324 283.365Z" fill="url(#paint11_linear_86_8906)"/>
<path d="M3.05207 276.406L250.355 -11.062L245.797 -14.2707L-1.50614 273.197L3.05207 276.406Z" fill="url(#paint12_linear_86_8906)"/>
<path d="M-5.7292 270.229L241.574 -17.2388L237.016 -20.4475L-10.2874 267.021L-5.7292 270.229Z" fill="url(#paint13_linear_86_8906)"/>
<path d="M-15.6091 263.27L231.694 -24.1978L227.136 -27.4065L-20.1673 260.062L-15.6091 263.27Z" fill="url(#paint14_linear_86_8906)"/>
<path d="M-25.4894 256.312L221.814 -31.1562L217.256 -34.3649L-30.0477 253.103L-25.4894 256.312Z" fill="url(#paint15_linear_86_8906)"/>
<path d="M-35.3684 249.363L211.935 -38.1055L207.377 -41.3142L-39.9266 246.154L-35.3684 249.363Z" fill="url(#paint16_linear_86_8906)"/>
<path d="M-45.2487 242.404L202.055 -45.064L197.496 -48.2727L-49.8069 239.195L-45.2487 242.404Z" fill="url(#paint17_linear_86_8906)"/>
<path d="M-55.1276 235.455L192.176 -52.0132L187.618 -55.2219L-59.6859 232.246L-55.1276 235.455Z" fill="url(#paint18_linear_86_8906)"/>
<path d="M-65.0075 228.496L182.296 -58.9722L177.738 -62.1809L-69.5657 225.287L-65.0075 228.496Z" fill="url(#paint19_linear_86_8906)"/>
<path d="M-74.8864 221.547L172.417 -65.9214L167.859 -69.1301L-79.4446 218.338L-74.8864 221.547Z" fill="url(#paint20_linear_86_8906)"/>
<path d="M-84.7668 214.588L162.537 -72.8799L157.978 -76.0886L-89.325 211.38L-84.7668 214.588Z" fill="url(#paint21_linear_86_8906)"/>
<path d="M-94.6472 207.63L152.656 -79.8384L148.098 -83.0471L-99.2054 204.421L-94.6472 207.63Z" fill="url(#paint22_linear_86_8906)"/>
<path d="M-104.526 200.68L142.777 -86.7876L138.219 -89.9963L-109.084 197.472L-104.526 200.68Z" fill="url(#paint23_linear_86_8906)"/>
<path d="M-114.406 193.722L132.897 -93.7466L128.339 -96.9553L-118.964 190.513L-114.406 193.722Z" fill="url(#paint24_linear_86_8906)"/>
<path d="M-124.285 186.772L123.019 -100.696L118.46 -103.904L-128.843 183.564L-124.285 186.772Z" fill="url(#paint25_linear_86_8906)"/>
</g>
</g>
<defs>
<linearGradient id="paint0_linear_86_8906" x1="366.632" y1="70.7907" x2="149.375" y2="379.422" gradientUnits="userSpaceOnUse">
<stop stop-opacity="0.1"/>
<stop offset="1" stop-color="#01113F" stop-opacity="0"/>
</linearGradient>
<linearGradient id="paint1_linear_86_8906" x1="356.752" y1="63.8317" x2="139.495" y2="372.463" gradientUnits="userSpaceOnUse">
<stop stop-opacity="0.1"/>
<stop offset="1" stop-color="#01113F" stop-opacity="0"/>
</linearGradient>
<linearGradient id="paint2_linear_86_8906" x1="346.873" y1="56.8825" x2="129.616" y2="365.514" gradientUnits="userSpaceOnUse">
<stop stop-opacity="0.1"/>
<stop offset="1" stop-color="#01113F" stop-opacity="0"/>
</linearGradient>
<linearGradient id="paint3_linear_86_8906" x1="337.001" y1="49.9298" x2="119.744" y2="358.561" gradientUnits="userSpaceOnUse">
<stop stop-opacity="0.1"/>
<stop offset="1" stop-color="#01113F" stop-opacity="0"/>
</linearGradient>
<linearGradient id="paint4_linear_86_8906" x1="327.114" y1="42.9747" x2="109.857" y2="351.606" gradientUnits="userSpaceOnUse">
<stop stop-opacity="0.1"/>
<stop offset="1" stop-color="#01113F" stop-opacity="0"/>
</linearGradient>
<linearGradient id="paint5_linear_86_8906" x1="317.242" y1="36.0221" x2="99.9855" y2="344.653" gradientUnits="userSpaceOnUse">
<stop stop-opacity="0.1"/>
<stop offset="1" stop-color="#01113F" stop-opacity="0"/>
</linearGradient>
<linearGradient id="paint6_linear_86_8906" x1="307.355" y1="29.067" x2="90.0983" y2="337.698" gradientUnits="userSpaceOnUse">
<stop stop-opacity="0.1"/>
<stop offset="1" stop-color="#01113F" stop-opacity="0"/>
</linearGradient>
<linearGradient id="paint7_linear_86_8906" x1="297.475" y1="22.1081" x2="80.2179" y2="330.739" gradientUnits="userSpaceOnUse">
<stop stop-opacity="0.1"/>
<stop offset="1" stop-color="#01113F" stop-opacity="0"/>
</linearGradient>
<linearGradient id="paint8_linear_86_8906" x1="287.595" y1="15.1496" x2="70.3381" y2="323.781" gradientUnits="userSpaceOnUse">
<stop stop-opacity="0.1"/>
<stop offset="1" stop-color="#01113F" stop-opacity="0"/>
</linearGradient>
<linearGradient id="paint9_linear_86_8906" x1="277.716" y1="8.20034" x2="60.4586" y2="316.832" gradientUnits="userSpaceOnUse">
<stop stop-opacity="0.1"/>
<stop offset="1" stop-color="#01113F" stop-opacity="0"/>
</linearGradient>
<linearGradient id="paint10_linear_86_8906" x1="267.844" y1="1.24765" x2="50.587" y2="309.879" gradientUnits="userSpaceOnUse">
<stop stop-opacity="0.1"/>
<stop offset="1" stop-color="#01113F" stop-opacity="0"/>
</linearGradient>
<linearGradient id="paint11_linear_86_8906" x1="257.957" y1="-5.70738" x2="40.6999" y2="302.924" gradientUnits="userSpaceOnUse">
<stop stop-opacity="0.1"/>
<stop offset="1" stop-color="#01113F" stop-opacity="0"/>
</linearGradient>
<linearGradient id="paint12_linear_86_8906" x1="248.085" y1="-12.6605" x2="30.8278" y2="295.971" gradientUnits="userSpaceOnUse">
<stop stop-opacity="0.1"/>
<stop offset="1" stop-color="#01113F" stop-opacity="0"/>
</linearGradient>
<linearGradient id="paint13_linear_86_8906" x1="239.295" y1="-18.8431" x2="22.0382" y2="289.788" gradientUnits="userSpaceOnUse">
<stop stop-opacity="0.1"/>
<stop offset="1" stop-color="#01113F" stop-opacity="0"/>
</linearGradient>
<linearGradient id="paint14_linear_86_8906" x1="229.415" y1="-25.8021" x2="12.1584" y2="282.829" gradientUnits="userSpaceOnUse">
<stop stop-opacity="0.1"/>
<stop offset="1" stop-color="#01113F" stop-opacity="0"/>
</linearGradient>
<linearGradient id="paint15_linear_86_8906" x1="219.535" y1="-32.7606" x2="2.278" y2="275.871" gradientUnits="userSpaceOnUse">
<stop stop-opacity="0.1"/>
<stop offset="1" stop-color="#01113F" stop-opacity="0"/>
</linearGradient>
<linearGradient id="paint16_linear_86_8906" x1="209.656" y1="-39.7098" x2="-7.60092" y2="268.921" gradientUnits="userSpaceOnUse">
<stop stop-opacity="0.1"/>
<stop offset="1" stop-color="#01113F" stop-opacity="0"/>
</linearGradient>
<linearGradient id="paint17_linear_86_8906" x1="199.784" y1="-46.6625" x2="-17.473" y2="261.969" gradientUnits="userSpaceOnUse">
<stop stop-opacity="0.1"/>
<stop offset="1" stop-color="#01113F" stop-opacity="0"/>
</linearGradient>
<linearGradient id="paint18_linear_86_8906" x1="189.897" y1="-53.6175" x2="-27.3602" y2="255.014" gradientUnits="userSpaceOnUse">
<stop stop-opacity="0.1"/>
<stop offset="1" stop-color="#01113F" stop-opacity="0"/>
</linearGradient>
<linearGradient id="paint19_linear_86_8906" x1="180.025" y1="-60.5707" x2="-37.2318" y2="248.061" gradientUnits="userSpaceOnUse">
<stop stop-opacity="0.1"/>
<stop offset="1" stop-color="#01113F" stop-opacity="0"/>
</linearGradient>
<linearGradient id="paint20_linear_86_8906" x1="170.138" y1="-67.5257" x2="-47.119" y2="241.105" gradientUnits="userSpaceOnUse">
<stop stop-opacity="0.1"/>
<stop offset="1" stop-color="#01113F" stop-opacity="0"/>
</linearGradient>
<linearGradient id="paint21_linear_86_8906" x1="160.258" y1="-74.4842" x2="-56.9994" y2="234.147" gradientUnits="userSpaceOnUse">
<stop stop-opacity="0.1"/>
<stop offset="1" stop-color="#01113F" stop-opacity="0"/>
</linearGradient>
<linearGradient id="paint22_linear_86_8906" x1="150.377" y1="-81.4427" x2="-66.8797" y2="227.188" gradientUnits="userSpaceOnUse">
<stop stop-opacity="0.1"/>
<stop offset="1" stop-color="#01113F" stop-opacity="0"/>
</linearGradient>
<linearGradient id="paint23_linear_86_8906" x1="140.498" y1="-88.392" x2="-76.7586" y2="220.239" gradientUnits="userSpaceOnUse">
<stop stop-opacity="0.1"/>
<stop offset="1" stop-color="#01113F" stop-opacity="0"/>
</linearGradient>
<linearGradient id="paint24_linear_86_8906" x1="130.627" y1="-95.3451" x2="-86.6303" y2="213.286" gradientUnits="userSpaceOnUse">
<stop stop-opacity="0.1"/>
<stop offset="1" stop-color="#01113F" stop-opacity="0"/>
</linearGradient>
<linearGradient id="paint25_linear_86_8906" x1="120.739" y1="-102.3" x2="-96.5174" y2="206.331" gradientUnits="userSpaceOnUse">
<stop stop-opacity="0.1"/>
<stop offset="1" stop-color="#01113F" stop-opacity="0"/>
</linearGradient>
</defs>
</svg>
