<svg width="21" height="22" viewBox="0 0 21 22" fill="none" xmlns="http://www.w3.org/2000/svg">
<g id="Insta">
<path id="Vector" d="M7.32536 2.55591C4.68635 2.55591 2.53369 4.8162 2.53369 7.58716V14.1497C2.53369 16.9202 4.68628 19.1809 7.32536 19.1809H13.5754C16.2141 19.1809 18.367 16.9203 18.367 14.1497V7.58716C18.367 4.81612 16.214 2.55591 13.5754 2.55591H7.32536ZM7.32536 3.86841H13.5754C15.5384 3.86841 17.117 5.52557 17.117 7.58716V14.1497C17.117 16.2107 15.5383 17.8684 13.5754 17.8684H7.32536C5.36194 17.8684 3.78369 16.2108 3.78369 14.1497V7.58716C3.78369 5.52549 5.36186 3.86841 7.32536 3.86841ZM14.617 5.61841C14.1566 5.61841 13.7837 6.00997 13.7837 6.49341C13.7837 6.97685 14.1566 7.36841 14.617 7.36841C15.0774 7.36841 15.4504 6.97685 15.4504 6.49341C15.4504 6.00997 15.0774 5.61841 14.617 5.61841ZM10.4504 6.49341C8.15668 6.49341 6.28369 8.46005 6.28369 10.8684C6.28369 13.2768 8.15668 15.2434 10.4504 15.2434C12.744 15.2434 14.617 13.2768 14.617 10.8684C14.617 8.46005 12.744 6.49341 10.4504 6.49341ZM10.4504 7.80591C12.0683 7.80591 13.367 9.16952 13.367 10.8684C13.367 12.5673 12.0683 13.9309 10.4504 13.9309C8.83237 13.9309 7.53369 12.5673 7.53369 10.8684C7.53369 9.16952 8.83237 7.80591 10.4504 7.80591Z" fill="#F6F6F6"/>
</g>
</svg>
