<svg width="21" height="22" viewBox="0 0 21 22" fill="none" xmlns="http://www.w3.org/2000/svg">
<g id="Linkedin">
<path id="Vector" d="M5.24186 2.99341C3.98362 2.99341 2.9502 4.07851 2.9502 5.39966V16.3372C2.9502 17.6583 3.98362 18.7434 5.24186 18.7434H15.6585C16.9168 18.7434 17.9502 17.6583 17.9502 16.3372V5.39966C17.9502 4.07851 16.9168 2.99341 15.6585 2.99341H5.24186ZM5.24186 4.30591H15.6585C16.2411 4.30591 16.7002 4.78793 16.7002 5.39966V16.3372C16.7002 16.9489 16.2411 17.4309 15.6585 17.4309H5.24186C4.65927 17.4309 4.2002 16.9489 4.2002 16.3372V5.39966C4.2002 4.78793 4.65927 4.30591 5.24186 4.30591ZM6.90853 6.05591C6.63226 6.05591 6.36731 6.17114 6.17196 6.37626C5.97661 6.58138 5.86686 6.85958 5.86686 7.14966C5.86686 7.43974 5.97661 7.71794 6.17196 7.92306C6.36731 8.12817 6.63226 8.24341 6.90853 8.24341C7.1848 8.24341 7.44975 8.12817 7.6451 7.92306C7.84045 7.71794 7.9502 7.43974 7.9502 7.14966C7.9502 6.85958 7.84045 6.58138 7.6451 6.37626C7.44975 6.17114 7.1848 6.05591 6.90853 6.05591ZM6.28353 9.11841C6.05311 9.11841 5.86686 9.31397 5.86686 9.55591V15.2434C5.86686 15.4853 6.05311 15.6809 6.28353 15.6809H7.53353C7.76395 15.6809 7.9502 15.4853 7.9502 15.2434V9.55591C7.9502 9.31397 7.76395 9.11841 7.53353 9.11841H6.28353ZM9.2002 9.11841C8.96978 9.11841 8.78353 9.31397 8.78353 9.55591V15.2434C8.78353 15.4853 8.96978 15.6809 9.2002 15.6809H10.4502C10.6806 15.6809 10.8669 15.4853 10.8669 15.2434V11.9622C10.8669 11.3588 11.3339 10.8684 11.9085 10.8684C12.4831 10.8684 12.9502 11.3588 12.9502 11.9622V15.2434C12.9502 15.4853 13.1364 15.6809 13.3669 15.6809H14.6169C14.8473 15.6809 15.0335 15.4853 15.0335 15.2434V11.7434C15.0335 10.2957 13.9123 9.11841 12.5335 9.11841C11.8927 9.11841 11.3098 9.37479 10.8669 9.7926V9.55591C10.8669 9.31397 10.6806 9.11841 10.4502 9.11841H9.2002Z" fill="#F6F6F6"/>
</g>
</svg>
