<svg width="81" height="63" viewBox="0 0 81 63" fill="none" xmlns="http://www.w3.org/2000/svg">
<path d="M0.450195 45.758C0.450195 42.3572 3.04139 39.7326 6.52935 39.7326C7.7769 39.7282 8.99587 40.104 10.0223 40.8095C10.2602 40.973 10.4528 41.1936 10.5822 41.4508C10.7117 41.708 10.7739 41.9935 10.7631 42.2809C10.7522 42.5684 10.6686 42.8485 10.5201 43.0952C10.3715 43.342 10.1628 43.5476 9.91326 43.6928C9.62031 43.8581 9.28534 43.9349 8.94925 43.9139C8.61316 43.8929 8.29049 43.775 8.02064 43.5745C7.56995 43.2623 7.0314 43.1001 6.48228 43.1112C4.99593 43.1112 3.89109 44.1833 3.89109 45.758C3.89109 47.3327 4.99098 48.3998 6.48228 48.3998C7.03741 48.4102 7.58172 48.2463 8.03798 47.9316C8.30634 47.7333 8.62659 47.6164 8.96018 47.595C9.29376 47.5736 9.62645 47.6485 9.91821 47.8108C10.1638 47.9488 10.3711 48.1453 10.5215 48.3826C10.672 48.6199 10.7609 48.8906 10.7803 49.1705C10.7997 49.4504 10.749 49.7307 10.6327 49.9863C10.5164 50.2419 10.3381 50.4648 10.1139 50.635C9.07164 51.3853 7.81584 51.785 6.52935 51.776C3.04139 51.776 0.450195 49.1515 0.450195 45.7531" fill="#DF3C14"/>
<path d="M12.17 45.758C12.1651 44.5609 12.5175 43.3892 13.1825 42.3914C13.8475 41.3937 14.7952 40.6147 15.9056 40.1532C17.0159 39.6917 18.239 39.5684 19.4199 39.799C20.6008 40.0295 21.6863 40.6036 22.5389 41.4483C23.3916 42.2931 23.973 43.3707 24.2096 44.5444C24.4462 45.7182 24.3273 46.9355 23.8679 48.042C23.4085 49.1484 22.6294 50.0944 21.6291 50.76C20.6289 51.4256 19.4526 51.781 18.2492 51.781C17.4505 51.7898 16.658 51.6403 15.918 51.341C15.1781 51.0418 14.5055 50.5989 13.9395 50.0382C13.3735 49.4774 12.9256 48.8101 12.6218 48.0752C12.3179 47.3403 12.1644 46.5526 12.17 45.758ZM20.8874 45.758C20.8874 44.1364 19.7405 43.0644 18.2492 43.0644C16.7579 43.0644 15.6109 44.1364 15.6109 45.758C15.6109 47.3796 16.7579 48.4491 18.2492 48.4491C19.7405 48.4491 20.88 47.3771 20.88 45.758" fill="#DF3C14"/>
<path d="M49.0735 41.7632V51.155C49.0738 51.1953 49.0661 51.2353 49.0508 51.2727C49.0355 51.3101 49.0129 51.3441 48.9844 51.3727C48.9558 51.4013 48.9219 51.4241 48.8844 51.4396C48.847 51.4551 48.8068 51.4631 48.7663 51.4631H45.9422C45.9017 51.4631 45.8616 51.4551 45.8241 51.4396C45.7867 51.4241 45.7527 51.4013 45.7241 51.3727C45.6956 51.3441 45.673 51.3101 45.6577 51.2727C45.6424 51.2353 45.6347 51.1953 45.6351 51.155C45.6351 51.0978 45.619 51.0417 45.5888 50.9931C45.5586 50.9444 45.5153 50.9051 45.4639 50.8795C45.4125 50.8539 45.3549 50.8431 45.2976 50.8482C45.2403 50.8533 45.1856 50.8742 45.1396 50.9086C44.4831 51.4458 43.5344 51.7711 42.3676 51.7711C40.0489 51.7711 38.077 50.1274 38.077 47.0469V41.7632C38.0939 41.3206 38.2825 40.9016 38.6033 40.5943C38.9241 40.2871 39.3521 40.1154 39.7974 40.1154C40.2428 40.1154 40.6707 40.2871 40.9916 40.5943C41.3124 40.9016 41.501 41.3206 41.5179 41.7632V46.5565C41.5179 47.971 42.4122 48.6315 43.4997 48.6315C44.7631 48.6315 45.6351 47.8922 45.6351 46.2829V41.7632C45.6351 41.3096 45.8162 40.8746 46.1386 40.5539C46.461 40.2331 46.8983 40.053 47.3543 40.053C47.8102 40.053 48.2475 40.2331 48.5699 40.5539C48.8923 40.8746 49.0735 41.3096 49.0735 41.7632Z" fill="#DF3C14"/>
<path d="M55.8091 43.338C55.7274 43.3386 55.6493 43.3714 55.5917 43.4291C55.5342 43.4868 55.5019 43.5648 55.5019 43.646V47.3771C55.5019 47.9932 55.8363 48.2594 56.4581 48.3481C56.8716 48.3931 57.2517 48.5951 57.5192 48.9119C57.7867 49.2287 57.9211 49.636 57.8942 50.0489C57.8674 50.4618 57.6815 50.8486 57.3752 51.1285C57.0689 51.4085 56.6659 51.5601 56.25 51.5518C53.047 51.5345 52.061 50.1545 52.061 47.3796V43.646C52.061 43.5643 52.0284 43.486 51.9703 43.4282C51.9123 43.3704 51.8335 43.338 51.7514 43.338H50.535C50.4529 43.338 50.3742 43.3055 50.3161 43.2478C50.258 43.19 50.2254 43.1116 50.2254 43.0299V40.361C50.2254 40.2793 50.258 40.2009 50.3161 40.1432C50.3742 40.0854 50.4529 40.053 50.535 40.053H51.7514C51.8335 40.053 51.9123 40.0205 51.9703 39.9627C52.0284 39.905 52.061 39.8266 52.061 39.7449V37.4037C52.0605 37.3096 52.0909 37.2178 52.1477 37.1425C52.189 37.0871 52.2428 37.0422 52.3048 37.0114C52.3667 36.9806 52.4352 36.9647 52.5044 36.9651H54.895C54.9746 36.9647 55.0534 36.9801 55.1271 37.0101C55.2007 37.0402 55.2676 37.0845 55.324 37.1403C55.3804 37.1962 55.4251 37.2626 55.4557 37.3357C55.4862 37.4088 55.5019 37.4872 55.5019 37.5664V39.7449C55.5019 39.8262 55.5342 39.9042 55.5917 39.9619C55.6493 40.0196 55.7274 40.0523 55.8091 40.053H57.5432C57.6249 40.0536 57.703 40.0863 57.7605 40.144C57.8181 40.2017 57.8503 40.2797 57.8503 40.361V43.0299C57.8503 43.1112 57.8181 43.1892 57.7605 43.2469C57.703 43.3046 57.6249 43.3373 57.5432 43.338H55.8091Z" fill="#DF3C14"/>
<path d="M64.9749 48.7227C65.5212 48.728 66.0602 48.5975 66.543 48.3432C66.7256 48.249 66.9252 48.1915 67.1301 48.174C67.3351 48.1566 67.5416 48.1794 67.7377 48.2413C67.9338 48.3032 68.1157 48.403 68.2731 48.5348C68.4304 48.6667 68.5602 48.828 68.6548 49.0098C68.7495 49.1915 68.8073 49.39 68.8248 49.5939C68.8424 49.7978 68.8194 50.0032 68.7571 50.1983C68.6949 50.3934 68.5947 50.5743 68.4622 50.7309C68.3296 50.8874 68.1674 51.0165 67.9847 51.1107C67.0333 51.5769 65.9832 51.8085 64.9229 51.7859C61.0014 51.7859 58.5687 49.1613 58.5687 45.7629C58.5687 42.3645 61.046 39.7375 64.6702 39.7375C68.0194 39.7375 70.4966 42.3177 70.4966 45.7629C70.4966 45.8935 70.4966 46.0217 70.4966 46.1498C70.4795 46.4185 70.3596 46.6705 70.1614 46.8538C69.9633 47.0372 69.702 47.138 69.4314 47.1356H62.7181C62.663 47.136 62.609 47.1509 62.5616 47.1788C62.5142 47.2067 62.475 47.2465 62.4481 47.2943C62.4212 47.3421 62.4075 47.3962 62.4083 47.451C62.4092 47.5058 62.4246 47.5594 62.4531 47.6063C62.9733 48.4343 63.8998 48.7325 64.9774 48.7325M66.6495 44.58C66.7016 44.5799 66.7528 44.5668 66.7984 44.5418C66.844 44.5168 66.8825 44.4808 66.9104 44.4371C66.9383 44.3933 66.9547 44.3433 66.958 44.2917C66.9613 44.24 66.9515 44.1883 66.9294 44.1414C66.4761 43.1556 65.5669 42.7786 64.6578 42.7786C63.5257 42.7786 62.7231 43.2567 62.3168 44.1364C62.2943 44.1836 62.2841 44.2357 62.2872 44.2878C62.2903 44.3399 62.3065 44.3904 62.3344 44.4346C62.3624 44.4788 62.401 44.5153 62.4469 44.5408C62.4927 44.5662 62.5443 44.5797 62.5967 44.58H66.6495Z" fill="#DF3C14"/>
<path d="M31.6312 48.7227C32.1775 48.7276 32.7164 48.5972 33.1993 48.3432C33.4333 48.2164 33.6961 48.1516 33.9624 48.1551C34.2288 48.1585 34.4898 48.2301 34.7203 48.3629C34.9646 48.5036 35.1662 48.7072 35.3039 48.9523C35.4417 49.1974 35.5105 49.4748 35.5031 49.7555C35.4958 50.0362 35.4125 50.3097 35.2621 50.5473C35.1117 50.7849 34.8998 50.9778 34.6485 51.1057C33.6971 51.5719 32.6469 51.8035 31.5866 51.781C27.6627 51.781 25.2325 49.1564 25.2325 45.758C25.2325 42.3596 27.7098 39.7326 31.334 39.7326C34.6832 39.7326 37.1604 42.3128 37.1604 45.758C37.1604 45.8886 37.1604 46.0168 37.148 46.1449C37.131 46.4132 37.0113 46.6647 36.8137 46.848C36.6161 47.0313 36.3555 47.1325 36.0853 47.1307H29.372C29.3169 47.1311 29.2629 47.146 29.2155 47.1739C29.1681 47.2017 29.1289 47.2416 29.102 47.2894C29.0751 47.3372 29.0613 47.3913 29.0622 47.446C29.0631 47.5008 29.0785 47.5544 29.1069 47.6014C29.6271 48.4294 30.5536 48.7276 31.6312 48.7276M33.3009 44.5751C33.3532 44.5754 33.4047 44.5626 33.4506 44.5378C33.4965 44.513 33.5354 44.477 33.5636 44.4332C33.5918 44.3894 33.6084 44.3392 33.6118 44.2873C33.6153 44.2354 33.6055 44.1835 33.5833 44.1364C33.1275 43.1507 32.2183 42.7736 31.3117 42.7736C30.1796 42.7736 29.3745 43.2517 28.9707 44.1315C28.9482 44.1787 28.938 44.2307 28.9411 44.2829C28.9442 44.335 28.9604 44.3855 28.9883 44.4297C29.0162 44.4739 29.0549 44.5104 29.1007 44.5358C29.1466 44.5612 29.1981 44.5747 29.2506 44.5751H33.3009Z" fill="#DF3C14"/>
<path d="M80.4502 48.04C80.4502 50.6621 78.1563 51.7809 75.679 51.7809C74.2348 51.7809 73.011 51.4384 72.0771 50.7237C71.8783 50.5727 71.7201 50.3751 71.6169 50.1484C71.5136 49.9218 71.4684 49.6732 71.4854 49.4249C71.5023 49.1766 71.5808 48.9364 71.7139 48.7256C71.847 48.5149 72.0305 48.3403 72.2481 48.2175L72.5404 48.0523C72.8204 47.9003 73.1413 47.8397 73.4578 47.879C73.7743 47.9184 74.0704 48.0557 74.3042 48.2717C74.6908 48.5857 75.1805 48.7463 75.679 48.7227C76.504 48.7227 76.9177 48.4762 76.9177 48.0154C76.9177 46.761 71.2745 47.4239 71.2745 43.476C71.2745 40.9894 73.3851 39.7326 75.7707 39.7326C76.7804 39.7179 77.7735 39.9888 78.6344 40.5138C78.8544 40.656 79.0334 40.8528 79.1536 41.0848C79.2738 41.3168 79.3311 41.576 79.3199 41.8368C79.3086 42.0976 79.2292 42.3509 79.0894 42.5718C78.9497 42.7927 78.7544 42.9736 78.5229 43.0965L78.3718 43.1778C78.1105 43.3122 77.8162 43.3699 77.5232 43.3441C77.2302 43.3184 76.9506 43.2102 76.717 43.0324C76.4415 42.8365 76.1093 42.7353 75.7707 42.744C75.1737 42.744 74.8071 42.9708 74.8071 43.3823C74.8071 44.6835 80.4502 43.8161 80.4502 48.0376" fill="#DF3C14"/>
<path d="M77.4528 59.1065H74.9717C74.9809 59.4956 75.0861 59.7961 75.2874 60.0077C75.4888 60.2194 75.7656 60.3252 76.1179 60.3252C76.5137 60.3252 76.8774 60.1955 77.2091 59.936V60.4617C76.9003 60.6848 76.4919 60.7963 75.984 60.7963C75.4876 60.7963 75.0976 60.6381 74.8139 60.3218C74.5302 60.0032 74.3884 59.556 74.3884 58.9802C74.3884 58.4362 74.5428 57.9936 74.8516 57.6522C75.1628 57.3085 75.5482 57.1367 76.0081 57.1367C76.4679 57.1367 76.8237 57.2846 77.0753 57.5805C77.327 57.8764 77.4528 58.2872 77.4528 58.8129V59.1065ZM76.8763 58.632C76.874 58.3088 76.7951 58.0573 76.6395 57.8775C76.4862 57.6977 76.2723 57.6078 75.9978 57.6078C75.7324 57.6078 75.5071 57.7023 75.3218 57.8912C75.1364 58.08 75.0221 58.327 74.9786 58.632H76.8763Z" fill="#DF3C14"/>
<path d="M73.7786 60.5539C73.5087 60.7155 73.1884 60.7963 72.8178 60.7963C72.3168 60.7963 71.9118 60.6347 71.603 60.3115C71.2964 59.9861 71.1432 59.5651 71.1432 59.0484C71.1432 58.4726 71.309 58.0106 71.6407 57.6624C71.9725 57.3119 72.4151 57.1367 72.9688 57.1367C73.2776 57.1367 73.5499 57.1936 73.7855 57.3074V57.8809C73.5247 57.6988 73.2456 57.6078 72.9482 57.6078C72.589 57.6078 72.2939 57.7364 72.0628 57.9936C71.8341 58.2485 71.7197 58.5842 71.7197 59.0006C71.7197 59.4103 71.8272 59.7335 72.0422 59.9702C72.2596 60.2068 72.5501 60.3252 72.9139 60.3252C73.2204 60.3252 73.5087 60.2239 73.7786 60.0214V60.5539Z" fill="#DF3C14"/>
<path d="M69.8286 56.331C69.7279 56.331 69.6421 56.2969 69.5712 56.2286C69.5003 56.1604 69.4648 56.0739 69.4648 55.9692C69.4648 55.8645 69.5003 55.778 69.5712 55.7097C69.6421 55.6392 69.7279 55.6039 69.8286 55.6039C69.9315 55.6039 70.0184 55.6392 70.0894 55.7097C70.1626 55.778 70.1992 55.8645 70.1992 55.9692C70.1992 56.0693 70.1626 56.1547 70.0894 56.2252C70.0184 56.2958 69.9315 56.331 69.8286 56.331ZM70.1031 60.7144H69.5403V57.2186H70.1031V60.7144Z" fill="#DF3C14"/>
<path d="M68.6558 56.0306C68.546 55.9692 68.4213 55.9385 68.2817 55.9385C67.8882 55.9385 67.6915 56.1854 67.6915 56.6793V57.2186H68.5151V57.6966H67.6915V60.7144H67.1321V57.6966H66.5316V57.2186H67.1321V56.6519C67.1321 56.2855 67.2385 55.9965 67.4513 55.7848C67.664 55.5709 67.9294 55.4639 68.2474 55.4639C68.419 55.4639 68.5551 55.4844 68.6558 55.5254V56.0306Z" fill="#DF3C14"/>
<path d="M65.9382 56.0306C65.8284 55.9692 65.7038 55.9385 65.5642 55.9385C65.1707 55.9385 64.974 56.1854 64.974 56.6793V57.2186H65.7975V57.6966H64.974V60.7144H64.4146V57.6966H63.8141V57.2186H64.4146V56.6519C64.4146 56.2855 64.521 55.9965 64.7338 55.7848C64.9465 55.5709 65.2119 55.4639 65.5299 55.4639C65.7015 55.4639 65.8376 55.4844 65.9382 55.5254V56.0306Z" fill="#DF3C14"/>
<path d="M61.5509 60.7963C61.0316 60.7963 60.6164 60.6336 60.3053 60.3081C59.9964 59.9804 59.842 59.5468 59.842 59.0075C59.842 58.4203 60.0033 57.9617 60.3258 57.6317C60.6484 57.3017 61.0842 57.1367 61.6333 57.1367C62.1572 57.1367 62.5655 57.2971 62.8584 57.618C63.1535 57.9389 63.301 58.3839 63.301 58.9528C63.301 59.5104 63.1421 59.9576 62.8241 60.2945C62.5083 60.629 62.084 60.7963 61.5509 60.7963ZM61.5921 57.6078C61.2306 57.6078 60.9447 57.7307 60.7342 57.9765C60.5237 58.22 60.4185 58.5568 60.4185 58.987C60.4185 59.4012 60.5249 59.7278 60.7376 59.9667C60.9504 60.2057 61.2352 60.3252 61.5921 60.3252C61.9559 60.3252 62.235 60.208 62.4294 59.9736C62.6262 59.7392 62.7245 59.4057 62.7245 58.9733C62.7245 58.5364 62.6262 58.1995 62.4294 57.9628C62.235 57.7262 61.9559 57.6078 61.5921 57.6078Z" fill="#DF3C14"/>
<path d="M57.3078 59.1065H54.8268C54.8359 59.4956 54.9412 59.7961 55.1425 60.0077C55.3438 60.2194 55.6206 60.3252 55.9729 60.3252C56.3687 60.3252 56.7325 60.1955 57.0642 59.936V60.4617C56.7554 60.6848 56.347 60.7963 55.8391 60.7963C55.3427 60.7963 54.9526 60.6381 54.6689 60.3218C54.3853 60.0032 54.2434 59.556 54.2434 58.9802C54.2434 58.4362 54.3978 57.9936 54.7067 57.6522C55.0178 57.3085 55.4033 57.1367 55.8631 57.1367C56.323 57.1367 56.6787 57.2846 56.9304 57.5805C57.182 57.8764 57.3078 58.2872 57.3078 58.8129V59.1065ZM56.7313 58.632C56.729 58.3088 56.6501 58.0573 56.4945 57.8775C56.3413 57.6977 56.1274 57.6078 55.8528 57.6078C55.5875 57.6078 55.3621 57.7023 55.1768 57.8912C54.9915 58.08 54.8771 58.327 54.8336 58.632H56.7313Z" fill="#DF3C14"/>
<path d="M53.8795 57.2186L52.4794 60.7144H51.9269L50.5955 57.2186H51.2132L52.1054 59.7585C52.1717 59.9451 52.2129 60.1078 52.2289 60.2467H52.2426C52.2655 60.0714 52.3021 59.9133 52.3524 59.7722L53.2858 57.2186H53.8795Z" fill="#DF3C14"/>
<path d="M49.7059 56.331C49.6053 56.331 49.5195 56.2969 49.4486 56.2286C49.3776 56.1604 49.3422 56.0739 49.3422 55.9692C49.3422 55.8645 49.3776 55.778 49.4486 55.7097C49.5195 55.6392 49.6053 55.6039 49.7059 55.6039C49.8089 55.6039 49.8958 55.6392 49.9667 55.7097C50.0399 55.778 50.0766 55.8645 50.0766 55.9692C50.0766 56.0693 50.0399 56.1547 49.9667 56.2252C49.8958 56.2958 49.8089 56.331 49.7059 56.331ZM49.9805 60.7144H49.4177V57.2186H49.9805V60.7144Z" fill="#DF3C14"/>
<path d="M48.6646 60.6802C48.5319 60.7531 48.3569 60.7895 48.1396 60.7895C47.5242 60.7895 47.2165 60.4481 47.2165 59.7653V57.6966H46.6125V57.2186H47.2165V56.3652L47.7792 56.1842V57.2186H48.6646V57.6966H47.7792V59.6663C47.7792 59.9007 47.8193 60.068 47.8993 60.1682C47.9794 60.2683 48.1121 60.3184 48.2974 60.3184C48.4393 60.3184 48.5616 60.2797 48.6646 60.2023V60.6802Z" fill="#DF3C14"/>
<path d="M46.1822 60.5539C45.9122 60.7155 45.5919 60.7963 45.2213 60.7963C44.7203 60.7963 44.3154 60.6347 44.0065 60.3115C43.7 59.9861 43.5467 59.5651 43.5467 59.0484C43.5467 58.4726 43.7126 58.0106 44.0443 57.6624C44.376 57.3119 44.8187 57.1367 45.3723 57.1367C45.6812 57.1367 45.9534 57.1936 46.189 57.3074V57.8809C45.9282 57.6988 45.6491 57.6078 45.3517 57.6078C44.9925 57.6078 44.6974 57.7364 44.4664 57.9936C44.2376 58.2485 44.1232 58.5842 44.1232 59.0006C44.1232 59.4103 44.2307 59.7335 44.4458 59.9702C44.6631 60.2068 44.9537 60.3252 45.3174 60.3252C45.624 60.3252 45.9122 60.2239 46.1822 60.0214V60.5539Z" fill="#DF3C14"/>
<path d="M42.6523 60.7144H42.0895V60.1613H42.0758C41.8424 60.5846 41.481 60.7963 40.9914 60.7963C40.1541 60.7963 39.7354 60.3002 39.7354 59.3079V57.2186H40.2948V59.2191C40.2948 59.9565 40.5785 60.3252 41.1458 60.3252C41.4204 60.3252 41.6457 60.2251 41.8219 60.0248C42.0003 59.8222 42.0895 59.5582 42.0895 59.2328V57.2186H42.6523V60.7144Z" fill="#DF3C14"/>
<path d="M38.6707 60.7144H38.1079V60.1204H38.0942C37.8334 60.571 37.4307 60.7963 36.8863 60.7963C36.4447 60.7963 36.0913 60.6404 35.8259 60.3286C35.5628 60.0145 35.4313 59.5878 35.4313 59.0484C35.4313 58.4704 35.5777 58.0072 35.8705 57.659C36.1633 57.3108 36.5534 57.1367 37.0407 57.1367C37.5234 57.1367 37.8746 57.3256 38.0942 57.7034H38.1079V55.539H38.6707V60.7144ZM38.1079 59.1338V58.6183C38.1079 58.3361 38.0141 58.0971 37.8265 57.9014C37.6389 57.7057 37.401 57.6078 37.1128 57.6078C36.7696 57.6078 36.4996 57.733 36.3029 57.9833C36.1061 58.2337 36.0078 58.5796 36.0078 59.0211C36.0078 59.424 36.1016 59.7426 36.2892 59.977C36.479 60.2091 36.733 60.3252 37.051 60.3252C37.3644 60.3252 37.6183 60.2125 37.8128 59.9872C38.0095 59.7619 38.1079 59.4774 38.1079 59.1338Z" fill="#DF3C14"/>
<path d="M33.023 60.7963C32.5037 60.7963 32.0885 60.6336 31.7773 60.3081C31.4685 59.9804 31.3141 59.5468 31.3141 59.0075C31.3141 58.4203 31.4754 57.9617 31.7979 57.6317C32.1205 57.3017 32.5563 57.1367 33.1054 57.1367C33.6293 57.1367 34.0376 57.2971 34.3305 57.618C34.6256 57.9389 34.7731 58.3839 34.7731 58.9528C34.7731 59.5104 34.6141 59.9576 34.2961 60.2945C33.9804 60.629 33.5561 60.7963 33.023 60.7963ZM33.0642 57.6078C32.7027 57.6078 32.4168 57.7307 32.2063 57.9765C31.9958 58.22 31.8906 58.5568 31.8906 58.987C31.8906 59.4012 31.997 59.7278 32.2097 59.9667C32.4225 60.2057 32.7073 60.3252 33.0642 60.3252C33.428 60.3252 33.7071 60.208 33.9015 59.9736C34.0983 59.7392 34.1966 59.4057 34.1966 58.9733C34.1966 58.5364 34.0983 58.1995 33.9015 57.9628C33.7071 57.7262 33.428 57.6078 33.0642 57.6078Z" fill="#DF3C14"/>
<path d="M30.9417 57.7853C30.8434 57.7102 30.7015 57.6727 30.5162 57.6727C30.276 57.6727 30.0747 57.7853 29.9123 58.0106C29.7521 58.2359 29.672 58.5432 29.672 58.9324V60.7144H29.1093V57.2186H29.672V57.9389H29.6858C29.7658 57.6932 29.8882 57.502 30.0529 57.3654C30.2177 57.2266 30.4018 57.1572 30.6054 57.1572C30.7519 57.1572 30.864 57.1731 30.9417 57.205V57.7853Z" fill="#DF3C14"/>
<path d="M25.5537 60.2091H25.54V62.3223H24.9772V57.2186H25.54V57.8331H25.5537C25.8305 57.3688 26.2355 57.1367 26.7685 57.1367C27.2215 57.1367 27.5749 57.2937 27.8289 57.6078C28.0828 57.9196 28.2098 58.3384 28.2098 58.8641C28.2098 59.449 28.0668 59.9178 27.7808 60.2706C27.4949 60.6211 27.1037 60.7963 26.6072 60.7963C26.152 60.7963 25.8008 60.6006 25.5537 60.2091ZM25.54 58.7992V59.2874C25.54 59.5764 25.6338 59.8222 25.8214 60.0248C26.0113 60.2251 26.2515 60.3252 26.542 60.3252C26.8829 60.3252 27.1494 60.1955 27.3416 59.936C27.5361 59.6766 27.6333 59.3158 27.6333 58.8538C27.6333 58.4647 27.5429 58.1597 27.3622 57.9389C27.1815 57.7182 26.9367 57.6078 26.6278 57.6078C26.3007 57.6078 26.0376 57.7216 25.8386 57.9492C25.6395 58.1745 25.54 58.4578 25.54 58.7992Z" fill="#DF3C14"/>
<path d="M21.9133 60.7144H21.3505V55.539H21.9133V60.7144Z" fill="#DF3C14"/>
<path d="M20.2888 60.7144H19.726V60.1682H19.7123C19.4675 60.5869 19.1072 60.7963 18.6313 60.7963C18.2813 60.7963 18.0068 60.7041 17.8077 60.5198C17.611 60.3354 17.5126 60.0908 17.5126 59.7858C17.5126 59.1326 17.8992 58.7526 18.6725 58.6456L19.726 58.4988C19.726 57.9048 19.4846 57.6078 19.0019 57.6078C18.5787 57.6078 18.1966 57.7512 17.8558 58.0379V57.4644C18.2012 57.2459 18.5993 57.1367 19.05 57.1367C19.8758 57.1367 20.2888 57.5714 20.2888 58.4408V60.7144ZM19.726 58.946L18.8784 59.0621C18.6176 59.0985 18.4208 59.1634 18.2882 59.2567C18.1555 59.3477 18.0891 59.5104 18.0891 59.7449C18.0891 59.9155 18.1497 60.0555 18.271 60.1647C18.3945 60.2717 18.5581 60.3252 18.7617 60.3252C19.0408 60.3252 19.2707 60.2285 19.4515 60.035C19.6345 59.8393 19.726 59.5924 19.726 59.2942V58.946Z" fill="#DF3C14"/>
<path d="M16.6388 60.7144H16.076V60.1613H16.0623C15.8289 60.5846 15.4675 60.7963 14.9779 60.7963C14.1406 60.7963 13.7219 60.3002 13.7219 59.3079V57.2186H14.2813V59.2191C14.2813 59.9565 14.565 60.3252 15.1323 60.3252C15.4069 60.3252 15.6322 60.2251 15.8084 60.0248C15.9868 59.8222 16.076 59.5582 16.076 59.2328V57.2186H16.6388V60.7144Z" fill="#DF3C14"/>
<path d="M13.0443 60.6802C12.9117 60.7531 12.7366 60.7895 12.5193 60.7895C11.9039 60.7895 11.5962 60.4481 11.5962 59.7653V57.6966H10.9922V57.2186H11.5962V56.3652L12.159 56.1842V57.2186H13.0443V57.6966H12.159V59.6663C12.159 59.9007 12.199 60.068 12.2791 60.1682C12.3592 60.2683 12.4919 60.3184 12.6772 60.3184C12.819 60.3184 12.9414 60.2797 13.0443 60.2023V60.6802Z" fill="#DF3C14"/>
<path d="M10.8018 57.7853C10.7034 57.7102 10.5616 57.6727 10.3763 57.6727C10.136 57.6727 9.93472 57.7853 9.77229 58.0106C9.61215 58.2359 9.53208 58.5432 9.53208 58.9324V60.7144H8.96929V57.2186H9.53208V57.9389H9.5458C9.62587 57.6932 9.74827 57.502 9.91298 57.3654C10.0777 57.2266 10.2619 57.1572 10.4655 57.1572C10.6119 57.1572 10.724 57.1731 10.8018 57.205V57.7853Z" fill="#DF3C14"/>
<path d="M7.55816 56.331C7.4575 56.331 7.37171 56.2969 7.30079 56.2286C7.22987 56.1604 7.19441 56.0739 7.19441 55.9692C7.19441 55.8645 7.22987 55.778 7.30079 55.7097C7.37171 55.6392 7.4575 55.6039 7.55816 55.6039C7.66111 55.6039 7.74805 55.6392 7.81897 55.7097C7.89217 55.778 7.92878 55.8645 7.92878 55.9692C7.92878 56.0693 7.89217 56.1547 7.81897 56.2252C7.74805 56.2958 7.66111 56.331 7.55816 56.331ZM7.83269 60.7144H7.26991V57.2186H7.83269V60.7144Z" fill="#DF3C14"/>
<path d="M6.66579 57.2186L5.2657 60.7144H4.71321L3.38174 57.2186H3.99943L4.89165 59.7585C4.95799 59.9451 4.99917 60.1078 5.01519 60.2467H5.02891C5.05179 60.0714 5.0884 59.9133 5.13873 59.7722L6.07212 57.2186H6.66579Z" fill="#DF3C14"/>
<path d="M40.0328 2.54021C38.7524 2.54021 37.4847 2.79354 36.3037 3.28545C35.1226 3.77735 34.0517 4.49802 33.1532 5.4055C32.2547 6.31299 31.5466 7.38918 31.0701 8.57145C30.6305 9.66217 30.3961 10.8231 30.3777 11.9964C30.3777 12.0003 30.3777 12.0043 30.3777 12.0082V29.2245C30.3777 29.8369 29.8786 30.3334 29.263 30.3334C28.6473 30.3334 28.1482 29.8369 28.1482 29.2245V13.3482C28.1482 13.3476 28.1482 13.347 28.1482 13.3464V12.3171C28.1255 10.7523 28.4153 9.19862 29.0007 7.74604C29.5872 6.29081 30.4588 4.96613 31.5647 3.84911C32.6707 2.7321 33.9889 1.84504 35.4427 1.23956C36.8964 0.634082 38.4567 0.322266 40.0328 0.322266C41.6088 0.322266 43.1691 0.634082 44.6229 1.23956C46.0766 1.84504 47.3948 2.7321 48.5008 3.84911C49.6067 4.96613 50.4783 6.2908 51.0648 7.74604C51.6502 9.19841 51.9399 10.7519 51.9173 12.3164V29.2244C51.9173 29.8369 51.4182 30.3334 50.8026 30.3334C50.1869 30.3334 49.6878 29.8369 49.6878 29.2244V13.351L49.6878 13.3464V12.3005L49.6879 12.2976C49.6879 12.2923 49.688 12.287 49.6881 12.2817C49.7061 11.0116 49.4707 9.75052 48.9955 8.57145C48.519 7.38918 47.8109 6.31299 46.9124 5.4055C46.0139 4.49801 44.9429 3.77735 43.7619 3.28545C42.5808 2.79354 41.3132 2.54021 40.0328 2.54021Z" fill="#DF3C14"/>
<path d="M56.3045 16.0868C56.3045 15.394 55.74 14.8324 55.0436 14.8324C54.3472 14.8324 53.7827 15.394 53.7827 16.0868V27.7113C53.7827 28.4041 54.3472 28.9657 55.0436 28.9657C55.74 28.9657 56.3045 28.4041 56.3045 27.7113V27.0277C57.4376 26.9938 58.3458 26.0694 58.3458 24.9339V18.8642C58.3458 17.7287 57.4376 16.8043 56.3045 16.7704V16.0868Z" fill="#DF3C14"/>
<path d="M23.5182 16.0868V16.77C22.3782 16.7962 21.4621 17.7237 21.4621 18.8642V24.9339C21.4621 26.0744 22.3782 27.0019 23.5182 27.0281V27.7113C23.5182 28.4041 24.0828 28.9657 24.7792 28.9657C25.4755 28.9657 26.0401 28.4041 26.0401 27.7113V16.0868C26.0401 15.394 25.4755 14.8324 24.7792 14.8324C24.0828 14.8324 23.5182 15.394 23.5182 16.0868Z" fill="#DF3C14"/>
<path d="M36.03 18.5409C35.9637 18.2096 35.8002 17.9053 35.5601 17.6665C35.4009 17.5076 35.2117 17.3816 35.0034 17.2956C34.7951 17.2096 34.5718 17.1653 34.3463 17.1653C34.1207 17.1653 33.8974 17.2096 33.6892 17.2956C33.4809 17.3816 33.2917 17.5076 33.1324 17.6665C32.8923 17.9053 32.7288 18.2096 32.6625 18.5409C32.5963 18.8722 32.6303 19.2156 32.7602 19.5277C32.8901 19.8397 33.1102 20.1065 33.3925 20.2941C33.6748 20.4818 34.0067 20.582 34.3463 20.582C34.6858 20.582 35.0177 20.4818 35.3001 20.2941C35.5824 20.1065 35.8024 19.8397 35.9323 19.5277C36.0623 19.2156 36.0963 18.8722 36.03 18.5409Z" fill="#DF3C14"/>
</svg>
