<svg width="79" height="62" viewBox="0 0 79 62" fill="none" xmlns="http://www.w3.org/2000/svg">
<g id="Vector">
<path d="M0.543945 45.173C0.543945 41.8479 3.06429 39.2817 6.45688 39.2817C7.67033 39.2774 8.85598 39.6449 9.85429 40.3347C10.0857 40.4946 10.273 40.7102 10.399 40.9617C10.5249 41.2131 10.5854 41.4923 10.5748 41.7733C10.5643 42.0544 10.483 42.3282 10.3385 42.5695C10.194 42.8108 9.99102 43.0118 9.74828 43.1538C9.46334 43.3154 9.13753 43.3905 8.81063 43.3699C8.48373 43.3494 8.16988 43.2341 7.90741 43.0382C7.46904 42.7328 6.94521 42.5742 6.4111 42.5852C4.9654 42.5852 3.89076 43.6333 3.89076 45.173C3.89076 46.7127 4.96058 47.756 6.4111 47.756C6.95106 47.7661 7.48049 47.6059 7.92427 47.2982C8.1853 47.1043 8.49679 46.99 8.82125 46.9691C9.14571 46.9482 9.46931 47.0214 9.75309 47.1801C9.99194 47.315 10.1936 47.5071 10.3399 47.7391C10.4863 47.9711 10.5728 48.2358 10.5916 48.5095C10.6105 48.7832 10.5612 49.0573 10.448 49.3072C10.3349 49.5571 10.1615 49.775 9.94345 49.9414C8.92967 50.675 7.7082 51.0658 6.45688 51.057C3.06429 51.057 0.543945 48.4909 0.543945 45.1682" fill="#FDFDFD"/>
<path d="M11.9433 45.173C11.9386 44.0025 12.2813 42.8569 12.9281 41.8814C13.5749 40.9059 14.4967 40.1442 15.5767 39.693C16.6568 39.2418 17.8464 39.1212 18.995 39.3467C20.1436 39.5721 21.1994 40.1333 22.0288 40.9593C22.8581 41.7853 23.4237 42.8388 23.6538 43.9865C23.8839 45.1341 23.7682 46.3242 23.3214 47.4061C22.8746 48.4879 22.1167 49.4128 21.1438 50.0636C20.1709 50.7144 19.0268 51.0618 17.8563 51.0618C17.0794 51.0705 16.3086 50.9243 15.5889 50.6317C14.8691 50.3391 14.2149 49.9061 13.6644 49.3578C13.114 48.8096 12.6782 48.1572 12.3827 47.4386C12.0872 46.7201 11.9378 45.9499 11.9433 45.173ZM20.4224 45.173C20.4224 43.5876 19.3068 42.5394 17.8563 42.5394C16.4057 42.5394 15.2901 43.5876 15.2901 45.173C15.2901 46.7585 16.4057 47.8042 17.8563 47.8042C19.3068 47.8042 20.4152 46.7561 20.4152 45.173" fill="#FDFDFD"/>
<path d="M47.8378 41.2672V50.4498C47.8381 50.4893 47.8306 50.5284 47.8158 50.5649C47.8009 50.6014 47.7789 50.6347 47.7512 50.6627C47.7234 50.6907 47.6903 50.7129 47.6539 50.728C47.6175 50.7432 47.5785 50.751 47.539 50.751H44.7922C44.7527 50.751 44.7137 50.7432 44.6773 50.728C44.6409 50.7129 44.6078 50.6907 44.5801 50.6627C44.5523 50.6347 44.5303 50.6014 44.5154 50.5649C44.5006 50.5284 44.4931 50.4893 44.4934 50.4498C44.4934 50.3939 44.4778 50.3391 44.4484 50.2915C44.419 50.2439 44.3769 50.2054 44.3269 50.1804C44.2769 50.1554 44.2209 50.1448 44.1652 50.1499C44.1095 50.1549 44.0562 50.1753 44.0115 50.2089C43.373 50.7341 42.4501 51.0522 41.3153 51.0522C39.06 51.0522 37.142 49.4451 37.142 46.4332V41.2672C37.1584 40.8344 37.3419 40.4247 37.6539 40.1243C37.966 39.8239 38.3823 39.6561 38.8154 39.6561C39.2485 39.6561 39.6648 39.8239 39.9768 40.1243C40.2889 40.4247 40.4724 40.8344 40.4888 41.2672V45.9537C40.4888 47.3367 41.3586 47.9825 42.4164 47.9825C43.6453 47.9825 44.4934 47.2596 44.4934 45.6862V41.2672C44.4934 40.8237 44.6696 40.3984 44.9832 40.0848C45.2968 39.7712 45.7221 39.595 46.1656 39.595C46.6091 39.595 47.0344 39.7712 47.348 40.0848C47.6616 40.3984 47.8378 40.8237 47.8378 41.2672Z" fill="#FDFDFD"/>
<path d="M54.3893 42.8069C54.3098 42.8075 54.2338 42.8395 54.1778 42.8959C54.1219 42.9524 54.0905 43.0286 54.0905 43.1081V46.756C54.0905 47.3584 54.4158 47.6187 55.0205 47.7054C55.4227 47.7494 55.7924 47.9469 56.0526 48.2567C56.3128 48.5664 56.4435 48.9647 56.4174 49.3684C56.3913 49.7721 56.2105 50.1502 55.9126 50.4239C55.6147 50.6976 55.2226 50.8459 54.8182 50.8378C51.7027 50.8209 50.7437 49.4716 50.7437 46.7585V43.1081C50.7437 43.0282 50.7119 42.9516 50.6555 42.8951C50.599 42.8386 50.5224 42.8069 50.4425 42.8069H49.2594C49.1795 42.8069 49.1029 42.7751 49.0464 42.7186C48.99 42.6622 48.9582 42.5856 48.9582 42.5057V39.8962C48.9582 39.8163 48.99 39.7397 49.0464 39.6832C49.1029 39.6267 49.1795 39.595 49.2594 39.595H50.4425C50.5224 39.595 50.599 39.5633 50.6555 39.5068C50.7119 39.4503 50.7437 39.3737 50.7437 39.2938V37.0048C50.7431 36.9127 50.7728 36.823 50.828 36.7494C50.8681 36.6952 50.9205 36.6513 50.9808 36.6212C51.041 36.591 51.1076 36.5755 51.175 36.5759H53.5001C53.5776 36.5756 53.6543 36.5905 53.7259 36.6199C53.7975 36.6493 53.8626 36.6926 53.9174 36.7472C53.9723 36.8018 54.0158 36.8668 54.0455 36.9383C54.0752 37.0097 54.0905 37.0864 54.0905 37.1638V39.2938C54.0905 39.3733 54.1219 39.4495 54.1778 39.5059C54.2338 39.5623 54.3098 39.5944 54.3893 39.595H56.0759C56.1554 39.5956 56.2314 39.6276 56.2873 39.6841C56.3433 39.7405 56.3747 39.8167 56.3747 39.8962V42.5057C56.3747 42.5851 56.3433 42.6614 56.2873 42.7178C56.2314 42.7742 56.1554 42.8062 56.0759 42.8069H54.3893Z" fill="#FDFDFD"/>
<path d="M63.3044 48.0716C63.8358 48.0768 64.3601 47.9493 64.8297 47.7006C65.0073 47.6085 65.2014 47.5523 65.4008 47.5352C65.6002 47.5182 65.801 47.5405 65.9917 47.601C66.1824 47.6616 66.3594 47.7591 66.5125 47.888C66.6655 48.0169 66.7917 48.1747 66.8838 48.3523C66.9758 48.53 67.032 48.7241 67.0491 48.9235C67.0662 49.1228 67.0438 49.3236 66.9833 49.5144C66.9228 49.7051 66.8253 49.8821 66.6964 50.0351C66.5675 50.1882 66.4097 50.3144 66.232 50.4065C65.3066 50.8623 64.2851 51.0887 63.2538 51.0667C59.4396 51.0667 57.0735 48.5005 57.0735 45.1778C57.0735 41.8551 59.483 39.2866 63.0081 39.2866C66.2657 39.2866 68.6752 41.8093 68.6752 45.1778C68.6752 45.3055 68.6752 45.4308 68.6752 45.5561C68.6586 45.8188 68.5419 46.0651 68.3492 46.2444C68.1565 46.4237 67.9024 46.5223 67.6392 46.5199H61.1094C61.0558 46.5203 61.0033 46.5349 60.9572 46.5621C60.911 46.5894 60.873 46.6284 60.8468 46.6751C60.8206 46.7219 60.8072 46.7747 60.8081 46.8283C60.8089 46.8818 60.8239 46.9342 60.8516 46.9801C61.3576 47.7897 62.2587 48.0813 63.3069 48.0813M64.9333 44.0213C64.9839 44.0212 65.0337 44.0083 65.0781 43.9839C65.1224 43.9595 65.1599 43.9242 65.187 43.8815C65.2142 43.8387 65.2301 43.7898 65.2333 43.7393C65.2366 43.6888 65.227 43.6382 65.2056 43.5924C64.7646 42.6285 63.8803 42.2599 62.996 42.2599C61.8949 42.2599 61.1142 42.7273 60.719 43.5875C60.6972 43.6337 60.6873 43.6845 60.6903 43.7355C60.6933 43.7865 60.7091 43.8359 60.7362 43.8791C60.7633 43.9223 60.801 43.958 60.8456 43.9829C60.8901 44.0077 60.9403 44.0209 60.9913 44.0213H64.9333Z" fill="#FDFDFD"/>
<path d="M30.8724 48.0716C31.4038 48.0765 31.928 47.949 32.3977 47.7006C32.6252 47.5767 32.8808 47.5133 33.1399 47.5167C33.399 47.5201 33.6529 47.59 33.8771 47.7198C34.1147 47.8575 34.3107 48.0565 34.4447 48.2961C34.5787 48.5358 34.6456 48.8071 34.6385 49.0815C34.6313 49.3559 34.5503 49.6234 34.4041 49.8557C34.2578 50.088 34.0516 50.2766 33.8072 50.4016C32.8819 50.8575 31.8604 51.0839 30.8291 51.0618C27.0124 51.0618 24.6487 48.4957 24.6487 45.173C24.6487 41.8503 27.0582 39.2818 30.5833 39.2818C33.841 39.2818 36.2505 41.8045 36.2505 45.173C36.2505 45.3007 36.2505 45.426 36.2384 45.5513C36.2218 45.8136 36.1055 46.0595 35.9133 46.2388C35.721 46.418 35.4675 46.5168 35.2047 46.5151H28.675C28.6214 46.5155 28.5689 46.5301 28.5228 46.5573C28.4766 46.5846 28.4385 46.6236 28.4124 46.6703C28.3862 46.717 28.3728 46.7699 28.3737 46.8235C28.3745 46.877 28.3895 46.9294 28.4172 46.9753C28.9231 47.7849 29.8243 48.0765 30.8724 48.0765M32.4965 44.0164C32.5473 44.0168 32.5974 44.0042 32.6421 43.9799C32.6868 43.9557 32.7246 43.9205 32.752 43.8777C32.7794 43.8349 32.7955 43.7858 32.7989 43.7351C32.8022 43.6843 32.7927 43.6336 32.7711 43.5875C32.3278 42.6237 31.4435 42.2551 30.5616 42.2551C29.4605 42.2551 28.6774 42.7225 28.2846 43.5827C28.2628 43.6288 28.2529 43.6797 28.2559 43.7307C28.2589 43.7817 28.2747 43.831 28.3018 43.8743C28.3289 43.9175 28.3665 43.9532 28.4111 43.978C28.4557 44.0029 28.5059 44.0161 28.5569 44.0164H32.4965Z" fill="#FDFDFD"/>
<path d="M78.3566 47.4042C78.3566 49.9679 76.1255 51.0618 73.7159 51.0618C72.3112 51.0618 71.1209 50.7269 70.2125 50.0282C70.0191 49.8805 69.8653 49.6873 69.7648 49.4656C69.6644 49.244 69.6204 49.001 69.6369 48.7582C69.6534 48.5155 69.7298 48.2806 69.8592 48.0746C69.9887 47.8685 70.1672 47.6978 70.3788 47.5777L70.6631 47.4163C70.9354 47.2676 71.2476 47.2083 71.5555 47.2468C71.8633 47.2853 72.1513 47.4196 72.3787 47.6307C72.7547 47.9377 73.231 48.0948 73.7159 48.0716C74.5183 48.0716 74.9207 47.8307 74.9207 47.3801C74.9207 46.1537 69.4318 46.8018 69.4318 42.9418C69.4318 40.5106 71.4847 39.2817 73.8051 39.2817C74.7872 39.2674 75.7531 39.5323 76.5905 40.0456C76.8045 40.1846 76.9786 40.377 77.0955 40.6039C77.2124 40.8307 77.2682 41.0841 77.2572 41.3391C77.2463 41.5941 77.169 41.8418 77.0331 42.0578C76.8971 42.2738 76.7072 42.4506 76.4821 42.5707L76.3351 42.6502C76.0809 42.7816 75.7947 42.838 75.5097 42.8129C75.2247 42.7877 74.9527 42.682 74.7255 42.5081C74.4575 42.3166 74.1344 42.2176 73.8051 42.2262C73.2244 42.2262 72.8678 42.4478 72.8678 42.8502C72.8678 44.1224 78.3566 43.2743 78.3566 47.4018" fill="#FDFDFD"/>
<path d="M75.4412 58.2242H73.028C73.0369 58.6047 73.1392 58.8984 73.335 59.1054C73.5309 59.3123 73.8001 59.4158 74.1428 59.4158C74.5277 59.4158 74.8815 59.289 75.2042 59.0353V59.5493C74.9038 59.7674 74.5066 59.8764 74.0126 59.8764C73.5297 59.8764 73.1504 59.7218 72.8744 59.4125C72.5985 59.1009 72.4605 58.6637 72.4605 58.1007C72.4605 57.5689 72.6107 57.1361 72.9111 56.8023C73.2138 56.4663 73.5887 56.2983 74.036 56.2983C74.4832 56.2983 74.8293 56.443 75.074 56.7322C75.3188 57.0215 75.4412 57.4231 75.4412 57.9372V58.2242ZM74.8804 57.7603C74.8782 57.4443 74.8014 57.1984 74.6501 57.0226C74.501 56.8468 74.293 56.7589 74.026 56.7589C73.7678 56.7589 73.5487 56.8513 73.3684 57.036C73.1882 57.2207 73.0769 57.4621 73.0346 57.7603H74.8804Z" fill="#FDFDFD"/>
<path d="M71.8675 59.6394C71.6049 59.7974 71.2934 59.8764 70.9329 59.8764C70.4456 59.8764 70.0517 59.7184 69.7513 59.4025C69.4532 59.0843 69.3041 58.6726 69.3041 58.1675C69.3041 57.6045 69.4654 57.1528 69.7881 56.8123C70.1107 56.4697 70.5413 56.2983 71.0798 56.2983C71.3802 56.2983 71.645 56.3539 71.8742 56.4652V57.026C71.6205 56.8479 71.349 56.7589 71.0597 56.7589C70.7104 56.7589 70.4233 56.8847 70.1986 57.1361C69.9761 57.3853 69.8648 57.7135 69.8648 58.1207C69.8648 58.5213 69.9694 58.8373 70.1786 59.0687C70.39 59.3001 70.6726 59.4158 71.0264 59.4158C71.3245 59.4158 71.6049 59.3168 71.8675 59.1187V59.6394Z" fill="#FDFDFD"/>
<path d="M68.0254 55.5106C67.9275 55.5106 67.8441 55.4772 67.7751 55.4105C67.7061 55.3437 67.6716 55.2592 67.6716 55.1568C67.6716 55.0544 67.7061 54.9699 67.7751 54.9031C67.8441 54.8341 67.9275 54.7997 68.0254 54.7997C68.1255 54.7997 68.2101 54.8341 68.2791 54.9031C68.3503 54.9699 68.3859 55.0544 68.3859 55.1568C68.3859 55.2547 68.3503 55.3381 68.2791 55.4071C68.2101 55.4761 68.1255 55.5106 68.0254 55.5106ZM68.2924 59.7963H67.745V56.3784H68.2924V59.7963Z" fill="#FDFDFD"/>
<path d="M66.8847 55.2169C66.7779 55.1568 66.6566 55.1268 66.5209 55.1268C66.1381 55.1268 65.9468 55.3682 65.9468 55.8511V56.3784H66.7478V56.8457H65.9468V59.7963H65.4027V56.8457H64.8186V56.3784H65.4027V55.8244C65.4027 55.4661 65.5062 55.1835 65.7131 54.9766C65.9201 54.7674 66.1782 54.6628 66.4875 54.6628C66.6544 54.6628 66.7868 54.6828 66.8847 54.7229V55.2169Z" fill="#FDFDFD"/>
<path d="M64.2415 55.2169C64.1347 55.1568 64.0134 55.1268 63.8777 55.1268C63.4949 55.1268 63.3036 55.3682 63.3036 55.8511V56.3784H64.1046V56.8457H63.3036V59.7963H62.7595V56.8457H62.1754V56.3784H62.7595V55.8244C62.7595 55.4661 62.863 55.1835 63.0699 54.9766C63.2769 54.7674 63.535 54.6628 63.8443 54.6628C64.0112 54.6628 64.1436 54.6828 64.2415 54.7229V55.2169Z" fill="#FDFDFD"/>
<path d="M59.9741 59.8764C59.469 59.8764 59.0651 59.7173 58.7625 59.3991C58.4621 59.0787 58.3119 58.6548 58.3119 58.1274C58.3119 57.5533 58.4688 57.1049 58.7825 56.7823C59.0963 56.4596 59.5202 56.2983 60.0542 56.2983C60.5638 56.2983 60.961 56.4552 61.2458 56.7689C61.5329 57.0827 61.6764 57.5177 61.6764 58.074C61.6764 58.6192 61.5217 59.0564 61.2124 59.3858C60.9053 59.7129 60.4926 59.8764 59.9741 59.8764ZM60.0142 56.7589C59.6626 56.7589 59.3844 56.8791 59.1797 57.1194C58.975 57.3575 58.8726 57.6868 58.8726 58.1074C58.8726 58.5124 58.9761 58.8317 59.1831 59.0653C59.39 59.299 59.667 59.4158 60.0142 59.4158C60.368 59.4158 60.6394 59.3012 60.8286 59.072C61.0199 58.8428 61.1156 58.5168 61.1156 58.094C61.1156 57.6668 61.0199 57.3375 60.8286 57.1061C60.6394 56.8746 60.368 56.7589 60.0142 56.7589Z" fill="#FDFDFD"/>
<path d="M55.847 58.2242H53.4338C53.4427 58.6047 53.5451 58.8984 53.7409 59.1054C53.9367 59.3123 54.206 59.4158 54.5486 59.4158C54.9336 59.4158 55.2874 59.289 55.61 59.0353V59.5493C55.3096 59.7674 54.9125 59.8764 54.4185 59.8764C53.9356 59.8764 53.5562 59.7218 53.2803 59.4125C53.0044 59.1009 52.8664 58.6637 52.8664 58.1007C52.8664 57.5689 53.0166 57.1361 53.317 56.8023C53.6196 56.4663 53.9946 56.2983 54.4418 56.2983C54.8891 56.2983 55.2351 56.443 55.4799 56.7322C55.7246 57.0215 55.847 57.4231 55.847 57.9372V58.2242ZM55.2863 57.7603C55.2841 57.4443 55.2073 57.1984 55.056 57.0226C54.9069 56.8468 54.6988 56.7589 54.4318 56.7589C54.1737 56.7589 53.9545 56.8513 53.7743 57.036C53.594 57.2207 53.4828 57.4621 53.4405 57.7603H55.2863Z" fill="#FDFDFD"/>
<path d="M52.5124 56.3784L51.1506 59.7963H50.6132L49.3182 56.3784H49.919L50.7868 58.8617C50.8513 59.0442 50.8914 59.2033 50.907 59.339H50.9203C50.9426 59.1677 50.9782 59.013 51.0271 58.8751L51.935 56.3784H52.5124Z" fill="#FDFDFD"/>
<path d="M48.453 55.5106C48.3551 55.5106 48.2716 55.4772 48.2026 55.4105C48.1337 55.3437 48.0992 55.2592 48.0992 55.1568C48.0992 55.0544 48.1337 54.9699 48.2026 54.9031C48.2716 54.8341 48.3551 54.7997 48.453 54.7997C48.5531 54.7997 48.6377 54.8341 48.7066 54.9031C48.7779 54.9699 48.8135 55.0544 48.8135 55.1568C48.8135 55.2547 48.7779 55.3381 48.7066 55.4071C48.6377 55.4761 48.5531 55.5106 48.453 55.5106ZM48.72 59.7963H48.1726V56.3784H48.72V59.7963Z" fill="#FDFDFD"/>
<path d="M47.4401 59.7629C47.311 59.8341 47.1408 59.8697 46.9294 59.8697C46.3308 59.8697 46.0316 59.536 46.0316 58.8684V56.8457H45.4441V56.3784H46.0316V55.544L46.579 55.3671V56.3784H47.4401V56.8457H46.579V58.7716C46.579 59.0008 46.6179 59.1644 46.6958 59.2623C46.7737 59.3602 46.9027 59.4091 47.083 59.4091C47.2209 59.4091 47.34 59.3713 47.4401 59.2956V59.7629Z" fill="#FDFDFD"/>
<path d="M45.0255 59.6394C44.763 59.7974 44.4515 59.8764 44.091 59.8764C43.6037 59.8764 43.2098 59.7184 42.9094 59.4025C42.6112 59.0843 42.4621 58.6726 42.4621 58.1675C42.4621 57.6045 42.6235 57.1528 42.9461 56.8123C43.2688 56.4697 43.6993 56.2983 44.2378 56.2983C44.5382 56.2983 44.803 56.3539 45.0322 56.4652V57.026C44.7786 56.8479 44.5071 56.7589 44.2178 56.7589C43.8685 56.7589 43.5814 56.8847 43.3567 57.1361C43.1341 57.3853 43.0229 57.7135 43.0229 58.1207C43.0229 58.5213 43.1275 58.8373 43.3366 59.0687C43.548 59.3001 43.8306 59.4158 44.1844 59.4158C44.4826 59.4158 44.763 59.3168 45.0255 59.1187V59.6394Z" fill="#FDFDFD"/>
<path d="M41.5922 59.7963H41.0448V59.2556H41.0315C40.8045 59.6695 40.4529 59.8764 39.9767 59.8764C39.1623 59.8764 38.7551 59.3913 38.7551 58.4211V56.3784H39.2991V58.3344C39.2991 59.0553 39.5751 59.4158 40.1269 59.4158C40.3939 59.4158 40.6131 59.3179 40.7845 59.1221C40.958 58.924 41.0448 58.6659 41.0448 58.3477V56.3784H41.5922V59.7963Z" fill="#FDFDFD"/>
<path d="M37.7195 59.7963H37.1721V59.2155H37.1587C36.905 59.6561 36.5134 59.8764 35.9838 59.8764C35.5543 59.8764 35.2106 59.724 34.9524 59.4191C34.6965 59.1121 34.5686 58.6948 34.5686 58.1675C34.5686 57.6023 34.711 57.1495 34.9958 56.809C35.2806 56.4685 35.66 56.2983 36.134 56.2983C36.6035 56.2983 36.9451 56.483 37.1587 56.8524H37.1721V54.7362H37.7195V59.7963ZM37.1721 58.2509V57.7469C37.1721 57.471 37.0808 57.2373 36.8984 57.046C36.7159 56.8546 36.4845 56.7589 36.2041 56.7589C35.8703 56.7589 35.6077 56.8813 35.4164 57.1261C35.225 57.3709 35.1293 57.7091 35.1293 58.1408C35.1293 58.5346 35.2206 58.8462 35.403 59.0754C35.5877 59.3023 35.8347 59.4158 36.144 59.4158C36.4489 59.4158 36.6959 59.3057 36.885 59.0854C37.0764 58.8651 37.1721 58.5869 37.1721 58.2509Z" fill="#FDFDFD"/>
<path d="M32.2262 59.8764C31.7211 59.8764 31.3172 59.7173 31.0146 59.3991C30.7142 59.0787 30.564 58.6548 30.564 58.1274C30.564 57.5533 30.7208 57.1049 31.0346 56.7823C31.3484 56.4596 31.7722 56.2983 32.3063 56.2983C32.8159 56.2983 33.2131 56.4552 33.4979 56.7689C33.7849 57.0827 33.9285 57.5177 33.9285 58.074C33.9285 58.6192 33.7738 59.0564 33.4645 59.3858C33.1574 59.7129 32.7447 59.8764 32.2262 59.8764ZM32.2662 56.7589C31.9147 56.7589 31.6365 56.8791 31.4318 57.1194C31.2271 57.3575 31.1247 57.6868 31.1247 58.1074C31.1247 58.5124 31.2282 58.8317 31.4351 59.0653C31.6421 59.299 31.9191 59.4158 32.2662 59.4158C32.62 59.4158 32.8915 59.3012 33.0807 59.072C33.272 58.8428 33.3677 58.5168 33.3677 58.094C33.3677 57.6668 33.272 57.3375 33.0807 57.1061C32.8915 56.8746 32.62 56.7589 32.2662 56.7589Z" fill="#FDFDFD"/>
<path d="M30.2018 56.9325C30.1061 56.8591 29.9682 56.8223 29.7879 56.8223C29.5543 56.8223 29.3585 56.9325 29.2005 57.1528C29.0447 57.3731 28.9668 57.6735 28.9668 58.054V59.7963H28.4194V56.3784H28.9668V57.0827H28.9802C29.0581 56.8424 29.1771 56.6555 29.3373 56.5219C29.4975 56.3862 29.6767 56.3183 29.8747 56.3183C30.0171 56.3183 30.1262 56.3339 30.2018 56.3651V56.9325Z" fill="#FDFDFD"/>
<path d="M24.9611 59.3023H24.9478V61.3684H24.4004V56.3784H24.9478V56.9792H24.9611C25.2304 56.5253 25.6242 56.2983 26.1427 56.2983C26.5833 56.2983 26.9271 56.4519 27.1741 56.7589C27.4211 57.0638 27.5446 57.4732 27.5446 57.9872C27.5446 58.5591 27.4055 59.0175 27.1273 59.3624C26.8492 59.7051 26.4687 59.8764 25.9858 59.8764C25.543 59.8764 25.2014 59.6851 24.9611 59.3023ZM24.9478 57.9238V58.4011C24.9478 58.6837 25.039 58.924 25.2215 59.1221C25.4062 59.3179 25.6398 59.4158 25.9224 59.4158C26.254 59.4158 26.5132 59.289 26.7001 59.0353C26.8892 58.7816 26.9838 58.4289 26.9838 57.9772C26.9838 57.5967 26.8959 57.2985 26.7201 57.0827C26.5443 56.8669 26.3062 56.7589 26.0058 56.7589C25.6876 56.7589 25.4317 56.8702 25.2382 57.0927C25.0446 57.313 24.9478 57.59 24.9478 57.9238Z" fill="#FDFDFD"/>
<path d="M21.4202 59.7963H20.8728V54.7362H21.4202V59.7963Z" fill="#FDFDFD"/>
<path d="M19.8401 59.7963H19.2927V59.2623H19.2794C19.0413 59.6717 18.6908 59.8764 18.228 59.8764C17.8875 59.8764 17.6205 59.7863 17.4269 59.6061C17.2355 59.4258 17.1399 59.1866 17.1399 58.8884C17.1399 58.2498 17.5159 57.8782 18.268 57.7736L19.2927 57.6301C19.2927 57.0493 19.058 56.7589 18.5885 56.7589C18.1768 56.7589 17.8052 56.8991 17.4736 57.1795V56.6187C17.8096 56.4051 18.1968 56.2983 18.6352 56.2983C19.4385 56.2983 19.8401 56.7233 19.8401 57.5733V59.7963ZM19.2927 58.0673L18.4683 58.1808C18.2146 58.2164 18.0233 58.2798 17.8942 58.3711C17.7651 58.4601 17.7006 58.6192 17.7006 58.8484C17.7006 59.0153 17.7596 59.1521 17.8775 59.2589C17.9977 59.3635 18.1568 59.4158 18.3548 59.4158C18.6263 59.4158 18.8499 59.3212 19.0257 59.1321C19.2037 58.9407 19.2927 58.6993 19.2927 58.4078V58.0673Z" fill="#FDFDFD"/>
<path d="M16.2899 59.7963H15.7425V59.2556H15.7292C15.5022 59.6695 15.1506 59.8764 14.6744 59.8764C13.86 59.8764 13.4528 59.3913 13.4528 58.4211V56.3784H13.9969V58.3344C13.9969 59.0553 14.2728 59.4158 14.8246 59.4158C15.0917 59.4158 15.3109 59.3179 15.4822 59.1221C15.6558 58.924 15.7425 58.6659 15.7425 58.3477V56.3784H16.2899V59.7963Z" fill="#FDFDFD"/>
<path d="M12.7938 59.7629C12.6647 59.8341 12.4945 59.8697 12.2831 59.8697C11.6845 59.8697 11.3852 59.536 11.3852 58.8684V56.8457H10.7978V56.3784H11.3852V55.544L11.9326 55.3671V56.3784H12.7938V56.8457H11.9326V58.7716C11.9326 59.0008 11.9715 59.1644 12.0494 59.2623C12.1273 59.3602 12.2564 59.4091 12.4366 59.4091C12.5746 59.4091 12.6936 59.3713 12.7938 59.2956V59.7629Z" fill="#FDFDFD"/>
<path d="M10.6125 56.9325C10.5168 56.8591 10.3788 56.8223 10.1986 56.8223C9.96496 56.8223 9.76915 56.9325 9.61116 57.1528C9.4554 57.3731 9.37752 57.6735 9.37752 58.054V59.7963H8.83012V56.3784H9.37752V57.0827H9.39087C9.46875 56.8424 9.5878 56.6555 9.74801 56.5219C9.90822 56.3862 10.0874 56.3183 10.2854 56.3183C10.4278 56.3183 10.5368 56.3339 10.6125 56.3651V56.9325Z" fill="#FDFDFD"/>
<path d="M7.45757 55.5106C7.35966 55.5106 7.27622 55.4772 7.20724 55.4105C7.13826 55.3437 7.10377 55.2592 7.10377 55.1568C7.10377 55.0544 7.13826 54.9699 7.20724 54.9031C7.27622 54.8341 7.35966 54.7997 7.45757 54.7997C7.55771 54.7997 7.64226 54.8341 7.71124 54.9031C7.78245 54.9699 7.81805 55.0544 7.81805 55.1568C7.81805 55.2547 7.78245 55.3381 7.71124 55.4071C7.64226 55.4761 7.55771 55.5106 7.45757 55.5106ZM7.7246 59.7963H7.1772V56.3784H7.7246V59.7963Z" fill="#FDFDFD"/>
<path d="M6.5896 56.3784L5.22778 59.7963H4.6904L3.39534 56.3784H3.99614L4.86397 58.8617C4.9285 59.0442 4.96855 59.2033 4.98413 59.339H4.99748C5.01973 59.1677 5.05533 59.013 5.10429 58.8751L6.01216 56.3784H6.5896Z" fill="#FDFDFD"/>
<path d="M39.0443 2.91758C37.7989 2.91758 36.5659 3.16527 35.4171 3.64622C34.2684 4.12717 33.2267 4.83179 32.3528 5.71907C31.4788 6.60635 30.7901 7.65857 30.3266 8.81452C29.8991 9.88094 29.6711 11.016 29.6532 12.1632C29.6532 12.167 29.6532 12.1709 29.6532 12.1748V29.0076C29.6532 29.6064 29.1678 30.0919 28.5689 30.0919C27.9701 30.0919 27.4847 29.6064 27.4847 29.0076V13.4849C27.4847 13.4843 27.4847 13.4837 27.4847 13.4831V12.4767C27.4626 10.9468 27.7444 9.42771 28.3138 8.00749C28.8843 6.58466 29.7321 5.28948 30.8078 4.19734C31.8835 3.10519 33.1657 2.23789 34.5797 1.64589C35.9937 1.0539 37.5113 0.749023 39.0443 0.749023C40.5772 0.749023 42.0949 1.0539 43.5089 1.64589C44.9229 2.23789 46.2051 3.10519 47.2808 4.19734C48.3565 5.28948 49.2042 6.58465 49.7747 8.00749C50.3441 9.42752 50.6259 10.9464 50.6039 12.4761V29.0076C50.6039 29.6064 50.1185 30.0919 49.5196 30.0919C48.9208 30.0919 48.4353 29.6064 48.4353 29.0076V13.4876L48.4353 13.4831V12.4605L48.4354 12.4577C48.4354 12.4525 48.4355 12.4473 48.4356 12.4422C48.4531 11.2003 48.2241 9.96733 47.7619 8.81452C47.2985 7.65858 46.6097 6.60635 45.7358 5.71907C44.8619 4.83179 43.8202 4.12717 42.6714 3.64622C41.5226 3.16527 40.2897 2.91758 39.0443 2.91758Z" fill="#FDFDFD"/>
<path d="M54.8711 16.1625C54.8711 15.4852 54.322 14.9361 53.6447 14.9361C52.9674 14.9361 52.4183 15.4852 52.4183 16.1625V27.5282C52.4183 28.2055 52.9674 28.7546 53.6447 28.7546C54.322 28.7546 54.8711 28.2055 54.8711 27.5282V26.8598C55.9733 26.8267 56.8566 25.9228 56.8566 24.8126V18.878C56.8566 17.7679 55.9733 16.864 54.8711 16.8309V16.1625Z" fill="#FDFDFD"/>
<path d="M22.9813 16.1625V16.8305C21.8724 16.8561 20.9814 17.763 20.9814 18.878V24.8126C20.9814 25.9277 21.8724 26.8346 22.9813 26.8602V27.5282C22.9813 28.2055 23.5304 28.7546 24.2077 28.7546C24.8851 28.7546 25.4342 28.2055 25.4342 27.5282V16.1625C25.4342 15.4852 24.8851 14.9361 24.2077 14.9361C23.5304 14.9361 22.9813 15.4852 22.9813 16.1625Z" fill="#FDFDFD"/>
<path d="M35.151 18.562C35.0865 18.238 34.9275 17.9405 34.6939 17.707C34.539 17.5517 34.355 17.4284 34.1524 17.3444C33.9498 17.2603 33.7326 17.217 33.5133 17.217C33.2939 17.217 33.0767 17.2603 32.8741 17.3444C32.6715 17.4284 32.4875 17.5517 32.3326 17.707C32.0991 17.9405 31.94 18.238 31.8756 18.562C31.8111 18.8859 31.8442 19.2216 31.9706 19.5267C32.0969 19.8319 32.311 20.0927 32.5856 20.2761C32.8602 20.4596 33.183 20.5576 33.5133 20.5576C33.8435 20.5576 34.1664 20.4596 34.441 20.2761C34.7156 20.0927 34.9296 19.8319 35.056 19.5267C35.1823 19.2216 35.2154 18.8859 35.151 18.562Z" fill="#FDFDFD"/>
</g>
</svg>
