<svg width="79" height="46" viewBox="0 0 79 46" fill="none" xmlns="http://www.w3.org/2000/svg">
<path d="M62.6817 18.4292C62.8326 18.4293 62.982 18.3996 63.1213 18.342C63.2607 18.2843 63.3873 18.1997 63.494 18.093C63.6007 17.9864 63.6852 17.8597 63.7429 17.7204C63.8006 17.581 63.8303 17.4316 63.8302 17.2808V11.2433C63.8302 10.9387 63.7092 10.6466 63.4938 10.4312C63.2784 10.2158 62.9863 10.0948 62.6817 10.0948H49.8055L49.0626 4.02714C48.93 2.95409 48.4099 1.96645 47.6002 1.24992C46.7905 0.533397 45.7469 0.137344 44.6657 0.13623H34.2353C33.154 0.137203 32.1104 0.533207 31.3006 1.24976C30.4909 1.96631 29.9709 2.95403 29.8384 4.02714L29.0955 10.0948H16.2192C15.9147 10.095 15.6227 10.216 15.4074 10.4314C15.192 10.6467 15.071 10.9387 15.0708 11.2433V17.2808C15.0708 17.5853 15.1918 17.8775 15.4072 18.0928C15.6225 18.3082 15.9147 18.4292 16.2192 18.4292H26.7619V44.7133C26.7619 45.0179 26.8829 45.31 27.0983 45.5254C27.3136 45.7408 27.6057 45.8618 27.9103 45.8618H50.9906C51.1415 45.8618 51.2909 45.8322 51.4302 45.7745C51.5696 45.7168 51.6962 45.6322 51.8029 45.5256C51.9096 45.4189 51.9942 45.2923 52.0518 45.1529C52.1095 45.0135 52.1392 44.8642 52.1391 44.7133V18.4292H62.6817ZM32.1182 4.30867C32.182 3.79198 32.4324 3.31641 32.8223 2.97138C33.2122 2.62635 33.7147 2.43562 34.2353 2.43507H44.6651C45.1858 2.43546 45.6884 2.62611 46.0784 2.97116C46.4684 3.31621 46.7189 3.79187 46.7828 4.30867L47.4915 10.0968H31.4095L32.1182 4.30867ZM17.369 12.3937H61.5346V16.1343H17.369V12.3937ZM49.8422 43.5655H29.0588V18.4312H49.8422V43.5655Z" fill="black"/>
<path d="M77.3114 0.138207H75.216C74.1149 0.134615 73.0522 0.542704 72.2365 1.28237C71.4209 2.02204 70.9111 3.03988 70.8073 4.13608L69.298 19.5055C69.2521 19.9823 69.0465 20.4298 68.7145 20.7752C68.3826 21.1206 67.9437 21.3438 67.469 21.4086L58.1371 22.708C57.0797 22.8586 56.1118 23.3848 55.4104 24.1903C54.709 24.9958 54.3209 26.0269 54.3171 27.095V29.3092C54.317 29.46 54.3466 29.6094 54.4043 29.7488C54.462 29.8881 54.5466 30.0148 54.6533 30.1214C54.7599 30.2281 54.8865 30.3127 55.0259 30.3704C55.1653 30.4281 55.3147 30.4577 55.4655 30.4576H63.2513V43.5649H60.6558C60.3512 43.5649 60.0591 43.6859 59.8437 43.9013C59.6283 44.1166 59.5074 44.4087 59.5074 44.7133C59.5074 45.0179 59.6283 45.31 59.8437 45.5254C60.0591 45.7408 60.3512 45.8618 60.6558 45.8618H72.1205C72.4251 45.8618 72.7172 45.7408 72.9325 45.5254C73.1479 45.31 73.2689 45.0179 73.2689 44.7133C73.2689 44.4087 73.1479 44.1166 72.9325 43.9013C72.7172 43.6859 72.4251 43.5649 72.1205 43.5649H69.5257V30.4576H70.7489C72.7933 30.4554 74.7533 29.6422 76.1989 28.1966C77.6445 26.751 78.4576 24.791 78.4599 22.7467V1.2873C78.46 1.13641 78.4304 0.986959 78.3728 0.847509C78.3152 0.708059 78.2306 0.581345 78.1239 0.474616C78.0172 0.367887 77.8906 0.283238 77.7512 0.225513C77.6117 0.167788 77.4623 0.138121 77.3114 0.138207ZM67.2288 43.5649H65.5481V30.4576H67.2288V43.5649ZM76.163 22.7467C76.1614 24.1821 75.5905 25.5583 74.5755 26.5733C73.5605 27.5883 72.1843 28.1592 70.7489 28.1607H56.6139V27.095C56.6158 26.581 56.8025 26.0848 57.1398 25.697C57.4771 25.3092 57.9427 25.0556 58.4515 24.9825L67.7879 23.6845C68.7739 23.5494 69.6855 23.0853 70.3748 22.3675C71.0641 21.6496 71.4908 20.7199 71.5856 19.7292L73.095 4.35986C73.1446 3.83218 73.3899 3.34216 73.7825 2.98611C74.1751 2.63006 74.6867 2.43374 75.2167 2.43574H76.1636L76.163 22.7467ZM20.7643 22.708L11.4285 21.4092C10.9538 21.3446 10.5148 21.1214 10.1828 20.776C9.85085 20.4305 9.6453 19.983 9.59954 19.5061L8.09411 4.13674C7.99032 3.04036 7.48049 2.02236 6.66469 1.28257C5.84889 0.542774 4.78604 0.134615 3.68476 0.138207H1.58936C1.28477 0.138207 0.992661 0.259203 0.777287 0.474577C0.561913 0.689951 0.440918 0.98206 0.440918 1.28664V22.746C0.443176 24.7904 1.2563 26.7504 2.70189 28.196C4.14749 29.6416 6.10748 30.4547 8.15185 30.457H9.37445V43.5649H6.78029C6.47571 43.5649 6.1836 43.6859 5.96822 43.9013C5.75285 44.1166 5.63186 44.4087 5.63186 44.7133C5.63186 45.0179 5.75285 45.31 5.96822 45.5254C6.1836 45.7408 6.47571 45.8618 6.78029 45.8618H18.2443C18.5489 45.8618 18.841 45.7408 19.0564 45.5254C19.2718 45.31 19.3928 45.0179 19.3928 44.7133C19.3928 44.4087 19.2718 44.1166 19.0564 43.9013C18.841 43.6859 18.5489 43.5649 18.2443 43.5649H15.6495V30.4576H23.4379C23.7425 30.4576 24.0346 30.3366 24.25 30.1212C24.4653 29.9059 24.5863 29.6138 24.5863 29.3092V27.095C24.5823 26.0266 24.1939 24.9954 23.4921 24.1899C22.7903 23.3844 21.822 22.8583 20.7643 22.708ZM13.3526 43.5649H11.6713V30.4576H13.3526V43.5649ZM22.2868 28.1607H8.15185C6.71644 28.1592 5.34026 27.5883 4.32526 26.5733C3.31027 25.5583 2.73936 24.1821 2.73779 22.7467V2.43508H3.68476C4.21527 2.43344 4.7272 2.6303 5.11993 2.98696C5.51265 3.34362 5.75776 3.83428 5.80707 4.36249L7.31645 19.7319C7.411 20.7229 7.83763 21.6528 8.52711 22.3709C9.21659 23.089 10.1285 23.553 11.1148 23.6877L20.4506 24.9858C20.9594 25.0589 21.425 25.3124 21.7623 25.7003C22.0996 26.0881 22.2863 26.5843 22.2881 27.0983L22.2868 28.1607Z" fill="black"/>
</svg>
