<svg width="40" height="25" viewBox="0 0 40 25" fill="none" xmlns="http://www.w3.org/2000/svg">
<path d="M27.0556 14.6998C26.9938 14.6999 26.933 14.6847 26.8785 14.6555C26.8241 14.6263 26.7777 14.584 26.7436 14.5325L20.0761 4.53128C20.0488 4.49028 20.0298 4.44431 20.0203 4.39598C20.0107 4.34765 20.0108 4.29792 20.0205 4.24963C20.0302 4.20133 20.0493 4.15541 20.0767 4.11449C20.1041 4.07357 20.1393 4.03846 20.1803 4.01115C20.2213 3.98385 20.2673 3.96488 20.3156 3.95534C20.364 3.9458 20.4137 3.94588 20.462 3.95556C20.5103 3.96524 20.5562 3.98434 20.5971 4.01176C20.638 4.03919 20.6732 4.07441 20.7005 4.1154L27.1302 13.76L35.0581 6.78315C35.0951 6.7506 35.1381 6.72565 35.1847 6.70973C35.2314 6.69381 35.2807 6.68723 35.3298 6.69037C35.379 6.6935 35.4271 6.70629 35.4713 6.728C35.5155 6.74971 35.555 6.77992 35.5876 6.8169C35.6201 6.85389 35.6451 6.89692 35.661 6.94354C35.6769 6.99017 35.6835 7.03947 35.6804 7.08864C35.6772 7.13781 35.6645 7.18588 35.6427 7.23011C35.621 7.27433 35.5908 7.31385 35.5538 7.3464L27.3031 14.6064C27.2345 14.6664 27.1467 14.6998 27.0556 14.6998Z" fill="#FF9F57" stroke="#FF9F57" stroke-width="1.5"/>
<path d="M31.5556 21.0749H7.55563C7.47689 21.0749 7.40014 21.0501 7.33627 21.0041C7.2724 20.958 7.22463 20.8931 7.19975 20.8184L2.79725 7.61461C2.78091 7.56771 2.77405 7.51804 2.77706 7.46846C2.78007 7.41889 2.7929 7.37041 2.8148 7.32584C2.8367 7.28126 2.86724 7.24148 2.90464 7.20881C2.94204 7.17613 2.98556 7.15121 3.03267 7.13549C3.07978 7.11977 3.12954 7.11357 3.17907 7.11724C3.2286 7.1209 3.2769 7.13438 3.32118 7.15687C3.36546 7.17936 3.40484 7.21042 3.43701 7.24825C3.46919 7.28608 3.49353 7.32992 3.50863 7.37724L7.826 20.3249H31.2856L35.603 7.37761C35.6354 7.28451 35.7033 7.20792 35.7917 7.16444C35.8802 7.12096 35.9823 7.11408 36.0758 7.14529C36.1693 7.1765 36.2468 7.24329 36.2915 7.33119C36.3361 7.4191 36.3443 7.52105 36.3144 7.61499L31.9119 20.8187C31.8605 20.9717 31.7169 21.0749 31.5556 21.0749Z" fill="#FF9F57" stroke="#FF9F57" stroke-width="1.5"/>
<path d="M12.0558 14.6998C11.9647 14.6998 11.8766 14.6664 11.808 14.6064L3.55796 7.3464C3.48327 7.28065 3.43775 7.18794 3.43142 7.08863C3.4251 6.98933 3.45847 6.89159 3.52421 6.8169C3.58995 6.7422 3.68267 6.69669 3.78197 6.69036C3.88127 6.68403 3.97902 6.7174 4.05371 6.78314L11.982 13.76L18.4117 4.11539C18.4668 4.03376 18.5518 3.97708 18.6484 3.9576C18.7449 3.93813 18.8452 3.95741 18.9277 4.01129C19.0101 4.06517 19.0681 4.14932 19.089 4.24556C19.1099 4.3418 19.0921 4.44241 19.0395 4.52564L19.0357 4.53127L12.3682 14.5325C12.3339 14.5839 12.2875 14.6261 12.233 14.6553C12.1785 14.6845 12.1176 14.6997 12.0558 14.6998Z" fill="#FF9F57" stroke="#FF9F57" stroke-width="1.5"/>
<path d="M2.6807 7.94998C2.25106 7.9508 1.83412 7.80435 1.49938 7.53502C1.16463 7.2657 0.932311 6.88978 0.841135 6.46993C0.749959 6.05008 0.805439 5.61166 0.998327 5.22776C1.19121 4.84385 1.50986 4.53766 1.90114 4.36021C2.29242 4.18276 2.7327 4.14478 3.14859 4.25261C3.56447 4.36043 3.93084 4.60754 4.18662 4.95274C4.4424 5.29794 4.57214 5.72039 4.5542 6.14965C4.53627 6.57891 4.37175 6.98906 4.08807 7.31173C3.86955 7.56361 3.58615 7.75077 3.2687 7.85285C3.07949 7.91778 2.88074 7.95061 2.6807 7.94998ZM2.6807 4.94998C2.38233 4.94998 2.09618 5.0685 1.8852 5.27948C1.67423 5.49046 1.5557 5.77661 1.5557 6.07498C1.5557 6.37335 1.67423 6.65949 1.8852 6.87047C2.09618 7.08145 2.38233 7.19998 2.6807 7.19998C2.79936 7.20036 2.91725 7.18084 3.02945 7.14223C3.22025 7.08193 3.39074 6.97022 3.5222 6.81935C3.66602 6.65734 3.75994 6.45721 3.79264 6.24305C3.82534 6.02889 3.79542 5.80985 3.70649 5.6123C3.61757 5.41476 3.47343 5.24713 3.29143 5.12962C3.10943 5.01211 2.89734 4.94973 2.6807 4.94998ZM36.4307 7.94998C36.1641 7.94863 35.9009 7.89097 35.6581 7.78079C35.4154 7.6706 35.1987 7.51037 35.0222 7.3106C34.7401 6.98841 34.5768 6.5793 34.5596 6.15138C34.5424 5.72346 34.6723 5.30256 34.9276 4.95876C35.183 4.61496 35.5484 4.369 35.9631 4.26184C36.3777 4.15468 36.8166 4.19278 37.2065 4.3698C37.5965 4.54682 37.914 4.85208 38.1063 5.23475C38.2986 5.61742 38.354 6.05441 38.2633 6.47296C38.1726 6.89151 37.9413 7.26636 37.6078 7.5351C37.2744 7.80385 36.859 7.95026 36.4307 7.94998ZM36.4307 4.94998C36.2142 4.94976 36.0023 5.01208 35.8205 5.12943C35.6386 5.24679 35.4945 5.41418 35.4055 5.61148C35.3165 5.80879 35.2864 6.0276 35.3187 6.24161C35.3511 6.45563 35.4447 6.65573 35.5881 6.81785C35.6942 6.93672 35.8239 7.03212 35.969 7.09792C36.1141 7.16373 36.2714 7.19849 36.4307 7.19998C36.7291 7.19998 37.0152 7.08145 37.2262 6.87047C37.4372 6.65949 37.5557 6.37335 37.5557 6.07498C37.5557 5.77661 37.4372 5.49046 37.2262 5.27948C37.0152 5.0685 36.7291 4.94998 36.4307 4.94998ZM19.5557 4.94998C19.059 4.94948 18.5828 4.75168 18.2319 4.40008C17.881 4.04849 17.6841 3.5719 17.6846 3.07517C17.6851 2.57843 17.8829 2.10224 18.2345 1.75135C18.5861 1.40046 19.0627 1.20361 19.5595 1.2041C20.0562 1.2046 20.5324 1.4024 20.8833 1.754C21.2342 2.10559 21.431 2.58218 21.4305 3.07892C21.43 3.57565 21.2322 4.05184 20.8806 4.40273C20.529 4.75362 20.0524 4.95047 19.5557 4.94998ZM19.5557 1.94998C19.3142 1.94995 19.079 2.02764 18.885 2.17156C18.691 2.31548 18.5485 2.518 18.4785 2.74918C18.4085 2.98035 18.4147 3.22792 18.4963 3.45529C18.5778 3.68265 18.7303 3.87774 18.9313 4.01173C19.1173 4.13217 19.3341 4.19625 19.5557 4.19625C19.7773 4.19625 19.9941 4.13217 20.1801 4.01173C20.3808 3.8776 20.5331 3.68249 20.6145 3.45521C20.6958 3.22792 20.702 2.98049 20.632 2.74944C20.5621 2.51839 20.4197 2.31595 20.2259 2.172C20.0321 2.02805 19.7971 1.95021 19.5557 1.94998ZM8.74782 11.79C8.6801 11.7898 8.6137 11.7712 8.55565 11.7364C8.4976 11.7015 8.45006 11.6516 8.41808 11.5919C8.3861 11.5322 8.37087 11.4649 8.37399 11.3973C8.37711 11.3296 8.39848 11.2641 8.43582 11.2076L10.3671 8.3051C10.3936 8.26359 10.428 8.2277 10.4683 8.19948C10.5087 8.17127 10.5542 8.15128 10.6023 8.14066C10.6504 8.13004 10.7001 8.12899 10.7486 8.13758C10.7971 8.14618 10.8434 8.16423 10.8849 8.19073C10.9265 8.21722 10.9624 8.25163 10.9906 8.292C11.0188 8.33236 11.0388 8.37789 11.0494 8.42598C11.06 8.47407 11.0611 8.52378 11.0525 8.57227C11.0439 8.62076 11.0258 8.66709 10.9993 8.7086L10.9914 8.7206L9.0602 11.6231C9.02598 11.6746 8.97954 11.7168 8.92502 11.7459C8.87051 11.775 8.80963 11.7901 8.74782 11.79ZM13.9311 11.8875C13.8693 11.8876 13.8084 11.8724 13.7539 11.8433C13.6994 11.8142 13.6529 11.772 13.6187 11.7206L11.6199 8.7206C11.5696 8.63787 11.5532 8.53888 11.5742 8.44434C11.5951 8.34979 11.6518 8.267 11.7324 8.21326C11.8129 8.15952 11.9111 8.139 12.0065 8.15597C12.1018 8.17295 12.1869 8.22611 12.2439 8.30435L14.2427 11.3044C14.2802 11.3608 14.3018 11.4264 14.305 11.4941C14.3082 11.5619 14.2931 11.6292 14.2611 11.689C14.2292 11.7488 14.1816 11.7989 14.1235 11.8338C14.0654 11.8687 13.9989 11.8873 13.9311 11.8875Z" fill="#FF9F57" stroke="#FF9F57" stroke-width="1.5"/>
<path d="M11.3057 9.0752C10.9078 9.0752 10.5263 8.91716 10.245 8.63586C9.9637 8.35455 9.80566 7.97302 9.80566 7.5752C9.80566 7.17737 9.9637 6.79584 10.245 6.51454C10.5263 6.23323 10.9078 6.0752 11.3057 6.0752C11.7035 6.0752 12.085 6.23323 12.3663 6.51454C12.6476 6.79584 12.8057 7.17737 12.8057 7.5752C12.8057 7.97302 12.6476 8.35455 12.3663 8.63586C12.085 8.91716 11.7035 9.0752 11.3057 9.0752ZM11.3057 6.8252C11.2058 6.82294 11.1065 6.84065 11.0135 6.87731C10.9206 6.91396 10.8359 6.96882 10.7645 7.03865C10.693 7.10848 10.6363 7.19188 10.5975 7.28395C10.5587 7.37602 10.5387 7.47491 10.5387 7.57482C10.5387 7.67472 10.5586 7.77362 10.5973 7.86571C10.6361 7.9578 10.6928 8.04123 10.7642 8.1111C10.8356 8.18096 10.9203 8.23586 11.0132 8.27256C11.1061 8.30926 11.2054 8.32703 11.3053 8.32482C11.5012 8.32049 11.6877 8.23961 11.8248 8.09951C11.9619 7.9594 12.0387 7.7712 12.0387 7.57519C12.0388 7.37918 11.9621 7.19094 11.8251 7.05077C11.6881 6.9106 11.5016 6.82963 11.3057 6.8252ZM25.1803 11.8877C25.1124 11.8876 25.0459 11.8692 24.9877 11.8343C24.9295 11.7993 24.8819 11.7493 24.8499 11.6894C24.8179 11.6296 24.8027 11.5622 24.8061 11.4944C24.8094 11.4266 24.831 11.361 24.8687 11.3046L26.8674 8.30457C26.8947 8.2636 26.9299 8.22841 26.9708 8.20102C27.0117 8.17362 27.0577 8.15456 27.106 8.14491C27.1543 8.13527 27.204 8.13523 27.2523 8.1448C27.3006 8.15437 27.3466 8.17336 27.3875 8.2007C27.4285 8.22803 27.4637 8.26316 27.4911 8.30409C27.5185 8.34502 27.5376 8.39095 27.5472 8.43924C27.5568 8.48754 27.5569 8.53727 27.5473 8.58558C27.5377 8.63389 27.5187 8.67985 27.4914 8.72082L25.4927 11.7208C25.4584 11.7723 25.412 11.8144 25.3575 11.8435C25.303 11.8727 25.2421 11.8878 25.1803 11.8877ZM30.3635 11.7902C30.2379 11.7902 30.1205 11.7276 30.0508 11.6229L28.1195 8.72045C28.0644 8.6376 28.0445 8.53626 28.0641 8.43871C28.0837 8.34117 28.1413 8.25542 28.2242 8.20032C28.307 8.14522 28.4084 8.12529 28.5059 8.14491C28.6034 8.16453 28.6892 8.2221 28.7443 8.30494L30.6755 11.2074C30.7131 11.2639 30.7347 11.3295 30.7379 11.3973C30.7412 11.465 30.726 11.5324 30.6939 11.5922C30.6619 11.652 30.6143 11.702 30.5561 11.7369C30.4979 11.7717 30.4314 11.7902 30.3635 11.7902Z" fill="#FF9F57" stroke="#FF9F57" stroke-width="1.5"/>
<path d="M27.8057 9.0752C27.4078 9.0752 27.0263 8.91716 26.745 8.63586C26.4637 8.35455 26.3057 7.97302 26.3057 7.5752C26.3057 7.17737 26.4637 6.79584 26.745 6.51454C27.0263 6.23323 27.4078 6.0752 27.8057 6.0752C28.2035 6.0752 28.585 6.23323 28.8663 6.51454C29.1476 6.79584 29.3057 7.17737 29.3057 7.5752C29.3057 7.97302 29.1476 8.35455 28.8663 8.63586C28.585 8.91716 28.2035 9.0752 27.8057 9.0752ZM27.8057 6.8252C27.7058 6.82294 27.6065 6.84065 27.5135 6.87731C27.4206 6.91396 27.3359 6.96882 27.2645 7.03865C27.193 7.10848 27.1363 7.19188 27.0975 7.28395C27.0587 7.37602 27.0387 7.47491 27.0387 7.57482C27.0387 7.67472 27.0586 7.77362 27.0973 7.86571C27.1361 7.9578 27.1928 8.04123 27.2642 8.1111C27.3356 8.18096 27.4203 8.23586 27.5132 8.27256C27.6061 8.30926 27.7054 8.32703 27.8053 8.32482C28.0013 8.32049 28.1877 8.23961 28.3248 8.09951C28.4619 7.9594 28.5387 7.7712 28.5387 7.57519C28.5388 7.37918 28.4621 7.19094 28.3251 7.05077C28.1881 6.9106 28.0016 6.82963 27.8057 6.8252ZM31.5557 24.0752H7.55566C7.05838 24.0752 6.58147 23.8777 6.22984 23.526C5.87821 23.1744 5.68066 22.6975 5.68066 22.2002C5.68066 21.7029 5.87821 21.226 6.22984 20.8744C6.58147 20.5227 7.05838 20.3252 7.55566 20.3252H31.5557C32.0529 20.3252 32.5299 20.5227 32.8815 20.8744C33.2331 21.226 33.4307 21.7029 33.4307 22.2002C33.4307 22.6975 33.2331 23.1744 32.8815 23.526C32.5299 23.8777 32.0529 24.0752 31.5557 24.0752ZM7.55566 21.0752C7.2573 21.0752 6.97115 21.1937 6.76017 21.4047C6.54919 21.6157 6.43066 21.9018 6.43066 22.2002C6.43066 22.4986 6.54919 22.7847 6.76017 22.9957C6.97115 23.2067 7.2573 23.3252 7.55566 23.3252H31.5557C31.854 23.3252 32.1402 23.2067 32.3512 22.9957C32.5621 22.7847 32.6807 22.4986 32.6807 22.2002C32.6807 21.9018 32.5621 21.6157 32.3512 21.4047C32.1402 21.1937 31.854 21.0752 31.5557 21.0752H7.55566Z" fill="#FF9F57" stroke="#FF9F57" stroke-width="1.5"/>
</svg>
