<svg width="49" height="34" viewBox="0 0 49 34" fill="none" xmlns="http://www.w3.org/2000/svg">
<path d="M41.0555 25.4087H38.9707C38.1941 25.4087 37.5645 26.0383 37.5645 26.815C37.5645 27.5916 38.1941 28.2212 38.9707 28.2212H41.0555C41.8321 28.2212 42.4618 27.5916 42.4618 26.815C42.4618 26.0382 41.8321 25.4087 41.0555 25.4087Z" fill="#FF9F57"/>
<path d="M48.5 4.34334C48.5 2.01708 46.6075 0.124512 44.2812 0.124512H4.71883C2.39257 0.124512 0.5 2.01708 0.5 4.34334V29.6563C0.5 31.9827 2.39257 33.8752 4.71883 33.8752H44.2812C46.6075 33.8752 48.5 31.9827 48.5 29.6563V4.34334ZM4.71883 2.93707H44.2812C45.0566 2.93707 45.6874 3.56792 45.6874 4.34334V7.62466H3.31255V4.34334C3.31255 3.56792 3.94341 2.93707 4.71883 2.93707ZM44.2812 31.0626H4.71883C3.94341 31.0626 3.31255 30.4319 3.31255 29.6563V10.4372H45.6874V29.6563C45.6874 30.4319 45.0566 31.0626 44.2812 31.0626Z" fill="#FF9F57"/>
<path d="M19.0925 14.2153C18.6472 14.2153 18.2909 14.3578 18.184 14.7319L15.708 23.8701L13.2142 14.7319C13.1073 14.3578 12.7511 14.2153 12.3057 14.2153C11.5397 14.2153 10.5244 14.6963 10.5244 15.3554C10.5244 15.4087 10.5422 15.48 10.56 15.5513L13.8911 26.4172C14.0871 27.0407 14.8887 27.3435 15.708 27.3435C16.5274 27.3435 17.329 27.0408 17.525 26.4172L20.8382 15.5513C20.856 15.48 20.8739 15.4087 20.8739 15.3554C20.8738 14.6963 19.8584 14.2153 19.0925 14.2153ZM24.6319 14.2153C23.9372 14.2153 23.2425 14.4647 23.2425 15.0525V26.3817C23.2425 26.9517 23.9372 27.2367 24.6319 27.2367C25.3266 27.2367 26.0213 26.9517 26.0213 26.3817V15.0524C26.0214 14.4647 25.3266 14.2153 24.6319 14.2153ZM38.2053 18.3123C38.2053 15.3197 36.3528 14.2153 34.0015 14.2153H30.3142C29.6908 14.2153 29.281 14.6072 29.281 15.0525V26.3817C29.281 26.9517 29.9757 27.2367 30.6704 27.2367C31.3651 27.2367 32.0598 26.9517 32.0598 26.3817V22.5341H33.8233C36.2816 22.5341 38.2053 21.3941 38.2053 18.4014V18.3123ZM35.4264 18.6152C35.4264 19.8265 34.8209 20.3965 33.8232 20.3965H32.0597V16.6379H33.8232C34.8209 16.6379 35.4264 17.2079 35.4264 18.4193V18.6152Z" fill="#FF9F57"/>
</svg>
