<svg width="49" height="36" viewBox="0 0 49 36" fill="none" xmlns="http://www.w3.org/2000/svg">
<path fill-rule="evenodd" clip-rule="evenodd" d="M24.5834 22.4568C24.4147 22.4568 24.2741 22.4006 24.1617 22.26L20.5061 17.789C20.3093 17.5359 20.3374 17.1984 20.5905 17.0016C20.8436 16.8048 21.181 16.8329 21.3778 17.086L24.5834 21.0227L27.8453 17.0297C28.0421 16.8048 28.3796 16.7485 28.6327 16.9735C28.8857 17.1703 28.9139 17.5078 28.717 17.7608L25.0334 22.26C24.9209 22.4006 24.7522 22.4568 24.5834 22.4568ZM24.7803 15.7081C20.6748 15.7081 17.3286 12.3619 17.3286 8.22832C17.3286 4.12288 20.6748 0.748535 24.7803 0.748535C28.9139 0.748535 32.2601 4.12288 32.2601 8.22832C32.2601 12.3619 28.9139 15.7081 24.7803 15.7081ZM24.7803 1.87332C21.2935 1.87332 18.4534 4.74151 18.4534 8.22832C18.4534 11.7433 21.2935 14.5833 24.7803 14.5833C28.2952 14.5833 31.1353 11.7433 31.1353 8.22832C31.1353 4.74151 28.2952 1.87332 24.7803 1.87332Z" fill="#FF9F57" stroke="#FF9F57"/>
<path fill-rule="evenodd" clip-rule="evenodd" d="M31.6977 8.6218C31.6133 8.6218 31.5571 8.6218 31.4727 8.59368C29.7293 7.86258 28.6327 6.93463 28.3233 5.89421C26.8049 6.93463 23.4306 8.59368 17.8629 7.94694C17.5536 7.91882 17.3286 7.63762 17.3849 7.32831C17.413 7.01899 17.6942 6.79404 18.0035 6.82216C25.174 7.63762 28.4358 4.40388 28.4639 4.34764C28.6608 4.17892 28.942 4.12268 29.1669 4.26328C29.3919 4.40388 29.4763 4.65695 29.42 4.91003C29.0263 6.20353 31.0228 7.18771 31.9226 7.55326C32.2038 7.66574 32.3444 8.00318 32.232 8.28437C32.1195 8.50933 31.9226 8.6218 31.6977 8.6218ZM28.2671 17.9575C27.9859 17.9575 27.7328 17.7325 27.7047 17.4232C27.6766 16.5796 27.6204 15.3424 27.7328 14.1332C27.761 13.8239 28.0422 13.599 28.3515 13.6271C28.6608 13.6552 28.8857 13.9364 28.8576 14.2457C28.7451 15.3705 28.8014 16.5515 28.8295 17.367C28.8576 17.6763 28.6327 17.9294 28.3233 17.9575H28.2671ZM20.956 17.9856H20.8998C20.5905 17.9575 20.3655 17.7044 20.3936 17.3951C20.4499 16.6921 20.5061 15.3142 20.3936 14.0208C20.3655 13.7114 20.5905 13.4302 20.8998 13.4021C21.2091 13.374 21.4622 13.599 21.4903 13.9083C21.6309 15.2861 21.5747 16.7483 21.5184 17.4794C21.4903 17.7606 21.2372 17.9856 20.956 17.9856ZM32.2601 27.49C31.9508 27.49 31.6977 27.2369 31.6977 26.9276V23.8345C31.6977 23.5251 31.9508 23.2721 32.2601 23.2721C32.5694 23.2721 32.8225 23.5251 32.8225 23.8345V26.9276C32.8225 27.2369 32.5694 27.49 32.2601 27.49ZM16.9349 27.4619C16.6256 27.4619 16.3726 27.2088 16.3726 26.8995V23.8345C16.3726 23.5251 16.6256 23.2721 16.9349 23.2721C17.2443 23.2721 17.4973 23.5251 17.4973 23.8345V26.8995C17.4973 27.2088 17.2443 27.4619 16.9349 27.4619Z" fill="#FF9F57" stroke="#FF9F57"/>
<path fill-rule="evenodd" clip-rule="evenodd" d="M35.6062 27.4902H29.9261C29.6168 27.4902 29.3637 27.2371 29.3637 26.9278C29.3637 26.6185 29.6168 26.3654 29.9261 26.3654H35.0438V22.1475C35.0438 19.8417 33.1598 17.9576 30.854 17.9576H28.267C27.9577 17.9576 27.7046 17.7046 27.7046 17.3953C27.7046 17.0859 27.9577 16.8329 28.267 16.8329H30.854C33.7784 16.8329 36.1686 19.223 36.1686 22.1475V26.9278C36.1686 27.2371 35.9155 27.4902 35.6062 27.4902ZM19.6625 27.4902H13.9823C13.673 27.4902 13.4199 27.2371 13.4199 26.9278V22.1475C13.4199 19.223 15.8101 16.8329 18.7345 16.8329H20.956C21.2653 16.8329 21.5183 17.0859 21.5183 17.3953C21.5183 17.7046 21.2653 17.9576 20.956 17.9576H18.7345C16.4287 17.9576 14.5447 19.8417 14.5447 22.1475V26.3654H19.6625C19.9718 26.3654 20.2248 26.6185 20.2248 26.9278C20.2248 27.2371 19.9718 27.4902 19.6625 27.4902ZM39.2899 18.4076C39.1212 18.4076 38.9806 18.3232 38.8681 18.2107L35.9155 14.5833C35.7187 14.3302 35.7468 13.9928 35.9999 13.796C36.2248 13.5991 36.5904 13.6272 36.7872 13.8803L39.2899 16.9453L41.8487 13.8241C42.0456 13.5991 42.4111 13.571 42.6361 13.7678C42.8892 13.9647 42.9173 14.3021 42.7205 14.5552L39.7398 18.2107C39.6273 18.3232 39.4586 18.4076 39.2899 18.4076ZM39.4586 12.9243C36.0561 12.9243 33.3004 10.1685 33.3004 6.76608C33.3004 3.36362 36.0561 0.60791 39.4586 0.60791C42.861 0.60791 45.6168 3.36362 45.6168 6.76608C45.6168 10.1685 42.861 12.9243 39.4586 12.9243ZM39.4586 1.73269C36.6748 1.73269 34.4252 3.98225 34.4252 6.76608C34.4252 9.54991 36.6748 11.7995 39.4586 11.7995C42.2424 11.7995 44.492 9.54991 44.492 6.76608C44.492 3.98225 42.2424 1.73269 39.4586 1.73269Z" fill="#FF9F57" stroke="#FF9F57"/>
<path fill-rule="evenodd" clip-rule="evenodd" d="M45.0544 7.18801C44.9981 7.18801 44.9138 7.18801 44.8294 7.15989C43.4516 6.5975 42.5799 5.86639 42.2705 5.05092C40.9771 5.89451 38.2213 7.13177 33.8347 6.65374C33.5254 6.5975 33.3004 6.3163 33.3285 6.00699C33.3848 5.69767 33.6379 5.50084 33.9753 5.52896C39.7398 6.1757 42.3268 3.58871 42.3549 3.56059C42.5517 3.36375 42.8329 3.33563 43.0579 3.44811C43.2829 3.58871 43.3953 3.8699 43.311 4.12298C43.0017 5.10716 44.7169 5.89451 45.2793 6.11946C45.5605 6.23194 45.7011 6.56938 45.5886 6.85057C45.4762 7.07553 45.2793 7.18801 45.0544 7.18801ZM42.2705 14.7522C41.9894 14.7522 41.7363 14.5272 41.7082 14.2179C41.68 13.543 41.6519 12.5307 41.7363 11.5465C41.7644 11.2372 42.0456 11.0123 42.3549 11.0404C42.6642 11.0685 42.8892 11.3497 42.8611 11.659C42.7767 12.6151 42.8048 13.6274 42.8329 14.1616C42.8611 14.471 42.6361 14.724 42.3268 14.7522H42.2705ZM36.3373 14.7803H36.3092C35.9999 14.7522 35.7468 14.4991 35.7749 14.1898C35.8312 13.6274 35.8874 12.5026 35.7749 11.4622C35.7468 11.1529 35.9718 10.8998 36.2811 10.8717C36.5904 10.8435 36.8716 11.0685 36.8997 11.3778C37.0122 12.5026 36.956 13.6555 36.8997 14.2741C36.8716 14.5553 36.6466 14.7803 36.3373 14.7803ZM45.5043 22.485C45.195 22.485 44.9419 22.2319 44.9419 21.9226V19.3919C44.9419 19.0826 45.195 18.8295 45.5043 18.8295C45.8136 18.8295 46.0667 19.0826 46.0667 19.3919V21.9226C46.0667 22.2319 45.8136 22.485 45.5043 22.485Z" fill="#FF9F57" stroke="#FF9F57"/>
<path fill-rule="evenodd" clip-rule="evenodd" d="M48.2323 22.4849H35.6066C35.2973 22.4849 35.0442 22.2318 35.0442 21.9225C35.0442 21.6132 35.2973 21.3601 35.6066 21.3601H47.6699V18.042C47.6699 16.2424 46.1795 14.752 44.3518 14.752H42.2709C41.9616 14.752 41.7085 14.4989 41.7085 14.1896C41.7085 13.8803 41.9616 13.6272 42.2709 13.6272H44.3518C46.7982 13.6272 48.7947 15.6237 48.7947 18.042V21.9225C48.7947 22.2318 48.5416 22.4849 48.2323 22.4849ZM30.7419 17.9576H30.6576C30.3483 17.9014 30.1514 17.5921 30.2077 17.3109C30.5732 15.1738 32.401 13.6272 34.5381 13.6272H36.3377C36.647 13.6272 36.9001 13.8803 36.9001 14.1896C36.9001 14.4989 36.647 14.752 36.3377 14.752H34.5381C32.9353 14.752 31.5855 15.9049 31.3043 17.4796C31.2481 17.7608 31.0231 17.9576 30.7419 17.9576ZM9.96162 18.4076C9.79291 18.4076 9.62419 18.3232 9.53983 18.2107L6.58728 14.5833C6.39045 14.3302 6.41857 13.9928 6.64352 13.796C6.8966 13.5991 7.26215 13.6272 7.43087 13.8803L9.96162 16.9453L12.5205 13.8241C12.7173 13.5991 13.0548 13.571 13.3078 13.7678C13.5328 13.9647 13.589 14.3021 13.3922 14.5552L10.4115 18.2107C10.2991 18.3232 10.1303 18.4076 9.96162 18.4076ZM10.1303 12.9243C6.72788 12.9243 3.97217 10.1685 3.97217 6.76608C3.97217 3.36362 6.72788 0.60791 10.1303 0.60791C13.5328 0.60791 16.2885 3.36362 16.2885 6.76608C16.2885 10.1685 13.5328 12.9243 10.1303 12.9243ZM10.1303 1.73269C7.34651 1.73269 5.09695 3.98225 5.09695 6.76608C5.09695 9.54991 7.34651 11.7995 10.1303 11.7995C12.9142 11.7995 15.1637 9.54991 15.1637 6.76608C15.1637 3.98225 12.9142 1.73269 10.1303 1.73269Z" fill="#FF9F57" stroke="#FF9F57"/>
<path fill-rule="evenodd" clip-rule="evenodd" d="M15.7259 7.18783C15.6415 7.18783 15.5853 7.18783 15.5009 7.15971C14.1231 6.59732 13.2514 5.86622 12.942 5.05075C11.6204 5.89434 8.89283 7.13159 4.50619 6.65356C4.19687 6.59732 3.97192 6.31613 4.00004 6.00681C4.02816 5.6975 4.30935 5.50066 4.61867 5.52878C10.355 6.17553 12.9983 3.58854 13.0264 3.56042C13.2232 3.36358 13.5044 3.33546 13.7294 3.47606C13.9543 3.58854 14.0387 3.86973 13.9825 4.12281C13.6731 5.10699 15.3884 5.89434 15.9227 6.11929C16.232 6.23177 16.3726 6.5692 16.232 6.8504C16.1477 7.07535 15.9508 7.18783 15.7259 7.18783ZM12.942 14.752C12.6608 14.752 12.4078 14.527 12.3796 14.2177C12.3515 13.5428 12.3234 12.5305 12.4078 11.5464C12.4359 11.237 12.7171 11.0121 13.0264 11.0402C13.3357 11.0683 13.5607 11.3495 13.5325 11.6588C13.4482 12.6149 13.4763 13.6272 13.5044 14.1615C13.5325 14.4708 13.3076 14.7239 12.9702 14.752H12.942ZM7.00882 14.7801H6.9807C6.67139 14.752 6.41831 14.4989 6.44643 14.1896C6.50267 13.6272 6.53079 12.5024 6.44643 11.462C6.41831 11.1527 6.64327 10.8996 6.95258 10.8715C7.2619 10.8434 7.54309 11.0683 7.57121 11.3776C7.68369 12.5024 7.59933 13.6553 7.57121 14.2739C7.54309 14.5551 7.29002 14.7801 7.00882 14.7801ZM3.74696 22.4567C3.43765 22.4567 3.18457 22.2037 3.18457 21.8943V19.4198C3.18457 19.0824 3.43765 18.8574 3.74696 18.8574C4.05628 18.8574 4.30935 19.0824 4.30935 19.4198V21.8943C4.30935 22.2037 4.05628 22.4567 3.74696 22.4567Z" fill="#FF9F57" stroke="#FF9F57"/>
<path fill-rule="evenodd" clip-rule="evenodd" d="M13.9825 22.4851H1.35682C1.04751 22.4851 0.794434 22.232 0.794434 21.9227V18.0422C0.794434 15.6239 2.79092 13.6274 5.2092 13.6274H7.00885C7.31816 13.6274 7.57124 13.8805 7.57124 14.1898C7.57124 14.4991 7.31816 14.7522 7.00885 14.7522H5.2092C3.40955 14.7522 1.91921 16.2426 1.91921 18.0422V21.3603H13.9825C14.2918 21.3603 14.5449 21.6134 14.5449 21.9227C14.5449 22.232 14.2918 22.4851 13.9825 22.4851ZM18.8472 17.9578C18.566 17.9578 18.3129 17.761 18.2848 17.4798C18.0036 15.9051 16.6538 14.7522 15.0229 14.7522H12.9421C12.6327 14.7522 12.3797 14.4991 12.3797 14.1898C12.3797 13.8805 12.6327 13.6274 12.9421 13.6274H15.0229C17.1881 13.6274 19.044 15.174 19.3814 17.3111C19.4377 17.6204 19.2408 17.9016 18.9315 17.9578H18.8472ZM24.7804 35.3919C21.3779 35.3919 18.6222 32.6081 18.6222 29.2056C18.6222 25.8032 21.3779 23.0194 24.7804 23.0194C28.1828 23.0194 30.9667 25.8032 30.9667 29.2056C30.9667 32.6081 28.1828 35.3919 24.7804 35.3919ZM24.7804 24.1441C21.9965 24.1441 19.747 26.4218 19.747 29.2056C19.747 31.9895 21.9965 34.2672 24.7804 34.2672C27.5642 34.2672 29.8419 31.9895 29.8419 29.2056C29.8419 26.4218 27.5642 24.1441 24.7804 24.1441Z" fill="#FF9F57" stroke="#FF9F57"/>
<path fill-rule="evenodd" clip-rule="evenodd" d="M23.2621 31.6235C23.234 31.6235 23.1778 31.6235 23.1497 31.5954C22.981 31.5672 22.8404 31.4548 22.756 31.3142L21.5469 28.8678C21.4063 28.6147 21.5187 28.2773 21.7999 28.1367C22.0811 27.9961 22.4186 28.1085 22.5592 28.3897L23.4309 30.1613L27.1708 26.9275C27.3957 26.7307 27.7613 26.7588 27.9581 26.9838C28.1549 27.2368 28.1268 27.5743 27.9019 27.7711L23.6277 31.4829C23.5152 31.5672 23.4027 31.6235 23.2621 31.6235Z" fill="#FF9F57" stroke="#FF9F57"/>
</svg>
