<svg width="175" height="57" viewBox="0 0 175 57" fill="none" xmlns="http://www.w3.org/2000/svg">
<rect x="1" y="0.822266" width="173" height="55" rx="3.5" fill="white"/>
<path d="M36.456 33.8223V32.6863H38.184V33.8223H36.456ZM32.136 37.7903C31.2933 37.7903 30.5307 37.6356 29.848 37.3263C29.1653 37.0169 28.6267 36.5849 28.232 36.0303C27.8373 35.4756 27.64 34.8409 27.64 34.1263C27.64 33.9023 27.656 33.6089 27.688 33.2463C27.7307 32.8729 27.7787 32.4623 27.832 32.0143C27.896 31.5556 27.9653 31.0969 28.04 30.6383C28.1147 30.1689 28.184 29.7263 28.248 29.3103L29.48 29.5023C29.3627 30.2383 29.256 30.9209 29.16 31.5503C29.0747 32.1689 29.0053 32.7023 28.952 33.1503C28.9093 33.5876 28.888 33.9129 28.888 34.1263C28.888 34.6169 29.0213 35.0489 29.288 35.4223C29.5653 35.8063 29.9493 36.1049 30.44 36.3183C30.9307 36.5423 31.496 36.6543 32.136 36.6543C32.776 36.6543 33.3253 36.5529 33.784 36.3503C34.2427 36.1476 34.5947 35.8649 34.84 35.5023C35.0853 35.1396 35.208 34.7129 35.208 34.2223V22.3503H36.456V34.2223C36.456 34.9689 36.2587 35.6089 35.864 36.1423C35.48 36.6756 34.9627 37.0809 34.312 37.3583C33.6613 37.6463 32.936 37.7903 32.136 37.7903ZM38.184 33.8223V32.6863C38.3227 32.6863 38.408 32.7396 38.44 32.8463C38.4827 32.9423 38.504 33.0756 38.504 33.2463C38.504 33.4169 38.4827 33.5556 38.44 33.6623C38.408 33.7689 38.3227 33.8223 38.184 33.8223ZM38.1875 33.8223V32.6863H45.2435L44.8595 33.0223V29.0543C44.8595 28.3609 44.6408 27.8436 44.2035 27.5023C43.7768 27.1503 43.1208 26.9743 42.2355 26.9743C41.9582 26.9743 41.5582 27.0009 41.0355 27.0543C40.5128 27.0969 39.9635 27.1609 39.3875 27.2463L39.2435 26.2223C39.6808 26.1156 40.1608 26.0249 40.6835 25.9503C41.2062 25.8649 41.7128 25.8223 42.2035 25.8223C43.0142 25.8223 43.7075 25.9503 44.2835 26.2063C44.8702 26.4516 45.3182 26.8143 45.6275 27.2943C45.9475 27.7743 46.1075 28.3609 46.1075 29.0543V33.8223H38.1875ZM38.1875 33.8223C38.0488 33.8223 37.9635 33.7689 37.9315 33.6623C37.8888 33.5556 37.8675 33.4169 37.8675 33.2463C37.8675 33.0756 37.8888 32.9423 37.9315 32.8463C37.9635 32.7396 38.0488 32.6863 38.1875 32.6863V33.8223ZM41.5795 36.7023V35.2623H42.8275V36.7023H41.5795ZM54.5825 33.8223V32.6863H56.3105V33.8223H54.5825ZM50.7905 37.3583C50.4172 37.3583 50.0172 37.3263 49.5905 37.2623C49.1745 37.2089 48.7158 37.1289 48.2145 37.0223L48.4065 36.0143C48.9718 36.0889 49.4412 36.1423 49.8145 36.1743C50.1985 36.2063 50.5238 36.2223 50.7905 36.2223C51.6758 36.2223 52.3212 36.0516 52.7265 35.7103C53.1318 35.3796 53.3345 34.8943 53.3345 34.2543V26.5423L53.9745 26.9583H51.2705C50.6518 26.9583 50.1718 27.0329 49.8305 27.1823C49.4998 27.3316 49.2705 27.6143 49.1425 28.0303C49.0145 28.4356 48.9505 29.0329 48.9505 29.8223C48.9505 30.6116 49.0145 31.2143 49.1425 31.6303C49.2705 32.0356 49.4998 32.3129 49.8305 32.4623C50.1718 32.6116 50.6518 32.6863 51.2705 32.6863H53.3345V33.8223H51.2705C50.3425 33.8223 49.6172 33.6836 49.0945 33.4063C48.5825 33.1183 48.2198 32.6809 48.0065 32.0943C47.8038 31.4969 47.7025 30.7396 47.7025 29.8223C47.7025 28.9049 47.8038 28.1529 48.0065 27.5663C48.2198 26.9689 48.5825 26.5316 49.0945 26.2543C49.6172 25.9663 50.3425 25.8223 51.2705 25.8223H54.5825V34.2383C54.5825 34.8996 54.4278 35.4649 54.1185 35.9343C53.8198 36.4036 53.3878 36.7556 52.8225 36.9903C52.2572 37.2356 51.5798 37.3583 50.7905 37.3583ZM56.3105 33.8223V32.6863C56.4492 32.6863 56.5345 32.7396 56.5665 32.8463C56.6092 32.9423 56.6305 33.0756 56.6305 33.2463C56.6305 33.4169 56.6092 33.5556 56.5665 33.6623C56.5345 33.7689 56.4492 33.8223 56.3105 33.8223ZM56.3125 33.8223V32.6863H63.3685L62.9845 33.0223V29.0543C62.9845 28.3609 62.7658 27.8436 62.3285 27.5023C61.9018 27.1503 61.2458 26.9743 60.3605 26.9743C60.0832 26.9743 59.6832 27.0009 59.1605 27.0543C58.6378 27.0969 58.0885 27.1609 57.5125 27.2463L57.3685 26.2223C57.8058 26.1156 58.2858 26.0249 58.8085 25.9503C59.3312 25.8649 59.8378 25.8223 60.3285 25.8223C61.1392 25.8223 61.8325 25.9503 62.4085 26.2063C62.9952 26.4516 63.4432 26.8143 63.7525 27.2943C64.0725 27.7743 64.2325 28.3609 64.2325 29.0543V33.8223H56.3125ZM56.3125 33.8223C56.1738 33.8223 56.0885 33.7689 56.0565 33.6623C56.0138 33.5556 55.9925 33.4169 55.9925 33.2463C55.9925 33.0756 56.0138 32.9423 56.0565 32.8463C56.0885 32.7396 56.1738 32.6863 56.3125 32.6863V33.8223ZM59.7045 36.7023V35.2623H60.9525V36.7023H59.7045ZM74.0951 33.8223C72.5058 33.8223 71.3165 33.5449 70.5271 32.9903C69.7378 32.4356 69.3431 31.5769 69.3431 30.4143C69.3431 30.1583 69.3591 29.8809 69.3911 29.5823C69.4338 29.2836 69.4818 28.9956 69.5351 28.7183C69.5885 28.4303 69.6365 28.1849 69.6791 27.9823C69.7218 27.7689 69.7485 27.6249 69.7591 27.5503L70.9751 27.7743C70.9431 27.9449 70.8951 28.1796 70.8311 28.4783C70.7778 28.7769 70.7245 29.0969 70.6711 29.4383C70.6178 29.7796 70.5911 30.1049 70.5911 30.4143C70.5911 30.9476 70.7031 31.3849 70.9271 31.7263C71.1511 32.0569 71.5191 32.3023 72.0311 32.4623C72.5431 32.6116 73.2311 32.6863 74.0951 32.6863H78.7991V25.8223H80.0471V33.8223H74.0951ZM74.0791 36.7023V35.2623H75.3271V36.7023H74.0791ZM84.1118 33.8223V32.6863H86.0638V33.8223H84.1118ZM82.8798 33.8223V22.3503H84.1118V33.8223H82.8798ZM86.0638 33.8223V32.6863C86.2024 32.6863 86.2878 32.7396 86.3198 32.8463C86.3624 32.9423 86.3838 33.0756 86.3838 33.2463C86.3838 33.4169 86.3624 33.5556 86.3198 33.6623C86.2878 33.7689 86.2024 33.8223 86.0638 33.8223ZM98.0945 33.8223V32.6863H99.8225V33.8223H98.0945ZM94.4785 33.8223C94.1158 33.8223 93.7585 33.7529 93.4065 33.6143C93.0652 33.4756 92.7345 33.2569 92.4145 32.9583L93.2305 32.1103C93.4758 32.3129 93.6945 32.4623 93.8865 32.5583C94.0785 32.6436 94.2758 32.6863 94.4785 32.6863H97.3265L96.8465 33.1983V29.3743C96.8465 29.1823 96.8252 28.9103 96.7825 28.5583C96.7505 28.2063 96.6972 27.8116 96.6225 27.3743C96.5585 26.9263 96.4785 26.4783 96.3825 26.0303L97.5985 25.8223C97.6732 26.1956 97.7478 26.6116 97.8225 27.0703C97.8972 27.5289 97.9612 27.9663 98.0145 28.3823C98.0678 28.7876 98.0945 29.1183 98.0945 29.3743V33.8223H94.4785ZM86.0625 33.8223V32.6863H88.3985L88.0785 33.0063V27.4223H89.3105V33.8223H86.0625ZM89.3105 33.8223V32.6863H91.1185C91.4812 32.6863 91.7532 32.6329 91.9345 32.5263C92.1265 32.4196 92.2598 32.2063 92.3345 31.8863C92.4092 31.5663 92.4465 31.0969 92.4465 30.4783V26.6223H93.6945V30.4783C93.6945 31.3103 93.6038 31.9716 93.4225 32.4623C93.2518 32.9529 92.9798 33.3049 92.6065 33.5183C92.2332 33.7209 91.7372 33.8223 91.1185 33.8223H89.3105ZM86.0625 33.8223C85.9238 33.8223 85.8385 33.7689 85.8065 33.6623C85.7638 33.5556 85.7425 33.4169 85.7425 33.2463C85.7425 33.0756 85.7638 32.9423 85.8065 32.8463C85.8385 32.7396 85.9238 32.6863 86.0625 32.6863V33.8223ZM99.8225 33.8223V32.6863C99.9612 32.6863 100.047 32.7396 100.079 32.8463C100.121 32.9423 100.143 33.0756 100.143 33.2463C100.143 33.4169 100.121 33.5556 100.079 33.6623C100.047 33.7689 99.9612 33.8223 99.8225 33.8223ZM99.8281 33.8223V32.6863H106.884L106.5 33.0223V29.0543C106.5 28.3609 106.281 27.8436 105.844 27.5023C105.417 27.1503 104.761 26.9743 103.876 26.9743C103.599 26.9743 103.199 27.0009 102.676 27.0543C102.153 27.0969 101.604 27.1609 101.028 27.2463L100.884 26.2223C101.321 26.1156 101.801 26.0249 102.324 25.9503C102.847 25.8649 103.353 25.8223 103.844 25.8223C104.655 25.8223 105.348 25.9503 105.924 26.2063C106.511 26.4516 106.959 26.8143 107.268 27.2943C107.588 27.7743 107.748 28.3609 107.748 29.0543V33.8223H99.8281ZM99.8281 33.8223C99.6895 33.8223 99.6041 33.7689 99.5721 33.6623C99.5295 33.5556 99.5081 33.4169 99.5081 33.2463C99.5081 33.0756 99.5295 32.9423 99.5721 32.8463C99.6041 32.7396 99.6895 32.6863 99.8281 32.6863V33.8223Z" fill="#171717"/>
<path d="M147.501 28.0553C147.501 27.192 147.43 26.562 147.275 25.9087H137.215V29.8053H143.12C143.001 30.7737 142.358 32.232 140.93 33.212L140.91 33.3424L144.09 35.7571L144.311 35.7787C146.334 33.947 147.501 31.252 147.501 28.0553Z" fill="#4285F4"/>
<path d="M137.214 38.3223C140.107 38.3223 142.535 37.389 144.309 35.779L140.928 33.2122C140.023 33.8306 138.809 34.2622 137.214 34.2622C134.381 34.2622 131.976 32.4306 131.119 29.8989L130.993 29.9094L127.686 32.4177L127.643 32.5356C129.404 35.9656 133.023 38.3223 137.214 38.3223Z" fill="#34A853"/>
<path d="M131.12 29.8987C130.894 29.2454 130.763 28.5454 130.763 27.8221C130.763 27.0987 130.894 26.3987 131.109 25.7454L131.103 25.6062L127.754 23.0576L127.644 23.1087C126.918 24.532 126.501 26.1304 126.501 27.8221C126.501 29.5137 126.918 31.112 127.644 32.5354L131.12 29.8987Z" fill="#FBBC05"/>
<path d="M137.214 21.3822C139.226 21.3822 140.583 22.2339 141.357 22.9456L144.381 20.0523C142.524 18.3606 140.107 17.3223 137.214 17.3223C133.024 17.3223 129.404 19.6789 127.643 23.1089L131.107 25.7456C131.976 23.2139 134.381 21.3822 137.214 21.3822Z" fill="#EB4335"/>
<rect x="1" y="0.822266" width="173" height="55" rx="3.5" stroke="#444444"/>
</svg>
