<svg width="63" height="63" viewBox="0 0 63 63" fill="none" xmlns="http://www.w3.org/2000/svg">
<g clip-path="url(#clip0_86_9045)">
<path d="M30.6584 41.833H33.242V59.9167H30.6584V41.833ZM12.5752 36.6667H51.3252V39.2498H12.5752V36.6667ZM56.492 19.8748C52.9307 19.8748 50.0334 16.9775 50.0334 13.4167C50.0334 9.8553 52.9307 6.95801 56.492 6.95801C60.0529 6.95801 62.9502 9.8553 62.9502 13.4167C62.9502 16.9775 60.0529 19.8748 56.492 19.8748ZM56.492 9.54166C54.3553 9.54166 52.617 11.28 52.617 13.4167C52.617 15.5528 54.3553 17.2917 56.492 17.2917C58.6281 17.2917 60.367 15.5528 60.367 13.4167C60.367 11.28 58.6281 9.54166 56.492 9.54166Z" fill="black"/>
<path d="M43.5754 59.9167C43.4051 59.9167 43.2319 59.884 43.0664 59.8117C42.4103 59.5303 42.1066 58.771 42.3885 58.1159L46.2635 49.0741C46.3629 48.8417 46.5284 48.6437 46.7394 48.5046C46.9504 48.3655 47.1976 48.2914 47.4504 48.2917H56.4922C58.6283 48.2917 60.3672 46.5528 60.3672 44.4167V27.6248C60.3672 26.2 59.2083 25.0417 57.7835 25.0417H56.4922C55.5854 25.0417 54.7599 25.6411 53.6479 27.1136C52.4001 28.7615 48.6131 33.4113 48.4527 33.6076C48.3313 33.7562 48.1784 33.8759 48.005 33.9581C47.8317 34.0404 47.6422 34.083 47.4504 34.083H40.9922C40.2789 34.083 39.7004 34.662 39.7004 35.3748V37.958C39.7005 38.1277 39.6672 38.2957 39.6023 38.4525C39.5374 38.6093 39.4423 38.7518 39.3223 38.8718C39.2023 38.9917 39.0598 39.0869 38.903 39.1518C38.7463 39.2166 38.5782 39.25 38.4085 39.2498C38.2389 39.25 38.0709 39.2166 37.9141 39.1518C37.7573 39.0869 37.6149 38.9917 37.495 38.8717C37.375 38.7517 37.2799 38.6093 37.2151 38.4525C37.1503 38.2957 37.117 38.1277 37.1172 37.958V35.3748C37.1172 33.2381 38.8555 31.4998 40.9922 31.4998H46.8354C47.8534 30.2468 50.5969 26.8628 51.5864 25.5544C52.6777 24.1126 54.2197 22.458 56.4922 22.458H57.7835C60.633 22.458 62.9504 24.7754 62.9504 27.6248V44.4167C62.9504 47.9775 60.0531 50.8748 56.4922 50.8748H48.3018L44.7622 59.1338C44.5531 59.6234 44.0763 59.9167 43.5754 59.9167Z" fill="black"/>
<path d="M38.4082 59.917C38.2738 59.917 38.1357 59.8947 38 59.8498C37.3245 59.6252 36.9578 58.8939 37.184 58.2155L41.4671 45.365C42.1683 43.2544 44.1393 41.8333 46.3678 41.8333H50.0332V37.9583C50.0332 37.2441 50.6108 36.667 51.325 36.667C52.0392 36.667 52.6168 37.2441 52.6168 37.9583V43.1252C52.617 43.2948 52.5836 43.4629 52.5188 43.6197C52.4539 43.7765 52.3587 43.9189 52.2387 44.0389C52.1188 44.1589 51.9763 44.254 51.8195 44.3189C51.6627 44.3838 51.4947 44.4171 51.325 44.417H46.3677C45.2542 44.417 44.2685 45.126 43.9184 46.1813L39.6342 59.0334C39.5483 59.2906 39.3836 59.5142 39.1636 59.6728C38.9436 59.8314 38.6794 59.9168 38.4082 59.917Z" fill="black"/>
<path d="M51.3237 39.2498C51.0542 39.2498 50.7827 39.1662 50.5504 38.9915C49.9795 38.564 49.8631 37.7541 50.2917 37.1846L54.1667 32.0178C54.5942 31.4468 55.4041 31.3319 55.9741 31.7596C56.5449 32.187 56.6608 32.9969 56.2323 33.5664L52.3573 38.7333C52.1052 39.0715 51.7179 39.2498 51.3237 39.2498ZM7.40837 19.8748C3.84748 19.8748 0.950195 16.9775 0.950195 13.4167C0.950195 9.8553 3.84748 6.95801 7.40837 6.95801C10.9697 6.95801 13.867 9.8553 13.867 13.4167C13.867 16.9775 10.9697 19.8748 7.40837 19.8748ZM7.40837 9.54166C5.27227 9.54166 3.53337 11.28 3.53337 13.4167C3.53337 15.5528 5.27227 17.2917 7.40837 17.2917C9.54507 17.2917 11.2834 15.5528 11.2834 13.4167C11.2834 11.28 9.54507 9.54166 7.40837 9.54166ZM20.3252 59.9167C19.8242 59.9167 19.3475 59.6234 19.1385 59.1338L15.5987 50.8748H7.40837C3.84748 50.8748 0.950195 47.9775 0.950195 44.4167V27.6248C0.950195 24.7754 3.26757 22.458 6.11702 22.458H7.40837C9.68081 22.458 11.2243 24.1126 12.3131 25.5544C13.3037 26.8628 16.0457 30.2468 17.0637 31.4998H22.9084C25.0451 31.4998 26.7834 33.2381 26.7834 35.3748V37.958C26.7834 38.6722 26.2049 39.2498 25.492 39.2498C24.7788 39.2498 24.2002 38.6722 24.2002 37.958V35.3748C24.2002 34.662 23.6202 34.083 22.9084 34.083H16.4502C16.0615 34.083 15.6948 33.909 15.4492 33.6076C15.2889 33.4114 11.5005 28.7614 10.2541 27.1121C9.14061 25.641 8.31657 25.0417 7.40837 25.0417H6.11702C4.69223 25.0417 3.53337 26.2 3.53337 27.6248V44.4167C3.53337 46.5528 5.27227 48.2917 7.40837 48.2917H16.4502C16.7029 48.2915 16.9501 48.3655 17.161 48.5046C17.372 48.6436 17.5375 48.8416 17.6369 49.0739L21.5119 58.1159C21.7939 58.771 21.4889 59.5303 20.8342 59.8117C20.6736 59.8815 20.5003 59.9172 20.3252 59.9167Z" fill="black"/>
<path d="M25.4919 59.917C25.2207 59.9168 24.9564 59.8314 24.7364 59.6728C24.5164 59.5142 24.3518 59.2906 24.2658 59.0334L19.9826 46.1823C19.8114 45.6679 19.4826 45.2205 19.0428 44.9036C18.603 44.5867 18.0745 44.4165 17.5324 44.417H12.575C11.8622 44.417 11.2832 43.8394 11.2832 43.1252V37.9583C11.2832 37.2441 11.8622 36.667 12.575 36.667C13.2879 36.667 13.8669 37.2441 13.8669 37.9583V41.8333H17.5324C18.6169 41.8321 19.6743 42.1726 20.5543 42.8066C21.4342 43.4406 22.0921 44.3358 22.4342 45.3649L26.7174 58.2155C26.9435 58.8924 26.5779 59.625 25.901 59.8498C25.7691 59.8937 25.631 59.9164 25.4919 59.917Z" fill="black"/>
<path d="M12.5768 39.25C12.376 39.2502 12.1779 39.2037 11.9983 39.114C11.8186 39.0243 11.6623 38.894 11.5418 38.7334L7.66681 33.5666C7.23814 32.9971 7.35463 32.1873 7.92559 31.7597C8.49884 31.332 9.30727 31.4471 9.73388 32.0179L13.6089 37.1847C14.0376 37.7543 13.9211 38.564 13.3501 38.9917C13.1272 39.1595 12.8558 39.2502 12.5768 39.25ZM42.2835 34.0832C42.1139 34.0833 41.9459 34.0501 41.7891 33.9852C41.6324 33.9204 41.49 33.8253 41.37 33.7053C41.2501 33.5854 41.1549 33.443 41.0901 33.2862C41.0253 33.1295 40.992 32.9615 40.9922 32.7918V23.75C40.9922 20.9005 38.6748 18.5832 35.8253 18.5832H28.0753C25.2259 18.5832 22.9085 20.9005 22.9085 23.75V27.625C22.9085 28.3379 22.33 28.9168 21.6172 28.9168C20.9039 28.9168 20.3253 28.3379 20.3253 27.625V23.75C20.3253 19.4758 23.8011 16 28.0753 16H35.8253C40.0996 16 43.5753 19.4758 43.5753 23.75V32.7918C43.5753 33.506 42.9977 34.0832 42.2835 34.0832ZM31.9503 13.4168C28.3895 13.4168 25.4922 10.5195 25.4922 6.95817C25.4922 3.39729 28.3895 0.5 31.9503 0.5C35.5112 0.5 38.4085 3.39729 38.4085 6.95817C38.4085 10.5195 35.5112 13.4168 31.9503 13.4168ZM31.9503 3.08317C29.8136 3.08317 28.0753 4.82208 28.0753 6.95817C28.0753 9.09487 29.8136 10.8332 31.9503 10.8332C34.087 10.8332 35.8253 9.09487 35.8253 6.95817C35.8253 4.82208 34.087 3.08317 31.9503 3.08317Z" fill="black"/>
<path d="M30.6582 21.167H33.2419V23.7502H30.6582V21.167Z" fill="black"/>
</g>
<defs>
<clipPath id="clip0_86_9045">
<rect width="62" height="62" fill="white" transform="translate(0.950195 0.5)"/>
</clipPath>
</defs>
</svg>
