<svg width="21" height="22" viewBox="0 0 21 22" fill="none" xmlns="http://www.w3.org/2000/svg">
<g id="Twitter">
<path id="Vector" d="M13.7837 2.99341C11.5206 2.99341 9.68393 4.91348 9.6349 7.27783C7.63397 7.02584 6.33099 6.24032 5.53171 5.46631C4.64532 4.60795 4.36472 3.84534 4.36472 3.84534C4.32375 3.73696 4.25603 3.64199 4.16851 3.57022C4.08099 3.49844 3.97684 3.45244 3.86678 3.43695C3.75671 3.42146 3.6447 3.43704 3.54227 3.48208C3.43984 3.52713 3.35069 3.60001 3.28399 3.69324C3.28399 3.69324 2.53366 4.74341 2.53366 6.27466C2.53366 7.15009 2.79691 7.79784 3.11065 8.3468C3.09909 8.34112 3.02113 8.31262 3.02113 8.31262C2.92152 8.2604 2.81043 8.23706 2.69935 8.24502C2.58827 8.25298 2.48123 8.29195 2.3893 8.3579C2.29737 8.42385 2.22388 8.51439 2.17644 8.62014C2.129 8.7259 2.10932 8.84305 2.11944 8.95947C2.11944 8.95947 2.36 10.8058 4.01315 12.1553L3.84063 12.2006C3.74698 12.2251 3.66001 12.2721 3.58655 12.3378C3.51309 12.4036 3.45513 12.4863 3.41721 12.5795C3.37929 12.6727 3.36245 12.7739 3.368 12.8751C3.37354 12.9762 3.40133 13.0747 3.44919 13.1627C3.44919 13.1627 3.72952 13.6606 4.3167 14.1847C4.66485 14.4954 5.17627 14.816 5.7791 15.1127C5.03877 15.3967 3.93484 15.6809 2.32533 15.6809C2.20523 15.6809 2.08766 15.7172 1.9867 15.7855C1.88574 15.8538 1.80566 15.9512 1.75604 16.0661C1.70642 16.1809 1.68936 16.3083 1.7069 16.4331C1.72444 16.5578 1.77584 16.6746 1.85495 16.7695C1.85495 16.7695 2.33255 17.322 3.27666 17.8026C4.22078 18.2833 5.67511 18.7434 7.742 18.7434C11.3752 18.7434 13.9856 16.9134 15.6147 14.594C17.2438 12.2746 17.9503 9.49514 17.9503 7.36841C17.9503 7.23346 17.9423 7.10041 17.9308 6.96851C18.8105 6.07848 19.1406 5.40939 19.1564 5.37659C19.2356 5.2099 19.2061 5.00971 19.0831 4.87671C18.9606 4.74327 18.7708 4.70569 18.6095 4.78357L18.542 4.81604C18.484 4.84404 18.4261 4.87222 18.3678 4.89978C18.5374 4.61584 18.6712 4.31242 18.7641 3.99829C18.8158 3.82504 18.76 3.63519 18.6233 3.52319C18.4867 3.41119 18.2984 3.3992 18.1505 3.49414C17.6413 3.81913 17.1531 4.04664 16.645 4.1991C15.8972 3.4543 14.8907 2.99341 13.7837 2.99341ZM13.7837 4.30591C15.4017 4.30591 16.7003 5.66952 16.7003 7.36841C16.7003 9.17917 16.0527 11.7591 14.6089 13.8147C13.1651 15.8703 10.9838 17.4309 7.742 17.4309C6.17316 17.4309 5.12957 17.1329 4.34763 16.8105C5.16672 16.677 5.87197 16.4988 6.37888 16.2927C7.25791 15.9354 7.73223 15.5228 7.73223 15.5228C7.81923 15.4444 7.88402 15.3424 7.91951 15.2279C7.95499 15.1134 7.95981 14.9909 7.93343 14.8738C7.90705 14.7566 7.85048 14.6493 7.76993 14.5637C7.68937 14.478 7.58793 14.4173 7.4767 14.3881C6.34223 14.0903 5.61463 13.6086 5.15817 13.2072L5.81003 13.0363C5.93894 13.0025 6.05425 12.9264 6.13922 12.8192C6.22418 12.7119 6.27439 12.579 6.28256 12.4398C6.29072 12.3006 6.25641 12.1622 6.18462 12.0448C6.11282 11.9274 6.00726 11.8371 5.88327 11.787C4.53114 11.2409 3.96334 10.4687 3.67298 9.82166C4.02631 9.89846 4.35529 9.99341 4.82533 9.99341C4.96608 9.99329 5.10268 9.94329 5.213 9.85151C5.32332 9.75973 5.40091 9.63153 5.43321 9.48768C5.4655 9.34384 5.45061 9.19275 5.39095 9.0589C5.33129 8.92504 5.23035 8.81624 5.10446 8.75012C5.10446 8.75012 3.78366 8.11216 3.78366 6.27466C3.78366 5.94476 3.87068 5.73581 3.93422 5.48596C4.15221 5.79356 4.33186 6.09029 4.68373 6.43103C5.75651 7.46989 7.52965 8.52916 10.2086 8.68005C10.2934 8.6848 10.3782 8.67137 10.4579 8.64058C10.5375 8.60979 10.6104 8.56228 10.672 8.50095C10.7336 8.43963 10.7827 8.36577 10.8162 8.28388C10.8497 8.20199 10.867 8.11379 10.867 8.02466V7.36841C10.867 5.66952 12.1657 4.30591 13.7837 4.30591Z" fill="#F6F6F6"/>
</g>
</svg>
