<svg width="147" height="125" viewBox="0 0 147 125" fill="none" xmlns="http://www.w3.org/2000/svg">
<path d="M13.3789 116.77C13.6055 116.77 13.8008 116.84 13.9648 116.98C14.1289 117.121 14.2109 117.305 14.2109 117.531V121.305C14.2109 121.445 14.1836 121.562 14.1289 121.656C14.082 121.742 14.0156 121.828 13.9297 121.914C13.0938 122.695 12.1953 123.266 11.2344 123.625C10.2734 123.977 9.28516 124.152 8.26953 124.152C7.57422 124.152 6.89844 124.059 6.24219 123.871C5.59375 123.684 4.98438 123.422 4.41406 123.086C3.84375 122.742 3.32422 122.332 2.85547 121.855C2.38672 121.379 1.98438 120.852 1.64844 120.273C1.3125 119.695 1.05078 119.078 0.863281 118.422C0.675781 117.758 0.582031 117.066 0.582031 116.348C0.582031 115.637 0.671875 114.953 0.851562 114.297C1.03125 113.633 1.28516 113.012 1.61328 112.434C1.94922 111.848 2.35156 111.316 2.82031 110.84C3.28906 110.355 3.8125 109.945 4.39062 109.609C4.96875 109.266 5.58984 109 6.25391 108.812C6.91797 108.617 7.61719 108.52 8.35156 108.52C9.40625 108.52 10.4023 108.715 11.3398 109.105C12.2852 109.488 13.1484 110.07 13.9297 110.852C14.0859 111.023 14.1641 111.207 14.1641 111.402C14.1641 111.504 14.1406 111.602 14.0938 111.695C14.0469 111.789 13.9844 111.871 13.9062 111.941C13.8359 112.012 13.7539 112.07 13.6602 112.117C13.5664 112.156 13.4688 112.176 13.3672 112.176C13.1641 112.176 12.9844 112.098 12.8281 111.941C12.1953 111.332 11.4922 110.871 10.7188 110.559C9.95312 110.246 9.16797 110.09 8.36328 110.09C7.51953 110.09 6.72266 110.25 5.97266 110.57C5.22266 110.891 4.5625 111.332 3.99219 111.895C3.42188 112.449 2.96875 113.109 2.63281 113.875C2.30469 114.633 2.14062 115.453 2.14062 116.336C2.14062 117.172 2.29688 117.969 2.60938 118.727C2.92969 119.477 3.36719 120.141 3.92188 120.719C4.47656 121.289 5.12891 121.746 5.87891 122.09C6.62891 122.426 7.4375 122.594 8.30469 122.594C9.08594 122.594 9.84375 122.469 10.5781 122.219C11.3125 121.961 11.9961 121.551 12.6289 120.988V118.316H9.71094C9.49219 118.316 9.30859 118.242 9.16016 118.094C9.01953 117.938 8.94922 117.75 8.94922 117.531C8.94922 117.32 9.01953 117.137 9.16016 116.98C9.30859 116.824 9.49219 116.746 9.71094 116.746L13.3789 116.77Z" fill="#B8883E"/>
<path d="M20.6445 122.477C20.8711 122.477 21.0547 122.551 21.1953 122.699C21.3438 122.848 21.418 123.031 21.418 123.25C21.418 123.477 21.3477 123.66 21.207 123.801C21.0664 123.941 20.8828 124.012 20.6562 124.012C20.1016 124.012 19.5898 123.918 19.1211 123.73C18.6523 123.543 18.2461 123.277 17.9023 122.934C17.5586 122.582 17.2891 122.164 17.0938 121.68C16.9062 121.188 16.8125 120.641 16.8125 120.039V109.434C16.8125 109.207 16.8828 109.02 17.0234 108.871C17.1719 108.715 17.3555 108.637 17.5742 108.637C17.7852 108.637 17.9688 108.715 18.125 108.871C18.2891 109.02 18.3711 109.207 18.3711 109.434V120.016C18.3711 120.797 18.5703 121.402 18.9688 121.832C19.375 122.262 19.9336 122.477 20.6445 122.477Z" fill="#B8883E"/>
<path d="M23.75 118.434C23.75 118.996 23.8594 119.531 24.0781 120.039C24.2969 120.539 24.5938 120.98 24.9688 121.363C25.3438 121.738 25.7812 122.035 26.2812 122.254C26.7891 122.473 27.332 122.582 27.9102 122.582C28.4961 122.582 29.043 122.473 29.5508 122.254C30.0586 122.035 30.4961 121.738 30.8633 121.363C31.2383 120.98 31.5312 120.539 31.7422 120.039C31.9609 119.531 32.0703 118.996 32.0703 118.434C32.0703 117.863 31.9609 117.324 31.7422 116.816C31.5312 116.309 31.2383 115.867 30.8633 115.492C30.4961 115.117 30.0586 114.82 29.5508 114.602C29.043 114.383 28.4961 114.273 27.9102 114.273C27.332 114.273 26.7891 114.383 26.2812 114.602C25.7812 114.82 25.3438 115.117 24.9688 115.492C24.5938 115.867 24.2969 116.309 24.0781 116.816C23.8594 117.324 23.75 117.863 23.75 118.434ZM22.1914 118.434C22.1914 117.637 22.3398 116.891 22.6367 116.195C22.9414 115.492 23.3516 114.883 23.8672 114.367C24.3906 113.852 24.9961 113.445 25.6836 113.148C26.3789 112.844 27.1211 112.691 27.9102 112.691C28.707 112.691 29.4531 112.844 30.1484 113.148C30.8438 113.445 31.4492 113.855 31.9648 114.379C32.4805 114.895 32.8867 115.5 33.1836 116.195C33.4805 116.891 33.6289 117.637 33.6289 118.434C33.6289 119.223 33.4805 119.965 33.1836 120.66C32.8867 121.348 32.4805 121.949 31.9648 122.465C31.4492 122.98 30.8438 123.391 30.1484 123.695C29.4531 123.992 28.707 124.141 27.9102 124.141C27.1211 124.141 26.3789 123.992 25.6836 123.695C24.9961 123.391 24.3906 122.98 23.8672 122.465C23.3516 121.949 22.9414 121.348 22.6367 120.66C22.3398 119.965 22.1914 119.223 22.1914 118.434Z" fill="#B8883E"/>
<path d="M35.2109 109.387C35.2109 109.16 35.2852 108.969 35.4336 108.812C35.5898 108.656 35.7773 108.578 35.9961 108.578C36.2227 108.578 36.4062 108.656 36.5469 108.812C36.6953 108.969 36.7695 109.16 36.7695 109.387V115.445C36.918 115.047 37.1289 114.684 37.4023 114.355C37.6836 114.02 38.0078 113.73 38.375 113.488C38.75 113.238 39.1562 113.047 39.5938 112.914C40.0312 112.773 40.4805 112.703 40.9414 112.703C41.7305 112.703 42.4727 112.852 43.168 113.148C43.8633 113.445 44.4688 113.852 44.9844 114.367C45.5 114.883 45.9062 115.488 46.2031 116.184C46.5 116.879 46.6484 117.625 46.6484 118.422C46.6484 119.211 46.5 119.953 46.2031 120.648C45.9062 121.344 45.5 121.949 44.9844 122.465C44.4688 122.98 43.8633 123.391 43.168 123.695C42.4727 123.992 41.7305 124.141 40.9414 124.141C40.1523 124.141 39.4102 123.992 38.7148 123.695C38.0195 123.391 37.4102 122.98 36.8867 122.465C36.3711 121.949 35.9609 121.348 35.6562 120.66C35.3594 119.965 35.2109 119.223 35.2109 118.434V109.387ZM36.7695 118.422C36.7695 118.984 36.8789 119.52 37.0977 120.027C37.3164 120.527 37.6133 120.969 37.9883 121.352C38.3633 121.727 38.8047 122.023 39.3125 122.242C39.8203 122.461 40.3633 122.57 40.9414 122.57C41.5273 122.57 42.0703 122.461 42.5703 122.242C43.0781 122.023 43.5195 121.727 43.8945 121.352C44.2695 120.969 44.5625 120.527 44.7734 120.027C44.9922 119.52 45.1016 118.984 45.1016 118.422C45.1016 117.844 44.9922 117.305 44.7734 116.805C44.5625 116.297 44.2695 115.855 43.8945 115.48C43.5195 115.105 43.0781 114.812 42.5703 114.602C42.0703 114.383 41.5273 114.273 40.9414 114.273C40.3633 114.273 39.8203 114.383 39.3125 114.602C38.8047 114.812 38.3633 115.105 37.9883 115.48C37.6133 115.855 37.3164 116.297 37.0977 116.805C36.8789 117.305 36.7695 117.844 36.7695 118.422Z" fill="#B8883E"/>
<path d="M53.4102 124.141C52.6211 124.141 51.8828 123.992 51.1953 123.695C50.5078 123.391 49.9102 122.98 49.4023 122.465C48.8945 121.949 48.4922 121.348 48.1953 120.66C47.8984 119.965 47.75 119.223 47.75 118.434C47.75 117.637 47.8984 116.891 48.1953 116.195C48.4922 115.5 48.8945 114.895 49.4023 114.379C49.9102 113.855 50.5078 113.445 51.1953 113.148C51.8828 112.844 52.6211 112.691 53.4102 112.691C54.207 112.691 54.9492 112.844 55.6367 113.148C56.3242 113.445 56.9219 113.852 57.4297 114.367C57.9375 114.883 58.3359 115.492 58.625 116.195C58.9219 116.891 59.0703 117.637 59.0703 118.434V123.25C59.0703 123.477 58.9922 123.668 58.8359 123.824C58.6797 123.98 58.4883 124.059 58.2617 124.059C58.0273 124.059 57.8398 123.98 57.6992 123.824C57.5664 123.668 57.5 123.477 57.5 123.25L57.4883 122.406C56.9727 122.945 56.3672 123.371 55.6719 123.684C54.9844 123.988 54.2305 124.141 53.4102 124.141ZM53.4102 122.582C53.9961 122.582 54.5391 122.473 55.0391 122.254C55.5391 122.035 55.9688 121.738 56.3281 121.363C56.6953 120.98 56.9805 120.539 57.1836 120.039C57.3945 119.531 57.5 118.996 57.5 118.434C57.5 117.863 57.3945 117.324 57.1836 116.816C56.9805 116.309 56.6953 115.867 56.3281 115.492C55.9688 115.117 55.5391 114.82 55.0391 114.602C54.5391 114.383 53.9961 114.273 53.4102 114.273C52.832 114.273 52.293 114.383 51.793 114.602C51.3008 114.82 50.8711 115.117 50.5039 115.492C50.1367 115.867 49.8477 116.309 49.6367 116.816C49.4258 117.324 49.3203 117.863 49.3203 118.434C49.3203 118.996 49.4258 119.531 49.6367 120.039C49.8477 120.539 50.1367 120.98 50.5039 121.363C50.8711 121.738 51.3008 122.035 51.793 122.254C52.293 122.473 52.832 122.582 53.4102 122.582Z" fill="#B8883E"/>
<path d="M65.3867 122.477C65.6133 122.477 65.7969 122.551 65.9375 122.699C66.0859 122.848 66.1602 123.031 66.1602 123.25C66.1602 123.477 66.0898 123.66 65.9492 123.801C65.8086 123.941 65.625 124.012 65.3984 124.012C64.8438 124.012 64.332 123.918 63.8633 123.73C63.3945 123.543 62.9883 123.277 62.6445 122.934C62.3008 122.582 62.0312 122.164 61.8359 121.68C61.6484 121.188 61.5547 120.641 61.5547 120.039V109.434C61.5547 109.207 61.625 109.02 61.7656 108.871C61.9141 108.715 62.0977 108.637 62.3164 108.637C62.5273 108.637 62.7109 108.715 62.8672 108.871C63.0312 109.02 63.1133 109.207 63.1133 109.434V120.016C63.1133 120.797 63.3125 121.402 63.7109 121.832C64.1172 122.262 64.6758 122.477 65.3867 122.477Z" fill="#B8883E"/>
<path d="M72.7344 121.234C72.6953 121.156 72.668 121.086 72.6523 121.023C72.6445 120.953 72.6406 120.887 72.6406 120.824C72.6406 120.598 72.7188 120.414 72.875 120.273C73.0312 120.133 73.1992 120.062 73.3789 120.062C73.6367 120.062 73.8828 120.223 74.1172 120.543C74.2812 120.855 74.4883 121.141 74.7383 121.398C74.9961 121.648 75.2852 121.863 75.6055 122.043C75.9336 122.215 76.2852 122.352 76.6602 122.453C77.0352 122.547 77.4297 122.594 77.8438 122.594C78.2656 122.594 78.6836 122.531 79.0977 122.406C79.5195 122.273 79.8945 122.082 80.2227 121.832C80.5586 121.582 80.8281 121.27 81.0312 120.895C81.2422 120.52 81.3477 120.086 81.3477 119.594C81.3477 119.148 81.2422 118.773 81.0312 118.469C80.8281 118.164 80.5547 117.906 80.2109 117.695C79.875 117.477 79.4922 117.293 79.0625 117.145C78.6406 116.988 78.2109 116.84 77.7734 116.699C77.1875 116.566 76.6133 116.395 76.0508 116.184C75.4883 115.973 74.9844 115.703 74.5391 115.375C74.1016 115.047 73.7461 114.656 73.4727 114.203C73.207 113.742 73.0742 113.203 73.0742 112.586C73.0742 111.953 73.2109 111.387 73.4844 110.887C73.7578 110.387 74.1172 109.961 74.5625 109.609C75.0078 109.258 75.5078 108.988 76.0625 108.801C76.625 108.613 77.1953 108.52 77.7734 108.52C78.2422 108.52 78.6953 108.57 79.1328 108.672C79.5781 108.766 79.9922 108.906 80.375 109.094C80.7578 109.281 81.1055 109.516 81.418 109.797C81.7305 110.07 81.9922 110.391 82.2031 110.758C82.2578 110.844 82.2852 110.945 82.2852 111.062C82.2852 111.266 82.2109 111.438 82.0625 111.578C81.9219 111.711 81.7539 111.777 81.5586 111.777C81.4805 111.777 81.3984 111.766 81.3125 111.742C81.2344 111.711 81.1523 111.664 81.0664 111.602C80.6055 111.039 80.1133 110.645 79.5898 110.418C79.0664 110.191 78.4688 110.078 77.7969 110.078C77.4219 110.078 77.0469 110.133 76.6719 110.242C76.2969 110.352 75.957 110.512 75.6523 110.723C75.3555 110.934 75.1133 111.199 74.9258 111.52C74.7383 111.832 74.6445 112.199 74.6445 112.621C74.6445 113.043 74.7578 113.395 74.9844 113.676C75.2188 113.957 75.5117 114.195 75.8633 114.391C76.2148 114.586 76.6016 114.746 77.0234 114.871C77.4453 114.988 77.8477 115.098 78.2305 115.199C78.8242 115.387 79.3984 115.598 79.9531 115.832C80.5156 116.059 81.0117 116.34 81.4414 116.676C81.8789 117.004 82.2305 117.402 82.4961 117.871C82.7617 118.332 82.8945 118.887 82.8945 119.535C82.8945 120.23 82.7539 120.863 82.4727 121.434C82.1992 121.996 81.8281 122.48 81.3594 122.887C80.8906 123.285 80.3477 123.598 79.7305 123.824C79.1133 124.043 78.4648 124.152 77.7852 124.152C77.2148 124.152 76.6641 124.078 76.1328 123.93C75.6016 123.781 75.1133 123.574 74.668 123.309C74.2227 123.043 73.832 122.734 73.4961 122.383C73.168 122.031 72.9141 121.648 72.7344 121.234Z" fill="#B8883E"/>
<path d="M84.7344 110.113C84.7344 109.895 84.8125 109.707 84.9688 109.551C85.125 109.395 85.3086 109.316 85.5195 109.316C85.7383 109.316 85.9258 109.395 86.082 109.551C86.2461 109.699 86.3281 109.887 86.3281 110.113V112.797H91.4961C91.7148 112.797 91.9023 112.875 92.0586 113.031C92.2148 113.188 92.293 113.375 92.293 113.594C92.293 113.797 92.2148 113.973 92.0586 114.121C91.9102 114.27 91.7227 114.344 91.4961 114.344H86.3281V118.551C86.3281 119.121 86.4336 119.652 86.6445 120.145C86.8633 120.637 87.1602 121.066 87.5352 121.434C87.9102 121.793 88.3477 122.078 88.8477 122.289C89.3555 122.492 89.9023 122.594 90.4883 122.594C91.0039 122.594 91.4844 122.516 91.9297 122.359C92.375 122.203 92.7969 121.949 93.1953 121.598C93.2812 121.527 93.3711 121.469 93.4648 121.422C93.5586 121.367 93.6719 121.34 93.8047 121.34C93.9844 121.34 94.1445 121.414 94.2852 121.562C94.4258 121.703 94.4961 121.875 94.4961 122.078C94.4961 122.195 94.4688 122.312 94.4141 122.43C94.3672 122.547 94.2969 122.648 94.2031 122.734C93.7109 123.203 93.1484 123.559 92.5156 123.801C91.8906 124.035 91.2148 124.152 90.4883 124.152C89.6914 124.152 88.9414 124.012 88.2383 123.73C87.543 123.441 86.9336 123.047 86.4102 122.547C85.8945 122.039 85.4844 121.445 85.1797 120.766C84.8828 120.078 84.7344 119.336 84.7344 118.539V110.113Z" fill="#B8883E"/>
<path d="M100.848 124.141C100.059 124.141 99.3203 123.992 98.6328 123.695C97.9453 123.391 97.3477 122.98 96.8398 122.465C96.332 121.949 95.9297 121.348 95.6328 120.66C95.3359 119.965 95.1875 119.223 95.1875 118.434C95.1875 117.637 95.3359 116.891 95.6328 116.195C95.9297 115.5 96.332 114.895 96.8398 114.379C97.3477 113.855 97.9453 113.445 98.6328 113.148C99.3203 112.844 100.059 112.691 100.848 112.691C101.645 112.691 102.387 112.844 103.074 113.148C103.762 113.445 104.359 113.852 104.867 114.367C105.375 114.883 105.773 115.492 106.062 116.195C106.359 116.891 106.508 117.637 106.508 118.434V123.25C106.508 123.477 106.43 123.668 106.273 123.824C106.117 123.98 105.926 124.059 105.699 124.059C105.465 124.059 105.277 123.98 105.137 123.824C105.004 123.668 104.938 123.477 104.938 123.25L104.926 122.406C104.41 122.945 103.805 123.371 103.109 123.684C102.422 123.988 101.668 124.141 100.848 124.141ZM100.848 122.582C101.434 122.582 101.977 122.473 102.477 122.254C102.977 122.035 103.406 121.738 103.766 121.363C104.133 120.98 104.418 120.539 104.621 120.039C104.832 119.531 104.938 118.996 104.938 118.434C104.938 117.863 104.832 117.324 104.621 116.816C104.418 116.309 104.133 115.867 103.766 115.492C103.406 115.117 102.977 114.82 102.477 114.602C101.977 114.383 101.434 114.273 100.848 114.273C100.27 114.273 99.7305 114.383 99.2305 114.602C98.7383 114.82 98.3086 115.117 97.9414 115.492C97.5742 115.867 97.2852 116.309 97.0742 116.816C96.8633 117.324 96.7578 117.863 96.7578 118.434C96.7578 118.996 96.8633 119.531 97.0742 120.039C97.2852 120.539 97.5742 120.98 97.9414 121.363C98.3086 121.738 98.7383 122.035 99.2305 122.254C99.7305 122.473 100.27 122.582 100.848 122.582Z" fill="#B8883E"/>
<path d="M108.664 110.113C108.664 109.895 108.742 109.707 108.898 109.551C109.055 109.395 109.238 109.316 109.449 109.316C109.668 109.316 109.855 109.395 110.012 109.551C110.176 109.699 110.258 109.887 110.258 110.113V112.797H115.426C115.645 112.797 115.832 112.875 115.988 113.031C116.145 113.188 116.223 113.375 116.223 113.594C116.223 113.797 116.145 113.973 115.988 114.121C115.84 114.27 115.652 114.344 115.426 114.344H110.258V118.551C110.258 119.121 110.363 119.652 110.574 120.145C110.793 120.637 111.09 121.066 111.465 121.434C111.84 121.793 112.277 122.078 112.777 122.289C113.285 122.492 113.832 122.594 114.418 122.594C114.934 122.594 115.414 122.516 115.859 122.359C116.305 122.203 116.727 121.949 117.125 121.598C117.211 121.527 117.301 121.469 117.395 121.422C117.488 121.367 117.602 121.34 117.734 121.34C117.914 121.34 118.074 121.414 118.215 121.562C118.355 121.703 118.426 121.875 118.426 122.078C118.426 122.195 118.398 122.312 118.344 122.43C118.297 122.547 118.227 122.648 118.133 122.734C117.641 123.203 117.078 123.559 116.445 123.801C115.82 124.035 115.145 124.152 114.418 124.152C113.621 124.152 112.871 124.012 112.168 123.73C111.473 123.441 110.863 123.047 110.34 122.547C109.824 122.039 109.414 121.445 109.109 120.766C108.812 120.078 108.664 119.336 108.664 118.539V110.113Z" fill="#B8883E"/>
<path d="M119.738 110.16C119.738 109.895 119.828 109.672 120.008 109.492C120.188 109.312 120.41 109.223 120.676 109.223C120.941 109.223 121.164 109.312 121.344 109.492C121.531 109.672 121.625 109.895 121.625 110.16C121.625 110.418 121.531 110.641 121.344 110.828C121.164 111.008 120.941 111.098 120.676 111.098C120.41 111.098 120.188 111.008 120.008 110.828C119.828 110.641 119.738 110.418 119.738 110.16ZM119.879 113.488C119.879 113.262 119.957 113.074 120.113 112.926C120.27 112.77 120.457 112.691 120.676 112.691C120.902 112.691 121.086 112.77 121.227 112.926C121.375 113.074 121.449 113.262 121.449 113.488V123.273C121.449 123.492 121.371 123.68 121.215 123.836C121.066 123.984 120.887 124.059 120.676 124.059C120.457 124.059 120.27 123.984 120.113 123.836C119.957 123.68 119.879 123.492 119.879 123.273V113.488Z" fill="#B8883E"/>
<path d="M124.742 118.434C124.742 118.996 124.852 119.531 125.07 120.039C125.289 120.539 125.586 120.98 125.961 121.363C126.336 121.738 126.773 122.035 127.273 122.254C127.781 122.473 128.324 122.582 128.902 122.582C129.488 122.582 130.035 122.473 130.543 122.254C131.051 122.035 131.488 121.738 131.855 121.363C132.23 120.98 132.523 120.539 132.734 120.039C132.953 119.531 133.062 118.996 133.062 118.434C133.062 117.863 132.953 117.324 132.734 116.816C132.523 116.309 132.23 115.867 131.855 115.492C131.488 115.117 131.051 114.82 130.543 114.602C130.035 114.383 129.488 114.273 128.902 114.273C128.324 114.273 127.781 114.383 127.273 114.602C126.773 114.82 126.336 115.117 125.961 115.492C125.586 115.867 125.289 116.309 125.07 116.816C124.852 117.324 124.742 117.863 124.742 118.434ZM123.184 118.434C123.184 117.637 123.332 116.891 123.629 116.195C123.934 115.492 124.344 114.883 124.859 114.367C125.383 113.852 125.988 113.445 126.676 113.148C127.371 112.844 128.113 112.691 128.902 112.691C129.699 112.691 130.445 112.844 131.141 113.148C131.836 113.445 132.441 113.855 132.957 114.379C133.473 114.895 133.879 115.5 134.176 116.195C134.473 116.891 134.621 117.637 134.621 118.434C134.621 119.223 134.473 119.965 134.176 120.66C133.879 121.348 133.473 121.949 132.957 122.465C132.441 122.98 131.836 123.391 131.141 123.695C130.445 123.992 129.699 124.141 128.902 124.141C128.113 124.141 127.371 123.992 126.676 123.695C125.988 123.391 125.383 122.98 124.859 122.465C124.344 121.949 123.934 121.348 123.629 120.66C123.332 119.965 123.184 119.223 123.184 118.434Z" fill="#B8883E"/>
<path d="M136.027 118.188C136.027 117.43 136.16 116.719 136.426 116.055C136.699 115.383 137.074 114.801 137.551 114.309C138.027 113.809 138.59 113.414 139.238 113.125C139.887 112.836 140.59 112.691 141.348 112.691C142.105 112.691 142.805 112.836 143.445 113.125C144.094 113.406 144.652 113.797 145.121 114.297C145.598 114.789 145.969 115.371 146.234 116.043C146.5 116.707 146.633 117.418 146.633 118.176V123.227C146.633 123.453 146.559 123.641 146.41 123.789C146.27 123.93 146.086 124 145.859 124C145.641 124 145.453 123.93 145.297 123.789C145.148 123.641 145.074 123.453 145.074 123.227V118.234C145.074 117.688 144.98 117.176 144.793 116.699C144.613 116.215 144.355 115.793 144.02 115.434C143.691 115.074 143.297 114.793 142.836 114.59C142.383 114.379 141.887 114.273 141.348 114.273C140.809 114.273 140.309 114.375 139.848 114.578C139.395 114.781 139 115.059 138.664 115.41C138.328 115.762 138.066 116.18 137.879 116.664C137.691 117.141 137.598 117.652 137.598 118.199V123.227C137.598 123.453 137.527 123.641 137.387 123.789C137.246 123.93 137.062 124 136.836 124C136.625 124 136.438 123.93 136.273 123.789C136.109 123.641 136.027 123.453 136.027 123.227V118.188Z" fill="#B8883E"/>
<path d="M67.413 36.8977C67.413 36.8977 67.2924 25.4763 73.5678 20.4984C73.659 20.4222 73.7719 20.3767 73.8903 20.3684C74.0088 20.36 74.1269 20.3893 74.2279 20.4519C74.3288 20.5145 74.4075 20.6074 74.4527 20.7173C74.498 20.8272 74.5075 20.9486 74.4799 21.0643C73.4397 25.6027 70.3736 39.7384 71.4647 44.2787L67.413 36.8977Z" fill="url(#paint0_linear_104_1684)"/>
<path d="M41.0506 48.6662C41.0506 48.6662 42.5695 46.5913 43.6116 47.2119C44.3937 47.4929 43.1857 50.8166 43.0915 54.1911C42.9973 57.5657 43.6286 61.7608 41.3578 63.1189C39.0869 64.477 38.3199 64.2186 33.6539 61.4722C29.361 58.9446 13.8779 49.7772 8.21305 48.1607C8.16301 48.148 8.11905 48.1181 8.08896 48.0761C8.05888 48.0341 8.0446 47.9828 8.04866 47.9313C8.05272 47.8798 8.07487 47.8314 8.11116 47.7947C8.14746 47.7579 8.19556 47.7353 8.24697 47.7306C11.7559 47.3534 22.4335 47.0987 36.8915 56.5622C36.8896 56.5622 38.1805 51.6447 41.0506 48.6662Z" fill="url(#paint1_linear_104_1684)"/>
<path d="M77.629 64.7411C80.9618 64.7411 84.2198 65.7304 86.991 67.5837C89.7622 69.4371 91.9221 72.0714 93.1975 75.1535C94.4729 78.2355 94.8066 81.627 94.1564 84.8989C93.5062 88.1708 91.9013 91.1762 89.5446 93.5351C87.1879 95.894 84.1853 97.5005 80.9165 98.1513C77.6476 98.8021 74.2594 98.4681 71.1803 97.1915C68.1011 95.9148 65.4693 93.7529 63.6176 90.9791C61.766 88.2053 60.7777 84.9443 60.7777 81.6083C60.7782 77.135 62.5537 72.845 65.7139 69.6819C68.874 66.5189 73.1599 64.7416 77.629 64.7411ZM77.629 94.8103C80.238 94.8103 82.7884 94.0359 84.9578 92.5851C87.1271 91.1342 88.8179 89.072 89.8164 86.6593C90.8148 84.2466 91.076 81.5917 90.567 79.0304C90.058 76.4691 88.8017 74.1164 86.9568 72.2697C85.1119 70.4231 82.7614 69.1656 80.2025 68.6561C77.6436 68.1466 74.9912 68.4081 72.5808 69.4075C70.1703 70.4069 68.1101 72.0993 66.6606 74.2706C65.2111 76.442 64.4374 78.9949 64.4374 81.6064C64.4374 85.1083 65.8272 88.4668 68.3011 90.943C70.775 93.4192 74.1303 94.8103 77.629 94.8103Z" fill="url(#paint2_linear_104_1684)"/>
<path d="M24.0035 61.4571C24.7008 61.3967 25.8485 61.3835 27.7386 61.5024C32.6176 61.8079 36.2302 68.1553 39.7052 68.0421C44.196 67.8969 51.3195 64.494 50.3188 55.7228C49.5838 49.2962 48.6359 48.4908 44.6822 45.7915C39.9483 42.5603 38.2975 40.8608 34.0159 45.286C28.76 50.7147 25.1286 46.7573 24.2711 45.8368C24.2403 45.8032 24.2176 45.7629 24.2048 45.7191C24.1921 45.6753 24.1896 45.6291 24.1977 45.5842C24.2057 45.5393 24.224 45.4968 24.2511 45.4602C24.2782 45.4235 24.3135 45.3936 24.354 45.3728C25.2341 44.9032 26.081 44.3738 26.8887 43.7883C31.1138 40.9702 32.1239 37.5051 36.1699 34.8058C40.2159 32.1066 54.7794 43.2469 55.6444 42.3377C57.103 40.8023 54.7606 38.8576 54.4666 38.6218C54.4447 38.6056 54.4245 38.5872 54.4063 38.5671C53.8918 38.02 46.9097 30.424 43.1426 17.5105C42.2983 14.6188 42.091 8.08853 42.4189 4.89316C42.7317 1.82984 44.0509 0.592441 44.9046 0.0888039C44.9932 0.0350107 45.0941 0.00462396 45.1977 0.000490454C45.3013 -0.00364305 45.4042 0.018612 45.4969 0.0651706C45.5895 0.111729 45.6688 0.181067 45.7274 0.26669C45.786 0.352312 45.8219 0.451415 45.8318 0.554715C47.5278 19.3572 57.5817 33.8834 58.4448 34.7398C58.8085 35.1001 59.0817 35.102 59.2758 34.9812C59.346 34.9342 59.405 34.8722 59.4485 34.7998C59.4921 34.7273 59.5191 34.6462 59.5277 34.5621C59.5364 34.478 59.5264 34.393 59.4985 34.3132C59.4706 34.2334 59.4255 34.1607 59.3663 34.1004C56.6432 31.2162 55.5973 26.5156 54.6739 16.9805C53.9521 9.48815 56.8166 5.35342 58.1828 4.75358C58.2634 4.71896 58.3511 4.70445 58.4385 4.71132C58.5259 4.71818 58.6103 4.7462 58.6845 4.79298C58.7587 4.83975 58.8204 4.90387 58.8643 4.97981C58.9082 5.05576 58.9331 5.14125 58.9366 5.22892C59.0516 8.0923 59.6037 19.1516 61.5523 27.2984C63.8137 36.7298 71.1445 47.5439 78.9633 59.8236C80.0262 61.4929 83.9535 68.459 86.7482 73.1275L86.7595 73.1483C88.3396 75.3799 89.1824 78.0506 89.1698 80.7858C89.1698 87.6896 83.9949 93.2881 77.6083 93.2881C73.551 93.2881 69.9855 91.0246 67.922 87.6047C66.0657 85.5034 63.5876 83.619 60.2633 82.1987C44.0584 75.2628 34.7038 79.7899 32.5271 72.6786C30.8104 67.0782 25.8503 63.5339 23.817 62.2814C23.7369 62.2331 23.6741 62.1607 23.6374 62.0746C23.6008 61.9886 23.5922 61.8931 23.6128 61.8018C23.6335 61.7105 23.6824 61.6281 23.7525 61.5662C23.8226 61.5044 23.9105 61.4662 24.0035 61.4571Z" fill="url(#paint3_linear_104_1684)"/>
<defs>
<linearGradient id="paint0_linear_104_1684" x1="73.0786" y1="44.1834" x2="70.2595" y2="20.9478" gradientUnits="userSpaceOnUse">
<stop stop-color="#7D94CE"/>
<stop offset="1" stop-color="#71C4CF"/>
</linearGradient>
<linearGradient id="paint1_linear_104_1684" x1="26.6136" y1="64.4123" x2="25.9248" y2="46.9759" gradientUnits="userSpaceOnUse">
<stop stop-color="#837BCE"/>
<stop offset="1" stop-color="#79A5CE"/>
</linearGradient>
<linearGradient id="paint2_linear_104_1684" x1="77.629" y1="98.4735" x2="77.629" y2="64.7411" gradientUnits="userSpaceOnUse">
<stop stop-color="#8963CD"/>
<stop offset="1" stop-color="#8574CD"/>
</linearGradient>
<linearGradient id="paint3_linear_104_1684" x1="56.385" y1="93.2881" x2="56.385" y2="0.000147436" gradientUnits="userSpaceOnUse">
<stop stop-color="#876DCD"/>
<stop offset="1" stop-color="#6CD9CF"/>
</linearGradient>
</defs>
</svg>
