<svg width="147" height="125" viewBox="0 0 147 125" fill="none" xmlns="http://www.w3.org/2000/svg">
<path d="M12.7969 116.77C13.0234 116.77 13.2188 116.84 13.3828 116.98C13.5469 117.121 13.6289 117.305 13.6289 117.531V121.305C13.6289 121.445 13.6016 121.562 13.5469 121.656C13.5 121.742 13.4336 121.828 13.3477 121.914C12.5117 122.695 11.6133 123.266 10.6523 123.625C9.69141 123.977 8.70312 124.152 7.6875 124.152C6.99219 124.152 6.31641 124.059 5.66016 123.871C5.01172 123.684 4.40234 123.422 3.83203 123.086C3.26172 122.742 2.74219 122.332 2.27344 121.855C1.80469 121.379 1.40234 120.852 1.06641 120.273C0.730469 119.695 0.46875 119.078 0.28125 118.422C0.09375 117.758 0 117.066 0 116.348C0 115.637 0.0898438 114.953 0.269531 114.297C0.449219 113.633 0.703125 113.012 1.03125 112.434C1.36719 111.848 1.76953 111.316 2.23828 110.84C2.70703 110.355 3.23047 109.945 3.80859 109.609C4.38672 109.266 5.00781 109 5.67188 108.812C6.33594 108.617 7.03516 108.52 7.76953 108.52C8.82422 108.52 9.82031 108.715 10.7578 109.105C11.7031 109.488 12.5664 110.07 13.3477 110.852C13.5039 111.023 13.582 111.207 13.582 111.402C13.582 111.504 13.5586 111.602 13.5117 111.695C13.4648 111.789 13.4023 111.871 13.3242 111.941C13.2539 112.012 13.1719 112.07 13.0781 112.117C12.9844 112.156 12.8867 112.176 12.7852 112.176C12.582 112.176 12.4023 112.098 12.2461 111.941C11.6133 111.332 10.9102 110.871 10.1367 110.559C9.37109 110.246 8.58594 110.09 7.78125 110.09C6.9375 110.09 6.14062 110.25 5.39062 110.57C4.64062 110.891 3.98047 111.332 3.41016 111.895C2.83984 112.449 2.38672 113.109 2.05078 113.875C1.72266 114.633 1.55859 115.453 1.55859 116.336C1.55859 117.172 1.71484 117.969 2.02734 118.727C2.34766 119.477 2.78516 120.141 3.33984 120.719C3.89453 121.289 4.54688 121.746 5.29688 122.09C6.04688 122.426 6.85547 122.594 7.72266 122.594C8.50391 122.594 9.26172 122.469 9.99609 122.219C10.7305 121.961 11.4141 121.551 12.0469 120.988V118.316H9.12891C8.91016 118.316 8.72656 118.242 8.57812 118.094C8.4375 117.938 8.36719 117.75 8.36719 117.531C8.36719 117.32 8.4375 117.137 8.57812 116.98C8.72656 116.824 8.91016 116.746 9.12891 116.746L12.7969 116.77Z" fill="white"/>
<path d="M20.0625 122.477C20.2891 122.477 20.4727 122.551 20.6133 122.699C20.7617 122.848 20.8359 123.031 20.8359 123.25C20.8359 123.477 20.7656 123.66 20.625 123.801C20.4844 123.941 20.3008 124.012 20.0742 124.012C19.5195 124.012 19.0078 123.918 18.5391 123.73C18.0703 123.543 17.6641 123.277 17.3203 122.934C16.9766 122.582 16.707 122.164 16.5117 121.68C16.3242 121.188 16.2305 120.641 16.2305 120.039V109.434C16.2305 109.207 16.3008 109.02 16.4414 108.871C16.5898 108.715 16.7734 108.637 16.9922 108.637C17.2031 108.637 17.3867 108.715 17.543 108.871C17.707 109.02 17.7891 109.207 17.7891 109.434V120.016C17.7891 120.797 17.9883 121.402 18.3867 121.832C18.793 122.262 19.3516 122.477 20.0625 122.477Z" fill="white"/>
<path d="M23.168 118.434C23.168 118.996 23.2773 119.531 23.4961 120.039C23.7148 120.539 24.0117 120.98 24.3867 121.363C24.7617 121.738 25.1992 122.035 25.6992 122.254C26.207 122.473 26.75 122.582 27.3281 122.582C27.9141 122.582 28.4609 122.473 28.9688 122.254C29.4766 122.035 29.9141 121.738 30.2812 121.363C30.6562 120.98 30.9492 120.539 31.1602 120.039C31.3789 119.531 31.4883 118.996 31.4883 118.434C31.4883 117.863 31.3789 117.324 31.1602 116.816C30.9492 116.309 30.6562 115.867 30.2812 115.492C29.9141 115.117 29.4766 114.82 28.9688 114.602C28.4609 114.383 27.9141 114.273 27.3281 114.273C26.75 114.273 26.207 114.383 25.6992 114.602C25.1992 114.82 24.7617 115.117 24.3867 115.492C24.0117 115.867 23.7148 116.309 23.4961 116.816C23.2773 117.324 23.168 117.863 23.168 118.434ZM21.6094 118.434C21.6094 117.637 21.7578 116.891 22.0547 116.195C22.3594 115.492 22.7695 114.883 23.2852 114.367C23.8086 113.852 24.4141 113.445 25.1016 113.148C25.7969 112.844 26.5391 112.691 27.3281 112.691C28.125 112.691 28.8711 112.844 29.5664 113.148C30.2617 113.445 30.8672 113.855 31.3828 114.379C31.8984 114.895 32.3047 115.5 32.6016 116.195C32.8984 116.891 33.0469 117.637 33.0469 118.434C33.0469 119.223 32.8984 119.965 32.6016 120.66C32.3047 121.348 31.8984 121.949 31.3828 122.465C30.8672 122.98 30.2617 123.391 29.5664 123.695C28.8711 123.992 28.125 124.141 27.3281 124.141C26.5391 124.141 25.7969 123.992 25.1016 123.695C24.4141 123.391 23.8086 122.98 23.2852 122.465C22.7695 121.949 22.3594 121.348 22.0547 120.66C21.7578 119.965 21.6094 119.223 21.6094 118.434Z" fill="white"/>
<path d="M34.6289 109.387C34.6289 109.16 34.7031 108.969 34.8516 108.812C35.0078 108.656 35.1953 108.578 35.4141 108.578C35.6406 108.578 35.8242 108.656 35.9648 108.812C36.1133 108.969 36.1875 109.16 36.1875 109.387V115.445C36.3359 115.047 36.5469 114.684 36.8203 114.355C37.1016 114.02 37.4258 113.73 37.793 113.488C38.168 113.238 38.5742 113.047 39.0117 112.914C39.4492 112.773 39.8984 112.703 40.3594 112.703C41.1484 112.703 41.8906 112.852 42.5859 113.148C43.2812 113.445 43.8867 113.852 44.4023 114.367C44.918 114.883 45.3242 115.488 45.6211 116.184C45.918 116.879 46.0664 117.625 46.0664 118.422C46.0664 119.211 45.918 119.953 45.6211 120.648C45.3242 121.344 44.918 121.949 44.4023 122.465C43.8867 122.98 43.2812 123.391 42.5859 123.695C41.8906 123.992 41.1484 124.141 40.3594 124.141C39.5703 124.141 38.8281 123.992 38.1328 123.695C37.4375 123.391 36.8281 122.98 36.3047 122.465C35.7891 121.949 35.3789 121.348 35.0742 120.66C34.7773 119.965 34.6289 119.223 34.6289 118.434V109.387ZM36.1875 118.422C36.1875 118.984 36.2969 119.52 36.5156 120.027C36.7344 120.527 37.0312 120.969 37.4062 121.352C37.7812 121.727 38.2227 122.023 38.7305 122.242C39.2383 122.461 39.7812 122.57 40.3594 122.57C40.9453 122.57 41.4883 122.461 41.9883 122.242C42.4961 122.023 42.9375 121.727 43.3125 121.352C43.6875 120.969 43.9805 120.527 44.1914 120.027C44.4102 119.52 44.5195 118.984 44.5195 118.422C44.5195 117.844 44.4102 117.305 44.1914 116.805C43.9805 116.297 43.6875 115.855 43.3125 115.48C42.9375 115.105 42.4961 114.812 41.9883 114.602C41.4883 114.383 40.9453 114.273 40.3594 114.273C39.7812 114.273 39.2383 114.383 38.7305 114.602C38.2227 114.812 37.7812 115.105 37.4062 115.48C37.0312 115.855 36.7344 116.297 36.5156 116.805C36.2969 117.305 36.1875 117.844 36.1875 118.422Z" fill="white"/>
<path d="M52.8281 124.141C52.0391 124.141 51.3008 123.992 50.6133 123.695C49.9258 123.391 49.3281 122.98 48.8203 122.465C48.3125 121.949 47.9102 121.348 47.6133 120.66C47.3164 119.965 47.168 119.223 47.168 118.434C47.168 117.637 47.3164 116.891 47.6133 116.195C47.9102 115.5 48.3125 114.895 48.8203 114.379C49.3281 113.855 49.9258 113.445 50.6133 113.148C51.3008 112.844 52.0391 112.691 52.8281 112.691C53.625 112.691 54.3672 112.844 55.0547 113.148C55.7422 113.445 56.3398 113.852 56.8477 114.367C57.3555 114.883 57.7539 115.492 58.043 116.195C58.3398 116.891 58.4883 117.637 58.4883 118.434V123.25C58.4883 123.477 58.4102 123.668 58.2539 123.824C58.0977 123.98 57.9062 124.059 57.6797 124.059C57.4453 124.059 57.2578 123.98 57.1172 123.824C56.9844 123.668 56.918 123.477 56.918 123.25L56.9062 122.406C56.3906 122.945 55.7852 123.371 55.0898 123.684C54.4023 123.988 53.6484 124.141 52.8281 124.141ZM52.8281 122.582C53.4141 122.582 53.957 122.473 54.457 122.254C54.957 122.035 55.3867 121.738 55.7461 121.363C56.1133 120.98 56.3984 120.539 56.6016 120.039C56.8125 119.531 56.918 118.996 56.918 118.434C56.918 117.863 56.8125 117.324 56.6016 116.816C56.3984 116.309 56.1133 115.867 55.7461 115.492C55.3867 115.117 54.957 114.82 54.457 114.602C53.957 114.383 53.4141 114.273 52.8281 114.273C52.25 114.273 51.7109 114.383 51.2109 114.602C50.7188 114.82 50.2891 115.117 49.9219 115.492C49.5547 115.867 49.2656 116.309 49.0547 116.816C48.8438 117.324 48.7383 117.863 48.7383 118.434C48.7383 118.996 48.8438 119.531 49.0547 120.039C49.2656 120.539 49.5547 120.98 49.9219 121.363C50.2891 121.738 50.7188 122.035 51.2109 122.254C51.7109 122.473 52.25 122.582 52.8281 122.582Z" fill="white"/>
<path d="M64.8047 122.477C65.0312 122.477 65.2148 122.551 65.3555 122.699C65.5039 122.848 65.5781 123.031 65.5781 123.25C65.5781 123.477 65.5078 123.66 65.3672 123.801C65.2266 123.941 65.043 124.012 64.8164 124.012C64.2617 124.012 63.75 123.918 63.2812 123.73C62.8125 123.543 62.4062 123.277 62.0625 122.934C61.7188 122.582 61.4492 122.164 61.2539 121.68C61.0664 121.188 60.9727 120.641 60.9727 120.039V109.434C60.9727 109.207 61.043 109.02 61.1836 108.871C61.332 108.715 61.5156 108.637 61.7344 108.637C61.9453 108.637 62.1289 108.715 62.2852 108.871C62.4492 109.02 62.5312 109.207 62.5312 109.434V120.016C62.5312 120.797 62.7305 121.402 63.1289 121.832C63.5352 122.262 64.0938 122.477 64.8047 122.477Z" fill="white"/>
<path d="M72.1523 121.234C72.1133 121.156 72.0859 121.086 72.0703 121.023C72.0625 120.953 72.0586 120.887 72.0586 120.824C72.0586 120.598 72.1367 120.414 72.293 120.273C72.4492 120.133 72.6172 120.062 72.7969 120.062C73.0547 120.062 73.3008 120.223 73.5352 120.543C73.6992 120.855 73.9062 121.141 74.1562 121.398C74.4141 121.648 74.7031 121.863 75.0234 122.043C75.3516 122.215 75.7031 122.352 76.0781 122.453C76.4531 122.547 76.8477 122.594 77.2617 122.594C77.6836 122.594 78.1016 122.531 78.5156 122.406C78.9375 122.273 79.3125 122.082 79.6406 121.832C79.9766 121.582 80.2461 121.27 80.4492 120.895C80.6602 120.52 80.7656 120.086 80.7656 119.594C80.7656 119.148 80.6602 118.773 80.4492 118.469C80.2461 118.164 79.9727 117.906 79.6289 117.695C79.293 117.477 78.9102 117.293 78.4805 117.145C78.0586 116.988 77.6289 116.84 77.1914 116.699C76.6055 116.566 76.0312 116.395 75.4688 116.184C74.9062 115.973 74.4023 115.703 73.957 115.375C73.5195 115.047 73.1641 114.656 72.8906 114.203C72.625 113.742 72.4922 113.203 72.4922 112.586C72.4922 111.953 72.6289 111.387 72.9023 110.887C73.1758 110.387 73.5352 109.961 73.9805 109.609C74.4258 109.258 74.9258 108.988 75.4805 108.801C76.043 108.613 76.6133 108.52 77.1914 108.52C77.6602 108.52 78.1133 108.57 78.5508 108.672C78.9961 108.766 79.4102 108.906 79.793 109.094C80.1758 109.281 80.5234 109.516 80.8359 109.797C81.1484 110.07 81.4102 110.391 81.6211 110.758C81.6758 110.844 81.7031 110.945 81.7031 111.062C81.7031 111.266 81.6289 111.438 81.4805 111.578C81.3398 111.711 81.1719 111.777 80.9766 111.777C80.8984 111.777 80.8164 111.766 80.7305 111.742C80.6523 111.711 80.5703 111.664 80.4844 111.602C80.0234 111.039 79.5312 110.645 79.0078 110.418C78.4844 110.191 77.8867 110.078 77.2148 110.078C76.8398 110.078 76.4648 110.133 76.0898 110.242C75.7148 110.352 75.375 110.512 75.0703 110.723C74.7734 110.934 74.5312 111.199 74.3438 111.52C74.1562 111.832 74.0625 112.199 74.0625 112.621C74.0625 113.043 74.1758 113.395 74.4023 113.676C74.6367 113.957 74.9297 114.195 75.2812 114.391C75.6328 114.586 76.0195 114.746 76.4414 114.871C76.8633 114.988 77.2656 115.098 77.6484 115.199C78.2422 115.387 78.8164 115.598 79.3711 115.832C79.9336 116.059 80.4297 116.34 80.8594 116.676C81.2969 117.004 81.6484 117.402 81.9141 117.871C82.1797 118.332 82.3125 118.887 82.3125 119.535C82.3125 120.23 82.1719 120.863 81.8906 121.434C81.6172 121.996 81.2461 122.48 80.7773 122.887C80.3086 123.285 79.7656 123.598 79.1484 123.824C78.5312 124.043 77.8828 124.152 77.2031 124.152C76.6328 124.152 76.082 124.078 75.5508 123.93C75.0195 123.781 74.5312 123.574 74.0859 123.309C73.6406 123.043 73.25 122.734 72.9141 122.383C72.5859 122.031 72.332 121.648 72.1523 121.234Z" fill="white"/>
<path d="M84.1523 110.113C84.1523 109.895 84.2305 109.707 84.3867 109.551C84.543 109.395 84.7266 109.316 84.9375 109.316C85.1562 109.316 85.3438 109.395 85.5 109.551C85.6641 109.699 85.7461 109.887 85.7461 110.113V112.797H90.9141C91.1328 112.797 91.3203 112.875 91.4766 113.031C91.6328 113.188 91.7109 113.375 91.7109 113.594C91.7109 113.797 91.6328 113.973 91.4766 114.121C91.3281 114.27 91.1406 114.344 90.9141 114.344H85.7461V118.551C85.7461 119.121 85.8516 119.652 86.0625 120.145C86.2812 120.637 86.5781 121.066 86.9531 121.434C87.3281 121.793 87.7656 122.078 88.2656 122.289C88.7734 122.492 89.3203 122.594 89.9062 122.594C90.4219 122.594 90.9023 122.516 91.3477 122.359C91.793 122.203 92.2148 121.949 92.6133 121.598C92.6992 121.527 92.7891 121.469 92.8828 121.422C92.9766 121.367 93.0898 121.34 93.2227 121.34C93.4023 121.34 93.5625 121.414 93.7031 121.562C93.8438 121.703 93.9141 121.875 93.9141 122.078C93.9141 122.195 93.8867 122.312 93.832 122.43C93.7852 122.547 93.7148 122.648 93.6211 122.734C93.1289 123.203 92.5664 123.559 91.9336 123.801C91.3086 124.035 90.6328 124.152 89.9062 124.152C89.1094 124.152 88.3594 124.012 87.6562 123.73C86.9609 123.441 86.3516 123.047 85.8281 122.547C85.3125 122.039 84.9023 121.445 84.5977 120.766C84.3008 120.078 84.1523 119.336 84.1523 118.539V110.113Z" fill="white"/>
<path d="M100.266 124.141C99.4766 124.141 98.7383 123.992 98.0508 123.695C97.3633 123.391 96.7656 122.98 96.2578 122.465C95.75 121.949 95.3477 121.348 95.0508 120.66C94.7539 119.965 94.6055 119.223 94.6055 118.434C94.6055 117.637 94.7539 116.891 95.0508 116.195C95.3477 115.5 95.75 114.895 96.2578 114.379C96.7656 113.855 97.3633 113.445 98.0508 113.148C98.7383 112.844 99.4766 112.691 100.266 112.691C101.062 112.691 101.805 112.844 102.492 113.148C103.18 113.445 103.777 113.852 104.285 114.367C104.793 114.883 105.191 115.492 105.48 116.195C105.777 116.891 105.926 117.637 105.926 118.434V123.25C105.926 123.477 105.848 123.668 105.691 123.824C105.535 123.98 105.344 124.059 105.117 124.059C104.883 124.059 104.695 123.98 104.555 123.824C104.422 123.668 104.355 123.477 104.355 123.25L104.344 122.406C103.828 122.945 103.223 123.371 102.527 123.684C101.84 123.988 101.086 124.141 100.266 124.141ZM100.266 122.582C100.852 122.582 101.395 122.473 101.895 122.254C102.395 122.035 102.824 121.738 103.184 121.363C103.551 120.98 103.836 120.539 104.039 120.039C104.25 119.531 104.355 118.996 104.355 118.434C104.355 117.863 104.25 117.324 104.039 116.816C103.836 116.309 103.551 115.867 103.184 115.492C102.824 115.117 102.395 114.82 101.895 114.602C101.395 114.383 100.852 114.273 100.266 114.273C99.6875 114.273 99.1484 114.383 98.6484 114.602C98.1562 114.82 97.7266 115.117 97.3594 115.492C96.9922 115.867 96.7031 116.309 96.4922 116.816C96.2812 117.324 96.1758 117.863 96.1758 118.434C96.1758 118.996 96.2812 119.531 96.4922 120.039C96.7031 120.539 96.9922 120.98 97.3594 121.363C97.7266 121.738 98.1562 122.035 98.6484 122.254C99.1484 122.473 99.6875 122.582 100.266 122.582Z" fill="white"/>
<path d="M108.082 110.113C108.082 109.895 108.16 109.707 108.316 109.551C108.473 109.395 108.656 109.316 108.867 109.316C109.086 109.316 109.273 109.395 109.43 109.551C109.594 109.699 109.676 109.887 109.676 110.113V112.797H114.844C115.062 112.797 115.25 112.875 115.406 113.031C115.562 113.188 115.641 113.375 115.641 113.594C115.641 113.797 115.562 113.973 115.406 114.121C115.258 114.27 115.07 114.344 114.844 114.344H109.676V118.551C109.676 119.121 109.781 119.652 109.992 120.145C110.211 120.637 110.508 121.066 110.883 121.434C111.258 121.793 111.695 122.078 112.195 122.289C112.703 122.492 113.25 122.594 113.836 122.594C114.352 122.594 114.832 122.516 115.277 122.359C115.723 122.203 116.145 121.949 116.543 121.598C116.629 121.527 116.719 121.469 116.812 121.422C116.906 121.367 117.02 121.34 117.152 121.34C117.332 121.34 117.492 121.414 117.633 121.562C117.773 121.703 117.844 121.875 117.844 122.078C117.844 122.195 117.816 122.312 117.762 122.43C117.715 122.547 117.645 122.648 117.551 122.734C117.059 123.203 116.496 123.559 115.863 123.801C115.238 124.035 114.562 124.152 113.836 124.152C113.039 124.152 112.289 124.012 111.586 123.73C110.891 123.441 110.281 123.047 109.758 122.547C109.242 122.039 108.832 121.445 108.527 120.766C108.23 120.078 108.082 119.336 108.082 118.539V110.113Z" fill="white"/>
<path d="M119.156 110.16C119.156 109.895 119.246 109.672 119.426 109.492C119.605 109.312 119.828 109.223 120.094 109.223C120.359 109.223 120.582 109.312 120.762 109.492C120.949 109.672 121.043 109.895 121.043 110.16C121.043 110.418 120.949 110.641 120.762 110.828C120.582 111.008 120.359 111.098 120.094 111.098C119.828 111.098 119.605 111.008 119.426 110.828C119.246 110.641 119.156 110.418 119.156 110.16ZM119.297 113.488C119.297 113.262 119.375 113.074 119.531 112.926C119.688 112.77 119.875 112.691 120.094 112.691C120.32 112.691 120.504 112.77 120.645 112.926C120.793 113.074 120.867 113.262 120.867 113.488V123.273C120.867 123.492 120.789 123.68 120.633 123.836C120.484 123.984 120.305 124.059 120.094 124.059C119.875 124.059 119.688 123.984 119.531 123.836C119.375 123.68 119.297 123.492 119.297 123.273V113.488Z" fill="white"/>
<path d="M124.16 118.434C124.16 118.996 124.27 119.531 124.488 120.039C124.707 120.539 125.004 120.98 125.379 121.363C125.754 121.738 126.191 122.035 126.691 122.254C127.199 122.473 127.742 122.582 128.32 122.582C128.906 122.582 129.453 122.473 129.961 122.254C130.469 122.035 130.906 121.738 131.273 121.363C131.648 120.98 131.941 120.539 132.152 120.039C132.371 119.531 132.48 118.996 132.48 118.434C132.48 117.863 132.371 117.324 132.152 116.816C131.941 116.309 131.648 115.867 131.273 115.492C130.906 115.117 130.469 114.82 129.961 114.602C129.453 114.383 128.906 114.273 128.32 114.273C127.742 114.273 127.199 114.383 126.691 114.602C126.191 114.82 125.754 115.117 125.379 115.492C125.004 115.867 124.707 116.309 124.488 116.816C124.27 117.324 124.16 117.863 124.16 118.434ZM122.602 118.434C122.602 117.637 122.75 116.891 123.047 116.195C123.352 115.492 123.762 114.883 124.277 114.367C124.801 113.852 125.406 113.445 126.094 113.148C126.789 112.844 127.531 112.691 128.32 112.691C129.117 112.691 129.863 112.844 130.559 113.148C131.254 113.445 131.859 113.855 132.375 114.379C132.891 114.895 133.297 115.5 133.594 116.195C133.891 116.891 134.039 117.637 134.039 118.434C134.039 119.223 133.891 119.965 133.594 120.66C133.297 121.348 132.891 121.949 132.375 122.465C131.859 122.98 131.254 123.391 130.559 123.695C129.863 123.992 129.117 124.141 128.32 124.141C127.531 124.141 126.789 123.992 126.094 123.695C125.406 123.391 124.801 122.98 124.277 122.465C123.762 121.949 123.352 121.348 123.047 120.66C122.75 119.965 122.602 119.223 122.602 118.434Z" fill="white"/>
<path d="M135.445 118.188C135.445 117.43 135.578 116.719 135.844 116.055C136.117 115.383 136.492 114.801 136.969 114.309C137.445 113.809 138.008 113.414 138.656 113.125C139.305 112.836 140.008 112.691 140.766 112.691C141.523 112.691 142.223 112.836 142.863 113.125C143.512 113.406 144.07 113.797 144.539 114.297C145.016 114.789 145.387 115.371 145.652 116.043C145.918 116.707 146.051 117.418 146.051 118.176V123.227C146.051 123.453 145.977 123.641 145.828 123.789C145.688 123.93 145.504 124 145.277 124C145.059 124 144.871 123.93 144.715 123.789C144.566 123.641 144.492 123.453 144.492 123.227V118.234C144.492 117.688 144.398 117.176 144.211 116.699C144.031 116.215 143.773 115.793 143.438 115.434C143.109 115.074 142.715 114.793 142.254 114.59C141.801 114.379 141.305 114.273 140.766 114.273C140.227 114.273 139.727 114.375 139.266 114.578C138.812 114.781 138.418 115.059 138.082 115.41C137.746 115.762 137.484 116.18 137.297 116.664C137.109 117.141 137.016 117.652 137.016 118.199V123.227C137.016 123.453 136.945 123.641 136.805 123.789C136.664 123.93 136.48 124 136.254 124C136.043 124 135.855 123.93 135.691 123.789C135.527 123.641 135.445 123.453 135.445 123.227V118.188Z" fill="white"/>
<path d="M66.831 36.8977C66.831 36.8977 66.7104 25.4763 72.9858 20.4984C73.077 20.4222 73.1898 20.3767 73.3083 20.3684C73.4268 20.36 73.5449 20.3893 73.6458 20.4519C73.7468 20.5145 73.8255 20.6074 73.8707 20.7173C73.9159 20.8272 73.9255 20.9486 73.8979 21.0643C72.8576 25.6027 69.7915 39.7385 70.8827 44.2787L66.831 36.8977Z" fill="white"/>
<path d="M40.4686 48.6662C40.4686 48.6662 41.9875 46.5913 43.0296 47.2119C43.8117 47.4929 42.6037 50.8166 42.5095 54.1911C42.4153 57.5657 43.0466 61.7608 40.7757 63.1189C38.5049 64.477 37.7379 64.2186 33.0719 61.4722C28.779 58.9446 13.2958 49.7772 7.63102 48.1607C7.58097 48.148 7.53702 48.1181 7.50693 48.0761C7.47685 48.0341 7.46257 47.9828 7.46663 47.9313C7.47069 47.8798 7.49284 47.8314 7.52913 47.7947C7.56543 47.7579 7.61353 47.7353 7.66494 47.7306C11.1739 47.3534 21.8515 47.0987 36.3095 56.5622C36.3076 56.5622 37.5985 51.6447 40.4686 48.6662Z" fill="white"/>
<path d="M77.0469 64.7411C80.3798 64.7411 83.6378 65.7303 86.409 67.5837C89.1802 69.4371 91.34 72.0714 92.6155 75.1535C93.8909 78.2355 94.2246 81.627 93.5744 84.8989C92.9242 88.1708 91.3193 91.1762 88.9626 93.5351C86.6059 95.894 83.6033 97.5004 80.3344 98.1513C77.0656 98.8021 73.6774 98.4681 70.5982 97.1914C67.5191 95.9148 64.8872 93.7529 63.0356 90.9791C61.184 88.2053 60.1957 84.9442 60.1957 81.6082C60.1962 77.135 61.9717 72.845 65.1318 69.6819C68.2919 66.5188 72.5778 64.7416 77.0469 64.7411V64.7411ZM77.0469 94.8103C79.656 94.8103 82.2064 94.0359 84.3758 92.5851C86.5451 91.1342 88.2359 89.072 89.2343 86.6593C90.2328 84.2466 90.494 81.5917 89.985 79.0304C89.476 76.4691 88.2196 74.1163 86.3748 72.2697C84.5299 70.4231 82.1794 69.1656 79.6205 68.6561C77.0616 68.1466 74.4092 68.4081 71.9987 69.4075C69.5883 70.4068 67.528 72.0992 66.0785 74.2706C64.629 76.442 63.8554 78.9949 63.8554 81.6064C63.8554 85.1083 65.2452 88.4667 67.7191 90.943C70.193 93.4192 73.5483 94.8103 77.0469 94.8103V94.8103Z" fill="white"/>
<path d="M23.4215 61.4571C24.1188 61.3967 25.2664 61.3835 27.1566 61.5024C32.0356 61.8079 35.6482 68.1553 39.1232 68.0421C43.614 67.8969 50.7374 64.494 49.7367 55.7228C49.0018 49.2962 48.0539 48.4908 44.1002 45.7915C39.3663 42.5603 37.7155 40.8608 33.4339 45.286C28.178 50.7147 24.5465 46.7573 23.6891 45.8368C23.6582 45.8032 23.6355 45.7629 23.6228 45.7191C23.6101 45.6753 23.6076 45.6291 23.6156 45.5842C23.6237 45.5393 23.642 45.4968 23.6691 45.4602C23.6962 45.4235 23.7314 45.3936 23.772 45.3728C24.6521 44.9032 25.4989 44.3738 26.3067 43.7883C30.5317 40.9702 31.5418 37.5051 35.5879 34.8058C39.6339 32.1066 54.1974 43.2469 55.0624 42.3377C56.521 40.8023 54.1785 38.8576 53.8845 38.6218C53.8627 38.6056 53.8425 38.5872 53.8242 38.5671C53.3098 38.02 46.3277 30.424 42.5605 17.5105C41.7163 14.6188 41.509 8.08853 41.8369 4.89316C42.1497 1.82984 43.4689 0.592441 44.3225 0.0888039C44.4112 0.0350107 44.5121 0.00462396 44.6156 0.000490454C44.7192 -0.00364305 44.8222 0.018612 44.9148 0.0651706C45.0075 0.111729 45.0868 0.181067 45.1454 0.26669C45.204 0.352312 45.2399 0.451415 45.2497 0.554716C46.9458 19.3572 56.9996 33.8834 57.8627 34.7398C58.2265 35.1001 58.4997 35.102 58.6938 34.9812C58.764 34.9342 58.8229 34.8722 58.8665 34.7998C58.91 34.7273 58.9371 34.6462 58.9457 34.5621C58.9544 34.478 58.9444 34.393 58.9165 34.3132C58.8886 34.2334 58.8434 34.1607 58.7843 34.1004C56.0612 31.2162 55.0152 26.5156 54.0918 16.9805C53.3701 9.48815 56.2345 5.35342 57.6008 4.75358C57.6813 4.71896 57.7691 4.70445 57.8565 4.71132C57.9439 4.71818 58.0283 4.7462 58.1025 4.79298C58.1767 4.83975 58.2384 4.90387 58.2823 4.97981C58.3262 5.05576 58.351 5.14125 58.3546 5.22892C58.4696 8.0923 59.0217 19.1516 60.9703 27.2984C63.2317 36.7298 70.5624 47.5439 78.3813 59.8236C79.4441 61.4929 83.3714 68.459 86.1662 73.1275L86.1775 73.1483C87.7576 75.3799 88.6004 78.0506 88.5878 80.7858C88.5878 87.6896 83.4129 93.2881 77.0263 93.2881C72.969 93.2881 69.4035 91.0246 67.3399 87.6047C65.4837 85.5034 63.0056 83.619 59.6813 82.1987C43.4764 75.2628 34.1217 79.7899 31.9451 72.6786C30.2283 67.0782 25.2683 63.5339 23.2349 62.2814C23.1549 62.2331 23.092 62.1607 23.0554 62.0746C23.0187 61.9885 23.0101 61.8931 23.0308 61.8018C23.0515 61.7105 23.1003 61.6281 23.1705 61.5662C23.2406 61.5044 23.3284 61.4662 23.4215 61.4571V61.4571Z" fill="white"/>
</svg>
