<?xml version="1.0" encoding="UTF-8"?><svg id="Layer_1" xmlns="http://www.w3.org/2000/svg" xmlns:xlink="http://www.w3.org/1999/xlink" viewBox="0 0 190 75"><defs><style>.cls-1{fill:url(#linear-gradient);}.cls-2{clip-path:url(#clippath);}.cls-3{fill:#fff;}.cls-4{clip-path:url(#clippath-1);}</style><linearGradient id="linear-gradient" x1="-24.77" y1="119.99" x2="231.04" y2="-56.2" gradientUnits="userSpaceOnUse"><stop offset="0" stop-color="#876dcd"/><stop offset="1" stop-color="#6cd9cf"/></linearGradient><clipPath id="clippath"><path class="cls-3" d="M28.32,32.69s.05-4.45-2.4-6.39c-.16-.13-.4,.02-.36,.22,.41,1.77,1.6,7.28,1.18,9.05l1.58-2.88Z"/></clipPath><clipPath id="clippath-1"><path class="cls-3" d="M38.6,37.28s-.59-.81-1-.57c-.3,.11,.17,1.4,.2,2.72s-.21,2.95,.68,3.48,1.18,.43,3.01-.64c1.68-.99,7.72-4.56,9.93-5.19,.09-.03,.08-.16-.01-.17-1.37-.15-5.53-.25-11.17,3.44,0,0-.5-1.92-1.62-3.08Z"/></clipPath></defs><rect class="cls-1" width="190" height="75"/><g><path class="cls-3" d="M76.01,36.95c1.77,1.16,2.57,2.89,2.42,5.17-.13,1.69-.86,3.07-2.21,4.11-1.34,1.05-2.95,1.51-4.83,1.37-1.74-.13-3.19-.75-4.34-1.91-.35-.35-.53-.78-.53-1.27,.01-.49,.18-.92,.53-1.27s.79-.52,1.28-.52,.93,.18,1.28,.53c.52,.52,1.19,.81,2.04,.86,.89,.07,1.63-.11,2.22-.52s.91-.95,.96-1.65c.04-.54-.03-.98-.2-1.3-.13-.24-.32-.45-.59-.63-.59-.39-1.28-.61-2.07-.67-1.9-.13-3.43-.81-4.61-2.04s-1.71-2.69-1.59-4.38c.13-1.7,.86-3.07,2.21-4.11,1.33-1.05,2.95-1.51,4.83-1.38,.96,.07,1.81,.29,2.59,.7,.56,.29,1.14,.7,1.71,1.24,.37,.33,.56,.75,.58,1.26,.01,.49-.14,.92-.49,1.28-.34,.36-.76,.54-1.25,.56-.51,.01-.94-.14-1.31-.47-.65-.6-1.34-.93-2.08-.98-.89-.07-1.63,.1-2.22,.5-.59,.4-.91,.96-.96,1.66-.06,.7,.18,1.28,.72,1.77,.52,.49,1.24,.75,2.12,.82h.01c1.41,.1,2.67,.5,3.78,1.24Z"/><path class="cls-3" d="M96.4,27.59c.49,0,.93,.18,1.28,.53s.52,.77,.52,1.27v16.19c0,.5-.17,.92-.52,1.27s-.79,.53-1.28,.53-.93-.18-1.28-.53-.53-.77-.53-1.27v-6.33h-9.5v6.33c0,.5-.18,.92-.53,1.27s-.77,.53-1.26,.53-.93-.18-1.28-.53-.53-.77-.53-1.27V29.39c0-.5,.18-.92,.53-1.27s.77-.53,1.28-.53,.91,.18,1.26,.53,.53,.77,.53,1.27v6.28h9.5v-6.28c0-.5,.18-.92,.53-1.27s.79-.53,1.28-.53Z"/><path class="cls-3" d="M110.41,27.34c2.82,0,5.23,.99,7.24,2.97,2,1.99,2.99,4.38,2.99,7.18s-1,5.2-2.99,7.18c-2.01,1.99-4.41,2.98-7.24,2.98s-5.24-.99-7.24-2.98c-2.01-1.98-3.01-4.38-3.01-7.18s1-5.19,3.01-7.18c2-1.98,4.41-2.97,7.24-2.97Zm0,16.74c1.83,0,3.39-.64,4.68-1.92,1.29-1.3,1.94-2.85,1.94-4.66s-.65-3.36-1.94-4.64-2.85-1.92-4.68-1.92-3.39,.64-4.69,1.92c-1.29,1.28-1.94,2.83-1.94,4.64s.65,3.36,1.94,4.66c1.31,1.28,2.87,1.92,4.69,1.92Z"/><path class="cls-3" d="M128.92,27.59c1.95,.01,3.61,.71,4.99,2.09,1.39,1.38,2.08,3.04,2.08,4.98s-.69,3.58-2.07,4.97c-1.38,1.38-3.04,2.09-4.96,2.11h-2.88v3.85c0,.5-.18,.92-.53,1.27-.35,.35-.77,.53-1.26,.53s-.93-.18-1.28-.53-.53-.77-.53-1.27V29.39c0-.5,.18-.92,.53-1.27s.77-.53,1.28-.53h.18s.08,0,.08,0h4.37Zm-.01,10.56c.96-.01,1.77-.35,2.45-1.03,.69-.68,1.03-1.51,1.03-2.45s-.34-1.77-1.03-2.45c-.67-.68-1.49-1.02-2.45-1.03h-2.82v6.97h2.82Z"/><path class="cls-3" d="M153.44,43.8c.49,0,.93,.17,1.28,.52,.35,.35,.52,.78,.52,1.27s-.17,.92-.52,1.27c-.35,.35-.79,.53-1.28,.53h-8.26c-.51,0-.93-.18-1.28-.53-.35-.35-.53-.77-.53-1.27V29.39c0-.5,.18-.92,.53-1.27,.35-.35,.77-.53,1.28-.53s.91,.18,1.26,.53c.35,.35,.53,.77,.53,1.27v14.41h6.46Z"/><path class="cls-3" d="M165.91,27.34c2.82,0,5.23,.99,7.24,2.97,2,1.99,2.99,4.38,2.99,7.18s-1,5.2-2.99,7.18c-2.01,1.99-4.41,2.98-7.24,2.98s-5.24-.99-7.24-2.98c-2.01-1.98-3.01-4.38-3.01-7.18s1-5.19,3.01-7.18c2-1.98,4.41-2.97,7.24-2.97Zm0,16.74c1.83,0,3.39-.64,4.68-1.92,1.29-1.3,1.94-2.85,1.94-4.66s-.65-3.36-1.94-4.64-2.85-1.92-4.68-1.92-3.39,.64-4.69,1.92c-1.29,1.28-1.94,2.83-1.94,4.64s.65,3.36,1.94,4.66c1.31,1.28,2.87,1.92,4.69,1.92Z"/></g><g><g><g><path class="cls-3" d="M28.32,32.69s.05-4.45-2.4-6.39c-.16-.13-.4,.02-.36,.22,.41,1.77,1.6,7.28,1.18,9.05l1.58-2.88Z"/><g class="cls-2"><polygon class="cls-3" points="25.51 35.43 26.74 35.57 25.51 35.57 25.51 35.43"/><polygon class="cls-3" points="25.51 35.23 28.14 35.54 28.13 35.57 26.74 35.57 25.51 35.43 25.51 35.23"/><polygon class="cls-3" points="25.51 35.04 28.16 35.35 28.14 35.54 25.51 35.23 25.51 35.04"/><polygon class="cls-3" points="25.51 34.85 28.18 35.16 28.16 35.35 25.51 35.04 25.51 34.85"/><polygon class="cls-3" points="25.51 34.66 28.2 34.97 28.18 35.16 25.51 34.85 25.51 34.66"/><polygon class="cls-3" points="25.51 34.47 28.22 34.78 28.2 34.97 25.51 34.66 25.51 34.47"/><polygon class="cls-3" points="25.51 34.27 28.25 34.59 28.22 34.78 25.51 34.47 25.51 34.27"/><polygon class="cls-3" points="25.51 34.08 28.27 34.4 28.25 34.59 25.51 34.27 25.51 34.08"/><polygon class="cls-3" points="25.51 33.89 28.29 34.21 28.27 34.4 25.51 34.08 25.51 33.89"/><polygon class="cls-3" points="25.51 33.7 28.31 34.02 28.29 34.21 25.51 33.89 25.51 33.7"/><polygon class="cls-3" points="25.51 33.51 28.33 33.83 28.31 34.02 25.51 33.7 25.51 33.51"/><polygon class="cls-3" points="25.51 33.32 28.36 33.65 28.33 33.83 25.51 33.51 25.51 33.32"/><polygon class="cls-3" points="25.51 33.12 28.37 33.45 28.37 33.56 28.36 33.65 25.51 33.32 25.51 33.12"/><polygon class="cls-3" points="25.51 32.93 28.37 33.26 28.37 33.45 25.51 33.12 25.51 32.93"/><polygon class="cls-3" points="25.51 32.74 28.37 33.07 28.37 33.26 25.51 32.93 25.51 32.74"/><polygon class="cls-3" points="25.51 32.55 28.37 32.88 28.37 33.07 25.51 32.74 25.51 32.55"/><polygon class="cls-3" points="25.51 32.36 28.37 32.69 28.37 32.88 25.51 32.55 25.51 32.36"/><polygon class="cls-3" points="25.51 32.16 28.37 32.5 28.37 32.69 25.51 32.36 25.51 32.16"/><polygon class="cls-3" points="25.51 31.97 28.37 32.3 28.37 32.5 25.51 32.16 25.51 31.97"/><polygon class="cls-3" points="25.51 31.78 28.37 32.11 28.37 32.3 25.51 31.97 25.51 31.78"/><polygon class="cls-3" points="25.51 31.59 28.37 31.92 28.37 32.11 25.51 31.78 25.51 31.59"/><polygon class="cls-3" points="25.51 31.4 28.37 31.73 28.37 31.92 25.51 31.59 25.51 31.4"/><polygon class="cls-3" points="25.51 31.21 28.37 31.54 28.37 31.73 25.51 31.4 25.51 31.21"/><polygon class="cls-3" points="25.51 31.01 28.37 31.34 28.37 31.54 25.51 31.21 25.51 31.01"/><polygon class="cls-3" points="25.51 30.82 28.37 31.15 28.37 31.34 25.51 31.01 25.51 30.82"/><polygon class="cls-3" points="25.51 30.63 28.37 30.96 28.37 31.15 25.51 30.82 25.51 30.63"/><polygon class="cls-3" points="25.51 30.44 28.37 30.77 28.37 30.96 25.51 30.63 25.51 30.44"/><polygon class="cls-3" points="25.51 30.25 28.37 30.58 28.37 30.77 25.51 30.44 25.51 30.25"/><polygon class="cls-3" points="25.51 30.05 28.37 30.38 28.37 30.58 25.51 30.25 25.51 30.05"/><polygon class="cls-3" points="25.51 29.86 28.37 30.19 28.37 30.38 25.51 30.05 25.51 29.86"/><polygon class="cls-3" points="25.51 29.67 28.37 30 28.37 30.19 25.51 29.86 25.51 29.67"/><polygon class="cls-3" points="25.51 29.48 28.37 29.81 28.37 30 25.51 29.67 25.51 29.48"/><polygon class="cls-3" points="25.51 29.29 28.37 29.62 28.37 29.81 25.51 29.48 25.51 29.29"/><polygon class="cls-3" points="25.51 29.09 28.37 29.43 28.37 29.62 25.51 29.29 25.51 29.09"/><polygon class="cls-3" points="25.51 28.9 28.37 29.23 28.37 29.43 25.51 29.09 25.51 28.9"/><polygon class="cls-3" points="25.51 28.71 28.37 29.04 28.37 29.23 25.51 28.9 25.51 28.71"/><polygon class="cls-3" points="25.51 28.52 28.37 28.85 28.37 29.04 25.51 28.71 25.51 28.52"/><polygon class="cls-3" points="25.51 28.33 28.37 28.66 28.37 28.85 25.51 28.52 25.51 28.33"/><polygon class="cls-3" points="25.51 28.14 28.37 28.47 28.37 28.66 25.51 28.33 25.51 28.14"/><polygon class="cls-3" points="25.51 27.94 28.37 28.27 28.37 28.47 25.51 28.14 25.51 27.94"/><polygon class="cls-3" points="25.51 27.75 28.37 28.08 28.37 28.27 25.51 27.94 25.51 27.75"/><polygon class="cls-3" points="25.51 27.56 28.37 27.89 28.37 28.08 25.51 27.75 25.51 27.56"/><polygon class="cls-3" points="25.51 27.37 28.37 27.7 28.37 27.89 25.51 27.56 25.51 27.37"/><polygon class="cls-3" points="25.51 27.18 28.37 27.51 28.37 27.7 25.51 27.37 25.51 27.18"/><polygon class="cls-3" points="25.51 26.98 28.37 27.32 28.37 27.51 25.51 27.18 25.51 26.98"/><polygon class="cls-3" points="25.51 26.79 28.37 27.12 28.37 27.32 25.51 26.98 25.51 26.79"/><polygon class="cls-3" points="25.51 26.6 28.37 26.93 28.37 27.12 25.51 26.79 25.51 26.6"/><polygon class="cls-3" points="25.51 26.41 28.37 26.74 28.37 26.93 25.51 26.6 25.51 26.41"/><polygon class="cls-3" points="25.51 26.22 28.37 26.55 28.37 26.74 25.51 26.41 25.51 26.22"/><polygon class="cls-3" points="28.37 26.55 25.51 26.22 25.51 26.17 28.37 26.17 28.37 26.55"/></g></g><g><path class="cls-3" d="M38.6,37.28s-.59-.81-1-.57c-.3,.11,.17,1.4,.2,2.72s-.21,2.95,.68,3.48,1.18,.43,3.01-.64c1.68-.99,7.72-4.56,9.93-5.19,.09-.03,.08-.16-.01-.17-1.37-.15-5.53-.25-11.17,3.44,0,0-.5-1.92-1.62-3.08Z"/><g class="cls-4"><polygon class="cls-3" points="37.3 43.14 44.84 43.44 37.3 43.44 37.3 43.14"/><polygon class="cls-3" points="37.3 42.98 48.94 43.44 44.84 43.44 37.3 43.14 37.3 42.98"/><polygon class="cls-3" points="37.3 42.82 51.4 43.37 51.4 43.44 48.94 43.44 37.3 42.98 37.3 42.82"/><rect class="cls-3" x="44.27" y="35.96" width=".16" height="14.12" transform="translate(-.38 85.64) rotate(-87.74)"/><rect class="cls-3" x="44.27" y="35.79" width=".16" height="14.12" transform="translate(-.21 85.48) rotate(-87.74)"/><rect class="cls-3" x="44.28" y="35.63" width=".16" height="14.13" transform="translate(-.05 85.33) rotate(-87.74)"/><rect class="cls-3" x="44.28" y="35.46" width=".16" height="14.14" transform="translate(.12 85.18) rotate(-87.74)"/><rect class="cls-3" x="44.28" y="35.3" width=".16" height="14.14" transform="translate(.28 85.03) rotate(-87.74)"/><rect class="cls-3" x="44.29" y="35.13" width=".16" height="14.15" transform="translate(.44 84.87) rotate(-87.74)"/><rect class="cls-3" x="44.29" y="34.97" width=".16" height="14.16" transform="translate(.61 84.72) rotate(-87.74)"/><rect class="cls-3" x="44.29" y="34.8" width=".16" height="14.16" transform="translate(.77 84.57) rotate(-87.74)"/><rect class="cls-3" x="44.3" y="34.64" width=".16" height="14.17" transform="translate(.94 84.42) rotate(-87.74)"/><rect class="cls-3" x="44.3" y="34.47" width=".16" height="14.17" transform="translate(1.1 84.26) rotate(-87.74)"/><rect class="cls-3" x="44.3" y="34.31" width=".16" height="14.18" transform="translate(1.27 84.11) rotate(-87.74)"/><rect class="cls-3" x="44.31" y="34.14" width=".16" height="14.19" transform="translate(1.43 83.96) rotate(-87.74)"/><rect class="cls-3" x="44.31" y="33.98" width=".16" height="14.19" transform="translate(1.6 83.81) rotate(-87.74)"/><rect class="cls-3" x="44.31" y="33.81" width=".16" height="14.2" transform="translate(1.76 83.66) rotate(-87.74)"/><rect class="cls-3" x="44.32" y="33.65" width=".16" height="14.21" transform="translate(1.93 83.5) rotate(-87.74)"/><rect class="cls-3" x="44.32" y="33.48" width=".16" height="14.21" transform="translate(2.09 83.35) rotate(-87.74)"/><polygon class="cls-3" points="37.3 40.06 51.51 40.62 51.51 40.78 51.5 40.79 37.3 40.22 37.3 40.06"/><polygon class="cls-3" points="37.3 39.9 51.51 40.46 51.51 40.62 37.3 40.06 37.3 39.9"/><polygon class="cls-3" points="37.3 39.74 51.51 40.3 51.51 40.46 37.3 39.9 37.3 39.74"/><polygon class="cls-3" points="37.3 39.58 51.51 40.14 51.51 40.3 37.3 39.74 37.3 39.58"/><polygon class="cls-3" points="37.3 39.41 51.51 39.98 51.51 40.14 37.3 39.58 37.3 39.41"/><polygon class="cls-3" points="37.3 39.25 51.51 39.81 51.51 39.98 37.3 39.41 37.3 39.25"/><polygon class="cls-3" points="37.3 39.09 51.51 39.65 51.51 39.81 37.3 39.25 37.3 39.09"/><polygon class="cls-3" points="37.3 38.93 51.51 39.49 51.51 39.65 37.3 39.09 37.3 38.93"/><polygon class="cls-3" points="37.3 38.77 51.51 39.33 51.51 39.49 37.3 38.93 37.3 38.77"/><polygon class="cls-3" points="37.3 38.6 51.51 39.17 51.51 39.33 37.3 38.77 37.3 38.6"/><polygon class="cls-3" points="37.3 38.44 51.51 39 51.51 39.17 37.3 38.6 37.3 38.44"/><polygon class="cls-3" points="37.3 38.28 51.51 38.84 51.51 39 37.3 38.44 37.3 38.28"/><polygon class="cls-3" points="37.3 38.12 51.51 38.68 51.51 38.84 37.3 38.28 37.3 38.12"/><polygon class="cls-3" points="37.3 37.96 51.51 38.52 51.51 38.68 37.3 38.12 37.3 37.96"/><polygon class="cls-3" points="37.3 37.79 51.51 38.36 51.51 38.52 37.3 37.96 37.3 37.79"/><polygon class="cls-3" points="37.3 37.63 51.51 38.19 51.51 38.36 37.3 37.79 37.3 37.63"/><polygon class="cls-3" points="37.3 37.47 51.51 38.03 51.51 38.19 37.3 37.63 37.3 37.47"/><polygon class="cls-3" points="37.3 37.31 51.51 37.87 51.51 38.03 37.3 37.47 37.3 37.31"/><polygon class="cls-3" points="37.3 37.15 51.51 37.71 51.51 37.87 37.3 37.31 37.3 37.15"/><polygon class="cls-3" points="37.3 36.98 51.51 37.54 51.51 37.71 37.3 37.15 37.3 36.98"/><polygon class="cls-3" points="37.3 36.82 51.51 37.38 51.51 37.54 37.3 36.98 37.3 36.82"/><polygon class="cls-3" points="37.3 36.66 51.51 37.22 51.51 37.38 37.3 36.82 37.3 36.66"/><polygon class="cls-3" points="37.3 36.5 51.51 37.06 51.51 37.22 37.3 36.66 37.3 36.5"/><polygon class="cls-3" points="40.68 36.47 51.51 36.9 51.51 37.06 37.3 36.5 37.3 36.47 40.68 36.47"/><polygon class="cls-3" points="51.51 36.9 40.68 36.47 51.51 36.47 51.51 36.9"/></g></g></g><path class="cls-3" d="M29.18,51.82c-.7,2-2.61,3.44-4.85,3.44-2.84,0-5.15-2.3-5.15-5.15,0-.78,.18-1.52,.49-2.18h0c.76-1.69,1.59-2.9,2.44-4-2.54,.91-4.36,3.33-4.36,6.18,0,3.63,2.94,6.57,6.57,6.57,3.38,0,6.16-2.55,6.53-5.82-.55,.26-1.11,.58-1.68,.95Z"/><path class="cls-3" d="M45.25,42.26c-.27-.02-.72-.03-1.46,.02-1.9,.12-3.31,2.59-4.67,2.55-1.75-.06-4.53-1.38-4.14-4.8,.29-2.51,.66-2.82,2.2-3.87,1.85-1.26,2.49-1.92,4.16-.2,2.05,2.12,3.47,.57,3.8,.21,.05-.06,.04-.15-.03-.18-.17-.09-.5-.28-.99-.62-1.65-1.1-2.04-2.45-3.62-3.5-1.58-1.05-7.26,3.29-7.6,2.94-.57-.6,.34-1.36,.46-1.45,0,0,.02-.01,.02-.02,.2-.21,2.92-3.17,4.39-8.21,.33-1.13,.41-3.67,.28-4.92-.12-1.19-.64-1.68-.97-1.87-.15-.09-.35,0-.36,.18-.66,7.33-4.58,12.99-4.92,13.32-.14,.14-.25,.14-.32,.09-.12-.07-.13-.24-.04-.34,1.06-1.12,1.47-2.96,1.83-6.67,.28-2.92-.84-4.53-1.37-4.77-.14-.06-.29,.04-.29,.19-.04,1.12-.26,5.43-1.02,8.6-.88,3.68-3.74,7.89-6.79,12.68-.41,.65-1.95,3.37-3.04,5.19,0,0,0,0,0,0-.59,.82-.94,1.86-.94,2.98,0,2.69,2.02,4.87,4.51,4.87,1.58,0,2.97-.88,3.78-2.21,.72-.82,1.69-1.55,2.99-2.11,6.32-2.71,9.97-.94,10.82-3.71,.67-2.18,2.61-3.56,3.4-4.05,.14-.09,.09-.31-.08-.32Z"/></g></svg>