<?xml version="1.0" encoding="UTF-8"?><svg id="Layer_1" xmlns="http://www.w3.org/2000/svg" xmlns:xlink="http://www.w3.org/1999/xlink" viewBox="0 0 75 75"><defs><style>.cls-1{fill:url(#linear-gradient);}.cls-2{clip-path:url(#clippath);}.cls-3{fill:#fff;}.cls-4{clip-path:url(#clippath-1);}</style><linearGradient id="linear-gradient" x1="9.69" y1="79.32" x2="83.67" y2="-31.93" gradientUnits="userSpaceOnUse"><stop offset="0" stop-color="#876dcd"/><stop offset="1" stop-color="#6cd9cf"/></linearGradient><clipPath id="clippath"><path class="cls-3" d="M27.76,30.06s.07-6.88-3.71-9.89c-.26-.2-.62,.03-.55,.34,.63,2.74,2.48,11.26,1.82,13.99l2.45-4.45Z"/></clipPath><clipPath id="clippath-1"><path class="cls-3" d="M43.66,37.16s-.92-1.25-1.55-.88c-.47,.17,.26,2.17,.31,4.21s-.32,4.56,1.05,5.38,1.83,.66,4.65-.99c2.59-1.52,11.93-7.05,15.35-8.02,.14-.04,.12-.24-.02-.26-2.12-.23-8.56-.38-17.28,5.32,0,0-.78-2.96-2.51-4.76Z"/></clipPath></defs><rect class="cls-1" width="75" height="75"/><g><g><g><path class="cls-3" d="M27.76,30.06s.07-6.88-3.71-9.89c-.26-.2-.62,.03-.55,.34,.63,2.74,2.48,11.26,1.82,13.99l2.45-4.45Z"/><g class="cls-2"><polygon class="cls-3" points="23.42 34.29 25.31 34.51 23.42 34.51 23.42 34.29"/><polygon class="cls-3" points="23.42 34 27.47 34.47 27.47 34.51 25.31 34.51 23.42 34.29 23.42 34"/><polygon class="cls-3" points="23.42 33.7 27.51 34.17 27.47 34.47 23.42 34 23.42 33.7"/><polygon class="cls-3" points="23.42 33.4 27.54 33.88 27.51 34.17 23.42 33.7 23.42 33.4"/><polygon class="cls-3" points="23.42 33.11 27.58 33.59 27.54 33.88 23.42 33.4 23.42 33.11"/><polygon class="cls-3" points="23.42 32.81 27.61 33.3 27.58 33.59 23.42 33.11 23.42 32.81"/><polygon class="cls-3" points="23.42 32.51 27.64 33 27.61 33.3 23.42 32.81 23.42 32.51"/><polygon class="cls-3" points="23.42 32.22 27.68 32.71 27.64 33 23.42 32.51 23.42 32.22"/><polygon class="cls-3" points="23.42 31.92 27.71 32.42 27.68 32.71 23.42 32.22 23.42 31.92"/><polygon class="cls-3" points="23.42 31.62 27.75 32.12 27.71 32.42 23.42 31.92 23.42 31.62"/><polygon class="cls-3" points="23.42 31.33 27.78 31.83 27.75 32.12 23.42 31.62 23.42 31.33"/><polygon class="cls-3" points="23.42 31.03 27.81 31.54 27.78 31.83 23.42 31.33 23.42 31.03"/><polygon class="cls-3" points="23.42 30.73 27.83 31.24 27.83 31.4 27.81 31.54 23.42 31.03 23.42 30.73"/><polygon class="cls-3" points="23.42 30.43 27.83 30.95 27.83 31.24 23.42 30.73 23.42 30.43"/><polygon class="cls-3" points="23.42 30.14 27.83 30.65 27.83 30.95 23.42 30.43 23.42 30.14"/><polygon class="cls-3" points="23.42 29.84 27.83 30.35 27.83 30.65 23.42 30.14 23.42 29.84"/><polygon class="cls-3" points="23.42 29.54 27.83 30.06 27.83 30.35 23.42 29.84 23.42 29.54"/><polygon class="cls-3" points="23.42 29.25 27.83 29.76 27.83 30.06 23.42 29.54 23.42 29.25"/><polygon class="cls-3" points="23.42 28.95 27.83 29.46 27.83 29.76 23.42 29.25 23.42 28.95"/><polygon class="cls-3" points="23.42 28.65 27.83 29.17 27.83 29.46 23.42 28.95 23.42 28.65"/><polygon class="cls-3" points="23.42 28.36 27.83 28.87 27.83 29.17 23.42 28.65 23.42 28.36"/><polygon class="cls-3" points="23.42 28.06 27.83 28.57 27.83 28.87 23.42 28.36 23.42 28.06"/><polygon class="cls-3" points="23.42 27.76 27.83 28.28 27.83 28.57 23.42 28.06 23.42 27.76"/><polygon class="cls-3" points="23.42 27.47 27.83 27.98 27.83 28.28 23.42 27.76 23.42 27.47"/><polygon class="cls-3" points="23.42 27.17 27.83 27.68 27.83 27.98 23.42 27.47 23.42 27.17"/><polygon class="cls-3" points="23.42 26.87 27.83 27.39 27.83 27.68 23.42 27.17 23.42 26.87"/><polygon class="cls-3" points="23.42 26.58 27.83 27.09 27.83 27.39 23.42 26.87 23.42 26.58"/><polygon class="cls-3" points="23.42 26.28 27.83 26.79 27.83 27.09 23.42 26.58 23.42 26.28"/><polygon class="cls-3" points="23.42 25.98 27.83 26.5 27.83 26.79 23.42 26.28 23.42 25.98"/><polygon class="cls-3" points="23.42 25.69 27.83 26.2 27.83 26.5 23.42 25.98 23.42 25.69"/><polygon class="cls-3" points="23.42 25.39 27.83 25.9 27.83 26.2 23.42 25.69 23.42 25.39"/><polygon class="cls-3" points="23.42 25.09 27.83 25.61 27.83 25.9 23.42 25.39 23.42 25.09"/><polygon class="cls-3" points="23.42 24.8 27.83 25.31 27.83 25.61 23.42 25.09 23.42 24.8"/><polygon class="cls-3" points="23.42 24.5 27.83 25.01 27.83 25.31 23.42 24.8 23.42 24.5"/><polygon class="cls-3" points="23.42 24.2 27.83 24.71 27.83 25.01 23.42 24.5 23.42 24.2"/><polygon class="cls-3" points="23.42 23.91 27.83 24.42 27.83 24.71 23.42 24.2 23.42 23.91"/><polygon class="cls-3" points="23.42 23.61 27.83 24.12 27.83 24.42 23.42 23.91 23.42 23.61"/><polygon class="cls-3" points="23.42 23.31 27.83 23.82 27.83 24.12 23.42 23.61 23.42 23.31"/><polygon class="cls-3" points="23.42 23.02 27.83 23.53 27.83 23.82 23.42 23.31 23.42 23.02"/><polygon class="cls-3" points="23.42 22.72 27.83 23.23 27.83 23.53 23.42 23.02 23.42 22.72"/><polygon class="cls-3" points="23.42 22.42 27.83 22.93 27.83 23.23 23.42 22.72 23.42 22.42"/><polygon class="cls-3" points="23.42 22.13 27.83 22.64 27.83 22.93 23.42 22.42 23.42 22.13"/><polygon class="cls-3" points="23.42 21.83 27.83 22.34 27.83 22.64 23.42 22.13 23.42 21.83"/><polygon class="cls-3" points="23.42 21.53 27.83 22.04 27.83 22.34 23.42 21.83 23.42 21.53"/><polygon class="cls-3" points="23.42 21.24 27.83 21.75 27.83 22.04 23.42 21.53 23.42 21.24"/><polygon class="cls-3" points="23.42 20.94 27.83 21.45 27.83 21.75 23.42 21.24 23.42 20.94"/><polygon class="cls-3" points="23.42 20.64 27.83 21.15 27.83 21.45 23.42 20.94 23.42 20.64"/><polygon class="cls-3" points="23.42 20.35 27.83 20.86 27.83 21.15 23.42 20.64 23.42 20.35"/><polygon class="cls-3" points="23.42 20.05 27.83 20.56 27.83 20.86 23.42 20.35 23.42 20.05"/><polygon class="cls-3" points="27.83 20.56 23.42 20.05 23.42 19.97 27.83 19.97 27.83 20.56"/></g></g><g><path class="cls-3" d="M43.66,37.16s-.92-1.25-1.55-.88c-.47,.17,.26,2.17,.31,4.21s-.32,4.56,1.05,5.38,1.83,.66,4.65-.99c2.59-1.52,11.93-7.05,15.35-8.02,.14-.04,.12-.24-.02-.26-2.12-.23-8.56-.38-17.28,5.32,0,0-.78-2.96-2.51-4.76Z"/><g class="cls-4"><polygon class="cls-3" points="41.65 46.23 53.31 46.69 41.65 46.69 41.65 46.23"/><polygon class="cls-3" points="41.65 45.98 59.65 46.69 53.31 46.69 41.65 46.23 41.65 45.98"/><polygon class="cls-3" points="41.65 45.72 63.46 46.59 63.46 46.69 59.65 46.69 41.65 45.98 41.65 45.72"/><polygon class="cls-3" points="41.65 45.47 63.47 46.34 63.46 46.59 41.65 45.72 41.65 45.47"/><polygon class="cls-3" points="41.65 45.22 63.48 46.09 63.47 46.34 41.65 45.47 41.65 45.22"/><polygon class="cls-3" points="41.65 44.97 63.49 45.84 63.48 46.09 41.65 45.22 41.65 44.97"/><polygon class="cls-3" points="41.65 44.72 63.5 45.59 63.49 45.84 41.65 44.97 41.65 44.72"/><polygon class="cls-3" points="41.65 44.47 63.51 45.34 63.5 45.59 41.65 44.72 41.65 44.47"/><polygon class="cls-3" points="41.65 44.22 63.52 45.08 63.51 45.34 41.65 44.47 41.65 44.22"/><polygon class="cls-3" points="41.65 43.97 63.53 44.83 63.52 45.08 41.65 44.22 41.65 43.97"/><polygon class="cls-3" points="41.65 43.72 63.54 44.58 63.53 44.83 41.65 43.97 41.65 43.72"/><polygon class="cls-3" points="41.65 43.47 63.55 44.33 63.54 44.58 41.65 43.72 41.65 43.47"/><polygon class="cls-3" points="41.65 43.22 63.56 44.08 63.55 44.33 41.65 43.47 41.65 43.22"/><polygon class="cls-3" points="41.65 42.97 63.57 43.83 63.56 44.08 41.65 43.22 41.65 42.97"/><polygon class="cls-3" points="41.65 42.72 63.58 43.58 63.57 43.83 41.65 42.97 41.65 42.72"/><polygon class="cls-3" points="41.65 42.47 63.59 43.33 63.58 43.58 41.65 42.72 41.65 42.47"/><polygon class="cls-3" points="41.65 42.22 63.6 43.08 63.59 43.33 41.65 42.47 41.65 42.22"/><polygon class="cls-3" points="41.65 41.97 63.61 42.83 63.6 43.08 41.65 42.22 41.65 41.97"/><polygon class="cls-3" points="41.65 41.71 63.62 42.58 63.61 42.83 41.65 41.97 41.65 41.71"/><polygon class="cls-3" points="41.65 41.46 63.62 42.33 63.62 42.57 63.62 42.58 41.65 41.71 41.65 41.46"/><polygon class="cls-3" points="41.65 41.21 63.62 42.08 63.62 42.33 41.65 41.46 41.65 41.21"/><polygon class="cls-3" points="41.65 40.96 63.62 41.83 63.62 42.08 41.65 41.21 41.65 40.96"/><polygon class="cls-3" points="41.65 40.71 63.62 41.58 63.62 41.83 41.65 40.96 41.65 40.71"/><polygon class="cls-3" points="41.65 40.46 63.62 41.33 63.62 41.58 41.65 40.71 41.65 40.46"/><polygon class="cls-3" points="41.65 40.21 63.62 41.08 63.62 41.33 41.65 40.46 41.65 40.21"/><polygon class="cls-3" points="41.65 39.96 63.62 40.83 63.62 41.08 41.65 40.21 41.65 39.96"/><polygon class="cls-3" points="41.65 39.71 63.62 40.58 63.62 40.83 41.65 39.96 41.65 39.71"/><polygon class="cls-3" points="41.65 39.46 63.62 40.33 63.62 40.58 41.65 39.71 41.65 39.46"/><polygon class="cls-3" points="41.65 39.21 63.62 40.08 63.62 40.33 41.65 39.46 41.65 39.21"/><polygon class="cls-3" points="41.65 38.96 63.62 39.83 63.62 40.08 41.65 39.21 41.65 38.96"/><polygon class="cls-3" points="41.65 38.71 63.62 39.57 63.62 39.83 41.65 38.96 41.65 38.71"/><polygon class="cls-3" points="41.65 38.46 63.62 39.32 63.62 39.57 41.65 38.71 41.65 38.46"/><polygon class="cls-3" points="41.65 38.21 63.62 39.07 63.62 39.32 41.65 38.46 41.65 38.21"/><polygon class="cls-3" points="41.65 37.95 63.62 38.82 63.62 39.07 41.65 38.21 41.65 37.95"/><polygon class="cls-3" points="41.65 37.7 63.62 38.57 63.62 38.82 41.65 37.95 41.65 37.7"/><polygon class="cls-3" points="41.65 37.45 63.62 38.32 63.62 38.57 41.65 37.7 41.65 37.45"/><polygon class="cls-3" points="41.65 37.2 63.62 38.07 63.62 38.32 41.65 37.45 41.65 37.2"/><polygon class="cls-3" points="41.65 36.95 63.62 37.82 63.62 38.07 41.65 37.2 41.65 36.95"/><polygon class="cls-3" points="41.65 36.7 63.62 37.57 63.62 37.82 41.65 36.95 41.65 36.7"/><polygon class="cls-3" points="41.65 36.45 63.62 37.32 63.62 37.57 41.65 36.7 41.65 36.45"/><polygon class="cls-3" points="41.65 36.2 63.62 37.07 63.62 37.32 41.65 36.45 41.65 36.2"/><polygon class="cls-3" points="41.65 35.95 63.62 36.82 63.62 37.07 41.65 36.2 41.65 35.95"/><polygon class="cls-3" points="46.88 35.91 63.62 36.57 63.62 36.82 41.65 35.95 41.65 35.91 46.88 35.91"/><polygon class="cls-3" points="63.62 36.57 46.88 35.91 63.62 35.91 63.62 36.57"/></g></g></g><path class="cls-3" d="M29.1,59.65c-1.09,3.1-4.03,5.32-7.5,5.32-4.4,0-7.96-3.56-7.96-7.96,0-1.21,.28-2.35,.76-3.38h0c1.17-2.61,2.46-4.48,3.78-6.19-3.93,1.41-6.74,5.15-6.74,9.56,0,5.62,4.55,10.17,10.17,10.17,5.22,0,9.52-3.94,10.1-9.01-.85,.4-1.72,.89-2.59,1.48Z"/><path class="cls-3" d="M53.95,44.87c-.42-.04-1.11-.04-2.25,.03-2.94,.18-5.12,4.01-7.22,3.94-2.71-.09-7.01-2.14-6.4-7.43,.44-3.87,1.02-4.36,3.4-5.99,2.86-1.95,3.85-2.97,6.44-.31,3.17,3.27,5.36,.89,5.88,.33,.08-.09,.06-.23-.05-.28-.26-.14-.78-.43-1.53-.96-2.55-1.7-3.16-3.79-5.6-5.42-2.44-1.63-11.23,5.09-11.75,4.54-.88-.92,.53-2.1,.71-2.24,.01-.01,.02-.02,.04-.03,.31-.33,4.52-4.91,6.8-12.69,.51-1.74,.63-5.68,.44-7.61-.19-1.85-.99-2.59-1.5-2.9-.23-.14-.54,0-.56,.28-1.02,11.33-7.09,20.09-7.61,20.61-.22,.22-.38,.22-.5,.15-.18-.11-.2-.38-.05-.53,1.64-1.74,2.28-4.57,2.83-10.32,.44-4.52-1.29-7.01-2.12-7.37-.21-.09-.45,.06-.46,.29-.07,1.73-.4,8.39-1.58,13.31-1.36,5.69-5.79,12.2-10.51,19.61-.64,1.01-3.01,5.21-4.7,8.02,0,0,0,0,0,.01-.91,1.27-1.45,2.87-1.45,4.6,0,4.16,3.12,7.54,6.98,7.54,2.45,0,4.6-1.36,5.85-3.43,1.12-1.27,2.62-2.4,4.62-3.26,9.78-4.18,15.42-1.45,16.74-5.74,1.04-3.38,4.03-5.51,5.26-6.27,.22-.14,.14-.47-.12-.5Z"/></g></svg>