<svg width="16" height="16" viewBox="0 0 16 16" fill="none" xmlns="http://www.w3.org/2000/svg">
<g id="Component 3">
<path id="Vector" d="M10.6668 10.8333C10.6668 12.03 9.69683 13 8.50016 13H3.50016C2.3035 13 1.3335 12.03 1.3335 10.8333V5.16667C1.3335 3.97 2.3035 3 3.50016 3H8.50016C9.69683 3 10.6668 3.97 10.6668 5.16667V10.8333ZM14.4132 4.39833C14.2565 4.30967 14.0642 4.312 13.9095 4.40467L11.3335 5.95033V10.0497L13.9098 11.5953C13.9888 11.643 14.0775 11.6667 14.1668 11.6667C14.2518 11.6667 14.3368 11.645 14.4132 11.6017C14.5698 11.513 14.6668 11.347 14.6668 11.1667V4.83333C14.6668 4.653 14.5698 4.487 14.4132 4.39833Z" fill="#444444" fill-opacity="0.6"/>
</g>
</svg>
