<svg width="16" height="16" viewBox="0 0 16 16" fill="none" xmlns="http://www.w3.org/2000/svg">
<g id="Component 2">
<path id="Vector" d="M8.00008 0.666992C6.34675 0.666992 5.00008 2.01366 5.00008 3.66699V8.66699C5.00008 8.73699 5.00326 8.80671 5.00659 8.87337L5.50008 8.38053V8.37988L5.91674 7.96387L10.0001 3.88053V3.87988L10.4832 3.39681L10.9167 2.96387C10.6001 1.6472 9.41008 0.666992 8.00008 0.666992ZM14.157 1.3291C14.0271 1.33289 13.9038 1.38706 13.8132 1.48014L1.4799 13.8135C1.43191 13.8595 1.3936 13.9147 1.36721 13.9758C1.34082 14.0369 1.32687 14.1026 1.3262 14.1691C1.32552 14.2356 1.33812 14.3016 1.36327 14.3632C1.38841 14.4248 1.42559 14.4807 1.47263 14.5278C1.51967 14.5748 1.57562 14.612 1.63721 14.6371C1.6988 14.6623 1.76479 14.6749 1.83131 14.6742C1.89783 14.6735 1.96354 14.6596 2.02461 14.6332C2.08567 14.6068 2.14085 14.5685 2.18693 14.5205L4.48901 12.2184C5.28034 13.0026 6.33195 13.5214 7.50008 13.6383V15.167C7.49914 15.2332 7.51138 15.299 7.53609 15.3605C7.5608 15.422 7.59748 15.478 7.644 15.5251C7.69052 15.5723 7.74596 15.6098 7.80709 15.6354C7.86821 15.6609 7.93382 15.6741 8.00008 15.6741C8.06634 15.6741 8.13194 15.6609 8.19307 15.6354C8.2542 15.6098 8.30964 15.5723 8.35616 15.5251C8.40268 15.478 8.43936 15.422 8.46407 15.3605C8.48877 15.299 8.50102 15.2332 8.50008 15.167V13.6416C11.0229 13.3898 13.0001 11.2549 13.0001 8.66699V7.50033C13.0001 7.22366 12.7767 7.00033 12.5001 7.00033C12.2234 7.00033 12.0001 7.22366 12.0001 7.50033V8.66699C12.0001 10.8537 10.2385 12.6317 8.05932 12.6637C8.05369 12.663 8.04805 12.6623 8.0424 12.6618C8.02573 12.6603 8.009 12.6596 7.99227 12.6598C7.97551 12.6601 7.95878 12.6612 7.94214 12.6631C7.94127 12.6633 7.9404 12.6635 7.93953 12.6637C7.93931 12.6637 7.9391 12.6637 7.93888 12.6637C6.87007 12.6475 5.90264 12.2116 5.19539 11.512L5.90437 10.8031C6.446 11.3346 7.18335 11.667 8.00008 11.667C9.65341 11.667 11.0001 10.3203 11.0001 8.66699V5.70736L14.5203 2.18717C14.5924 2.11692 14.6416 2.02653 14.6616 1.92783C14.6815 1.82913 14.6711 1.72671 14.6319 1.63399C14.5926 1.54127 14.5263 1.46256 14.4415 1.40816C14.3568 1.35376 14.2576 1.3262 14.157 1.3291V1.3291ZM3.50008 7.00033C3.22341 7.00033 3.00008 7.22366 3.00008 7.50033V8.66699C3.00008 9.32366 3.12685 9.95043 3.35685 10.5238L4.14656 9.7334C4.0499 9.3934 4.00008 9.03699 4.00008 8.66699V7.50033C4.00008 7.22366 3.77674 7.00033 3.50008 7.00033Z" fill="#444444" fill-opacity="0.6"/>
</g>
</svg>
