<svg width="16" height="16" viewBox="0 0 16 16" fill="none" xmlns="http://www.w3.org/2000/svg">
<g id="Component 3">
<path id="Vector" d="M3.50016 2C2.3055 2 1.3335 2.972 1.3335 4.16667V11.5117C1.3335 11.8267 1.50757 12.1122 1.78857 12.2552C1.90857 12.3165 2.03881 12.3457 2.16748 12.3457C2.34015 12.3457 2.5114 12.2922 2.65706 12.1862L5.66227 10H9.8335C11.0282 10 12.0002 9.028 12.0002 7.83333V4.16667C12.0002 2.972 11.0282 2 9.8335 2H3.50016ZM12.6668 4.67318V7.83333C12.6668 9.39667 11.3968 10.6667 9.8335 10.6667H5.88037L4.39665 11.7435C4.78665 12.3002 5.43683 12.6667 6.16683 12.6667H10.3368L13.3433 14.8535C13.4899 14.9602 13.6602 15.013 13.8335 15.013C13.9602 15.013 14.0904 14.9833 14.2104 14.9199C14.4938 14.7799 14.6668 14.493 14.6668 14.1797V6.83333C14.6668 5.69667 13.7835 4.75984 12.6668 4.67318Z" fill="#444444" fill-opacity="0.6"/>
</g>
</svg>
