<svg width="30" height="29" viewBox="0 0 30 29" fill="none" xmlns="http://www.w3.org/2000/svg">
<path d="M6.54146 13.2917C6.54146 7.95291 10.869 3.625 16.2073 3.625C21.5456 3.625 25.8732 7.95291 25.8732 13.2917C25.8732 14.6813 25.58 16.0024 25.0521 17.1966L25.875 22.9574L20.9384 21.7232C19.54 22.5097 17.926 22.9583 16.2073 22.9583M4.12614 19.3333C4.12614 20.2018 4.30937 21.0275 4.63927 21.7739L4.125 25.3744L7.21006 24.603C8.08402 25.0946 9.09264 25.375 10.1667 25.375C13.5029 25.375 16.2073 22.6701 16.2073 19.3333C16.2073 15.9966 13.5029 13.2917 10.1667 13.2917C6.83061 13.2917 4.12614 15.9966 4.12614 19.3333Z" stroke="#F6F6F6" stroke-linecap="round" stroke-linejoin="round"/>
</svg>
