<svg width="25" height="25" viewBox="0 0 25 25" fill="none" xmlns="http://www.w3.org/2000/svg">
<path fill-rule="evenodd" clip-rule="evenodd" d="M14.1763 4.81627C13.7488 3.06124 11.2512 3.06124 10.8237 4.81627C10.7599 5.07999 10.6347 5.32492 10.4583 5.53112C10.2819 5.73732 10.0594 5.89897 9.80874 6.00291C9.5581 6.10684 9.28646 6.15014 9.01592 6.12927C8.74538 6.10839 8.4836 6.02394 8.25187 5.88279C6.70832 4.94227 4.94201 6.70855 5.88254 8.25207C6.49006 9.24884 5.95117 10.5494 4.81713 10.825C3.06096 11.2514 3.06096 13.75 4.81713 14.1753C5.08093 14.2392 5.3259 14.3645 5.53211 14.541C5.73831 14.7175 5.89991 14.9402 6.00375 15.191C6.1076 15.4418 6.15074 15.7135 6.12968 15.9841C6.10862 16.2547 6.02394 16.5165 5.88254 16.7482C4.94201 18.2917 6.70832 20.058 8.25187 19.1175C8.48356 18.9761 8.74536 18.8914 9.01597 18.8704C9.28658 18.8493 9.55834 18.8924 9.80912 18.9963C10.0599 19.1001 10.2826 19.2617 10.4591 19.4679C10.6356 19.6741 10.7609 19.9191 10.8248 20.1829C11.2512 21.939 13.7499 21.939 14.1752 20.1829C14.2393 19.9192 14.3647 19.6744 14.5413 19.4684C14.7178 19.2623 14.9405 19.1008 15.1912 18.997C15.4419 18.8932 15.7135 18.85 15.9841 18.8709C16.2546 18.8919 16.5164 18.9764 16.7481 19.1175C18.2917 20.058 20.058 18.2917 19.1175 16.7482C18.9763 16.5165 18.8918 16.2547 18.8709 15.9842C18.85 15.7136 18.8932 15.442 18.997 15.1913C19.1008 14.9406 19.2623 14.7179 19.4683 14.5414C19.6744 14.3648 19.9192 14.2394 20.1829 14.1753C21.939 13.7489 21.939 11.2502 20.1829 10.825C19.9191 10.7611 19.6741 10.6358 19.4679 10.4593C19.2617 10.2828 19.1001 10.0601 18.9962 9.8093C18.8924 9.55853 18.8493 9.28677 18.8703 9.01617C18.8914 8.74556 18.9761 8.48376 19.1175 8.25207C20.058 6.70855 18.2917 4.94227 16.7481 5.88279C16.5164 6.02418 16.2546 6.10886 15.984 6.12992C15.7134 6.15098 15.4417 6.10784 15.1909 6.004C14.9401 5.90016 14.7174 5.73856 14.5409 5.53236C14.3644 5.32616 14.2391 5.08119 14.1752 4.8174L14.1763 4.81627Z" stroke="white"/>
<path d="M14.5 12.5C14.5 13.6046 13.6046 14.5 12.5 14.5C11.3954 14.5 10.5 13.6046 10.5 12.5C10.5 11.3954 11.3954 10.5 12.5 10.5C13.6046 10.5 14.5 11.3954 14.5 12.5Z" stroke="white"/>
</svg>
