<svg width="24" height="24" viewBox="0 0 24 24" fill="none" xmlns="http://www.w3.org/2000/svg">
<path d="M16.2858 11.1431C16.2858 12.2798 15.8343 13.3699 15.0305 14.1736C14.2268 14.9773 13.1367 15.4289 12.0001 15.4289C10.8634 15.4289 9.77334 14.9773 8.96961 14.1736C8.16588 13.3699 7.71436 12.2798 7.71436 11.1431V5.14314C7.71436 4.00649 8.16588 2.91641 8.96961 2.11268C9.77334 1.30895 10.8634 0.857422 12.0001 0.857422C13.1367 0.857422 14.2268 1.30895 15.0305 2.11268C15.8343 2.91641 16.2858 4.00649 16.2858 5.14314V11.1431Z" stroke="#777777" stroke-width="1.71429" stroke-linecap="round" stroke-linejoin="round"/>
<path d="M20.5716 12C20.5738 13.0137 20.3759 14.0178 19.989 14.9548C19.6021 15.8918 19.034 16.7431 18.3172 17.4599C17.6004 18.1767 16.7491 18.7448 15.8121 19.1317C14.8751 19.5186 13.871 19.7165 12.8573 19.7143H11.143C10.1293 19.7165 9.12517 19.5186 8.18821 19.1317C7.25125 18.7448 6.39994 18.1767 5.68315 17.4599C4.96636 16.7431 4.39822 15.8918 4.01134 14.9548C3.62446 14.0178 3.42647 13.0137 3.42873 12M12.0002 19.7143V23.1429" stroke="#777777" stroke-width="1.71429" stroke-linecap="round" stroke-linejoin="round"/>
</svg>
