<svg width="24" height="24" viewBox="0 0 24 24" fill="none" xmlns="http://www.w3.org/2000/svg">
<g id="Send Icon">
<path id="Vector" d="M11.1849 11.8032L18.7169 10.5472C18.8035 10.5327 18.8848 10.4957 18.9525 10.4399C19.0203 10.3841 19.0722 10.3114 19.1029 10.2292L21.6999 3.27216C21.9479 2.63216 21.2789 2.02216 20.6649 2.32916L2.66492 11.3292C2.54025 11.3914 2.43538 11.4872 2.36209 11.6057C2.28879 11.7242 2.24997 11.8608 2.24997 12.0002C2.24997 12.1395 2.28879 12.2761 2.36209 12.3946C2.43538 12.5132 2.54025 12.6089 2.66492 12.6712L20.6649 21.6712C21.2789 21.9782 21.9479 21.3672 21.6999 20.7282L19.1019 13.7712C19.0713 13.6887 19.0195 13.6159 18.9517 13.5599C18.884 13.5038 18.8026 13.4667 18.7159 13.4522L11.1839 12.1972C11.1376 12.189 11.0956 12.1648 11.0653 12.1288C11.035 12.0928 11.0184 12.0472 11.0184 12.0002C11.0184 11.9531 11.035 11.9076 11.0653 11.8715C11.0956 11.8355 11.1376 11.8113 11.1839 11.8032L11.1849 11.8032Z" fill="#DF3C14"/>
</g>
</svg>
