<svg width="24" height="25" viewBox="0 0 24 25" fill="none" xmlns="http://www.w3.org/2000/svg">
<g id="grid-01">
<g id="Icon">
<path d="M19 3.13672C20.1046 3.13672 21 4.01988 21 5.10932L21 8.47664C21 9.56608 20.1046 10.4492 19 10.4492H16C14.8954 10.4492 14 9.56608 14 8.47664L14 5.10932C14 4.01988 14.8954 3.13672 16 3.13672L19 3.13672Z" stroke="#F6F6F6" stroke-linecap="round" stroke-linejoin="round"/>
<path d="M5 3.13672C3.89543 3.13672 3 4.01988 3 5.10932L3.00001 8.47664C3.00001 9.56608 3.89544 10.4492 5.00001 10.4492H8.00001C9.10458 10.4492 10 9.56608 10 8.47664L10 5.10932C10 4.01988 9.10457 3.13672 8 3.13672L5 3.13672Z" stroke="#F6F6F6" stroke-linecap="round" stroke-linejoin="round"/>
<path d="M19 13.8242C20.1046 13.8242 21 14.7074 21 15.7968V19.1641C21 20.2536 20.1046 21.1367 19 21.1367H16C14.8954 21.1367 14 20.2536 14 19.1641L14 15.7968C14 14.7074 14.8954 13.8242 16 13.8242H19Z" stroke="#F6F6F6" stroke-linecap="round" stroke-linejoin="round"/>
<path d="M5.00001 13.8242C3.89544 13.8242 3.00001 14.7074 3.00001 15.7968L3.00001 19.1641C3.00001 20.2536 3.89544 21.1367 5.00001 21.1367H8.00001C9.10458 21.1367 10 20.2536 10 19.1641L10 15.7968C10 14.7074 9.10458 13.8242 8.00001 13.8242H5.00001Z" stroke="#F6F6F6" stroke-linecap="round" stroke-linejoin="round"/>
</g>
</g>
</svg>
