<svg width="25" height="25" viewBox="0 0 25 25" fill="none" xmlns="http://www.w3.org/2000/svg">
<g id="users-profiles-03">
<path id="Icon" d="M2.8999 18.3535C3.99855 16.521 6.40641 15.2668 10.163 15.2668C13.9196 15.2668 16.3275 16.521 17.4261 18.3535M18.1211 13.8773C20.1105 14.872 21.1052 15.8667 22.0999 17.856M16.0521 6.27432C16.9882 6.77787 17.6245 7.76663 17.6245 8.90402C17.6245 10.0085 17.0244 10.9729 16.1325 11.4889M13.1471 8.90399C13.1471 10.552 11.8111 11.8881 10.163 11.8881C8.51496 11.8881 7.17895 10.552 7.17895 8.90399C7.17895 7.25593 8.51496 5.91992 10.163 5.91992C11.8111 5.91992 13.1471 7.25593 13.1471 8.90399Z" stroke="#F6F6F6" stroke-linecap="round"/>
</g>
</svg>
