<svg width="25" height="25" viewBox="0 0 25 25" fill="none" xmlns="http://www.w3.org/2000/svg">
<g id="file-04">
<path id="Icon" d="M15.5001 2.53711V6.13711C15.5001 6.79985 16.0373 7.33711 16.7001 7.33711H20.3001M18.5001 4.33711C17.966 3.85925 17.4118 3.29249 17.0619 2.92439C16.8291 2.67944 16.5074 2.53711 16.1695 2.53711H7.0998C5.77432 2.53711 4.69981 3.61162 4.6998 4.9371L4.69971 19.337C4.6997 20.6625 5.77421 21.7371 7.0997 21.7371L17.8997 21.7371C19.2252 21.7371 20.2997 20.6626 20.2998 19.3372L20.3001 6.61494C20.3001 6.3081 20.183 6.01314 19.9701 5.79224C19.5763 5.38376 18.9187 4.71163 18.5001 4.33711Z" stroke="#F6F6F6" stroke-linecap="round" stroke-linejoin="round"/>
</g>
</svg>
