<svg width="18" height="24" viewBox="0 0 18 24" fill="none" xmlns="http://www.w3.org/2000/svg">
<path d="M10.6967 4.44716C10.8092 4.33464 10.8724 4.18206 10.8724 4.02296C10.8724 3.86386 10.8092 3.71128 10.6967 3.59876L8.15154 1.05356C8.03837 0.944264 7.88681 0.883787 7.72949 0.885155C7.57218 0.886522 7.42169 0.949623 7.31044 1.06087C7.1992 1.17211 7.1361 1.3226 7.13473 1.47992C7.13336 1.63724 7.19384 1.7888 7.30314 1.90196L8.49953 3.09836C6.65497 3.20089 4.88665 3.86857 3.43464 5.01076C1.98263 6.15295 0.917292 7.7143 0.383258 9.48284C-0.150777 11.2514 -0.127631 13.1414 0.449552 14.8963C1.02674 16.6513 2.12999 18.1861 3.60953 19.2924C3.73684 19.3878 3.89686 19.4288 4.05439 19.4063C4.21192 19.3838 4.35406 19.2997 4.44953 19.1724C4.54501 19.0451 4.58601 18.885 4.5635 18.7275C4.541 18.57 4.45684 18.4278 4.32953 18.3324C3.01195 17.3475 2.03945 15.9713 1.55107 14.4005C1.06269 12.8297 1.08342 11.1447 1.61032 9.58638C2.13721 8.02807 3.14328 6.67623 4.48471 5.72411C5.82614 4.77199 7.43424 4.26834 9.07913 4.28516C9.10793 4.28516 9.13913 4.28276 9.16673 4.27916L7.30314 6.14396C7.19384 6.25712 7.13336 6.40868 7.13473 6.566C7.1361 6.72332 7.1992 6.87381 7.31044 6.98505C7.42169 7.0963 7.57218 7.1594 7.72949 7.16076C7.88681 7.16213 8.03837 7.10165 8.15154 6.99236L10.6967 4.44716ZM7.30314 19.7208C7.19065 19.8333 7.12746 19.9859 7.12746 20.145C7.12746 20.3041 7.19065 20.4566 7.30314 20.5692L9.84833 23.1144C9.9615 23.2237 10.1131 23.2841 10.2704 23.2828C10.4277 23.2814 10.5782 23.2183 10.6894 23.1071C10.8007 22.9958 10.8638 22.8453 10.8651 22.688C10.8665 22.5307 10.806 22.3791 10.6967 22.266L9.50033 21.0696C11.3449 20.967 13.1132 20.2993 14.5652 19.1572C16.0172 18.015 17.0826 16.4536 17.6166 14.6851C18.1506 12.9165 18.1275 11.0265 17.5503 9.27157C16.9731 7.51664 15.8699 5.98185 14.3903 4.87556C14.3273 4.82828 14.2556 4.79389 14.1792 4.77433C14.1029 4.75478 14.0235 4.75045 13.9455 4.76159C13.8675 4.77273 13.7924 4.79913 13.7246 4.83927C13.6568 4.87942 13.5976 4.93252 13.5503 4.99556C13.5031 5.05859 13.4687 5.13032 13.4491 5.20665C13.4296 5.28298 13.4252 5.36241 13.4364 5.44041C13.4475 5.51841 13.4739 5.59346 13.5141 5.66125C13.5542 5.72905 13.6073 5.78828 13.6703 5.83556C14.988 6.82046 15.9605 8.19677 16.4489 9.7677C16.9373 11.3386 16.9164 13.0237 16.3894 14.5821C15.8623 16.1405 14.8561 17.4923 13.5144 18.4443C12.1728 19.3964 10.5645 19.8998 8.91953 19.8828C8.89023 19.8826 8.86095 19.8846 8.83193 19.8888L10.6967 18.024C10.754 17.9686 10.7998 17.9024 10.8312 17.8292C10.8626 17.756 10.8792 17.6773 10.8799 17.5976C10.8806 17.5179 10.8654 17.4389 10.8352 17.3652C10.8051 17.2915 10.7605 17.2245 10.7042 17.1681C10.6478 17.1118 10.5808 17.0672 10.5071 17.0371C10.4334 17.0069 10.3544 16.9917 10.2747 16.9924C10.195 16.9931 10.1163 17.0097 10.0431 17.0411C9.96989 17.0725 9.90368 17.1183 9.84833 17.1756L7.30314 19.7208Z" fill="#171717"/>
</svg>
