<svg width="24" height="25" viewBox="0 0 24 25" fill="none" xmlns="http://www.w3.org/2000/svg">
<path d="M12 2.58398C6.48603 2.58398 2 7.07002 2 12.584C2 18.0979 6.48603 22.584 12 22.584C17.514 22.584 22 18.0979 22 12.584C22 7.07002 17.514 2.58398 12 2.58398ZM12 4.08398C16.7033 4.08398 20.5 7.88068 20.5 12.584C20.5 17.2873 16.7033 21.084 12 21.084C7.29669 21.084 3.5 17.2873 3.5 12.584C3.5 7.88068 7.29669 4.08398 12 4.08398ZM7.75 8.58398C7.65062 8.58258 7.55194 8.60094 7.45972 8.638C7.36749 8.67506 7.28355 8.73008 7.21277 8.79986C7.142 8.86965 7.08579 8.9528 7.04743 9.04449C7.00907 9.13619 6.98932 9.23459 6.98932 9.33398C6.98932 9.43338 7.00907 9.53178 7.04743 9.62347C7.08579 9.71517 7.142 9.79832 7.21277 9.8681C7.28355 9.93789 7.36749 9.99291 7.45972 10.03C7.55194 10.067 7.65062 10.0854 7.75 10.084H9.75C9.84938 10.0854 9.94806 10.067 10.0403 10.03C10.1325 9.99291 10.2164 9.93789 10.2872 9.8681C10.358 9.79832 10.4142 9.71517 10.4526 9.62347C10.4909 9.53178 10.5107 9.43338 10.5107 9.33398C10.5107 9.23459 10.4909 9.13619 10.4526 9.04449C10.4142 8.9528 10.358 8.86965 10.2872 8.79986C10.2164 8.73008 10.1325 8.67506 10.0403 8.638C9.94806 8.60094 9.84938 8.58258 9.75 8.58398H7.75ZM14.25 8.58398C14.1506 8.58258 14.0519 8.60094 13.9597 8.638C13.8675 8.67506 13.7836 8.73008 13.7128 8.79986C13.642 8.86965 13.5858 8.9528 13.5474 9.04449C13.5091 9.13619 13.4893 9.23459 13.4893 9.33398C13.4893 9.43338 13.5091 9.53178 13.5474 9.62347C13.5858 9.71517 13.642 9.79832 13.7128 9.8681C13.7836 9.93789 13.8675 9.99291 13.9597 10.03C14.0519 10.067 14.1506 10.0854 14.25 10.084H16.25C16.3494 10.0854 16.4481 10.067 16.5403 10.03C16.6325 9.99291 16.7164 9.93789 16.7872 9.8681C16.858 9.79832 16.9142 9.71517 16.9526 9.62347C16.9909 9.53178 17.0107 9.43338 17.0107 9.33398C17.0107 9.23459 16.9909 9.13619 16.9526 9.04449C16.9142 8.9528 16.858 8.86965 16.7872 8.79986C16.7164 8.73008 16.6325 8.67506 16.5403 8.638C16.4481 8.60094 16.3494 8.58258 16.25 8.58398H14.25ZM7.75 12.584C7.55109 12.584 7.36034 12.663 7.21969 12.8037C7.07904 12.9443 7.00002 13.1351 7 13.334C7 16.0864 9.19433 18.584 12 18.584C14.8057 18.584 17 16.0864 17 13.334C17 13.1351 16.921 12.9443 16.7803 12.8037C16.6397 12.663 16.4489 12.584 16.25 12.584H7.75ZM8.65039 14.084H15.3496C14.9975 15.7098 13.6364 17.084 12 17.084C10.3636 17.084 9.00251 15.7098 8.65039 14.084Z" fill="#1E293B"/>
</svg>
