<svg width="24" height="25" viewBox="0 0 24 25" fill="none" xmlns="http://www.w3.org/2000/svg">
<path d="M20 16.8951C19.4287 16.0659 18.8738 14.8437 18.8738 13.3699L18.8984 11.3539C18.8984 7.3551 15.8322 4.1134 12.05 4.1134C11.6431 4.1134 11.2446 4.15147 10.8576 4.22442M9.36666 20.7016C10.0788 21.2503 11.0191 21.584 12.05 21.584C13.0809 21.584 14.0212 21.2503 14.7333 20.7016M15.8067 17.8781H4.51081C4.08656 17.8781 3.84961 17.2352 4.10623 16.878C4.70172 16.0492 5.27648 14.8337 5.27648 13.3699L5.30104 11.2488C5.30104 9.54815 5.86379 7.98643 6.80316 6.76048M17.9533 20.5253L5.61 3.58398" stroke="#1E293B" stroke-linecap="round"/>
</svg>
