<svg width="20" height="21" viewBox="0 0 20 21" fill="none" xmlns="http://www.w3.org/2000/svg">
<path d="M10 0.583984C4.48615 0.583984 0 5.07013 0 10.584C0 16.0978 4.48615 20.584 10 20.584C15.5139 20.584 20 16.0978 20 10.584C20 5.07013 15.5139 0.583984 10 0.583984ZM10 2.08398C14.7031 2.08398 18.5 5.88084 18.5 10.584C18.5 15.2871 14.7031 19.084 10 19.084C5.29685 19.084 1.5 15.2871 1.5 10.584C1.5 5.88084 5.29685 2.08398 10 2.08398ZM10 6.08398C7.5236 6.08398 5.5 8.10759 5.5 10.584C5.5 13.0604 7.5236 15.084 10 15.084C12.4764 15.084 14.5 13.0604 14.5 10.584C14.5 8.10759 12.4764 6.08398 10 6.08398Z" fill="#1E293B"/>
</svg>
