<svg width="24" height="25" viewBox="0 0 24 25" fill="none" xmlns="http://www.w3.org/2000/svg">
<path d="M5.25 5.08398C3.46403 5.08398 2 6.54802 2 8.33398V16.834C2 18.62 3.46403 20.084 5.25 20.084H13.75C15.536 20.084 17 18.62 17 16.834V16.1592L20.8643 18.4775C20.9781 18.5458 21.108 18.5826 21.2407 18.5842C21.3735 18.5859 21.5042 18.5522 21.6197 18.4868C21.7352 18.4214 21.8312 18.3265 21.898 18.2118C21.9649 18.0971 22 17.9667 22 17.834V7.33398C22 7.23358 21.9799 7.13418 21.9408 7.0417C21.9017 6.94921 21.8445 6.86552 21.7724 6.79558C21.7004 6.72563 21.615 6.67086 21.5214 6.63452C21.4278 6.59817 21.3279 6.58099 21.2275 6.58398C21.0993 6.58782 20.9743 6.62447 20.8643 6.69043L17 9.00879V8.33398C17 6.54802 15.536 5.08398 13.75 5.08398H5.25ZM5.25 6.58398H13.75C14.725 6.58398 15.5 7.35895 15.5 8.33398V10.3105V14.8252V16.834C15.5 17.809 14.725 18.584 13.75 18.584H5.25C4.27497 18.584 3.5 17.809 3.5 16.834V8.33398C3.5 7.35895 4.27497 6.58398 5.25 6.58398ZM20.5 8.65918V16.5088L17 14.4092V10.7588L20.5 8.65918Z" fill="#1E293B"/>
</svg>
