<svg width="24" height="25" viewBox="0 0 24 25" fill="none" xmlns="http://www.w3.org/2000/svg">
<g clip-path="url(#clip0_86_2595)">
<g clip-path="url(#clip1_86_2595)">
<path d="M12.0001 1.58398C9.52372 1.58398 7.50008 3.60762 7.50008 6.08398V13.584C7.50008 16.0603 9.52372 18.084 12.0001 18.084C14.4764 18.084 16.5001 16.0603 16.5001 13.584V6.08398C16.5001 3.60762 14.4764 1.58398 12.0001 1.58398ZM5.23836 11.0732C5.03962 11.0763 4.85023 11.1582 4.71181 11.3008C4.57338 11.4435 4.49723 11.6352 4.50008 11.834V13.584C4.50008 17.4642 7.4671 20.668 11.2501 21.0459V23.334C11.2487 23.4334 11.267 23.532 11.3041 23.6243C11.3412 23.7165 11.3962 23.8004 11.466 23.8712C11.5357 23.942 11.6189 23.9982 11.7106 24.0366C11.8023 24.0749 11.9007 24.0947 12.0001 24.0947C12.0995 24.0947 12.1979 24.0749 12.2896 24.0366C12.3813 23.9982 12.4644 23.942 12.5342 23.8712C12.604 23.8004 12.659 23.7165 12.6961 23.6243C12.7331 23.532 12.7515 23.4334 12.7501 23.334V21.0459C16.5331 20.668 19.5001 17.4642 19.5001 13.584V11.834C19.5015 11.7346 19.4831 11.6359 19.4461 11.5437C19.409 11.4515 19.354 11.3675 19.2842 11.2968C19.2144 11.226 19.1313 11.1698 19.0396 11.1314C18.9479 11.0931 18.8495 11.0733 18.7501 11.0733C18.6507 11.0733 18.5523 11.0931 18.4606 11.1314C18.3689 11.1698 18.2857 11.226 18.216 11.2968C18.1462 11.3675 18.0912 11.4515 18.0541 11.5437C18.017 11.6359 17.9987 11.7346 18.0001 11.834V13.584C18.0001 16.8767 15.3699 19.5314 12.0889 19.5791C12.0556 19.5749 12.022 19.5729 11.9884 19.5732C11.9609 19.5737 11.9335 19.5756 11.9063 19.5791C8.62764 19.5288 6.00008 16.875 6.00008 13.584V11.834C6.00152 11.7336 5.98279 11.634 5.94501 11.5409C5.90723 11.4479 5.85116 11.3634 5.78012 11.2925C5.70909 11.2216 5.62453 11.1656 5.53147 11.1279C5.43841 11.0903 5.33874 11.0717 5.23836 11.0732Z" fill="#1E293B"/>
</g>
<mask id="mask0_86_2595" style="mask-type:alpha" maskUnits="userSpaceOnUse" x="0" y="9" width="24" height="16">
<rect y="9.58398" width="24" height="15" fill="#C4C4C4"/>
</mask>
<g mask="url(#mask0_86_2595)">
<path d="M12.0001 1.58398C9.52372 1.58398 7.50008 3.60762 7.50008 6.08398V13.584C7.50008 16.0603 9.52372 18.084 12.0001 18.084C14.4764 18.084 16.5001 16.0603 16.5001 13.584V6.08398C16.5001 3.60762 14.4764 1.58398 12.0001 1.58398ZM5.23836 11.0732C5.03962 11.0763 4.85023 11.1582 4.71181 11.3008C4.57338 11.4435 4.49723 11.6352 4.50008 11.834V13.584C4.50008 17.4642 7.4671 20.668 11.2501 21.0459V23.334C11.2487 23.4334 11.267 23.532 11.3041 23.6243C11.3412 23.7165 11.3962 23.8004 11.466 23.8712C11.5357 23.942 11.6189 23.9982 11.7106 24.0366C11.8023 24.0749 11.9007 24.0947 12.0001 24.0947C12.0995 24.0947 12.1979 24.0749 12.2896 24.0366C12.3813 23.9982 12.4644 23.942 12.5342 23.8712C12.604 23.8004 12.659 23.7165 12.6961 23.6243C12.7331 23.532 12.7515 23.4334 12.7501 23.334V21.0459C16.5331 20.668 19.5001 17.4642 19.5001 13.584V11.834C19.5015 11.7346 19.4831 11.6359 19.4461 11.5437C19.409 11.4515 19.354 11.3675 19.2842 11.2968C19.2144 11.226 19.1313 11.1698 19.0396 11.1314C18.9479 11.0931 18.8495 11.0733 18.7501 11.0733C18.6507 11.0733 18.5523 11.0931 18.4606 11.1314C18.3689 11.1698 18.2857 11.226 18.216 11.2968C18.1462 11.3675 18.0912 11.4515 18.0541 11.5437C18.017 11.6359 17.9987 11.7346 18.0001 11.834V13.584C18.0001 16.8767 15.3699 19.5314 12.0889 19.5791C12.0556 19.5749 12.022 19.5729 11.9884 19.5732C11.9609 19.5737 11.9335 19.5756 11.9063 19.5791C8.62764 19.5288 6.00008 16.875 6.00008 13.584V11.834C6.00152 11.7336 5.98279 11.634 5.94501 11.5409C5.90723 11.4479 5.85116 11.3634 5.78012 11.2925C5.70909 11.2216 5.62453 11.1656 5.53147 11.1279C5.43841 11.0903 5.33874 11.0717 5.23836 11.0732Z" fill="#1E293B"/>
</g>
</g>
<defs>
<clipPath id="clip0_86_2595">
<rect width="24" height="24" fill="white" transform="translate(0 0.583984)"/>
</clipPath>
<clipPath id="clip1_86_2595">
<rect width="24" height="24" fill="white" transform="translate(0 0.583984)"/>
</clipPath>
</defs>
</svg>
