<svg width="24" height="25" viewBox="0 0 24 25" fill="none" xmlns="http://www.w3.org/2000/svg">
<path d="M13.9238 3.5995C13.8078 3.58447 13.688 3.58531 13.5693 3.60243C13.3321 3.63668 13.0993 3.73739 12.9092 3.91005C12.9062 3.91263 12.9033 3.91523 12.9004 3.91786L8.66992 7.88075C8.53059 8.01132 8.34794 8.08388 8.15723 8.08388H4.25C3.01625 8.08388 2 9.10013 2 10.3339V14.8339C2 16.0676 3.01625 17.0839 4.25 17.0839H8.15723C8.34794 17.0839 8.53059 17.1564 8.66992 17.287L12.9004 21.2499C12.9033 21.2525 12.9062 21.2551 12.9092 21.2577C13.2894 21.603 13.8413 21.6599 14.2559 21.4765C14.6704 21.293 15 20.8466 15 20.3329V4.83485C15 4.32119 14.6705 3.87474 14.2559 3.6913C14.1522 3.64544 14.0399 3.61453 13.9238 3.5995ZM13.5 5.41103V19.7567L9.69531 16.1923C9.27865 15.8018 8.72852 15.5839 8.15723 15.5839H4.25C3.82675 15.5839 3.5 15.2571 3.5 14.8339V10.3339C3.5 9.91063 3.82675 9.58388 4.25 9.58388H8.15723C8.72852 9.58388 9.27865 9.36592 9.69531 8.97548L13.5 5.41103ZM17.5059 8.71278C17.3758 8.71101 17.2475 8.74309 17.1336 8.80587C17.0197 8.86866 16.9241 8.95998 16.8561 9.07088C16.7881 9.18179 16.7502 9.30845 16.746 9.43845C16.7417 9.56845 16.7714 9.69732 16.832 9.81239C17.2573 10.6477 17.5 11.5851 17.5 12.5839C17.5 13.5827 17.2573 14.52 16.832 15.3554C16.7835 15.4434 16.7531 15.5404 16.7428 15.6404C16.7324 15.7404 16.7423 15.8415 16.7718 15.9377C16.8013 16.0338 16.8498 16.123 16.9145 16.2001C16.9792 16.2771 17.0587 16.3403 17.1483 16.3859C17.2379 16.4316 17.3358 16.4587 17.4361 16.4658C17.5365 16.4729 17.6372 16.4597 17.7323 16.4271C17.8274 16.3944 17.915 16.343 17.9899 16.2758C18.0647 16.2086 18.1253 16.1271 18.168 16.036C18.6947 15.0014 19 13.8271 19 12.5839C19 11.3407 18.6947 10.1664 18.168 9.13173C18.1069 9.00766 18.0128 8.90286 17.896 8.82893C17.7791 8.755 17.6441 8.7148 17.5059 8.71278Z" fill="#1E293B"/>
</svg>
