<svg width="110" height="86" viewBox="0 0 110 86" fill="none" xmlns="http://www.w3.org/2000/svg">
<path d="M0 63.0009C0 58.3384 3.56289 54.7402 8.35883 54.7402C10.0742 54.7342 11.7503 55.2494 13.1616 56.2167C13.4887 56.4408 13.7535 56.7432 13.9316 57.0958C14.1096 57.4484 14.1951 57.8398 14.1802 58.2339C14.1652 58.628 14.0503 59.012 13.8461 59.3503C13.6418 59.6887 13.3549 59.9705 13.0117 60.1696C12.6089 60.3962 12.1483 60.5014 11.6862 60.4726C11.2241 60.4438 10.7804 60.2822 10.4094 60.0074C9.78967 59.5793 9.04915 59.3569 8.29411 59.3723C6.25039 59.3723 4.73123 60.842 4.73123 63.0009C4.73123 65.1598 6.24358 66.6227 8.29411 66.6227C9.05742 66.6369 9.80585 66.4123 10.4332 65.9808C10.8022 65.709 11.2425 65.5487 11.7012 65.5194C12.1599 65.49 12.6173 65.5927 13.0185 65.8152C13.3562 66.0044 13.6412 66.2738 13.8481 66.5991C14.055 66.9244 14.1773 67.2956 14.2039 67.6793C14.2306 68.0631 14.1608 68.4474 14.0009 68.7978C13.841 69.1482 13.5959 69.4538 13.2876 69.6871C11.8545 70.7158 10.1278 71.2638 8.35883 71.2514C3.56289 71.2514 0 67.6532 0 62.9941" fill="white"/>
<path d="M16.1148 63.0009C16.108 61.3597 16.5925 59.7533 17.5069 58.3854C18.4213 57.0176 19.7244 55.9496 21.2511 55.3169C22.7779 54.6842 24.4596 54.5152 26.0833 54.8313C27.707 55.1474 29.1996 55.9343 30.372 57.0925C31.5444 58.2507 32.3439 59.7279 32.6692 61.3371C32.9945 62.9464 32.831 64.6151 32.1993 66.1321C31.5677 67.6491 30.4964 68.946 29.121 69.8585C27.7457 70.771 26.1283 71.2582 24.4736 71.2582C23.3754 71.2703 22.2857 71.0653 21.2683 70.655C20.2508 70.2448 19.326 69.6376 18.5478 68.8689C17.7696 68.1001 17.1537 67.1853 16.7359 66.1777C16.3182 65.1702 16.107 64.0903 16.1148 63.0009ZM28.1012 63.0009C28.1012 60.7778 26.5241 59.3081 24.4736 59.3081C22.4231 59.3081 20.846 60.7778 20.846 63.0009C20.846 65.224 22.4231 66.6903 24.4736 66.6903C26.5241 66.6903 28.091 65.2206 28.091 63.0009" fill="white"/>
<path d="M66.857 57.5242V70.4C66.8575 70.4553 66.8469 70.5102 66.8258 70.5614C66.8048 70.6126 66.7738 70.6592 66.7345 70.6984C66.6952 70.7377 66.6485 70.7689 66.5971 70.7901C66.5456 70.8114 66.4904 70.8223 66.4346 70.8223H62.5516C62.4958 70.8223 62.4406 70.8114 62.3891 70.7901C62.3377 70.7689 62.291 70.7377 62.2517 70.6984C62.2124 70.6592 62.1814 70.6126 62.1604 70.5614C62.1393 70.5102 62.1287 70.4553 62.1292 70.4C62.1292 70.3216 62.1072 70.2447 62.0656 70.178C62.024 70.1113 61.9646 70.0574 61.8938 70.0223C61.8231 69.9872 61.7439 69.9724 61.6652 69.9794C61.5864 69.9865 61.5112 70.0151 61.4479 70.0622C60.5453 70.7987 59.2407 71.2447 57.6364 71.2447C54.4482 71.2447 51.7369 68.9911 51.7369 64.7679V57.5242C51.7601 56.9173 52.0195 56.3429 52.4606 55.9217C52.9017 55.5004 53.4902 55.2651 54.1025 55.2651C54.7148 55.2651 55.3033 55.5004 55.7444 55.9217C56.1855 56.3429 56.4449 56.9173 56.4681 57.5242V64.0956C56.4681 66.0349 57.6977 66.9403 59.193 66.9403C60.9302 66.9403 62.1292 65.9268 62.1292 63.7205V57.5242C62.1292 56.9023 62.3783 56.3059 62.8216 55.8662C63.2649 55.4265 63.8662 55.1795 64.4931 55.1795C65.12 55.1795 65.7213 55.4265 66.1646 55.8662C66.608 56.3059 66.857 56.9023 66.857 57.5242Z" fill="white"/>
<path d="M76.1185 59.6831C76.0061 59.684 75.8987 59.7289 75.8196 59.808C75.7405 59.8871 75.6961 59.994 75.6961 60.1055V65.2206C75.6961 66.0653 76.1559 66.4302 77.0109 66.5518C77.5794 66.6135 78.102 66.8904 78.4699 67.3248C78.8377 67.7591 79.0224 68.3175 78.9856 68.8836C78.9487 69.4497 78.6931 69.9799 78.2719 70.3637C77.8508 70.7475 77.2966 70.9554 76.7248 70.944C72.3206 70.9203 70.9649 69.0283 70.9649 65.224V60.1055C70.9649 59.9935 70.92 59.886 70.8402 59.8068C70.7603 59.7276 70.652 59.6831 70.5391 59.6831H68.8667C68.7538 59.6831 68.6454 59.6386 68.5656 59.5594C68.4857 59.4802 68.4409 59.3728 68.4409 59.2608V55.6018C68.4409 55.4898 68.4857 55.3823 68.5656 55.3031C68.6454 55.2239 68.7538 55.1795 68.8667 55.1795H70.5391C70.652 55.1795 70.7603 55.135 70.8402 55.0558C70.92 54.9766 70.9649 54.8691 70.9649 54.7571V51.5475C70.9641 51.4184 71.006 51.2926 71.0841 51.1893C71.1408 51.1134 71.2148 51.0518 71.3 51.0096C71.3853 50.9673 71.4793 50.9455 71.5746 50.9461H74.8616C74.971 50.9456 75.0795 50.9666 75.1807 51.0079C75.2819 51.0491 75.3739 51.1097 75.4515 51.1863C75.529 51.2629 75.5905 51.354 75.6325 51.4542C75.6745 51.5544 75.6961 51.6619 75.6961 51.7705V54.7571C75.6961 54.8686 75.7405 54.9755 75.8196 55.0546C75.8987 55.1337 76.0061 55.1786 76.1185 55.1795H78.5028C78.6152 55.1804 78.7226 55.2252 78.8017 55.3043C78.8808 55.3834 78.9252 55.4904 78.9252 55.6018V59.2608C78.9252 59.3722 78.8808 59.4791 78.8017 59.5583C78.7226 59.6374 78.6152 59.6822 78.5028 59.6831H76.1185Z" fill="white"/>
<path d="M88.7214 67.0653C89.4726 67.0726 90.2137 66.8938 90.8776 66.5451C91.1287 66.4159 91.4031 66.3372 91.6849 66.3132C91.9668 66.2893 92.2506 66.3206 92.5203 66.4055C92.7899 66.4903 93.0401 66.6271 93.2565 66.8078C93.4728 66.9886 93.6512 67.2098 93.7814 67.4589C93.9115 67.7081 93.991 67.9802 94.0151 68.2598C94.0392 68.5393 94.0076 68.8209 93.9221 69.0884C93.8365 69.3558 93.6987 69.6039 93.5164 69.8186C93.3342 70.0332 93.1112 70.2101 92.86 70.3392C91.5518 70.9784 90.1078 71.2959 88.6499 71.2649C83.2579 71.2649 79.913 67.6667 79.913 63.0076C79.913 58.3486 83.3192 54.747 88.3025 54.747C92.9077 54.747 96.3139 58.2844 96.3139 63.0076C96.3139 63.1867 96.3139 63.3624 96.3139 63.5381C96.2904 63.9064 96.1254 64.2518 95.853 64.5032C95.5805 64.7546 95.2213 64.8929 94.8492 64.8895H85.6184C85.5427 64.8901 85.4684 64.9105 85.4032 64.9487C85.338 64.987 85.2842 65.0416 85.2471 65.1072C85.2101 65.1727 85.1913 65.2468 85.1925 65.3219C85.1936 65.397 85.2149 65.4705 85.2539 65.5349C85.9692 66.6701 87.2431 67.0788 88.7249 67.0788M91.024 61.3859C91.0956 61.3858 91.166 61.3678 91.2287 61.3335C91.2914 61.2993 91.3444 61.2499 91.3828 61.1899C91.4212 61.13 91.4437 61.0614 91.4482 60.9906C91.4528 60.9197 91.4393 60.8488 91.4089 60.7845C90.7856 59.4331 89.5355 58.9162 88.2854 58.9162C86.7288 58.9162 85.6252 59.5716 85.0666 60.7778C85.0357 60.8425 85.0217 60.9138 85.0259 60.9853C85.0301 61.0567 85.0525 61.126 85.0909 61.1866C85.1292 61.2472 85.1824 61.2972 85.2454 61.3321C85.3085 61.3669 85.3793 61.3854 85.4515 61.3859H91.024Z" fill="white"/>
<path d="M42.8739 67.0653C43.625 67.0722 44.366 66.8934 45.03 66.5451C45.3517 66.3713 45.7131 66.2825 46.0793 66.2872C46.4456 66.292 46.8044 66.39 47.1214 66.5721C47.4573 66.765 47.7345 67.0442 47.9239 67.3801C48.1133 67.7161 48.2079 68.0965 48.1978 68.4813C48.1877 68.8662 48.0732 69.2411 47.8664 69.5669C47.6596 69.8926 47.3682 70.1571 47.0227 70.3324C45.7145 70.9716 44.2705 71.2891 42.8126 71.2582C37.4172 71.2582 34.0757 67.66 34.0757 63.0009C34.0757 58.3418 37.4819 54.7402 42.4652 54.7402C47.0704 54.7402 50.4766 58.2776 50.4766 63.0009C50.4766 63.18 50.4766 63.3556 50.4595 63.5313C50.436 63.8991 50.2716 64.244 49.9999 64.4953C49.7281 64.7466 49.3698 64.8852 48.9983 64.8828H39.7675C39.6917 64.8833 39.6175 64.9038 39.5523 64.942C39.4871 64.9802 39.4332 65.0349 39.3962 65.1004C39.3592 65.1659 39.3403 65.24 39.3415 65.3152C39.3427 65.3903 39.3639 65.4637 39.403 65.5281C40.1183 66.6633 41.3922 67.0721 42.8739 67.0721M45.1697 61.3792C45.2416 61.3796 45.3124 61.362 45.3756 61.328C45.4387 61.294 45.4922 61.2447 45.5309 61.1846C45.5697 61.1246 45.5925 61.0558 45.5972 60.9847C45.602 60.9135 45.5885 60.8424 45.558 60.7778C44.9313 59.4263 43.6812 58.9094 42.4345 58.9094C40.8779 58.9094 39.7709 59.5649 39.2156 60.771C39.1847 60.8357 39.1707 60.9071 39.175 60.9785C39.1792 61.05 39.2016 61.1192 39.2399 61.1798C39.2783 61.2404 39.3314 61.2905 39.3945 61.3253C39.4575 61.3602 39.5284 61.3787 39.6006 61.3792H45.1697Z" fill="white"/>
<path d="M110 66.1295C110 69.7243 106.846 71.2582 103.44 71.2582C101.454 71.2582 99.7712 70.7885 98.487 69.8088C98.2136 69.6018 97.9962 69.3307 97.8542 69.02C97.7122 68.7093 97.6501 68.3685 97.6733 68.0281C97.6966 67.6877 97.8046 67.3583 97.9876 67.0694C98.1706 66.7806 98.423 66.5412 98.7221 66.3727L99.124 66.1464C99.509 65.9379 99.9503 65.8548 100.385 65.9087C100.821 65.9627 101.228 66.151 101.549 66.447C102.081 66.8776 102.754 67.0978 103.44 67.0653C104.574 67.0653 105.143 66.7275 105.143 66.0957C105.143 64.376 97.3834 65.2848 97.3834 59.8723C97.3834 56.4633 100.286 54.7402 103.566 54.7402C104.954 54.7201 106.319 55.0915 107.503 55.8112C107.806 56.0062 108.052 56.276 108.217 56.5941C108.382 56.9122 108.461 57.2675 108.446 57.625C108.43 57.9825 108.321 58.3299 108.129 58.6327C107.937 58.9356 107.668 59.1835 107.35 59.352L107.142 59.4635C106.783 59.6477 106.378 59.7268 105.975 59.6915C105.572 59.6562 105.188 59.508 104.867 59.2641C104.488 58.9956 104.031 58.8569 103.566 58.8689C102.745 58.8689 102.241 59.1797 102.241 59.7439C102.241 61.5278 110 60.3386 110 66.1261" fill="white"/>
<path d="M105.879 81.3012H102.467C102.48 81.8348 102.624 82.2466 102.901 82.5368C103.178 82.827 103.559 82.972 104.043 82.972C104.587 82.972 105.087 82.7942 105.544 82.4385V83.1593C105.119 83.465 104.557 83.6179 103.859 83.6179C103.176 83.6179 102.64 83.4011 102.25 82.9674C101.86 82.5305 101.665 81.9174 101.665 81.128C101.665 80.3823 101.877 79.7755 102.302 79.3074C102.73 78.8363 103.26 78.6007 103.892 78.6007C104.524 78.6007 105.014 78.8035 105.36 79.2092C105.706 79.6148 105.879 80.178 105.879 80.8987V81.3012ZM105.086 80.6507C105.083 80.2076 104.974 79.8628 104.76 79.6163C104.55 79.3698 104.255 79.2466 103.878 79.2466C103.513 79.2466 103.203 79.3761 102.948 79.635C102.694 79.894 102.536 80.2326 102.477 80.6507H105.086Z" fill="white"/>
<path d="M100.827 83.2856C100.455 83.5071 100.015 83.6179 99.5054 83.6179C98.8165 83.6179 98.2598 83.3964 97.8351 82.9533C97.4136 82.5071 97.2028 81.9299 97.2028 81.2216C97.2028 80.4323 97.4309 79.7989 97.887 79.3215C98.3431 78.841 98.9518 78.6007 99.713 78.6007C100.138 78.6007 100.512 78.6787 100.836 78.8347V79.621C100.477 79.3714 100.094 79.2466 99.6847 79.2466C99.1909 79.2466 98.7851 79.4229 98.4674 79.7755C98.1528 80.1249 97.9955 80.5851 97.9955 81.1561C97.9955 81.7177 98.1434 82.1608 98.4391 82.4853C98.7379 82.8098 99.1374 82.972 99.6376 82.972C100.059 82.972 100.455 82.8332 100.827 82.5555V83.2856Z" fill="white"/>
<path d="M95.3952 77.4962C95.2568 77.4962 95.1389 77.4494 95.0414 77.3558C94.9438 77.2622 94.8951 77.1436 94.8951 77.0001C94.8951 76.8566 94.9438 76.738 95.0414 76.6444C95.1389 76.5477 95.2568 76.4993 95.3952 76.4993C95.5368 76.4993 95.6563 76.5477 95.7539 76.6444C95.8545 76.738 95.9048 76.8566 95.9048 77.0001C95.9048 77.1374 95.8545 77.2544 95.7539 77.3511C95.6563 77.4478 95.5368 77.4962 95.3952 77.4962ZM95.7727 83.5056H94.9989V78.7131H95.7727V83.5056Z" fill="white"/>
<path d="M93.7827 77.0843C93.6317 77.0001 93.4602 76.958 93.2684 76.958C92.7273 76.958 92.4568 77.2965 92.4568 77.9736V78.7131H93.5892V79.3683H92.4568V83.5056H91.6877V79.3683H90.8619V78.7131H91.6877V77.9361C91.6877 77.4338 91.8339 77.0375 92.1265 76.7474C92.419 76.4541 92.7839 76.3074 93.2212 76.3074C93.4571 76.3074 93.6443 76.3355 93.7827 76.3917V77.0843Z" fill="white"/>
<path d="M90.0461 77.0843C89.8951 77.0001 89.7236 76.958 89.5318 76.958C88.9907 76.958 88.7202 77.2965 88.7202 77.9736V78.7131H89.8526V79.3683H88.7202V83.5056H87.9511V79.3683H87.1253V78.7131H87.9511V77.9361C87.9511 77.4338 88.0974 77.0375 88.3899 76.7474C88.6824 76.4541 89.0473 76.3074 89.4846 76.3074C89.7205 76.3074 89.9077 76.3355 90.0461 76.3917V77.0843Z" fill="white"/>
<path d="M84.0135 83.6179C83.2994 83.6179 82.7285 83.3948 82.3007 82.9486C81.876 82.4993 81.6637 81.905 81.6637 81.1655C81.6637 80.3605 81.8855 79.7318 82.329 79.2794C82.7726 78.8269 83.3718 78.6007 84.1267 78.6007C84.8471 78.6007 85.4086 78.8207 85.8112 79.2606C86.217 79.7006 86.4199 80.3106 86.4199 81.0906C86.4199 81.855 86.2013 82.4681 85.7641 82.9299C85.33 83.3886 84.7464 83.6179 84.0135 83.6179ZM84.0701 79.2466C83.5731 79.2466 83.1799 79.4151 82.8905 79.7521C82.6011 80.0859 82.4564 80.5477 82.4564 81.1374C82.4564 81.7053 82.6027 82.153 82.8952 82.4806C83.1878 82.8082 83.5794 82.972 84.0701 82.972C84.5703 82.972 84.9541 82.8114 85.2214 82.49C85.492 82.1686 85.6272 81.7115 85.6272 81.1187C85.6272 80.5196 85.492 80.0578 85.2214 79.7333C84.9541 79.4088 84.5703 79.2466 84.0701 79.2466Z" fill="white"/>
<path d="M78.1793 81.3012H74.7678C74.7804 81.8348 74.9251 82.2466 75.2019 82.5368C75.4787 82.827 75.8594 82.972 76.3438 82.972C76.888 82.972 77.3881 82.7942 77.8443 82.4385V83.1593C77.4196 83.465 76.8581 83.6179 76.1598 83.6179C75.4772 83.6179 74.9408 83.4011 74.5508 82.9674C74.1607 82.5305 73.9657 81.9174 73.9657 81.128C73.9657 80.3823 74.178 79.7755 74.6027 79.3074C75.0305 78.8363 75.5605 78.6007 76.1928 78.6007C76.8251 78.6007 77.3142 78.8035 77.6602 79.2092C78.0063 79.6148 78.1793 80.178 78.1793 80.8987V81.3012ZM77.3866 80.6507C77.3834 80.2076 77.2749 79.8628 77.061 79.6163C76.8502 79.3698 76.5561 79.2466 76.1786 79.2466C75.8137 79.2466 75.5039 79.3761 75.2491 79.635C74.9943 79.894 74.837 80.2326 74.7773 80.6507H77.3866Z" fill="white"/>
<path d="M73.4653 78.7131L71.5402 83.5056H70.7805L68.9497 78.7131H69.7991L71.0259 82.1951C71.1171 82.451 71.1737 82.6741 71.1957 82.8644H71.2146C71.2461 82.6241 71.2964 82.4073 71.3656 82.2139L72.649 78.7131H73.4653Z" fill="white"/>
<path d="M67.7266 77.4962C67.5882 77.4962 67.4703 77.4494 67.3728 77.3558C67.2752 77.2622 67.2265 77.1436 67.2265 77.0001C67.2265 76.8566 67.2752 76.738 67.3728 76.6444C67.4703 76.5477 67.5882 76.4993 67.7266 76.4993C67.8682 76.4993 67.9877 76.5477 68.0853 76.6444C68.1859 76.738 68.2362 76.8566 68.2362 77.0001C68.2362 77.1374 68.1859 77.2544 68.0853 77.3511C67.9877 77.4478 67.8682 77.4962 67.7266 77.4962ZM68.1041 83.5056H67.3303V78.7131H68.1041V83.5056Z" fill="white"/>
<path d="M66.2948 83.4588C66.1124 83.5586 65.8717 83.6086 65.5729 83.6086C64.7267 83.6086 64.3036 83.1405 64.3036 82.2045V79.3683H63.4732V78.7131H64.3036V77.543L65.0774 77.2949V78.7131H66.2948V79.3683H65.0774V82.0688C65.0774 82.3901 65.1325 82.6195 65.2426 82.7568C65.3527 82.894 65.5351 82.9627 65.7899 82.9627C65.985 82.9627 66.1532 82.9096 66.2948 82.8036V83.4588Z" fill="white"/>
<path d="M62.8815 83.2856C62.5103 83.5071 62.0699 83.6179 61.5603 83.6179C60.8714 83.6179 60.3146 83.3964 59.89 82.9533C59.4684 82.5071 59.2577 81.9299 59.2577 81.2216C59.2577 80.4323 59.4857 79.7989 59.9419 79.3215C60.398 78.841 61.0067 78.6007 61.7679 78.6007C62.1926 78.6007 62.5669 78.6787 62.8909 78.8347V79.621C62.5323 79.3714 62.1485 79.2466 61.7396 79.2466C61.2457 79.2466 60.8399 79.4229 60.5222 79.7755C60.2077 80.1249 60.0504 80.5851 60.0504 81.1561C60.0504 81.7177 60.1982 82.1608 60.4939 82.4853C60.7928 82.8098 61.1922 82.972 61.6924 82.972C62.1139 82.972 62.5103 82.8332 62.8815 82.5555V83.2856Z" fill="white"/>
<path d="M58.0279 83.5056H57.2541V82.7474H57.2352C56.9143 83.3277 56.4173 83.6179 55.7442 83.6179C54.5929 83.6179 54.0172 82.9377 54.0172 81.5773V78.7131H54.7863V81.4557C54.7863 82.4666 55.1764 82.972 55.9565 82.972C56.334 82.972 56.6438 82.8348 56.886 82.5602C57.1314 82.2825 57.2541 81.9206 57.2541 81.4744V78.7131H58.0279V83.5056Z" fill="white"/>
<path d="M52.5532 83.5056H51.7794V82.6912H51.7605C51.4019 83.309 50.8483 83.6179 50.0996 83.6179C49.4925 83.6179 49.0065 83.4042 48.6416 82.9767C48.2798 82.5461 48.099 81.9611 48.099 81.2216C48.099 80.4291 48.3003 79.7942 48.7029 79.3168C49.1056 78.8394 49.6419 78.6007 50.3119 78.6007C50.9757 78.6007 51.4585 78.8597 51.7605 79.3776H51.7794V76.4104H52.5532V83.5056ZM51.7794 81.3386V80.6319C51.7794 80.245 51.6504 79.9174 51.3925 79.6491C51.1345 79.3808 50.8074 79.2466 50.411 79.2466C49.9392 79.2466 49.568 79.4182 49.2975 79.7614C49.0269 80.1046 48.8917 80.5789 48.8917 81.1842C48.8917 81.7365 49.0206 82.1733 49.2786 82.4947C49.5397 82.8129 49.8888 82.972 50.3261 82.972C50.757 82.972 51.1062 82.8176 51.3736 82.5087C51.6441 82.1998 51.7794 81.8098 51.7794 81.3386Z" fill="white"/>
<path d="M44.7876 83.6179C44.0736 83.6179 43.5026 83.3948 43.0748 82.9486C42.6502 82.4993 42.4378 81.905 42.4378 81.1655C42.4378 80.3605 42.6596 79.7318 43.1031 79.2794C43.5467 78.8269 44.1459 78.6007 44.9009 78.6007C45.6212 78.6007 46.1827 78.8207 46.5854 79.2606C46.9911 79.7006 47.194 80.3106 47.194 81.0906C47.194 81.855 46.9754 82.4681 46.5382 82.9299C46.1041 83.3886 45.5206 83.6179 44.7876 83.6179ZM44.8443 79.2466C44.3472 79.2466 43.954 79.4151 43.6646 79.7521C43.3752 80.0859 43.2305 80.5477 43.2305 81.1374C43.2305 81.7053 43.3768 82.153 43.6694 82.4806C43.9619 82.8082 44.3535 82.972 44.8443 82.972C45.3444 82.972 45.7282 82.8114 45.9956 82.49C46.2661 82.1686 46.4013 81.7115 46.4013 81.1187C46.4013 80.5196 46.2661 80.0578 45.9956 79.7333C45.7282 79.4088 45.3444 79.2466 44.8443 79.2466Z" fill="white"/>
<path d="M41.9259 79.49C41.7906 79.387 41.5956 79.3355 41.3408 79.3355C41.0105 79.3355 40.7337 79.49 40.5103 79.7989C40.2901 80.1077 40.18 80.529 40.18 81.0625V83.5056H39.4062V78.7131H40.18V79.7006H40.1989C40.309 79.3636 40.4773 79.1015 40.7038 78.9143C40.9303 78.724 41.1835 78.6288 41.4635 78.6288C41.6648 78.6288 41.8189 78.6506 41.9259 78.6943V79.49Z" fill="white"/>
<path d="M34.5174 82.8129H34.4985V85.71H33.7247V78.7131H34.4985V79.5555H34.5174C34.898 78.919 35.4548 78.6007 36.1877 78.6007C36.8105 78.6007 37.2965 78.816 37.6457 79.2466C37.9949 79.6741 38.1694 80.2482 38.1694 80.9689C38.1694 81.7708 37.9728 82.4135 37.5796 82.8972C37.1864 83.3777 36.6485 83.6179 35.9659 83.6179C35.3399 83.6179 34.8571 83.3496 34.5174 82.8129ZM34.4985 80.88V81.5493C34.4985 81.9455 34.6275 82.2825 34.8854 82.5602C35.1465 82.8348 35.4768 82.972 35.8763 82.972C36.345 82.972 36.7114 82.7942 36.9757 82.4385C37.2431 82.0828 37.3767 81.5883 37.3767 80.9549C37.3767 80.4213 37.2525 80.0032 37.004 79.7006C36.7555 79.3979 36.4189 79.2466 35.9942 79.2466C35.5444 79.2466 35.1827 79.4026 34.909 79.7146C34.6353 80.0235 34.4985 80.412 34.4985 80.88Z" fill="white"/>
<path d="M29.5118 83.5056H28.738V76.4104H29.5118V83.5056Z" fill="white"/>
<path d="M27.2781 83.5056H26.5042V82.7568H26.4854C26.1488 83.3309 25.6533 83.6179 24.999 83.6179C24.5178 83.6179 24.1403 83.4915 23.8666 83.2388C23.5961 82.9861 23.4608 82.6507 23.4608 82.2326C23.4608 81.3371 23.9924 80.816 25.0557 80.6694L26.5042 80.4681C26.5042 79.6538 26.1724 79.2466 25.5086 79.2466C24.9267 79.2466 24.4014 79.4432 23.9327 79.8363V79.05C24.4077 78.7505 24.955 78.6007 25.5747 78.6007C26.7103 78.6007 27.2781 79.1967 27.2781 80.3886V83.5056ZM26.5042 81.0812L25.3388 81.2404C24.9802 81.2903 24.7096 81.3792 24.5272 81.5071C24.3447 81.6319 24.2535 81.855 24.2535 82.1764C24.2535 82.4104 24.3369 82.6023 24.5036 82.7521C24.6735 82.8987 24.8984 82.972 25.1783 82.972C25.5621 82.972 25.8782 82.8394 26.1268 82.5742C26.3784 82.3059 26.5042 81.9674 26.5042 81.5586V81.0812Z" fill="white"/>
<path d="M22.2593 83.5056H21.4855V82.7474H21.4666C21.1458 83.3277 20.6488 83.6179 19.9756 83.6179C18.8243 83.6179 18.2486 82.9377 18.2486 81.5773V78.7131H19.0178V81.4557C19.0178 82.4666 19.4078 82.972 20.1879 82.972C20.5654 82.972 20.8753 82.8348 21.1175 82.5602C21.3628 82.2825 21.4855 81.9206 21.4855 81.4744V78.7131H22.2593V83.5056Z" fill="white"/>
<path d="M17.3169 83.4588C17.1345 83.5586 16.8939 83.6086 16.595 83.6086C15.7488 83.6086 15.3258 83.1405 15.3258 82.2045V79.3683H14.4953V78.7131H15.3258V77.543L16.0996 77.2949V78.7131H17.3169V79.3683H16.0996V82.0688C16.0996 82.3901 16.1546 82.6195 16.2647 82.7568C16.3748 82.894 16.5573 82.9627 16.8121 82.9627C17.0071 82.9627 17.1754 82.9096 17.3169 82.8036V83.4588Z" fill="white"/>
<path d="M14.2334 79.49C14.0982 79.387 13.9031 79.3355 13.6483 79.3355C13.318 79.3355 13.0412 79.49 12.8179 79.7989C12.5977 80.1077 12.4876 80.529 12.4876 81.0625V83.5056H11.7138V78.7131H12.4876V79.7006H12.5065C12.6166 79.3636 12.7848 79.1015 13.0113 78.9143C13.2378 78.724 13.491 78.6288 13.771 78.6288C13.9723 78.6288 14.1265 78.6506 14.2334 78.6943V79.49Z" fill="white"/>
<path d="M9.77346 77.4962C9.63505 77.4962 9.51709 77.4494 9.41957 77.3558C9.32206 77.2622 9.2733 77.1436 9.2733 77.0001C9.2733 76.8566 9.32206 76.738 9.41957 76.6444C9.51709 76.5477 9.63505 76.4993 9.77346 76.4993C9.91501 76.4993 10.0345 76.5477 10.1321 76.6444C10.2327 76.738 10.2831 76.8566 10.2831 77.0001C10.2831 77.1374 10.2327 77.2544 10.1321 77.3511C10.0345 77.4478 9.91501 77.4962 9.77346 77.4962ZM10.1509 83.5056H9.37711V78.7131H10.1509V83.5056Z" fill="white"/>
<path d="M8.54644 78.7131L6.62131 83.5056H5.86164L4.03088 78.7131H4.8802L6.107 82.1951C6.19822 82.451 6.25485 82.6741 6.27687 82.8644H6.29574C6.3272 82.6241 6.37753 82.4073 6.44673 82.2139L7.73015 78.7131H8.54644Z" fill="white"/>
<path d="M54.426 3.7507C52.6655 3.7507 50.9225 4.098 49.2985 4.77239C47.6746 5.44677 46.202 6.43478 44.9666 7.67892C43.7312 8.92305 42.7575 10.3985 42.1023 12.0193C41.4979 13.5147 41.1756 15.1062 41.1503 16.7148C41.1503 16.7202 41.1503 16.7256 41.1503 16.7311V40.3339C41.1503 41.1736 40.4641 41.8543 39.6176 41.8543C38.771 41.8543 38.0848 41.1736 38.0848 40.3339V18.5681C38.0848 18.5673 38.0848 18.5664 38.0848 18.5656V17.1545C38.0535 15.0092 38.452 12.8792 39.2569 10.8877C40.0634 8.89264 41.2618 7.07655 42.7825 5.54516C44.3032 4.01376 46.1157 2.79764 48.1147 1.96754C50.1136 1.13745 52.259 0.709961 54.426 0.709961C56.5931 0.709961 58.7385 1.13745 60.7374 1.96754C62.7364 2.79764 64.5489 4.01376 66.0696 5.54516C67.5902 7.07655 68.7887 8.89263 69.5951 10.8877C70.4 12.8789 70.7984 15.0086 70.7673 17.1536V40.3339C70.7673 41.1736 70.0811 41.8543 69.2345 41.8543C68.388 41.8543 67.7017 41.1736 67.7017 40.3339V18.572L67.7017 18.5656V17.1317L67.7018 17.1278C67.7018 17.1205 67.7019 17.1132 67.7021 17.106C67.7268 15.3647 67.4032 13.6358 66.7497 12.0193C66.0946 10.3985 65.1209 8.92305 63.8855 7.67892C62.6501 6.43478 61.1775 5.44677 59.5536 4.77239C57.9296 4.098 56.1866 3.7507 54.426 3.7507Z" fill="white"/>
<path d="M76.7997 22.3226C76.7997 21.3729 76.0235 20.6029 75.0659 20.6029C74.1084 20.6029 73.3322 21.3729 73.3322 22.3226V38.2595C73.3322 39.2092 74.1084 39.9792 75.0659 39.9792C76.0235 39.9792 76.7997 39.2092 76.7997 38.2595V37.3223C78.3577 37.2758 79.6064 36.0084 79.6064 34.4518V26.1303C79.6064 24.5736 78.3577 23.3062 76.7997 23.2598V22.3226Z" fill="white"/>
<path d="M31.7186 22.3226V23.2593C30.151 23.2952 28.8914 24.5668 28.8914 26.1303V34.4518C28.8914 36.0152 30.151 37.2869 31.7186 37.3228V38.2595C31.7186 39.2092 32.4948 39.9792 33.4523 39.9792C34.4099 39.9792 35.1861 39.2092 35.1861 38.2595V22.3226C35.1861 21.3729 34.4099 20.6029 33.4523 20.6029C32.4948 20.6029 31.7186 21.3729 31.7186 22.3226Z" fill="white"/>
<path d="M48.9222 25.6871C48.8311 25.2329 48.6063 24.8157 48.2761 24.4883C48.0572 24.2705 47.7971 24.0977 47.5106 23.9798C47.2242 23.8619 46.9172 23.8012 46.6071 23.8012C46.297 23.8012 45.99 23.8619 45.7036 23.9798C45.4172 24.0977 45.157 24.2705 44.9381 24.4883C44.6079 24.8157 44.3831 25.2329 44.292 25.6871C44.2009 26.1413 44.2476 26.6121 44.4263 27.0399C44.6049 27.4678 44.9075 27.8335 45.2957 28.0907C45.6838 28.348 46.1402 28.4853 46.6071 28.4853C47.074 28.4853 47.5304 28.348 47.9186 28.0907C48.3068 27.8335 48.6093 27.4678 48.788 27.0399C48.9666 26.6121 49.0133 26.1413 48.9222 25.6871Z" fill="white"/>
</svg>
