<svg width="49" height="49" viewBox="0 0 49 49" fill="none" xmlns="http://www.w3.org/2000/svg">
<g id="Frame" clip-path="url(#clip0_86_2813)">
<g id="Group">
<path id="Vector" fill-rule="evenodd" clip-rule="evenodd" d="M24.2558 28.9338C24.0871 28.9338 23.9465 28.8776 23.834 28.737L20.1785 24.266C19.9816 24.0129 20.0098 23.6755 20.2628 23.4787C20.5159 23.2818 20.8533 23.3099 21.0502 23.563L24.2558 27.4998L27.5177 23.5068C27.7145 23.2818 28.0519 23.2256 28.305 23.4505C28.5581 23.6474 28.5862 23.9848 28.3894 24.2379L24.7057 28.737C24.5932 28.8776 24.4245 28.9338 24.2558 28.9338ZM24.4526 22.1852C20.3472 22.1852 17.001 18.8389 17.001 14.7054C17.001 10.5999 20.3472 7.22559 24.4526 7.22559C28.5862 7.22559 31.9324 10.5999 31.9324 14.7054C31.9324 18.8389 28.5862 22.1852 24.4526 22.1852ZM24.4526 8.35037C20.9658 8.35037 18.1258 11.2186 18.1258 14.7054C18.1258 18.2203 20.9658 21.0604 24.4526 21.0604C27.9676 21.0604 30.8077 18.2203 30.8077 14.7054C30.8077 11.2186 27.9676 8.35037 24.4526 8.35037Z" fill="#7477FF"/>
<path id="Vector_2" fill-rule="evenodd" clip-rule="evenodd" d="M31.3701 15.0989C31.2857 15.0989 31.2295 15.0989 31.1451 15.0707C29.4017 14.3396 28.305 13.4117 27.9957 12.3713C26.4773 13.4117 23.1029 15.0707 17.5353 14.424C17.2259 14.3959 17.001 14.1147 17.0572 13.8054C17.0853 13.496 17.3665 13.2711 17.6759 13.2992C24.8463 14.1147 28.1082 10.8809 28.1363 10.8247C28.3331 10.656 28.6143 10.5997 28.8393 10.7403C29.0643 10.8809 29.1486 11.134 29.0924 11.3871C28.6987 12.6806 30.6952 13.6648 31.595 14.0303C31.8762 14.1428 32.0168 14.4802 31.9043 14.7614C31.7918 14.9864 31.595 15.0989 31.3701 15.0989ZM27.9395 24.4345C27.6583 24.4345 27.4052 24.2096 27.3771 23.9003C27.349 23.0567 27.2927 21.8194 27.4052 20.6103C27.4333 20.301 27.7145 20.076 28.0238 20.1041C28.3331 20.1322 28.5581 20.4134 28.53 20.7228C28.4175 21.8475 28.4737 23.0286 28.5019 23.844C28.53 24.1533 28.305 24.4064 27.9957 24.4345H27.9395ZM20.6284 24.4627H20.5722C20.2628 24.4345 20.0379 24.1815 20.066 23.8721C20.1223 23.1692 20.1785 21.7913 20.066 20.4978C20.0379 20.1885 20.2628 19.9073 20.5722 19.8792C20.8815 19.8511 21.1346 20.076 21.1627 20.3853C21.3033 21.7632 21.247 23.2254 21.1908 23.9565C21.1627 24.2377 20.9096 24.4627 20.6284 24.4627ZM31.9324 33.967C31.6231 33.967 31.3701 33.714 31.3701 33.4047V30.3115C31.3701 30.0022 31.6231 29.7491 31.9324 29.7491C32.2418 29.7491 32.4948 30.0022 32.4948 30.3115V33.4047C32.4948 33.714 32.2418 33.967 31.9324 33.967ZM16.6073 33.9389C16.298 33.9389 16.0449 33.6859 16.0449 33.3765V30.3115C16.0449 30.0022 16.298 29.7491 16.6073 29.7491C16.9166 29.7491 17.1697 30.0022 17.1697 30.3115V33.3765C17.1697 33.6859 16.9166 33.9389 16.6073 33.9389Z" fill="#7477FF"/>
<path id="Vector_3" fill-rule="evenodd" clip-rule="evenodd" d="M35.2791 33.9672H29.5989C29.2896 33.9672 29.0365 33.7141 29.0365 33.4048C29.0365 33.0955 29.2896 32.8424 29.5989 32.8424H34.7167V28.6245C34.7167 26.3187 32.8327 24.4347 30.5269 24.4347H27.9399C27.6306 24.4347 27.3775 24.1816 27.3775 23.8723C27.3775 23.563 27.6306 23.3099 27.9399 23.3099H30.5269C33.4513 23.3099 35.8415 25.7001 35.8415 28.6245V33.4048C35.8415 33.7141 35.5884 33.9672 35.2791 33.9672ZM19.3353 33.9672H13.6552C13.3458 33.9672 13.0928 33.7141 13.0928 33.4048V28.6245C13.0928 25.7001 15.4829 23.3099 18.4074 23.3099H20.6288C20.9381 23.3099 21.1912 23.563 21.1912 23.8723C21.1912 24.1816 20.9381 24.4347 20.6288 24.4347H18.4074C16.1016 24.4347 14.2176 26.3187 14.2176 28.6245V32.8424H19.3353C19.6446 32.8424 19.8977 33.0955 19.8977 33.4048C19.8977 33.7141 19.6446 33.9672 19.3353 33.9672ZM38.9627 24.8846C38.794 24.8846 38.6534 24.8002 38.5409 24.6878L35.5884 21.0604C35.3915 20.8073 35.4197 20.4698 35.6727 20.273C35.8977 20.0762 36.2633 20.1043 36.4601 20.3574L38.9627 23.4224L41.5216 20.3011C41.7184 20.0762 42.084 20.0481 42.3089 20.2449C42.562 20.4417 42.5901 20.7792 42.3933 21.0322L39.4126 24.6878C39.3002 24.8002 39.1314 24.8846 38.9627 24.8846ZM39.1314 19.4013C35.729 19.4013 32.9733 16.6456 32.9733 13.2431C32.9733 9.84067 35.729 7.08496 39.1314 7.08496C42.5339 7.08496 45.2896 9.84067 45.2896 13.2431C45.2896 16.6456 42.5339 19.4013 39.1314 19.4013ZM39.1314 8.20974C36.3476 8.20974 34.098 10.4593 34.098 13.2431C34.098 16.027 36.3476 18.2765 39.1314 18.2765C41.9153 18.2765 44.1648 16.027 44.1648 13.2431C44.1648 10.4593 41.9153 8.20974 39.1314 8.20974Z" fill="#7477FF"/>
<path id="Vector_4" fill-rule="evenodd" clip-rule="evenodd" d="M44.7272 13.6651C44.671 13.6651 44.5866 13.6651 44.5023 13.6369C43.1244 13.0745 42.2527 12.3434 41.9434 11.528C40.6499 12.3716 37.8942 13.6088 33.5075 13.1308C33.1982 13.0745 32.9733 12.7934 33.0014 12.484C33.0576 12.1747 33.3107 11.9779 33.6481 12.006C39.4126 12.6528 41.9996 10.0658 42.0278 10.0376C42.2246 9.8408 42.5058 9.81268 42.7307 9.92516C42.9557 10.0658 43.0682 10.347 42.9838 10.6C42.6745 11.5842 44.3898 12.3716 44.9522 12.5965C45.2334 12.709 45.374 13.0464 45.2615 13.3276C45.149 13.5526 44.9522 13.6651 44.7272 13.6651ZM41.9434 21.2292C41.6622 21.2292 41.4091 21.0042 41.381 20.6949C41.3529 20.0201 41.3248 19.0078 41.4091 18.0236C41.4372 17.7143 41.7184 17.4893 42.0278 17.5174C42.3371 17.5455 42.562 17.8267 42.5339 18.1361C42.4496 19.0921 42.4777 20.1044 42.5058 20.6387C42.5339 20.948 42.309 21.2011 41.9996 21.2292H41.9434ZM36.0102 21.2573H35.9821C35.6727 21.2292 35.4197 20.9761 35.4478 20.6668C35.504 20.1044 35.5603 18.9796 35.4478 17.9392C35.4197 17.6299 35.6446 17.3768 35.9539 17.3487C36.2633 17.3206 36.5445 17.5455 36.5726 17.8549C36.6851 18.9796 36.6288 20.1325 36.5726 20.7512C36.5445 21.0324 36.3195 21.2573 36.0102 21.2573ZM45.1771 28.9621C44.8678 28.9621 44.6148 28.709 44.6148 28.3997V25.8689C44.6148 25.5596 44.8678 25.3065 45.1771 25.3065C45.4865 25.3065 45.7395 25.5596 45.7395 25.8689V28.3997C45.7395 28.709 45.4865 28.9621 45.1771 28.9621Z" fill="#7477FF"/>
<path id="Vector_5" fill-rule="evenodd" clip-rule="evenodd" d="M47.9046 28.9619H35.279C34.9697 28.9619 34.7166 28.7089 34.7166 28.3995C34.7166 28.0902 34.9697 27.8372 35.279 27.8372H47.3422V24.5191C47.3422 22.7194 45.8519 21.2291 44.0241 21.2291H41.9433C41.634 21.2291 41.3809 20.976 41.3809 20.6667C41.3809 20.3574 41.634 20.1043 41.9433 20.1043H44.0241C46.4705 20.1043 48.467 22.1008 48.467 24.5191V28.3995C48.467 28.7089 48.2139 28.9619 47.9046 28.9619ZM30.4143 24.4347H30.3299C30.0206 24.3785 29.8238 24.0691 29.88 23.7879C30.2456 21.6509 32.0734 20.1043 34.2104 20.1043H36.0101C36.3194 20.1043 36.5725 20.3574 36.5725 20.6667C36.5725 20.976 36.3194 21.2291 36.0101 21.2291H34.2104C32.6076 21.2291 31.2579 22.382 30.9767 23.9567C30.9205 24.2379 30.6955 24.4347 30.4143 24.4347ZM9.63399 24.8846C9.46527 24.8846 9.29655 24.8003 9.21219 24.6878L6.25965 21.0604C6.06281 20.8073 6.09093 20.4698 6.31588 20.273C6.56896 20.0762 6.93451 20.1043 7.10323 20.3574L9.63399 23.4224L12.1929 20.3011C12.3897 20.0762 12.7271 20.0481 12.9802 20.2449C13.2052 20.4417 13.2614 20.7792 13.0646 21.0322L10.0839 24.6878C9.97142 24.8003 9.8027 24.8846 9.63399 24.8846ZM9.8027 19.4013C6.40024 19.4013 3.64453 16.6456 3.64453 13.2431C3.64453 9.84067 6.40024 7.08496 9.8027 7.08496C13.2052 7.08496 15.9609 9.84067 15.9609 13.2431C15.9609 16.6456 13.2052 19.4013 9.8027 19.4013ZM9.8027 8.20974C7.01887 8.20974 4.76931 10.4593 4.76931 13.2431C4.76931 16.027 7.01887 18.2765 9.8027 18.2765C12.5865 18.2765 14.8361 16.027 14.8361 13.2431C14.8361 10.4593 12.5865 8.20974 9.8027 8.20974Z" fill="#7477FF"/>
<path id="Vector_6" fill-rule="evenodd" clip-rule="evenodd" d="M15.3987 13.6649C15.3144 13.6649 15.2581 13.6649 15.1738 13.6368C13.7959 13.0744 12.9242 12.3433 12.6149 11.5278C11.2933 12.3714 8.56568 13.6086 4.17904 13.1306C3.86972 13.0744 3.64477 12.7932 3.67289 12.4839C3.70101 12.1745 3.9822 11.9777 4.29152 12.0058C10.0279 12.6526 12.6711 10.0656 12.6992 10.0375C12.8961 9.84063 13.1773 9.81251 13.4022 9.95311C13.6272 10.0656 13.7116 10.3468 13.6553 10.5999C13.346 11.584 15.0613 12.3714 15.5956 12.5963C15.9049 12.7088 16.0455 13.0463 15.9049 13.3274C15.8205 13.5524 15.6237 13.6649 15.3987 13.6649ZM12.6149 21.229C12.3337 21.229 12.0806 21.0041 12.0525 20.6948C12.0244 20.0199 11.9963 19.0076 12.0806 18.0234C12.1087 17.7141 12.3899 17.4891 12.6992 17.5173C13.0086 17.5454 13.2335 17.8266 13.2054 18.1359C13.121 19.0919 13.1492 20.1043 13.1773 20.6385C13.2054 20.9478 12.9804 21.2009 12.643 21.229H12.6149ZM6.68167 21.2572H6.65356C6.34424 21.229 6.09117 20.976 6.11928 20.6666C6.17552 20.1043 6.20364 18.9795 6.11928 17.939C6.09117 17.6297 6.31612 17.3767 6.62544 17.3485C6.93475 17.3204 7.21595 17.5454 7.24407 17.8547C7.35654 18.9795 7.27218 20.1324 7.24407 20.751C7.21595 21.0322 6.96287 21.2572 6.68167 21.2572ZM3.41981 28.9338C3.1105 28.9338 2.85742 28.6807 2.85742 28.3714V25.8969C2.85742 25.5594 3.1105 25.3345 3.41981 25.3345C3.72913 25.3345 3.9822 25.5594 3.9822 25.8969V28.3714C3.9822 28.6807 3.72913 28.9338 3.41981 28.9338Z" fill="#7477FF"/>
<path id="Vector_7" fill-rule="evenodd" clip-rule="evenodd" d="M13.6548 28.9621H1.02919C0.719872 28.9621 0.466797 28.7091 0.466797 28.3997V24.5193C0.466797 22.101 2.46328 20.1045 4.88156 20.1045H6.68121C6.99052 20.1045 7.2436 20.3576 7.2436 20.6669C7.2436 20.9762 6.99052 21.2293 6.68121 21.2293H4.88156C3.08191 21.2293 1.59158 22.7196 1.59158 24.5193V27.8374H13.6548C13.9642 27.8374 14.2172 28.0904 14.2172 28.3997C14.2172 28.7091 13.9642 28.9621 13.6548 28.9621ZM18.5195 24.4349C18.2383 24.4349 17.9853 24.2381 17.9571 23.9569C17.6759 22.3822 16.3262 21.2293 14.6953 21.2293H12.6144C12.3051 21.2293 12.052 20.9762 12.052 20.6669C12.052 20.3576 12.3051 20.1045 12.6144 20.1045H14.6953C16.8605 20.1045 18.7164 21.6511 19.0538 23.7881C19.11 24.0975 18.9132 24.3787 18.6039 24.4349H18.5195ZM24.4527 41.869C21.0503 41.869 18.2946 39.0852 18.2946 35.6827C18.2946 32.2802 21.0503 29.4964 24.4527 29.4964C27.8552 29.4964 30.639 32.2802 30.639 35.6827C30.639 39.0852 27.8552 41.869 24.4527 41.869ZM24.4527 30.6212C21.6689 30.6212 19.4193 32.8989 19.4193 35.6827C19.4193 38.4665 21.6689 40.7442 24.4527 40.7442C27.2366 40.7442 29.5142 38.4665 29.5142 35.6827C29.5142 32.8989 27.2366 30.6212 24.4527 30.6212Z" fill="#7477FF"/>
<path id="Vector_8" fill-rule="evenodd" clip-rule="evenodd" d="M22.934 38.1005C22.9059 38.1005 22.8497 38.1005 22.8215 38.0724C22.6528 38.0443 22.5122 37.9318 22.4279 37.7912L21.2187 35.3448C21.0781 35.0918 21.1906 34.7543 21.4718 34.6137C21.753 34.4731 22.0904 34.5856 22.231 34.8668L23.1027 36.6383L26.8426 33.4046C27.0676 33.2077 27.4331 33.2359 27.63 33.4608C27.8268 33.7139 27.7987 34.0513 27.5737 34.2482L23.2996 37.9599C23.1871 38.0443 23.0746 38.1005 22.934 38.1005Z" fill="#7477FF"/>
</g>
</g>
<defs>
<clipPath id="clip0_86_2813">
<rect width="48" height="48" fill="white" transform="translate(0.466797 0.477051)"/>
</clipPath>
</defs>
</svg>
