<svg width="49" height="49" viewBox="0 0 49 49" fill="none" xmlns="http://www.w3.org/2000/svg">
<g id="Frame" clip-path="url(#clip0_86_2855)">
<g id="Group">
<path id="Vector" d="M41.4031 32.8857H39.3184C38.5417 32.8857 37.9121 33.5154 37.9121 34.292C37.9121 35.0687 38.5417 35.6983 39.3184 35.6983H41.4031C42.1798 35.6983 42.8094 35.0687 42.8094 34.292C42.8094 33.5153 42.1798 32.8857 41.4031 32.8857Z" fill="#7477FF"/>
<path id="Vector_2" d="M48.8477 11.8204C48.8477 9.49413 46.9552 7.60156 44.6288 7.60156H5.06649C2.74022 7.60156 0.847656 9.49413 0.847656 11.8204V37.1334C0.847656 39.4597 2.74022 41.3522 5.06649 41.3522H44.6288C46.9552 41.3522 48.8477 39.4597 48.8477 37.1334V11.8204ZM5.06649 10.4141H44.6288C45.4042 10.4141 46.0351 11.045 46.0351 11.8204V15.1017H3.66021V11.8204C3.66021 11.045 4.29107 10.4141 5.06649 10.4141ZM44.6288 38.5397H5.06649C4.29107 38.5397 3.66021 37.9089 3.66021 37.1334V17.9143H46.0351V37.1334C46.0351 37.9089 45.4042 38.5397 44.6288 38.5397Z" fill="#7477FF"/>
<path id="Vector_3" d="M19.4401 21.6924C18.9948 21.6924 18.6386 21.8349 18.5317 22.209L16.0557 31.3471L13.5618 22.209C13.4549 21.8349 13.0988 21.6924 12.6534 21.6924C11.8874 21.6924 10.8721 22.1733 10.8721 22.8324C10.8721 22.8857 10.8899 22.9571 10.9077 23.0283L14.2388 33.8943C14.4347 34.5177 15.2363 34.8205 16.0557 34.8205C16.8751 34.8205 17.6767 34.5178 17.8726 33.8943L21.1859 23.0283C21.2036 22.9571 21.2215 22.8857 21.2215 22.8324C21.2214 22.1733 20.2061 21.6924 19.4401 21.6924ZM24.9796 21.6924C24.2849 21.6924 23.5902 21.9418 23.5902 22.5296V33.8587C23.5902 34.4288 24.2849 34.7138 24.9796 34.7138C25.6743 34.7138 26.369 34.4288 26.369 33.8587V22.5295C26.3691 21.9418 25.6743 21.6924 24.9796 21.6924ZM38.553 25.7893C38.553 22.7968 36.7004 21.6924 34.3491 21.6924H30.6619C30.0384 21.6924 29.6286 22.0843 29.6286 22.5296V33.8587C29.6286 34.4288 30.3233 34.7138 31.018 34.7138C31.7127 34.7138 32.4074 34.4288 32.4074 33.8587V30.0112H34.171C36.6293 30.0112 38.553 28.8711 38.553 25.8785V25.7893ZM35.7741 26.0922C35.7741 27.3035 35.1685 27.8735 34.1709 27.8735H32.4073V24.1149H34.1709C35.1685 24.1149 35.7741 24.6849 35.7741 25.8963V26.0922Z" fill="#7477FF"/>
</g>
</g>
<defs>
<clipPath id="clip0_86_2855">
<rect width="48" height="48" fill="white" transform="translate(0.847656 0.477051)"/>
</clipPath>
</defs>
</svg>
