<svg width="49" height="49" viewBox="0 0 49 49" fill="none" xmlns="http://www.w3.org/2000/svg">
<g id="Frame">
<g id="Group">
<path id="Vector" d="M31.9369 25.1768C31.8752 25.1769 31.8143 25.1617 31.7599 25.1325C31.7054 25.1033 31.6591 25.0611 31.6249 25.0096L24.9574 15.0083C24.9301 14.9673 24.9112 14.9214 24.9016 14.873C24.8921 14.8247 24.8922 14.775 24.9018 14.7267C24.9115 14.6784 24.9306 14.6325 24.9581 14.5915C24.9855 14.5506 25.0207 14.5155 25.0617 14.4882C25.1027 14.4609 25.1487 14.4419 25.197 14.4324C25.2453 14.4229 25.295 14.4229 25.3433 14.4326C25.3916 14.4423 25.4376 14.4614 25.4785 14.4888C25.5194 14.5162 25.5545 14.5515 25.5818 14.5925L32.0116 24.2371L39.9394 17.2602C39.9764 17.2277 40.0195 17.2027 40.0661 17.1868C40.1127 17.1709 40.162 17.1643 40.2112 17.1674C40.2603 17.1705 40.3084 17.1833 40.3526 17.205C40.3969 17.2268 40.4364 17.257 40.4689 17.294C40.5015 17.3309 40.5264 17.374 40.5424 17.4206C40.5583 17.4672 40.5649 17.5165 40.5617 17.5657C40.5586 17.6149 40.5458 17.6629 40.5241 17.7072C40.5024 17.7514 40.4722 17.7909 40.4352 17.8235L32.1844 25.0835C32.1158 25.1435 32.0281 25.1768 31.9369 25.1768Z" fill="#7477FF" stroke="#7477FF"/>
<path id="Vector_2" d="M36.4375 31.5519H12.4375C12.3587 31.5519 12.282 31.5272 12.2181 31.4811C12.1542 31.4351 12.1065 31.3701 12.0816 31.2954L7.67909 18.0917C7.66275 18.0448 7.65588 17.9951 7.65889 17.9455C7.66191 17.8959 7.67474 17.8475 7.69664 17.8029C7.71854 17.7583 7.74908 17.7185 7.78648 17.6859C7.82388 17.6532 7.8674 17.6283 7.91451 17.6125C7.96162 17.5968 8.01138 17.5906 8.06091 17.5943C8.11043 17.598 8.15874 17.6114 8.20302 17.6339C8.2473 17.6564 8.28667 17.6875 8.31885 17.7253C8.35103 17.7631 8.37537 17.807 8.39046 17.8543L12.7078 30.8019H36.1675L40.4848 17.8547C40.5173 17.7616 40.5851 17.685 40.6736 17.6415C40.7621 17.598 40.8641 17.5911 40.9576 17.6223C41.0512 17.6536 41.1287 17.7203 41.1733 17.8082C41.2179 17.8962 41.2262 17.9981 41.1962 18.092L36.7937 31.2958C36.7423 31.4488 36.5987 31.5519 36.4375 31.5519Z" fill="#7477FF" stroke="#7477FF"/>
<path id="Vector_3" d="M16.9367 25.1768C16.8456 25.1768 16.7574 25.1434 16.6888 25.0834L8.43882 17.8234C8.36413 17.7577 8.31861 17.665 8.31228 17.5657C8.30595 17.4664 8.33933 17.3686 8.40507 17.2939C8.47081 17.2193 8.56353 17.1737 8.66283 17.1674C8.76213 17.1611 8.85988 17.1945 8.93457 17.2602L16.8628 24.2371L23.2926 14.5924C23.3477 14.5108 23.4327 14.4541 23.5292 14.4347C23.6258 14.4152 23.7261 14.4345 23.8085 14.4883C23.891 14.5422 23.9489 14.6264 23.9698 14.7226C23.9908 14.8189 23.973 14.9195 23.9203 15.0027L23.9166 15.0083L17.2491 25.0096C17.2148 25.061 17.1683 25.1032 17.1138 25.1323C17.0593 25.1615 16.9985 25.1768 16.9367 25.1768Z" fill="#7477FF" stroke="#7477FF"/>
<path id="Vector_4" d="M7.56205 18.427C7.13241 18.4279 6.71547 18.2814 6.38073 18.0121C6.04598 17.7428 5.81366 17.3668 5.72248 16.947C5.63131 16.5271 5.68679 16.0887 5.87967 15.7048C6.07256 15.3209 6.3912 15.0147 6.78249 14.8373C7.17377 14.6598 7.61405 14.6218 8.02993 14.7297C8.44582 14.8375 8.81219 15.0846 9.06797 15.4298C9.32375 15.775 9.45349 16.1974 9.43555 16.6267C9.41762 17.056 9.2531 17.4661 8.96942 17.7888C8.7509 18.0407 8.4675 18.2278 8.15005 18.3299C7.96083 18.3948 7.76209 18.4277 7.56205 18.427ZM7.56205 15.427C7.26368 15.427 6.97753 15.5456 6.76655 15.7565C6.55557 15.9675 6.43705 16.2537 6.43705 16.552C6.43705 16.8504 6.55557 17.1365 6.76655 17.3475C6.97753 17.5585 7.26368 17.677 7.56205 17.677C7.68071 17.6774 7.79859 17.6579 7.9108 17.6193C8.1016 17.559 8.27209 17.4473 8.40355 17.2964C8.54737 17.1344 8.64129 16.9343 8.67398 16.7201C8.70668 16.5059 8.67677 16.2869 8.58784 16.0894C8.49892 15.8918 8.35477 15.7242 8.17278 15.6067C7.99078 15.4892 7.77869 15.4268 7.56205 15.427ZM41.312 18.427C41.0455 18.4257 40.7822 18.368 40.5395 18.2578C40.2968 18.1477 40.08 17.9874 39.9035 17.7877C39.6214 17.4655 39.4581 17.0563 39.4409 16.6284C39.4237 16.2005 39.5536 15.7796 39.809 15.4358C40.0644 15.092 40.4298 14.8461 40.8444 14.7389C41.2591 14.6317 41.6979 14.6698 42.0879 14.8469C42.4778 15.0239 42.7954 15.3291 42.9877 15.7118C43.18 16.0945 43.2354 16.5315 43.1447 16.95C43.054 17.3686 42.8226 17.7434 42.4892 18.0122C42.1558 18.2809 41.7403 18.4273 41.312 18.427ZM41.312 15.427C41.0956 15.4268 40.8837 15.4891 40.7018 15.6065C40.5199 15.7238 40.3758 15.8912 40.2868 16.0885C40.1978 16.2858 40.1677 16.5047 40.2001 16.7187C40.2325 16.9327 40.326 17.1328 40.4694 17.2949C40.5755 17.4138 40.7053 17.5092 40.8504 17.575C40.9955 17.6408 41.1527 17.6755 41.312 17.677C41.6104 17.677 41.8966 17.5585 42.1075 17.3475C42.3185 17.1365 42.437 16.8504 42.437 16.552C42.437 16.2537 42.3185 15.9675 42.1075 15.7565C41.8966 15.5456 41.6104 15.427 41.312 15.427ZM24.437 15.427C23.9403 15.4265 23.4641 15.2287 23.1132 14.8771C22.7623 14.5255 22.5655 14.0489 22.566 13.5522C22.5665 13.0555 22.7643 12.5793 23.1159 12.2284C23.4675 11.8775 23.9441 11.6807 24.4408 11.6812C24.9375 11.6817 25.4137 11.8795 25.7646 12.231C26.1155 12.5826 26.3124 13.0592 26.3119 13.556C26.3114 14.0527 26.1136 14.5289 25.762 14.8798C25.4104 15.2307 24.9338 15.4275 24.437 15.427ZM24.437 12.427C24.1955 12.427 23.9604 12.5047 23.7664 12.6486C23.5724 12.7925 23.4298 12.995 23.3598 13.2262C23.2898 13.4574 23.2961 13.705 23.3776 13.9323C23.4592 14.1597 23.6117 14.3548 23.8127 14.4888C23.9986 14.6092 24.2155 14.6733 24.437 14.6733C24.6586 14.6733 24.8755 14.6092 25.0614 14.4888C25.2621 14.3546 25.4144 14.1595 25.4958 13.9323C25.5772 13.705 25.5833 13.4575 25.5134 13.2265C25.4434 12.9954 25.301 12.793 25.1072 12.6491C24.9134 12.5051 24.6785 12.4273 24.437 12.427ZM13.6292 22.267C13.5615 22.2668 13.495 22.2483 13.437 22.2134C13.3789 22.1785 13.3314 22.1286 13.2994 22.0689C13.2674 22.0092 13.2522 21.942 13.2553 21.8743C13.2585 21.8067 13.2798 21.7411 13.3172 21.6847L15.2484 18.7822C15.2749 18.7406 15.3093 18.7048 15.3497 18.6765C15.3901 18.6483 15.4356 18.6283 15.4837 18.6177C15.5318 18.6071 15.5815 18.606 15.63 18.6146C15.6785 18.6232 15.7248 18.6413 15.7663 18.6678C15.8078 18.6943 15.8437 18.7287 15.8719 18.769C15.9001 18.8094 15.9201 18.8549 15.9307 18.903C15.9414 18.9511 15.9424 19.0008 15.9338 19.0493C15.9252 19.0978 15.9072 19.1441 15.8807 19.1857L15.8728 19.1977L13.9415 22.1002C13.9073 22.1516 13.8609 22.1938 13.8064 22.2229C13.7519 22.252 13.691 22.2672 13.6292 22.267ZM18.8124 22.3645C18.7506 22.3647 18.6898 22.3495 18.6352 22.3204C18.5807 22.2913 18.5343 22.2491 18.5 22.1977L16.5013 19.1977C16.451 19.1149 16.4346 19.0159 16.4555 18.9214C16.4765 18.8268 16.5331 18.7441 16.6137 18.6903C16.6943 18.6366 16.7925 18.616 16.8878 18.633C16.9831 18.65 17.0682 18.7032 17.1253 18.7814L19.124 21.7814C19.1616 21.8379 19.1831 21.9035 19.1863 21.9712C19.1896 22.0389 19.1744 22.1063 19.1425 22.1661C19.1105 22.2259 19.0629 22.2759 19.0048 22.3109C18.9467 22.3458 18.8802 22.3643 18.8124 22.3645Z" fill="#7477FF" stroke="#7477FF"/>
<path id="Vector_5" d="M16.1875 19.5522C15.7897 19.5522 15.4081 19.3942 15.1268 19.1129C14.8455 18.8316 14.6875 18.4501 14.6875 18.0522C14.6875 17.6544 14.8455 17.2729 15.1268 16.9916C15.4081 16.7103 15.7897 16.5522 16.1875 16.5522C16.5853 16.5522 16.9669 16.7103 17.2482 16.9916C17.5295 17.2729 17.6875 17.6544 17.6875 18.0522C17.6875 18.4501 17.5295 18.8316 17.2482 19.1129C16.9669 19.3942 16.5853 19.5522 16.1875 19.5522ZM16.1875 17.3022C16.0876 17.3 15.9883 17.3177 15.8954 17.3544C15.8024 17.391 15.7178 17.4459 15.6463 17.5157C15.5749 17.5855 15.5181 17.6689 15.4793 17.761C15.4406 17.8531 15.4206 17.952 15.4205 18.0519C15.4205 18.1518 15.4405 18.2507 15.4792 18.3428C15.5179 18.4349 15.5746 18.5183 15.646 18.5881C15.7175 18.658 15.8021 18.7129 15.895 18.7496C15.9879 18.7863 16.0872 18.8041 16.1871 18.8019C16.3831 18.7975 16.5696 18.7167 16.7066 18.5766C16.8437 18.4365 16.9205 18.2483 16.9205 18.0522C16.9206 17.8562 16.8439 17.668 16.7069 17.5278C16.5699 17.3876 16.3835 17.3067 16.1875 17.3022ZM30.0621 22.3647C29.9943 22.3647 29.9277 22.3462 29.8695 22.3113C29.8113 22.2764 29.7637 22.2263 29.7317 22.1665C29.6997 22.1066 29.6846 22.0392 29.6879 21.9715C29.6912 21.9037 29.7128 21.8381 29.7505 21.7816L31.7493 18.7816C31.7766 18.7406 31.8117 18.7055 31.8526 18.6781C31.8936 18.6507 31.9395 18.6316 31.9878 18.622C32.0361 18.6123 32.0858 18.6123 32.1341 18.6219C32.1824 18.6314 32.2284 18.6504 32.2694 18.6777C32.3103 18.7051 32.3455 18.7402 32.3729 18.7811C32.4003 18.8221 32.4194 18.868 32.429 18.9163C32.4387 18.9646 32.4387 19.0143 32.4291 19.0626C32.4196 19.1109 32.4006 19.1569 32.3733 19.1979L30.3745 22.1979C30.3403 22.2493 30.2938 22.2915 30.2393 22.3206C30.1848 22.3497 30.1239 22.3649 30.0621 22.3647ZM35.2454 22.2672C35.1197 22.2672 35.0024 22.2046 34.9326 22.1L33.0014 19.1975C32.9463 19.1146 32.9263 19.0133 32.946 18.9158C32.9656 18.8182 33.0232 18.7325 33.106 18.6774C33.1888 18.6223 33.2902 18.6023 33.3877 18.622C33.4853 18.6416 33.571 18.6991 33.6261 18.782L35.5574 21.6845C35.595 21.741 35.6165 21.8066 35.6198 21.8743C35.623 21.9421 35.6078 22.0094 35.5758 22.0692C35.5438 22.129 35.4961 22.179 35.4379 22.2139C35.3798 22.2488 35.3132 22.2672 35.2454 22.2672Z" fill="#7477FF" stroke="#7477FF"/>
<path id="Vector_6" d="M32.6875 19.5522C32.2897 19.5522 31.9081 19.3942 31.6268 19.1129C31.3455 18.8316 31.1875 18.4501 31.1875 18.0522C31.1875 17.6544 31.3455 17.2729 31.6268 16.9916C31.9081 16.7103 32.2897 16.5522 32.6875 16.5522C33.0853 16.5522 33.4669 16.7103 33.7482 16.9916C34.0295 17.2729 34.1875 17.6544 34.1875 18.0522C34.1875 18.4501 34.0295 18.8316 33.7482 19.1129C33.4669 19.3942 33.0853 19.5522 32.6875 19.5522ZM32.6875 17.3022C32.5876 17.3 32.4883 17.3177 32.3954 17.3544C32.3024 17.391 32.2178 17.4459 32.1463 17.5157C32.0749 17.5855 32.0181 17.6689 31.9793 17.761C31.9406 17.8531 31.9206 17.952 31.9205 18.0519C31.9205 18.1518 31.9405 18.2507 31.9792 18.3428C32.0179 18.4349 32.0746 18.5183 32.146 18.5881C32.2175 18.658 32.3021 18.7129 32.395 18.7496C32.4879 18.7863 32.5872 18.8041 32.6871 18.8019C32.8831 18.7975 33.0696 18.7167 33.2066 18.5766C33.3437 18.4365 33.4205 18.2483 33.4205 18.0522C33.4206 17.8562 33.3439 17.668 33.2069 17.5278C33.0699 17.3876 32.8835 17.3067 32.6875 17.3022ZM36.4375 34.5522H12.4375C11.9402 34.5522 11.4633 34.3547 11.1117 34.0031C10.76 33.6514 10.5625 33.1745 10.5625 32.6772C10.5625 32.18 10.76 31.7031 11.1117 31.3514C11.4633 30.9998 11.9402 30.8022 12.4375 30.8022H36.4375C36.9348 30.8022 37.4117 30.9998 37.7633 31.3514C38.115 31.7031 38.3125 32.18 38.3125 32.6772C38.3125 33.1745 38.115 33.6514 37.7633 34.0031C37.4117 34.3547 36.9348 34.5522 36.4375 34.5522ZM12.4375 31.5522C12.1391 31.5522 11.853 31.6708 11.642 31.8818C11.431 32.0927 11.3125 32.3789 11.3125 32.6772C11.3125 32.9756 11.431 33.2618 11.642 33.4727C11.853 33.6837 12.1391 33.8022 12.4375 33.8022H36.4375C36.7359 33.8022 37.022 33.6837 37.233 33.4727C37.444 33.2618 37.5625 32.9756 37.5625 32.6772C37.5625 32.3789 37.444 32.0927 37.233 31.8818C37.022 31.6708 36.7359 31.5522 36.4375 31.5522H12.4375Z" fill="#7477FF" stroke="#7477FF"/>
</g>
</g>
</svg>
