<svg width="52" height="51" viewBox="0 0 52 51" fill="none" xmlns="http://www.w3.org/2000/svg">
<circle cx="25.9302" cy="25.3052" r="25.1196" fill="#F8F7FF"/>
<g clip-path="url(#clip0_80_2897)">
<path d="M40.8092 28.1752C40.4879 27.947 40.3415 27.5933 40.4073 27.2048C40.5085 26.6063 40.3652 26.1228 39.9691 25.7268C39.5728 25.3305 39.0892 25.1872 38.491 25.2887C38.1027 25.3548 37.749 25.208 37.5208 24.8867C37.1693 24.3919 36.726 24.1513 36.1658 24.1513C35.6055 24.1513 35.1623 24.3919 34.8108 24.8867C34.5826 25.2079 34.2292 25.3542 33.8404 25.2887C33.2418 25.1872 32.7583 25.3307 32.3624 25.7269C31.9661 26.1231 31.8228 26.6065 31.9243 27.2048C31.9901 27.5933 31.8436 27.947 31.5223 28.1752C31.1459 28.4425 30.917 28.7632 30.8288 29.1479C30.7193 29.1048 30.6088 29.0614 30.4966 29.0174C29.9536 28.8043 29.3925 28.584 28.8021 28.3403L27.0801 26.9749C27.03 26.9352 26.969 26.9118 26.9052 26.9079C26.8414 26.904 26.778 26.9197 26.7234 26.9529C26.6312 26.4934 26.5614 25.909 26.5151 25.2078C26.723 24.9915 26.9277 24.7719 27.1289 24.5493C27.7857 23.8238 28.2267 22.6917 28.5218 21.5592C28.7324 21.7216 28.9678 21.8463 29.2064 21.8463C29.2709 21.8463 29.3358 21.8372 29.4004 21.8172C29.9439 21.6492 30.065 20.892 30.2053 20.0152L30.2071 20.0034C30.2232 19.9028 30.2621 19.7562 30.3034 19.6011C30.443 19.0757 30.6169 18.4218 30.359 18.006C30.2341 17.8047 30.0531 17.6758 29.8355 17.633C29.6894 17.6042 29.5299 17.6149 29.3555 17.6648C30.3211 15.1499 30.4278 13.4635 29.6844 12.5229C28.8953 11.5242 27.4083 11.7383 26.7049 11.8569C26.253 11.1432 25.3092 10.6438 24.0689 10.4717C22.7683 10.2913 21.3267 10.4909 20.1137 11.0193C18.8014 11.5909 17.8483 12.4977 17.3573 13.6414C16.8593 14.8012 16.8456 16.1553 17.3136 17.6752C17.1259 17.6165 16.9551 17.6024 16.7994 17.633C16.5818 17.6758 16.4008 17.8047 16.2759 18.006C16.018 18.4218 16.1918 19.0757 16.3315 19.6011C16.3728 19.7562 16.4117 19.9027 16.4278 20.0034L16.4297 20.0152C16.5699 20.8919 16.691 21.6492 17.2345 21.8172C17.2991 21.8372 17.3639 21.8463 17.4285 21.8463C17.6671 21.8463 17.9026 21.7215 18.1132 21.5591C18.4083 22.6917 18.8493 23.8238 19.506 24.5493C19.7072 24.7719 19.9119 24.9914 20.1199 25.2077C20.0736 25.9092 20.0038 26.4935 19.9116 26.9529C19.857 26.9197 19.7935 26.904 19.7297 26.9079C19.666 26.9119 19.6049 26.9352 19.5548 26.9749L17.8329 28.3403C17.2429 28.5838 16.6823 28.8039 16.1397 29.0168C12.7596 30.3437 10.3174 31.3024 10.3174 34.5249V36.7822C10.3174 36.8651 10.3503 36.9446 10.4089 37.0032C10.4675 37.0618 10.547 37.0947 10.6299 37.0947H33.8041L33.6678 39.8752C33.6648 39.9359 33.6796 39.9961 33.7103 40.0485C33.7409 40.1009 33.7862 40.1432 33.8406 40.1703C33.8949 40.1974 33.956 40.208 34.0163 40.201C34.0766 40.1939 34.1335 40.1694 34.1801 40.1305L36.1658 38.4748L38.1515 40.1305C38.1981 40.1694 38.255 40.1939 38.3153 40.201C38.3756 40.208 38.4367 40.1973 38.491 40.1702C38.5453 40.1431 38.5906 40.1008 38.6213 40.0484C38.652 39.996 38.6667 39.9359 38.6638 39.8752L38.3639 33.7581C38.4065 33.7601 38.449 33.7647 38.4911 33.7717C39.0898 33.8728 39.5731 33.7296 39.9691 33.3335C40.3654 32.9373 40.5087 32.4538 40.4073 31.8554C40.3414 31.4669 40.4879 31.1133 40.8092 30.8852C41.3041 30.5337 41.5446 30.0904 41.5446 29.5302C41.5446 28.9699 41.3041 28.5267 40.8092 28.1752ZM20.534 33.1589C20.5594 33.1985 20.5934 33.2319 20.6335 33.2565C20.6736 33.2811 20.7188 33.2964 20.7656 33.3011C20.8124 33.3059 20.8597 33.3 20.9039 33.2839C20.9481 33.2678 20.9882 33.242 21.021 33.2083L21.5748 32.6394L22.0596 33.3752L21.6886 36.4697H19.4908L16.5923 29.5104C17.0193 29.3432 17.4452 29.1731 17.8699 29.0001L20.534 33.1588V33.1589ZM22.1333 26.8725C22.3334 26.9512 22.4947 26.9755 22.6371 26.9755C22.7555 26.9755 22.8609 26.9587 22.9647 26.9421C23.0702 26.9252 23.1793 26.9077 23.3174 26.906C23.4556 26.9077 23.5646 26.9252 23.6701 26.9421C23.8988 26.9787 24.1352 27.0165 24.5016 26.8725C24.8801 26.7237 25.4022 26.2966 25.9338 25.7888C25.9945 26.4518 26.0801 26.999 26.1894 27.4222L23.3175 29.9828L20.4456 27.4222C20.5549 26.9988 20.6404 26.4513 20.7012 25.7887C21.2329 26.2966 21.755 26.7238 22.1334 26.8726L22.1333 26.8725ZM23.3174 30.8495L24.6137 32.181L24.083 32.9863H22.5518L22.0211 32.181L23.3174 30.8495ZM22.6608 33.6113H23.9741L24.3168 36.4697H22.3181L22.6608 33.6113ZM24.5752 33.3752L25.0601 32.6395L25.6138 33.2083C25.6466 33.2421 25.6867 33.268 25.7309 33.2841C25.7752 33.3002 25.8225 33.3061 25.8693 33.3013C25.9161 33.2965 25.9613 33.2813 26.0014 33.2566C26.0415 33.232 26.0755 33.1986 26.1009 33.159L28.7649 29.0002C29.1896 29.1731 29.6155 29.3433 30.0426 29.5105L27.1441 36.4697H24.9463L24.5752 33.3752ZM26.8978 27.6279L28.2267 28.6817L25.7871 32.4902L23.7692 30.4175L26.8978 27.6279H26.8978ZM29.715 18.2463C29.7474 18.2527 29.7861 18.2682 29.8279 18.3355C29.9436 18.522 29.7848 19.1195 29.6994 19.4406C29.6539 19.6114 29.6111 19.7728 29.5899 19.9047L29.5881 19.9166C29.5296 20.2823 29.4744 20.6277 29.3935 20.8875C29.299 21.1913 29.2166 21.22 29.2158 21.2202C29.2143 21.2207 29.0716 21.248 28.6845 20.8705C28.8804 19.9536 28.9874 19.0925 29.0433 18.512C29.4531 18.2368 29.6473 18.2327 29.715 18.2463ZM20.3633 11.5923C21.2363 11.212 22.2118 11.0326 23.1189 11.0326C24.5779 11.0326 25.8603 11.4965 26.2561 12.3349C26.2849 12.3959 26.3327 12.446 26.3923 12.4776C26.452 12.5092 26.5202 12.5207 26.5869 12.5103C26.6309 12.5034 26.6815 12.4948 26.7376 12.4853C27.3443 12.382 28.6066 12.1671 29.194 12.9105C29.5978 13.4215 29.8309 14.5856 28.8493 17.2351C28.7134 16.8194 28.5103 16.3946 28.2367 16.0485C28.198 15.9996 28.1456 15.9634 28.0861 15.9445C28.0267 15.9256 27.963 15.9249 27.9031 15.9426C27.8433 15.9602 27.7901 15.9953 27.7505 16.0435C27.7108 16.0916 27.6864 16.1505 27.6804 16.2125C27.6784 16.2337 27.662 16.3595 27.5476 16.5504C27.3105 15.8229 26.8698 15.1223 26.2084 14.9905C26.1367 14.9763 26.0622 14.9876 25.9979 15.0226C25.9337 15.0575 25.8838 15.1139 25.8568 15.1819C25.5818 15.8764 24.7693 15.8604 23.3567 15.772C21.6688 15.6665 19.4055 15.5249 17.9508 17.6189C16.6779 13.6994 19.1814 12.1071 20.3632 11.5923H20.3633ZM17.4191 21.2202C17.4183 21.2199 17.3358 21.1913 17.2413 20.8875C17.1605 20.6277 17.1053 20.2822 17.0468 19.9165L17.0449 19.9048C17.0238 19.7729 16.9809 19.6115 16.9355 19.4406C16.8502 19.1195 16.6913 18.522 16.807 18.3355C16.8487 18.2684 16.8859 18.253 16.9199 18.2463C16.9873 18.2329 17.1817 18.2368 17.5917 18.5121C17.6476 19.0925 17.7546 19.9536 17.9504 20.8704C17.5631 21.2481 17.4203 21.2205 17.4191 21.2202ZM18.2078 18.3894C19.4446 16.1539 21.5007 16.2824 23.3177 16.3959C24.5639 16.4739 25.7471 16.5479 26.294 15.6953C26.6387 15.9294 26.9585 16.5494 27.0856 17.2744C27.0953 17.3298 27.1198 17.3817 27.1566 17.4244C27.1933 17.4671 27.2409 17.499 27.2944 17.5169C27.3478 17.5347 27.4051 17.5378 27.4601 17.5257C27.5151 17.5137 27.5659 17.487 27.607 17.4485C27.8066 17.2614 27.9494 17.0839 28.0514 16.9245C28.3058 17.4376 28.4187 18.0005 28.4323 18.3317C28.3391 19.3618 27.9428 22.7191 26.6655 24.13C25.5919 25.3162 24.6974 26.124 24.2728 26.2909C24.0653 26.3725 23.9663 26.3565 23.7689 26.325C23.6521 26.3063 23.5068 26.283 23.3208 26.281H23.3141C23.128 26.283 22.9827 26.3063 22.8659 26.325C22.6686 26.3567 22.5694 26.3726 22.362 26.2909C21.9376 26.1241 21.0431 25.3162 19.9693 24.13C18.7149 22.7444 18.3102 19.4816 18.2078 18.3894ZM19.7371 27.628L22.8657 30.4175L20.8478 32.4903L18.4081 28.6818L19.7371 27.628ZM10.9423 34.5249C10.9423 31.8286 12.8415 30.9866 16.0105 29.7392L18.8138 36.4697H10.9423V34.5249ZM27.8211 36.4697L30.6244 29.7391C30.6869 29.7637 30.7478 29.7878 30.8094 29.8122C30.8789 30.2418 31.1137 30.5949 31.5223 30.8852C31.8436 31.1133 31.99 31.467 31.9243 31.8555C31.823 32.454 31.9663 32.9375 32.3624 33.3335C32.7586 33.7298 33.2418 33.8732 33.8405 33.7716C33.8826 33.7646 33.9251 33.76 33.9677 33.758L33.8348 36.4697H27.8211ZM36.3659 37.828C36.3098 37.7811 36.239 37.7555 36.1658 37.7555C36.0927 37.7555 36.0219 37.7811 35.9657 37.828L34.327 39.1943L34.5845 33.941C34.6717 34.0061 34.7481 34.0846 34.8108 34.1735C35.1624 34.6684 35.6056 34.909 36.1658 34.909C36.7261 34.909 37.1693 34.6684 37.5208 34.1735C37.5836 34.0846 37.66 34.0061 37.7472 33.941L38.0047 39.1943L36.3659 37.828ZM40.4473 30.3756C39.9305 30.7427 39.6853 31.3349 39.7911 31.9599C39.859 32.3602 39.7801 32.6388 39.5273 32.8916C39.2746 33.1444 38.9959 33.2233 38.5954 33.1555C37.9709 33.0499 37.3783 33.2948 37.0113 33.8117C36.776 34.1428 36.5232 34.284 36.1658 34.284C35.8084 34.284 35.5556 34.1428 35.3204 33.8117C35.0096 33.3742 34.5376 33.1312 34.0207 33.1312C33.9271 33.1312 33.8319 33.1392 33.7361 33.1554C33.3359 33.2232 33.0571 33.1444 32.8044 32.8916C32.5517 32.639 32.4728 32.3603 32.5405 31.9598C32.6464 31.3349 32.4011 30.7427 31.8843 30.3756C31.5532 30.1404 31.4119 29.8875 31.4119 29.5302C31.4119 29.1728 31.5532 28.9198 31.8843 28.6847C32.4011 28.3177 32.6464 27.7255 32.5406 27.1004C32.4726 26.7002 32.5516 26.4215 32.8044 26.1687C33.0571 25.916 33.336 25.8373 33.7362 25.9049C34.3613 26.0106 34.9534 25.7655 35.3204 25.2487C35.5556 24.9175 35.8084 24.7763 36.1658 24.7763C36.5232 24.7763 36.7761 24.9175 37.0113 25.2487C37.3783 25.7654 37.9704 26.0106 38.5955 25.9049C38.9958 25.837 39.2744 25.9159 39.5273 26.1687C39.7799 26.4214 39.8589 26.7 39.7911 27.1005C39.6853 27.7254 39.9305 28.3177 40.4473 28.6847C40.7784 28.9199 40.9197 29.1728 40.9197 29.5302C40.9197 29.8875 40.7784 30.1405 40.4473 30.3756ZM36.1658 27.5692C35.0846 27.5692 34.2049 28.4489 34.2049 29.5301C34.2049 30.6113 35.0846 31.491 36.1658 31.491C37.2471 31.491 38.1268 30.6113 38.1268 29.5301C38.1268 28.4489 37.2471 27.5692 36.1658 27.5692ZM36.1658 30.866C35.4292 30.866 34.8299 30.2667 34.8299 29.5301C34.8299 28.7935 35.4292 28.1942 36.1658 28.1942C36.9024 28.1942 37.5018 28.7935 37.5018 29.5301C37.5018 30.2667 36.9024 30.866 36.1658 30.866Z" fill="#7477FF"/>
</g>
<defs>
<clipPath id="clip0_80_2897">
<rect width="32" height="32" fill="white" transform="translate(9.93066 9.30469)"/>
</clipPath>
</defs>
</svg>
