<svg width="24" height="25" viewBox="0 0 24 25" fill="none" xmlns="http://www.w3.org/2000/svg">
<path d="M12 12.21V11.71C11.7239 11.71 11.5 11.9338 11.5 12.21H12ZM12.0797 12.21H12.5797C12.5797 11.9338 12.3558 11.71 12.0797 11.71V12.21ZM12.0797 12.282V12.782C12.3558 12.782 12.5797 12.5582 12.5797 12.282H12.0797ZM12 12.282H11.5C11.5 12.5582 11.7239 12.782 12 12.782V12.282ZM20.5 12.21C20.5 16.9044 16.6944 20.71 12 20.71V21.71C17.2467 21.71 21.5 17.4567 21.5 12.21H20.5ZM12 20.71C7.30558 20.71 3.5 16.9044 3.5 12.21H2.5C2.5 17.4567 6.75329 21.71 12 21.71V20.71ZM3.5 12.21C3.5 7.51554 7.30558 3.70996 12 3.70996V2.70996C6.75329 2.70996 2.5 6.96326 2.5 12.21H3.5ZM12 3.70996C16.6944 3.70996 20.5 7.51554 20.5 12.21H21.5C21.5 6.96326 17.2467 2.70996 12 2.70996V3.70996ZM16 12.21C16 14.4191 14.2091 16.21 12 16.21V17.21C14.7614 17.21 17 14.9714 17 12.21H16ZM12 16.21C9.79086 16.21 8 14.4191 8 12.21H7C7 14.9714 9.23858 17.21 12 17.21V16.21ZM8 12.21C8 10.0008 9.79086 8.20996 12 8.20996V7.20996C9.23858 7.20996 7 9.44854 7 12.21H8ZM12 8.20996C14.2091 8.20996 16 10.0008 16 12.21H17C17 9.44854 14.7614 7.20996 12 7.20996V8.20996ZM12 12.71H12.0797V11.71H12V12.71ZM11.5797 12.21V12.282H12.5797V12.21H11.5797ZM12.0797 11.782H12V12.782H12.0797V11.782ZM12.5 12.282V12.21H11.5V12.282H12.5Z" fill="white"/>
</svg>
