<svg width="25" height="25" viewBox="0 0 25 25" fill="none" xmlns="http://www.w3.org/2000/svg">
<g clip-path="url(#clip0_329_4511)">
<path d="M21.7302 24.5H3.26977C1.73726 24.5 0.5 23.2487 0.5 21.7302V3.26977C0.5 1.73726 1.73726 0.5 3.26977 0.5H21.7302C23.2487 0.5 24.5 1.73726 24.5 3.26977V21.7302C24.5 23.2487 23.2487 24.5 21.7302 24.5ZM10.2856 20.8304H5.16784C4.92882 20.8304 4.74605 20.6336 4.74605 20.4086V4.59139C4.74605 4.35237 4.92882 4.1696 5.16784 4.1696H10.2856C10.5246 4.1696 10.7074 4.35237 10.7074 4.59139V20.4086C10.7074 20.6336 10.5246 20.8304 10.2856 20.8304ZM19.8322 12.9148H14.7004C14.4754 12.9148 14.2786 12.732 14.2786 12.493V4.59139C14.2786 4.35237 14.4754 4.1696 14.7004 4.1696H19.8322C20.0712 4.1696 20.254 4.35237 20.254 4.59139V12.493C20.254 12.732 20.0712 12.9148 19.8322 12.9148ZM15.1221 12.0712H19.4104V5.01318H15.1221V12.0712ZM5.58963 19.9868H9.8638V5.01318H5.58963V19.9868ZM3.26977 1.34359C2.20123 1.34359 1.34359 2.20123 1.34359 3.26977V21.7302C1.34359 22.7847 2.20123 23.6564 3.26977 23.6564H21.7302C22.7847 23.6564 23.6564 22.7847 23.6564 21.7302V3.26977C23.6564 2.20123 22.7847 1.34359 21.7302 1.34359H3.26977Z" fill="white"/>
</g>
<defs>
<clipPath id="clip0_329_4511">
<rect width="24" height="24" fill="white" transform="translate(0.5 0.5)"/>
</clipPath>
</defs>
</svg>
