<svg width="30" height="30" viewBox="0 0 30 30" fill="none" xmlns="http://www.w3.org/2000/svg">
<path d="M4.68071 20.8953C4.65194 20.8432 4.61319 20.7973 4.56667 20.7602C4.52015 20.723 4.46678 20.6955 4.4096 20.679C4.35242 20.6625 4.29255 20.6574 4.2334 20.664C4.17426 20.6707 4.11701 20.6889 4.06491 20.7177C4.01282 20.7465 3.9669 20.7852 3.92977 20.8317C3.89265 20.8782 3.86506 20.9316 3.84856 20.9888C3.81525 21.1043 3.82918 21.2283 3.88729 21.3335C8.60432 30.0335 21.3979 30.0312 26.1131 21.3335C26.1677 21.2286 26.1792 21.1065 26.145 20.9933C26.1109 20.8801 26.0339 20.7847 25.9304 20.7275C25.8269 20.6703 25.7051 20.6559 25.5911 20.6872C25.4771 20.7186 25.3798 20.7932 25.3201 20.8953C24.3026 22.7418 22.8084 24.2814 20.9932 25.3537C19.178 26.4259 17.1084 26.9916 15.0002 26.9916C12.8919 26.9916 10.8223 26.4259 9.00716 25.3537C7.19198 24.2814 5.69819 22.7418 4.68071 20.8953ZM23.9358 7.54307C24.0139 7.63441 24.1251 7.69097 24.2449 7.70032C24.3648 7.70967 24.4834 7.67103 24.5747 7.59292C24.666 7.5148 24.7226 7.40361 24.732 7.28379C24.7413 7.16397 24.7027 7.04535 24.6246 6.95401C19.7766 1.08559 10.2233 1.08604 5.3758 6.95492C5.30105 7.04666 5.26516 7.164 5.27579 7.28185C5.28642 7.39971 5.34273 7.50874 5.43269 7.58562C5.52266 7.6625 5.63912 7.70113 5.7572 7.69327C5.87527 7.6854 5.98558 7.63166 6.06455 7.54353C10.5659 2.0947 19.4349 2.09561 23.9358 7.54353V7.54307Z" fill="white"/>
<path d="M9.07506 7.19739C8.97855 7.26902 8.91446 7.37604 8.89687 7.49493C8.87928 7.61381 8.90963 7.73481 8.98126 7.83131C9.05288 7.92782 9.15991 7.99191 9.27879 8.0095C9.39768 8.02709 9.51868 7.99674 9.61518 7.92511C11.175 6.77499 13.0621 6.15449 15.0001 6.15449C16.9381 6.15449 18.8252 6.77499 20.3851 7.92511C20.4816 7.99674 20.6026 8.02709 20.7214 8.0095C20.8403 7.99191 20.9474 7.92782 21.019 7.83131C21.0906 7.73481 21.121 7.61381 21.1034 7.49493C21.0858 7.37604 21.0217 7.26902 20.9252 7.19739C19.209 5.93166 17.1326 5.24878 15.0001 5.24878C12.8677 5.24878 10.7912 5.93166 9.07506 7.19739ZM15.0001 25.1788C16.5035 25.1818 17.9878 24.8428 19.3408 24.1873C20.6937 23.5319 21.8798 22.5772 22.8093 21.3956C22.8839 21.3014 22.9181 21.1814 22.9042 21.062C22.8903 20.9426 22.8296 20.8336 22.7354 20.759C22.6412 20.6843 22.5212 20.6502 22.4018 20.6641C22.2824 20.6779 22.1734 20.7386 22.0988 20.8328C18.6233 25.3899 11.3765 25.3895 7.90146 20.8328C7.82683 20.7386 7.71783 20.6779 7.59844 20.6641C7.47904 20.6502 7.35904 20.6843 7.26482 20.759C7.1706 20.8336 7.10989 20.9426 7.09604 21.062C7.08219 21.1814 7.11633 21.3014 7.19096 21.3956C8.1204 22.5772 9.3065 23.5319 10.6595 24.1873C12.0124 24.8428 13.4968 25.1818 15.0001 25.1788Z" fill="white"/>
<path d="M2.55183 16.3735C2.39243 16.6763 2.31345 17.0149 2.32247 17.357C2.33149 17.6991 2.42821 18.0331 2.60334 18.3271C2.77848 18.621 3.02618 18.8651 3.32271 19.0359C3.61923 19.2067 3.95464 19.2985 4.29681 19.3025H9.33919C9.33746 19.6015 9.39467 19.898 9.50757 20.175C9.62046 20.4519 9.78682 20.7039 9.99714 20.9165C10.2075 21.1292 10.4576 21.2983 10.7333 21.4142C11.009 21.5301 11.3048 21.5906 11.6039 21.5921H18.3962C18.6957 21.5919 18.9921 21.5323 19.2684 21.4169C19.5447 21.3014 19.7954 21.1323 20.006 20.9194C20.2166 20.7066 20.3829 20.454 20.4953 20.1765C20.6077 19.899 20.664 19.6019 20.661 19.3025H25.7033C26.0455 19.2985 26.3809 19.2067 26.6775 19.0359C26.974 18.8651 27.2217 18.621 27.3968 18.3271C27.572 18.0331 27.6687 17.6991 27.6777 17.357C27.6867 17.0149 27.6077 16.6763 27.4483 16.3735C26.8289 15.2259 25.8032 14.351 24.5723 13.9202C24.9164 13.6552 25.195 13.3148 25.3869 12.9251C25.5787 12.5355 25.6786 12.107 25.6789 11.6727C25.5438 7.90727 20.1236 7.90727 19.989 11.6727C19.9894 12.1071 20.0894 12.5356 20.2814 12.9252C20.4734 13.3149 20.7522 13.6553 21.0964 13.9202C19.9857 14.3116 19.0399 15.0669 18.4126 16.0635C17.9424 15.7477 17.4306 15.4988 16.8919 15.324C17.322 15.0215 17.6731 14.62 17.9156 14.1534C18.158 13.6868 18.2848 13.1687 18.2852 12.6429C18.1312 8.2965 11.869 8.29514 11.7149 12.6429C11.7153 13.1687 11.8421 13.6868 12.0846 14.1534C12.3271 14.62 12.6782 15.0215 13.1083 15.324C12.5694 15.4988 12.0574 15.7476 11.5871 16.0635C10.9587 15.0681 10.0135 14.3133 8.90373 13.9207C9.24795 13.6557 9.52678 13.3153 9.71877 12.9257C9.91077 12.5361 10.0108 12.1076 10.0112 11.6732C9.88067 7.91134 4.45405 7.90545 4.32128 11.6732C4.32162 12.1074 4.42154 12.5358 4.61337 12.9253C4.8052 13.3149 5.08383 13.6552 5.42781 13.9202C4.19695 14.351 3.17131 15.2259 2.55183 16.3735ZM20.8952 11.6727C20.903 11.1637 21.1107 10.6781 21.4734 10.3209C21.8362 9.96368 22.3248 9.76345 22.8339 9.76345C23.343 9.76345 23.8317 9.96368 24.1944 10.3209C24.5572 10.6781 24.7648 11.1637 24.7726 11.6727C24.7648 12.1818 24.5572 12.6673 24.1944 13.0246C23.8317 13.3818 23.343 13.582 22.8339 13.582C22.3248 13.582 21.8362 13.3818 21.4734 13.0246C21.1107 12.6673 20.903 12.1818 20.8952 11.6727ZM22.8305 14.5179C23.6145 14.5172 24.3839 14.7295 25.0566 15.1319C25.7294 15.5344 26.2802 16.112 26.6504 16.803C26.7371 16.9675 26.7801 17.1516 26.7754 17.3375C26.7706 17.5234 26.7182 17.705 26.6232 17.8649C26.5281 18.0248 26.3937 18.1576 26.2326 18.2506C26.0716 18.3436 25.8893 18.3938 25.7033 18.3962H20.4598C20.1338 17.7254 19.6818 17.1236 19.1285 16.6236C19.5122 15.9837 20.0545 15.4536 20.7031 15.0847C21.3516 14.7158 22.0844 14.5206 22.8305 14.5179ZM12.6216 12.6429C12.7213 9.49909 17.2793 9.5 17.3785 12.6429C17.2788 15.7867 12.7209 15.7862 12.6216 12.6429ZM19.592 18.674C19.7019 18.8817 19.7564 19.1142 19.7506 19.349C19.7447 19.5839 19.6786 19.8134 19.5585 20.0154C19.4385 20.2173 19.2685 20.3851 19.065 20.5025C18.8615 20.6199 18.6312 20.683 18.3962 20.6858H11.6039C11.368 20.6854 11.1363 20.6238 10.9313 20.507C10.7264 20.3902 10.5553 20.2222 10.4347 20.0194C10.3142 19.8167 10.2483 19.5861 10.2436 19.3503C10.2388 19.1144 10.2954 18.8814 10.4077 18.674C12.3072 15.039 17.6935 15.0395 19.592 18.674ZM5.22753 11.6732C5.23531 11.1641 5.44299 10.6786 5.80572 10.3214C6.16845 9.96414 6.65713 9.76391 7.16623 9.76391C7.67533 9.76391 8.164 9.96414 8.52673 10.3214C8.88946 10.6786 9.09714 11.1641 9.10492 11.6732C9.09714 12.1822 8.88946 12.6678 8.52673 13.025C8.164 13.3822 7.67533 13.5825 7.16623 13.5825C6.65713 13.5825 6.16845 13.3822 5.80572 13.025C5.44299 12.6678 5.23531 12.1822 5.22753 11.6732ZM7.16238 14.5179C7.90964 14.52 8.64372 14.715 9.29355 15.0839C9.94337 15.4529 10.4869 15.9834 10.8717 16.624C10.3184 17.1239 9.86641 17.7256 9.54038 18.3962H4.29727C4.11129 18.3938 3.92905 18.3436 3.768 18.2506C3.60694 18.1576 3.47246 18.0248 3.37742 17.8649C3.28239 17.705 3.22998 17.5234 3.22522 17.3375C3.22046 17.1516 3.26351 16.9675 3.35023 16.803C3.71976 16.1131 4.2694 15.5363 4.94067 15.1339C5.61194 14.7315 6.37974 14.5186 7.16238 14.5179Z" fill="white"/>
</svg>
