<svg width="25" height="25" viewBox="0 0 25 25" fill="none" xmlns="http://www.w3.org/2000/svg">
<path d="M6.50029 10.3743C4.06603 11.1389 2.30029 13.413 2.30029 16.0996C2.30029 19.4133 4.98658 22.0996 8.30029 22.0996C9.97873 22.0996 11.4962 21.4104 12.5852 20.2996C13.6461 19.2174 14.3003 17.7349 14.3003 16.0996M18.5003 10.3743C20.9348 11.1387 22.7008 13.413 22.7008 16.0998C22.7008 19.4135 20.0145 22.0998 16.7008 22.0998C15.3498 22.0998 14.1032 21.6533 13.1003 20.8999M18.5003 8.8995C18.5003 12.2132 15.814 14.8995 12.5003 14.8995C9.18658 14.8995 6.50029 12.2132 6.50029 8.8995C6.50029 5.5858 9.18658 2.89951 12.5003 2.89951C15.814 2.89951 18.5003 5.5858 18.5003 8.8995Z" stroke="#F6F6F6" stroke-linecap="round" stroke-linejoin="round"/>
</svg>
