<svg width="25" height="25" viewBox="0 0 25 25" fill="none" xmlns="http://www.w3.org/2000/svg">
<path d="M16.2169 15.2243C16.4789 15.3117 16.762 15.1701 16.8493 14.9081C16.9367 14.6461 16.7951 14.363 16.5331 14.2757L16.2169 15.2243ZM13 13.625H12.5C12.5 13.8402 12.6377 14.0313 12.8419 14.0993L13 13.625ZM13.5 8.92087C13.5 8.64473 13.2761 8.42087 13 8.42087C12.7239 8.42087 12.5 8.64473 12.5 8.92087H13.5ZM16.5331 14.2757L13.1581 13.1507L12.8419 14.0993L16.2169 15.2243L16.5331 14.2757ZM13.5 13.625V8.92087H12.5V13.625H13.5ZM21.5 12.5C21.5 17.1944 17.6944 21 13 21V22C18.2467 22 22.5 17.7467 22.5 12.5H21.5ZM13 21C8.30558 21 4.5 17.1944 4.5 12.5H3.5C3.5 17.7467 7.75329 22 13 22V21ZM4.5 12.5C4.5 7.80558 8.30558 4 13 4V3C7.75329 3 3.5 7.25329 3.5 12.5H4.5ZM13 4C17.6944 4 21.5 7.80558 21.5 12.5H22.5C22.5 7.25329 18.2467 3 13 3V4Z" fill="#F6F6F6"/>
</svg>
