<svg width="25" height="25" viewBox="0 0 25 25" fill="none" xmlns="http://www.w3.org/2000/svg">
<path d="M15.5001 2.89999V6.49999C15.5001 7.16274 16.0373 7.69999 16.7001 7.69999H20.3001M18.5001 4.69999C17.966 4.22214 17.4118 3.65537 17.0619 3.28727C16.8291 3.04233 16.5074 2.89999 16.1695 2.89999H7.0998C5.77432 2.89999 4.69981 3.9745 4.6998 5.29998L4.69971 19.6999C4.6997 21.0254 5.77421 22.0999 7.0997 22.0999L17.8997 22.1C19.2252 22.1 20.2997 21.0255 20.2998 19.7L20.3001 6.97783C20.3001 6.67099 20.183 6.37603 19.9701 6.15513C19.5763 5.74664 18.9187 5.07451 18.5001 4.69999Z" stroke="#F6F6F6" stroke-linecap="round" stroke-linejoin="round"/>
</svg>
