<svg width="24" height="25" viewBox="0 0 24 25" fill="none" xmlns="http://www.w3.org/2000/svg">
<g id="users-profiles-03">
<path id="Icon" d="M2.3999 19.1738C3.49855 17.3413 5.90641 16.0872 9.66302 16.0872C13.4196 16.0872 15.8275 17.3413 16.9261 19.1738M17.6211 14.6976C19.6105 15.6923 20.6052 16.687 21.5999 18.6763M15.5521 7.09463C16.4882 7.59818 17.1245 8.58695 17.1245 9.72434C17.1245 10.8289 16.5244 11.7932 15.6325 12.3092M12.6471 9.7243C12.6471 11.3724 11.3111 12.7084 9.66302 12.7084C8.01496 12.7084 6.67895 11.3724 6.67895 9.7243C6.67895 8.07625 8.01496 6.74023 9.66302 6.74023C11.3111 6.74023 12.6471 8.07625 12.6471 9.7243Z" stroke="#444444" stroke-width="2" stroke-linecap="round"/>
</g>
</svg>
